<?xml version="1.0" standalone="no"?>
<!DOCTYPE svg PUBLIC "-//W3C//DTD SVG 1.1//EN" "http://www.w3.org/Graphics/SVG/1.1/DTD/svg11.dtd" >
<svg xmlns="http://www.w3.org/2000/svg">
<metadata>
This is a custom SVG webfont generated by Fontspring.
</metadata>
<defs>
<font id="UrbanoBoldExpanded" horiz-adv-x="1024" >
<font-face units-per-em="2048" ascent="1638" descent="-410" />
<missing-glyph horiz-adv-x="614" />
<glyph unicode=" "  horiz-adv-x="614" />
<glyph unicode="&#x09;" horiz-adv-x="614" />
<glyph unicode="&#xa0;" horiz-adv-x="614" />
<glyph unicode="!" horiz-adv-x="565" d="M158 1366h252l-37 -1001h-178zM170 0v244h225v-244h-225z" />
<glyph unicode="&#x22;" horiz-adv-x="833" d="M68 1366h297l-50 -549h-198zM469 1366h297l-49 -549h-199z" />
<glyph unicode="#" horiz-adv-x="1296" d="M143 446l19 127h227l29 203h-228l17 127h229l47 338h131l-49 -338h215l47 338h131l-47 -338h242l-18 -127h-242l-29 -203h242l-19 -127h-239l-53 -368h-129l51 368h-215l-51 -368h-132l52 368h-228zM520 573h215l27 203h-213z" />
<glyph unicode="$" horiz-adv-x="1529" d="M104 442h267q4 -119 80.5 -186.5t216.5 -75.5v406q-160 23 -240 46t-141 66q-150 104 -150 273q0 121 69.5 216t190.5 140q111 39 271 59v302h166v-302q532 -20 538 -448h-266q2 9 2 26q0 88 -70 148q-41 37 -84 54.5t-120 25.5v-375q193 -20 305 -49q285 -72 284 -362 q0 -115 -64.5 -209.5t-176.5 -141.5q-129 -57 -348 -75v-302h-166v302q-297 20 -428.5 127.5t-135.5 334.5zM410 1004q0 -74 59 -113t199 -57v356q-258 -34 -258 -186zM834 176q162 25 234.5 75t72.5 138q0 98 -94 141q-49 25 -213 41v-395z" />
<glyph unicode="%" horiz-adv-x="1927" d="M47 1018q0 180 95.5 272t277.5 92q176 0 269 -94t93 -270q0 -178 -94 -271.5t-272 -93.5q-180 0 -274.5 93.5t-94.5 271.5zM209 1022q0 -121 53 -187.5t152 -66.5q100 0 153.5 65.5t53.5 186.5q0 117 -54.5 183.5t-148.5 66.5q-100 0 -154.5 -64.5t-54.5 -183.5zM377 0 l1005 1366h166l-1005 -1366h-166zM1143 348q0 180 95 272.5t278 92.5q176 0 269 -94.5t93 -270.5q0 -178 -94 -271t-273 -93q-180 0 -274 93t-94 271zM1305 352q0 -121 53 -187.5t151 -66.5q100 0 153.5 65.5t53.5 186.5q0 117 -54 183.5t-149 66.5q-100 0 -154 -64.5 t-54 -183.5z" />
<glyph unicode="&#x26;" horiz-adv-x="1445" d="M96 367q0 309 432 346q-156 20 -231 67q-141 88 -141 250q0 186 153 279q100 57 287 57h473v-199h-258q-225 0 -301 -39q-74 -37 -74 -133q0 -88 64 -131q78 -53 282 -53h240v156h258v-156h125v-199h-125v-612h-629q-219 0 -327 43q-109 41 -168.5 126t-59.5 198z M383 401q0 -203 324 -202h315v413h-258q-381 0 -381 -211z" />
<glyph unicode="'" horiz-adv-x="442" d="M68 1366h305l-49 -549h-207z" />
<glyph unicode="(" horiz-adv-x="702" d="M123 506q0 283 137 594q66 147 143 266h183q-227 -465 -228 -860q0 -401 228 -862h-183q-280 426 -280 862z" />
<glyph unicode=")" horiz-adv-x="702" d="M117 -356q227 457 227 862q0 399 -227 860h182q78 -119 143 -266q137 -305 138 -594q0 -291 -138 -596q-66 -147 -143 -266h-182z" />
<glyph unicode="*" horiz-adv-x="1005" d="M137 1028l62 189l223 -93l-19 242h199l-18 -242l225 93l61 -189l-235 -57l156 -185l-160 -116l-127 204l-127 -204l-162 116l158 185z" />
<glyph unicode="+" d="M27 659v132h415v405h138v-405h417v-132h-417v-405h-138v405h-415z" />
<glyph unicode="," horiz-adv-x="493" d="M-20 -174l153 418h252l-225 -418h-180z" />
<glyph unicode="-" horiz-adv-x="522" d="M0 416v149h522v-149h-522z" />
<glyph unicode="." horiz-adv-x="493" d="M133 0v244h225v-244h-225z" />
<glyph unicode="/" horiz-adv-x="1355" d="M-14 -356l1104 1722h210l-1103 -1722h-211z" />
<glyph unicode="0" horiz-adv-x="1529" d="M88 682q0 354 173 536.5t513 182.5q324 0 496 -184.5t172 -532.5q0 -352 -172 -535.5t-504 -183.5q-334 0 -506 182.5t-172 534.5zM362 692q0 -283 117 -405q111 -121 285 -121q201 0 311 156q88 125 88 364q0 266 -116 395q-111 121 -277 121q-195 0 -301.5 -133 t-106.5 -377z" />
<glyph unicode="1" horiz-adv-x="1529" d="M334 915v238q291 102 399 213h248v-1366h-260v1128q-158 -135 -387 -213z" />
<glyph unicode="2" horiz-adv-x="1529" d="M162 0v256q463 283 522 322q209 135 290 225t81 186q0 94 -80 152.5t-213 58.5q-199 0 -262 -108q-27 -45 -29 -127h-283q2 160 60 245q133 190 514 191q283 0 424 -109q150 -115 149 -301q0 -133 -83 -248.5t-269 -238.5q-164 -111 -537 -295h922v-209h-1206z" />
<glyph unicode="3" horiz-adv-x="1529" d="M150 365q0 25 2 38h272q0 -86 35 -133q33 -47 113.5 -74.5t185.5 -27.5q154 0 250 63.5t96 163.5q0 55 -35 101q-45 53 -120 75.5t-220 26.5l-70 2v213l64 2q121 4 173 15.5t97 39.5q74 51 74 134q0 84 -81 137t-212 53q-150 0 -237 -74q-41 -39 -52 -110h-280 q2 139 63 211q150 180 504 180q264 0 419 -100.5t155 -272.5q0 -121 -73 -194.5t-235 -118.5v-15q133 -16 201 -61q143 -92 143 -266q0 -207 -198 -322q-152 -86 -440.5 -86t-441 102.5t-152.5 297.5z" />
<glyph unicode="4" horiz-adv-x="1529" d="M53 299v270l776 797h340v-858h308v-209h-308v-299h-260v299h-856zM303 508h606v653z" />
<glyph unicode="5" horiz-adv-x="1529" d="M158 367h301q10 -74 45 -113q80 -86 252 -86q154 0 247 73.5t93 196.5t-90.5 196t-243.5 73q-158 0 -250 -82q-29 -25 -53 -82h-271l35 823h1045v-209h-809l-29 -448q70 106 167 153t251 47q238 0 381 -127t143 -338q0 -199 -135 -329q-152 -150 -510 -150 q-334 0 -481 154q-82 88 -88 248z" />
<glyph unicode="6" horiz-adv-x="1529" d="M135 657q0 367 176 555.5t520.5 188.5t471.5 -184q53 -80 53 -203h-273q-10 63 -39 100q-70 86 -231 86q-270 0 -356 -223q-43 -111 -54 -315q68 123 140 165q129 76 313 76q193 0 342 -84q197 -115 197 -366q0 -215 -162 -353q-154 -135 -457 -135q-334 0 -493 178 q-148 166 -148 514zM440 442q0 -121 92.5 -197.5t237.5 -76.5q150 0 249 79t99 199q0 115 -89 185.5t-234 70.5q-162 0 -258.5 -70.5t-96.5 -189.5z" />
<glyph unicode="7" horiz-adv-x="1529" d="M172 1157v209h1186v-197l-635 -1169h-322l670 1157h-899z" />
<glyph unicode="8" horiz-adv-x="1529" d="M123 377q0 188 160 276q61 35 192 58v16q-143 25 -213 82q-102 90 -102 227q0 178 160.5 279.5t445.5 101.5q283 0 443.5 -101.5t160.5 -279.5q0 -162 -133 -250q-55 -35 -182 -59v-16q154 -25 231 -82q121 -92 121 -254q0 -223 -213 -334q-152 -76 -428 -76 q-326 0 -481 107q-162 112 -162 305zM403 391q0 -104 96.5 -164.5t264.5 -60.5t264 60.5t96 164.5q0 102 -96 163.5t-258 61.5q-172 0 -269.5 -59.5t-97.5 -165.5zM442 1014q0 -94 84 -144.5t240 -50.5t240 51.5t84 145.5q0 92 -88.5 149.5t-231.5 57.5q-150 0 -239 -56.5 t-89 -152.5z" />
<glyph unicode="9" horiz-adv-x="1529" d="M135 920q0 207 162 346q158 135 457 135q334 0 493 -178q147 -166 148 -514q0 -367 -176.5 -555.5t-520.5 -188.5q-348 0 -471 187q-53 80 -53 208h270q8 -70 39 -108q72 -88 240 -88q131 0 223 58.5t131 164.5q27 72 36 141.5t13 221.5q-72 -129 -139 -168 q-127 -76 -315 -76q-274 0 -434 149q-103 97 -103 265zM410 952q0 -109 90 -177t233 -68q158 0 255 67.5t97 175.5q0 115 -91 187.5t-234 72.5q-150 0 -250 -73.5t-100 -184.5z" />
<glyph unicode=":" horiz-adv-x="493" d="M133 0v244h225v-244h-225zM133 522v244h225v-244h-225z" />
<glyph unicode=";" horiz-adv-x="493" d="M-20 -174l153 418h252l-225 -418h-180zM133 522v244h225v-244h-225z" />
<glyph unicode="&#x3c;" d="M68 573v232l886 457v-275l-596 -299l594 -299l2 -270z" />
<glyph unicode="=" d="M27 510v129h970v-129h-970zM27 811v129h970v-129h-970z" />
<glyph unicode="&#x3e;" d="M70 119v272l596 299l-594 299l-2 273l886 -457v-232z" />
<glyph unicode="?" horiz-adv-x="1026" d="M68 1188v178q211 35 366 35q248 0 379 -88t131 -254q0 -113 -74.5 -202t-263.5 -200q-96 -57 -124.5 -100t-28.5 -127q0 -41 2 -65h-183q-2 43 -2 88q-2 37 -2 79q0 76 24.5 116t98.5 89q168 109 228.5 173.5t60.5 129.5q0 88 -79 136.5t-226 48.5q-133 0 -307 -37z M248 0v244h225v-244h-225z" />
<glyph unicode="@" horiz-adv-x="1390" d="M45 477q0 287 199.5 485.5t488.5 198.5q256 0 435.5 -165t179.5 -400q0 -238 -181 -379q-127 -100 -252 -100q-111 0 -143 96q-113 -96 -215 -96t-167.5 72.5t-65.5 187.5q0 174 121.5 317.5t267.5 143.5q129 0 190 -111l31 78h139l-162 -481q-18 -55 -18 -80 q0 -23 17.5 -38.5t43.5 -15.5q92 0 185 103q117 127 116 297q0 203 -151.5 344t-370.5 141q-250 0 -420 -172t-170 -426q0 -250 170 -422t416 -172q150 0 284 75t208 200h104q-78 -162 -244 -262.5t-356 -100.5q-283 0 -481.5 198.5t-198.5 483.5zM475 330q0 -63 30 -101.5 t77 -38.5q133 0 206 213l46 129q25 74 24 105q0 51 -30.5 86t-73.5 35q-94 0 -179 -119q-41 -61 -70.5 -151t-29.5 -158z" />
<glyph unicode="A" horiz-adv-x="1810" d="M25 0l692 1366h366l703 -1366h-309l-154 307h-872l-150 -307h-276zM555 518h662l-338 670z" />
<glyph unicode="B" horiz-adv-x="1550" d="M162 0v1366h700q172 0 255 -18.5t159 -73.5q51 -37 82 -101.5t31 -134.5q0 -119 -70 -198q-47 -55 -107.5 -82t-164.5 -39v-17q119 -8 187.5 -34.5t127.5 -85.5q88 -88 88 -222q0 -147 -100 -237q-78 -72 -178.5 -97.5t-303.5 -25.5h-706zM432 809h344q188 0 254 43 q74 45 74 141q0 102 -82 146q-63 33 -225 32h-365v-362zM432 199h356q166 0 236 20q139 43 139 184q0 209 -387 209h-344v-413z" />
<glyph unicode="C" horiz-adv-x="1626" d="M100 674q0 184 62.5 333.5t177.5 239.5q195 154 551 154q362 0 534 -174q104 -104 121 -291h-286q-6 76 -41 123q-49 63 -142.5 100t-204.5 37q-129 0 -234.5 -45t-162.5 -127q-92 -125 -92 -346q0 -248 125 -378t362 -130q115 0 206 35t136 96q37 47 48 131h286 q-10 -158 -96 -260q-176 -207 -567 -207q-403 0 -590 182q-193 189 -193 527z" />
<glyph unicode="D" horiz-adv-x="1710" d="M162 1366h635q315 0 503 -100q147 -78 229.5 -231.5t82.5 -348.5q0 -205 -84 -362.5t-234 -229.5q-188 -94 -536 -94h-596v1366zM432 209h340q285 0 422 112.5t137 344.5q0 221 -110 342q-76 80 -187.5 114.5t-296.5 34.5h-305v-948z" />
<glyph unicode="E" horiz-adv-x="1359" d="M162 0v1366h1061v-209h-791v-340h756v-209h-756v-399h830v-209h-1100z" />
<glyph unicode="F" horiz-adv-x="1320" d="M162 0v1366h1061v-209h-791v-356h756v-209h-756v-592h-270z" />
<glyph unicode="G" horiz-adv-x="1728" d="M96 686q0 211 105 381q203 334 731 334q401 0 581 -191q94 -100 103 -282h-285q-8 86 -49 133q-113 135 -356 135q-311 0 -445 -195q-96 -141 -96 -323q0 -233 149.5 -367.5t409.5 -134.5q158 0 402 57v289h-449v209h719v-651q-330 -115 -658 -115q-229 0 -415.5 65.5 t-286.5 182.5q-74 84 -117 212t-43 261z" />
<glyph unicode="H" horiz-adv-x="1712" d="M162 0v1366h270v-549h850v549h270v-1366h-270v608h-850v-608h-270z" />
<glyph unicode="I" horiz-adv-x="591" d="M162 0v1366h270v-1366h-270z" />
<glyph unicode="J" horiz-adv-x="1329" d="M23 399q0 29 2 52h282q-2 -10 -2 -27q0 -121 70.5 -186.5t204.5 -65.5q217 0 286 180q31 86 31 328v686h270v-680q0 -266 -41 -391q-49 -152 -197.5 -237t-363.5 -85q-254 0 -398 113.5t-144 312.5z" />
<glyph unicode="K" horiz-adv-x="1566" d="M162 0v1366h270v-1366h-270zM463 772l618 594h351l-627 -580l737 -786h-371z" />
<glyph unicode="L" horiz-adv-x="1241" d="M162 0v1366h270v-1157h785v-209h-1055z" />
<glyph unicode="M" horiz-adv-x="2220" d="M162 0v1366h456l490 -1092l489 1092h463v-1366h-270v1231l-541 -1223h-311l-541 1196v-1204h-235z" />
<glyph unicode="N" horiz-adv-x="1732" d="M162 0v1366h418l755 -1110v1110h236v-1366h-385l-789 1145v-1145h-235z" />
<glyph unicode="O" horiz-adv-x="1744" d="M100 684q0 180 59.5 328.5t168.5 234.5q193 154 565 154q367 0 560.5 -185.5t193.5 -535.5q0 -178 -59.5 -326.5t-164.5 -232.5q-193 -156 -551 -156q-356 0 -548 156q-106 86 -165 233.5t-59 329.5zM375 688q0 -252 125 -381q131 -135 374 -135q131 0 238 46t168 128 q92 121 92 338q0 246 -125 375q-59 61 -159.5 98t-204.5 37q-246 0 -377 -130t-131 -376z" />
<glyph unicode="P" horiz-adv-x="1468" d="M162 0v1366h592q319 0 444 -70q195 -109 195 -352q0 -133 -64.5 -232.5t-177.5 -140.5q-133 -49 -344 -49h-375v-522h-270zM432 731h334q133 0 199 23q61 23 98 74t37 114q0 59 -34 110.5t-89 73.5q-78 31 -215 31h-330v-426z" />
<glyph unicode="Q" horiz-adv-x="1832" d="M100 684q0 326 209 524q96 90 252 141.5t340 51.5q455 0 643 -299q106 -166 107 -387q0 -264 -156 -426q-57 -63 -184 -125l10 -25q96 41 190.5 55.5t255.5 14.5h82v-209q-166 6 -229 6q-186 0 -578 -35q-84 -6 -170 -6q-324 0 -512 146q-125 96 -192.5 244.5 t-67.5 328.5zM389 678q0 -272 166 -399q135 -106 322 -107q225 0 360 144.5t135 385.5q0 221 -127 355q-59 59 -155.5 97t-194.5 38q-236 0 -371 -138t-135 -376z" />
<glyph unicode="R" horiz-adv-x="1533" d="M162 0v1366h704q154 0 228.5 -10t142.5 -39q199 -90 199 -309q0 -297 -373 -338v-19q190 -4 258 -74.5t86 -273.5l29 -303h-287l-21 291q-12 145 -65 205q-33 37 -84 49t-162 12h-385v-557h-270zM432 766h367q119 0 176 11t104 46q68 51 68 146q0 188 -303 188h-412v-391 z" />
<glyph unicode="S" horiz-adv-x="1550" d="M100 420v35h269q8 -283 399 -283q184 0 287.5 56.5t103.5 154.5q0 82 -62.5 124t-209.5 58l-238 27q-211 25 -330 92q-84 47 -133 129t-49 176q0 96 50.5 180t142.5 140q152 92 452 92q319 0 468 -111.5t153 -355.5h-270q-6 113 -58 168q-90 100 -297 100 q-158 0 -255 -50t-97 -132t68 -123q39 -23 81.5 -33t182.5 -26l219 -27q246 -29 360.5 -124t114.5 -271q0 -217 -195 -342q-172 -109 -501 -109q-317 0 -486.5 117t-169.5 338z" />
<glyph unicode="T" horiz-adv-x="1492" d="M25 1157v209h1443v-209h-585v-1157h-271v1157h-587z" />
<glyph unicode="U" horiz-adv-x="1716" d="M162 750v616h270v-606q0 -223 29 -322q35 -121 142.5 -191.5t257 -70.5t256 70.5t140.5 191.5q29 98 29 322v606h270v-616q0 -354 -108 -519q-84 -127 -237.5 -196.5t-352.5 -69.5q-211 0 -369.5 78t-238.5 223q-88 156 -88 484z" />
<glyph unicode="V" horiz-adv-x="1662" d="M25 1366h305l516 -1147l518 1147h274l-649 -1366h-325z" />
<glyph unicode="W" horiz-adv-x="2574" d="M25 1366h303l397 -1118l389 1118h373l389 -1118l405 1118h269l-498 -1366h-369l-399 1118l-391 -1118h-358z" />
<glyph unicode="X" horiz-adv-x="1710" d="M25 0l641 713l-588 653h368l426 -475l428 475h324l-586 -653l648 -713h-377l-475 543l-486 -543h-323z" />
<glyph unicode="Y" horiz-adv-x="1656" d="M25 1366h348l465 -618l487 618h309l-682 -844v-522h-270v532z" />
<glyph unicode="Z" horiz-adv-x="1480" d="M86 0v283l932 874h-895v209h1233v-258l-965 -899h1004v-209h-1309z" />
<glyph unicode="[" horiz-adv-x="671" d="M150 -356v1722h411v-123h-188v-1476h188v-123h-411z" />
<glyph unicode="\" horiz-adv-x="1355" d="M55 1366h211l1104 -1722h-211z" />
<glyph unicode="]" horiz-adv-x="671" d="M109 -233h190v1476h-190v123h413v-1722h-413v123z" />
<glyph unicode="^" d="M39 727l321 645h306l321 -645h-246l-229 459l-227 -459h-246z" />
<glyph unicode="_" d="M0 -123h1024v-166h-1024v166z" />
<glyph unicode="`" d="M301 1470h256l166 -409h-180z" />
<glyph unicode="a" horiz-adv-x="1390" d="M115 270q0 176 176 257t565 81h117q-2 121 -66.5 175.5t-206.5 54.5q-162 0 -239 -66q-39 -33 -51 -100h-250q33 311 526 311q311 0 432 -119q57 -57 82 -149t25 -258v-457h-252v178q-57 -100 -150 -145q-129 -68 -293 -68q-188 0 -301.5 83t-113.5 222zM379 283 q0 -74 58.5 -116t160.5 -42q227 0 322 156q43 70 53 184q-236 0 -342 -12q-131 -14 -191.5 -54t-60.5 -116z" />
<glyph unicode="b" horiz-adv-x="1466" d="M166 0v1366h252v-578q70 88 143 130q121 66 281 65q240 0 381 -133t141 -358q0 -236 -149.5 -381.5t-393.5 -145.5q-205 0 -336 98q-39 29 -84 91v-154h-235zM403 467q0 -162 91.5 -250t259.5 -88q166 0 260 96.5t94 266.5q0 147 -92 236t-246 89q-172 0 -269.5 -93 t-97.5 -257z" />
<glyph unicode="c" horiz-adv-x="1345" d="M104 449q0 299 228 438q160 96 379 96q270 0 422 -129q88 -74 100 -225h-258q-10 84 -53 123q-76 72 -213 71q-162 0 -252 -96t-90 -270q0 -334 319 -334q133 0 202.5 47t96.5 154h258q-33 -358 -532 -359q-311 0 -455 119q-152 123 -152 365z" />
<glyph unicode="d" horiz-adv-x="1466" d="M104 492q0 225 141.5 358t381.5 133q186 0 313 -86q49 -33 111 -109v578h252v-1366h-236v154q-49 -70 -111 -109q-129 -80 -309 -80q-244 0 -393.5 145.5t-149.5 381.5zM360 489q0 -168 95.5 -264t259.5 -96q166 0 258 88t92 246q0 180 -104 268q-100 86 -250 86 q-164 0 -257.5 -87t-93.5 -241z" />
<glyph unicode="e" horiz-adv-x="1380" d="M104 463q0 242 163 381t444 139q170 0 297 -55.5t186 -157.5q76 -125 82 -356h-918q10 -154 92 -225.5t246 -71.5q252 0 295 172h258q-14 -152 -159.5 -238t-391.5 -86q-285 0 -428 111q-78 59 -122 161.5t-44 225.5zM367 567h651q-6 102 -45 156q-80 109 -268 108 q-182 0 -279 -108q-51 -60 -59 -156z" />
<glyph unicode="f" horiz-adv-x="872" d="M35 782v166h235v105q0 186 98.5 258.5t346.5 72.5q55 0 162 -6v-161q-80 8 -119 8q-133 0 -184.5 -50.5t-51.5 -179.5v-47h281v-166h-281v-782h-252v782h-235z" />
<glyph unicode="g" horiz-adv-x="1478" d="M104 477q0 225 154 365.5t399 140.5q166 0 293 -70q55 -31 111 -96v131h260v-690q0 -348 -84 -463q-137 -186 -594 -186q-319 0 -440 121q-55 55 -58 172h263q10 -76 72.5 -109t193.5 -33q211 0 299 85t88 292v72q-39 -59 -67.5 -87t-82.5 -54q-123 -63 -290 -64 q-233 0 -375 129t-142 344zM365 496q0 -158 104 -244q100 -84 236 -84q152 0 262 100q98 88 98 244q0 141 -93 228t-247 87q-166 0 -263 -89.5t-97 -241.5z" />
<glyph unicode="h" horiz-adv-x="1417" d="M166 1366h252v-623q33 63 57.5 94t65.5 60q119 86 286 86q123 0 225.5 -49t151.5 -133q55 -90 56 -207v-176v-418h-252v426q0 145 -13.5 213t-52.5 111q-63 70 -184 69q-244 0 -307 -221q-33 -113 -33 -330v-268h-252v1366z" />
<glyph unicode="i" horiz-adv-x="583" d="M166 0v948h252v-948h-252zM166 1153v213h252v-213h-252z" />
<glyph unicode="j" horiz-adv-x="581" d="M-100 -195q74 -6 102 -6q102 0 133 41t31 174v934h252v-928q0 -236 -73 -311.5t-302 -75.5q-78 0 -143 13v159zM166 1153v213h252v-213h-252z" />
<glyph unicode="k" horiz-adv-x="1306" d="M166 0v1366h252v-1366h-252zM440 539l428 409h338l-450 -399l540 -549h-335z" />
<glyph unicode="l" horiz-adv-x="581" d="M166 0v1366h252v-1366h-252z" />
<glyph unicode="m" horiz-adv-x="2168" d="M166 948h252v-180q59 96 121 137q111 78 260 78q176 0 301 -102q45 -37 80 -117q59 96 123 139q113 80 276 80q121 0 220 -47t151 -129q61 -96 61 -295v-512h-252v481q0 197 -59 267q-66 76 -195 75q-152 0 -223.5 -106.5t-71.5 -329.5v-387h-252v430q0 213 -36 285 q-59 106 -207 106q-92 0 -164 -48t-100 -130q-33 -98 -33 -293v-350h-252v948z" />
<glyph unicode="n" horiz-adv-x="1419" d="M166 0v948h252v-205q33 63 57.5 94t65.5 60q119 86 288 86q123 0 225.5 -49t151.5 -133q55 -90 56 -207v-176v-418h-252v426q0 145 -13.5 213t-52.5 111q-63 70 -186 69q-117 0 -197 -57t-110 -164q-33 -113 -33 -330v-268h-252z" />
<glyph unicode="o" horiz-adv-x="1478" d="M104 475q0 231 175.5 369.5t472.5 138.5q281 0 452.5 -141.5t171.5 -370.5q0 -233 -171 -369.5t-464 -136.5q-295 0 -466 137t-171 373zM360 479q0 -168 99.5 -261t275.5 -93t275.5 93t99.5 259q0 158 -99.5 252t-267.5 94q-180 0 -281.5 -91t-101.5 -253z" />
<glyph unicode="p" horiz-adv-x="1466" d="M166 -356v1304h235v-151q55 72 111 106q129 80 309 80q244 0 393.5 -144.5t149.5 -379.5q0 -229 -141.5 -361.5t-388.5 -132.5q-141 0 -238.5 42t-177.5 138v-501h-252zM403 483q0 -180 105 -268q98 -86 250 -86q164 0 257 87t93 243q0 168 -95 264t-259 96 q-168 0 -259.5 -88t-91.5 -248z" />
<glyph unicode="q" horiz-adv-x="1466" d="M104 459q0 236 149.5 380t393.5 144q205 0 336 -98q37 -27 84 -88v151h236v-1304h-252v501q-80 -96 -177.5 -138t-238.5 -42q-248 0 -389.5 132.5t-141.5 361.5zM360 455q0 -147 92.5 -236.5t245.5 -89.5q172 0 269.5 93t97.5 259q0 162 -91 250t-259 88 q-166 0 -260.5 -97t-94.5 -267z" />
<glyph unicode="r" horiz-adv-x="909" d="M166 948h252v-192q76 229 336 229q43 0 108 -14v-193q-59 12 -106 13q-160 0 -246 -82q-92 -86 -92 -371v-338h-252v948z" />
<glyph unicode="s" horiz-adv-x="1198" d="M90 307h256q6 -182 248 -182q113 0 179.5 35t66.5 92q0 43 -34 68.5t-116 39.5l-203 39q-176 35 -264 90q-100 68 -100 185q0 139 135 224t356 85q266 0 383 -123q63 -63 82 -203h-254q-6 68 -28 97q-49 63 -195 63q-96 0 -154.5 -28.5t-58.5 -77.5q0 -39 27 -54 q2 -2 13 -9t15.5 -9t17.5 -7t29.5 -9.5t44 -9.5t64.5 -11l135 -22q193 -33 283 -105t90 -188q0 -104 -66 -176q-133 -145 -446 -146q-492 0 -506 342z" />
<glyph unicode="t" horiz-adv-x="929" d="M35 782v166h270v201l254 78l-2 -279h336v-166h-336v-426q0 -82 5 -113.5t26 -54.5q31 -37 151 -36q51 0 113 12v-164q-80 -8 -199 -8q-211 0 -286 82q-39 41 -50.5 101.5t-11.5 219.5v387h-270z" />
<glyph unicode="u" horiz-adv-x="1419" d="M158 354v176v418h252v-426q0 -145 13 -212.5t52 -110.5q63 -70 187 -70q117 0 200.5 59.5t110.5 161.5q29 106 28 330v268h252v-948h-252v170q-94 -111 -187 -158t-224 -47q-123 0 -225.5 49t-151.5 133q-55 90 -55 207z" />
<glyph unicode="v" horiz-adv-x="1310" d="M25 948h280l354 -786l379 786h248l-473 -948h-321z" />
<glyph unicode="w" horiz-adv-x="2217" d="M25 948h290l328 -712l334 712h299l328 -712l338 712h251l-456 -948h-295l-332 705l-330 -705h-295z" />
<glyph unicode="x" horiz-adv-x="1314" d="M25 0l469 496l-428 452h346l262 -289l266 289h301l-424 -444l473 -504h-340l-307 332l-319 -332h-299z" />
<glyph unicode="y" horiz-adv-x="1312" d="M25 948h286l359 -680l374 680h244l-524 -948l-186 -356h-250l200 364z" />
<glyph unicode="z" horiz-adv-x="1120" d="M84 0v225l637 557h-610v166h899v-209l-652 -573h680v-166h-954z" />
<glyph unicode="{" d="M215 395v219q61 14 88 55.5t27 118.5v314q0 141 63 211q43 45 102.5 59t200.5 14h105v-251q-125 0 -162 -32t-37 -136v-226q0 -98 -25.5 -150t-91.5 -93q66 -39 91.5 -93.5t25.5 -152.5v-229q0 -109 37 -141t162 -32v-237q-29 -2 -105 -2q-152 0 -212 17.5t-103 72.5 q-51 70 -51 209v299q0 86 -26 129t-89 57z" />
<glyph unicode="|" d="M373 -342v1708h276v-1708h-276z" />
<glyph unicode="}" d="M223 -137q125 2 162 32.5t37 135.5v225q0 100 25.5 151.5t91.5 92.5q-66 39 -91.5 93t-25.5 155v227q0 109 -37 141.5t-162 32.5v237h105q152 0 212 -17t103 -73q51 -66 51 -209v-296q0 -88 25.5 -131.5t89.5 -57.5v-217q-61 -14 -88 -55t-27 -119v-315q0 -141 -63 -211 q-43 -45 -102.5 -59.5t-200.5 -14.5q-63 0 -105 2v250z" />
<glyph unicode="~" horiz-adv-x="1366" d="M190 1255q111 268 299 269q68 0 232 -72q121 -53 166 -53q86 0 155 131l136 -113q-57 -143 -131 -203.5t-187 -60.5q-41 0 -80 13.5t-147 62.5q-102 47 -154 47q-45 0 -78.5 -29.5t-74.5 -103.5z" />
<glyph unicode="&#xa1;" horiz-adv-x="565" d="M158 -418l37 1002h178l37 -1002h-252zM170 705v243h225v-243h-225z" />
<glyph unicode="&#xa2;" horiz-adv-x="1529" d="M197 676q0 145 63.5 262t175.5 180q94 55 260 80v309h172v-309q209 -12 332 -107.5t123 -242.5h-254q-10 76 -67.5 128t-133.5 54v-674q74 2 138.5 62.5t70.5 134.5h258q-10 -158 -133 -254t-334 -106v-310h-172v310q-186 16 -288 73q-96 55 -153.5 166t-57.5 244z M459 674q0 -178 104 -266q47 -39 133 -52v668q-78 -16 -123 -55q-114 -105 -114 -295z" />
<glyph unicode="&#xa3;" horiz-adv-x="1529" d="M141 623v208h197v150q0 166 92 258q166 162 453 162q135 0 248.5 -41t173.5 -111q63 -74 65 -229h-272q-6 70 -35 110q-61 82 -197 82q-164 0 -229 -102q-39 -61 -39 -203v-76h395v-208h-395v-414h791v-209h-1225v209h174v414h-197z" />
<glyph unicode="&#xa4;" horiz-adv-x="1449" d="M98 1178l144 143l209 -209q150 84 274 84q72 0 127 -16.5t143 -65.5l207 205l141 -141l-202 -203q90 -143 90 -281q0 -121 -82 -270l201 -201l-140 -143l-202 201q-135 -88 -272.5 -88t-293.5 88l-200 -201l-142 141l201 203q-82 129 -82 274q0 121 86 275zM461 696 q0 -109 77.5 -187.5t186.5 -78.5q111 0 188.5 79t77.5 187q0 111 -76.5 190t-185.5 79q-113 0 -190.5 -78t-77.5 -191z" />
<glyph unicode="&#xa5;" horiz-adv-x="1284" d="M12 1362h301l330 -610l326 614h305l-268 -459h231v-106h-291l-129 -217h377v-111h-412v-473h-282v473h-402v111h367l-127 217h-291v106h229z" />
<glyph unicode="&#xa6;" d="M373 313h276v-655h-276v655zM373 653v713h276v-713h-276z" />
<glyph unicode="&#xa7;" horiz-adv-x="1411" d="M150 508q0 84 60 142.5t212 121.5q-127 57 -178 121.5t-51 169.5q0 162 136 250t384 88q307 0 430 -119q70 -70 82 -188h-279q-20 80 -73.5 107.5t-180.5 27.5q-109 0 -168 -38t-59 -108q0 -49 30.5 -78.5t118.5 -68.5l471 -203q57 -27 115 -80q61 -59 62 -155 q0 -78 -43 -133.5t-166 -139.5q96 -66 138 -132t42 -154q0 -78 -40 -148t-108 -108q-131 -74 -366 -74q-315 0 -432 98q-47 41 -68.5 84t-30.5 119h269q23 -76 72 -102.5t167 -26.5q125 0 185 26q35 16 56 46t21 63q0 86 -137 147l-475 209q-196 86 -196 236zM449 573 q0 -76 77 -112l305 -144q29 -14 62 -14q53 0 91 34t38 81q0 37 -23.5 72.5t-60.5 50.5l-311 137q-37 14 -58 14q-49 0 -84.5 -36t-35.5 -83z" />
<glyph unicode="&#xa8;" d="M125 1165v201h252v-201h-252zM647 1165v201h252v-201h-252z" />
<glyph unicode="&#xa9;" horiz-adv-x="1581" d="M84 682q0 297 209 504t510 207q285 0 490.5 -210t205.5 -501q0 -293 -207 -501t-499.5 -208t-500.5 208t-208 501zM215 682q0 -242 170 -415t407.5 -173t406.5 173t169 417q0 240 -168 414t-399 174q-246 0 -416 -171t-170 -419zM406 686q0 184 109.5 300t285.5 116 q141 0 242.5 -83t109.5 -208h-127q-18 70 -77.5 108.5t-147.5 38.5q-104 0 -167 -73.5t-63 -198.5q0 -123 62.5 -196.5t167.5 -73.5q96 0 157.5 50t73.5 140h129q-12 -152 -111.5 -243t-254.5 -91q-174 0 -281.5 115t-107.5 299z" />
<glyph unicode="&#xaa;" horiz-adv-x="710" d="M49 602v119h625v-119h-625zM59 977q0 78 56 121q29 23 57.5 31t128.5 22q88 16 114.5 26.5t26.5 41.5q0 33 -29.5 53t-74.5 20q-98 0 -107 -88h-147q8 100 69.5 146.5t188.5 46.5q147 0 201 -70q33 -43 42 -75.5t9 -98.5l-2 -188q0 -92 49 -134h-178q-10 23 -14 54 q0 2 -5 14q-55 -53 -87.5 -68.5t-92.5 -15.5q-94 0 -149.5 43t-55.5 119zM199 985q0 -33 25.5 -53.5t68.5 -20.5q137 0 149 162l2 27q-27 -12 -45 -19q-8 -2 -32 -6l-60 -6q-108 -12 -108 -84z" />
<glyph unicode="&#xab;" horiz-adv-x="1263" d="M82 492l375 473h211l-332 -473l332 -474h-211zM584 492l372 473h211l-331 -473l331 -474h-211z" />
<glyph unicode="&#xac;" d="M68 348v242h886v-590h-268v348h-618z" />
<glyph unicode="&#xad;" horiz-adv-x="522" d="M0 416v149h522v-149h-522z" />
<glyph unicode="&#xae;" horiz-adv-x="1581" d="M84 682q0 297 209 504t510 207q285 0 490.5 -210t205.5 -501q0 -293 -207 -501t-499.5 -208t-500.5 208t-208 501zM215 682q0 -242 170 -415t407.5 -173t406.5 172t169 416q0 242 -168 416t-399 174q-246 0 -416 -171t-170 -419zM492 289v794h333q141 0 215 -56t74 -165 q0 -133 -137 -194q72 -27 96.5 -78t28.5 -178q2 -84 20 -123h-157q-14 29 -23 155q-8 115 -49 144q-41 31 -119 30h-119v-329h-163zM655 717h131q164 0 164 133q0 131 -151 131h-144v-264z" />
<glyph unicode="&#xaf;" d="M90 1180v172h844v-172h-844z" />
<glyph unicode="&#xb0;" d="M199 1057q0 131 92 223t223 92t222 -92t91 -225q0 -127 -92 -219.5t-221 -92.5q-131 0 -223 91.5t-92 222.5zM311 1057q0 -84 59.5 -144.5t143.5 -60.5q82 0 142.5 59.5t60.5 141.5q0 88 -59.5 149.5t-145.5 61.5q-82 0 -141.5 -61.5t-59.5 -145.5z" />
<glyph unicode="&#xb1;" d="M27 61v132h970v-132h-970zM27 674v131h415v405h138v-405h417v-131h-417v-393h-138v393h-415z" />
<glyph unicode="&#xb2;" horiz-adv-x="997" d="M109 541v166l333 190q131 80 180.5 131t49.5 104.5t-48.5 85t-127.5 31.5q-121 0 -158 -61q-16 -25 -16 -78h-197q2 109 41 160q84 117 332 116q182 0 272 -67q96 -68 96 -184q0 -119 -114.5 -217.5t-415.5 -235.5h530v-141h-757z" />
<glyph unicode="&#xb3;" horiz-adv-x="997" d="M102 766l2 33h189q0 -55 20 -82q43 -57 183 -58q92 0 150.5 35t58.5 90q0 113 -230 113h-51v141q20 2 49 2q121 6 164 33t43 70q0 47 -49 75.5t-127 28.5q-162 0 -174 -108h-193q0 90 41 137q98 111 326 110q170 0 269 -61t99 -168q0 -143 -176 -184q201 -43 201 -199 q0 -119 -108.5 -185.5t-303.5 -66.5q-188 0 -289 64q-94 59 -94 163q-1 8 0 17z" />
<glyph unicode="&#xb4;" d="M301 1061l166 409h256l-242 -409h-180z" />
<glyph unicode="&#xb5;" d="M72 -346v1329h233v-524q0 -141 43 -199q63 -86 159.5 -86t153 80t56.5 215v514h233v-983h-233v150q-66 -172 -213 -173q-125 0 -199 132v-455h-233z" />
<glyph unicode="&#xb6;" horiz-adv-x="1239" d="M96 1004q0 100 45 182t125 127q98 53 289 53h512v-106h-109v-1491h-135v1491h-190v-1491h-135v882q-188 0 -295 94.5t-107 258.5z" />
<glyph unicode="&#xb7;" horiz-adv-x="493" d="M133 371v243h225v-243h-225z" />
<glyph unicode="&#xb8;" d="M283 -362l243 241h215l-202 -241h-256z" />
<glyph unicode="&#xb9;" horiz-adv-x="997" d="M229 1079v160q193 61 256 127h170v-823h-182v657q-105 -78 -244 -121z" />
<glyph unicode="&#xba;" horiz-adv-x="710" d="M43 602v119h625v-119h-625zM61 1104q0 131 83 212t218 81q125 0 206 -83t81 -212q0 -125 -83 -207t-210 -82q-129 0 -212 82t-83 209zM219 1104q0 -86 36 -133t99.5 -47t100.5 48t37 132q0 86 -35 134t-99 48q-66 0 -102.5 -48t-36.5 -134z" />
<glyph unicode="&#xbb;" horiz-adv-x="1263" d="M96 18l332 474l-332 473h211l375 -473l-375 -474h-211zM598 18l332 474l-332 473h211l373 -473l-373 -474h-211z" />
<glyph unicode="&#xbc;" horiz-adv-x="2347" d="M229 1079v160q193 61 256 127h170v-823h-182v657q-105 -78 -244 -121zM588 0l1005 1366h166l-1005 -1366h-166zM1393 176v172l491 475h227v-506h195v-141h-195v-176h-182v176h-536zM1579 317h350v357z" />
<glyph unicode="&#xbd;" horiz-adv-x="2347" d="M229 1079v160q193 61 256 127h170v-823h-182v657q-105 -78 -244 -121zM588 0l1005 1366h166l-1005 -1366h-166zM1460 166q266 150 375 218.5t148.5 112.5t39.5 95q0 53 -48 85t-128 32q-121 0 -157 -62q-16 -25 -17 -78h-196q2 106 41 158q86 117 331 117 q174 0 271.5 -65.5t97.5 -184.5t-114.5 -216t-415.5 -237h530v-141h-758v166z" />
<glyph unicode="&#xbe;" horiz-adv-x="2347" d="M102 766l2 33h189q0 -55 20 -82q43 -57 183 -58q92 0 150.5 35t58.5 90q0 113 -230 113h-51v141q20 2 49 2q121 6 164 33t43 70q0 47 -49 75.5t-127 28.5q-162 0 -174 -108h-193q0 90 41 137q98 111 326 110q170 0 269 -61t99 -168q0 -143 -176 -184q201 -43 201 -199 q0 -119 -108.5 -185.5t-303.5 -66.5q-188 0 -289 64q-94 59 -94 163q-1 8 0 17zM588 0l1005 1366h168l-1005 -1366h-168zM1393 176v172l493 475h228v-506h192v-141h-192v-176h-183v176h-538zM1579 317h352v357z" />
<glyph unicode="&#xbf;" horiz-adv-x="1026" d="M82 -109q0 111 75.5 201t262.5 199q96 57 124.5 100t28.5 127q0 41 -2 66h183q4 -150 4 -168q0 -76 -24.5 -116t-98.5 -87q-168 -111 -228.5 -174.5t-60.5 -128.5q0 -88 79 -136t224 -48q135 0 309 36v-180q-217 -33 -364 -33q-248 0 -380 88t-132 254zM553 705v243h225 v-243h-225z" />
<glyph unicode="&#xc0;" horiz-adv-x="1810" d="M25 0l692 1366h366l703 -1366h-309l-154 307h-872l-150 -307h-276zM434 1757h283l278 -305h-198zM555 518h662l-338 670z" />
<glyph unicode="&#xc1;" horiz-adv-x="1810" d="M25 0l692 1366h366l703 -1366h-309l-154 307h-872l-150 -307h-276zM555 518h662l-338 670zM809 1452l278 305h283l-362 -305h-199z" />
<glyph unicode="&#xc2;" horiz-adv-x="1810" d="M25 0l692 1366h366l703 -1366h-309l-154 307h-872l-150 -307h-276zM532 1470l218 269h297l221 -269h-170l-195 179l-188 -179h-183zM555 518h662l-338 670z" />
<glyph unicode="&#xc3;" horiz-adv-x="1810" d="M25 0l692 1366h366l703 -1366h-309l-154 307h-872l-150 -307h-276zM555 518h662l-338 670zM571 1479q10 131 31 168q20 39 65.5 65.5t94.5 26.5q45 0 117 -29l137 -53q88 -35 110 -35q35 0 54.5 25.5t33.5 87.5h109v-31q0 -115 -47 -177.5t-135 -62.5q-39 0 -111 27 l-156 61q-70 29 -106 29q-63 0 -80 -74l-6 -28h-111z" />
<glyph unicode="&#xc4;" horiz-adv-x="1810" d="M25 0l692 1366h366l703 -1366h-309l-154 307h-872l-150 -307h-276zM477 1503v201h252v-201h-252zM555 518h662l-338 670zM1069 1503v201h252v-201h-252z" />
<glyph unicode="&#xc5;" horiz-adv-x="1810" d="M25 0l692 1366h366l703 -1366h-309l-154 307h-872l-150 -307h-276zM555 518h662l-338 670zM670 1650.5q0 98.5 69.5 167t169.5 68.5q94 0 164 -69.5t70 -165.5q0 -98 -69.5 -168t-166.5 -70q-98 0 -167.5 69.5t-69.5 168zM778 1650.5q0 -53.5 37 -91t90 -37.5t91 37.5 t38 91.5q0 51 -36.5 89t-88.5 38q-55 0 -93 -37t-38 -90.5z" />
<glyph unicode="&#xc6;" horiz-adv-x="2383" d="M10 0l983 1366h1250v-209h-791l78 -340h676v-209h-627l88 -399h617v-209h-846l-70 311h-829l-222 -311h-307zM682 520h639l-158 676z" />
<glyph unicode="&#xc7;" horiz-adv-x="1626" d="M100 674q0 184 62.5 333.5t177.5 239.5q195 154 551 154q362 0 534 -174q104 -104 121 -291h-286q-6 78 -43 123q-49 63 -141.5 100t-203.5 37q-129 0 -234.5 -45t-162.5 -127q-92 -127 -92 -348q0 -246 125 -376t362 -130q115 0 206 35t136 96q37 51 48 131h286 q-10 -158 -96 -260q-176 -207 -567 -207q-403 0 -590 182q-193 189 -193 527zM500 -362l245 241h213l-200 -241h-258z" />
<glyph unicode="&#xc8;" horiz-adv-x="1359" d="M162 0v1366h1061v-209h-791v-340h756v-209h-756v-399h830v-209h-1100zM317 1757h283l279 -305h-199z" />
<glyph unicode="&#xc9;" horiz-adv-x="1359" d="M162 0v1366h1061v-209h-791v-340h756v-209h-756v-399h830v-209h-1100zM537 1452l278 305h283l-363 -305h-198z" />
<glyph unicode="&#xca;" horiz-adv-x="1359" d="M162 0v1366h1061v-209h-791v-340h756v-209h-756v-399h830v-209h-1100zM334 1470l217 269h297l221 -269h-170l-194 179l-189 -179h-182z" />
<glyph unicode="&#xcb;" horiz-adv-x="1359" d="M162 0v1366h1061v-209h-791v-340h756v-209h-756v-399h830v-209h-1100zM272 1503v201h252v-201h-252zM864 1503v201h252v-201h-252z" />
<glyph unicode="&#xcc;" horiz-adv-x="591" d="M-121 1757h283l278 -305h-198zM160 0v1366h270v-1366h-270z" />
<glyph unicode="&#xcd;" horiz-adv-x="591" d="M162 0v1366h270v-1366h-270zM207 1452l278 305h283l-362 -305h-199z" />
<glyph unicode="&#xce;" horiz-adv-x="591" d="M-57 1470l217 269h297l221 -269h-170l-195 179l-188 -179h-182zM162 0v1366h270v-1366h-270z" />
<glyph unicode="&#xcf;" horiz-adv-x="591" d="M-37 1503v201h217v-201h-217zM160 0v1366h270v-1366h-270zM424 1503v201h217v-201h-217z" />
<glyph unicode="&#xd0;" horiz-adv-x="1710" d="M59 600v178h103v588h633q317 0 505 -100q147 -78 229.5 -231.5t82.5 -348.5q0 -205 -84 -361.5t-234 -230.5q-188 -94 -538 -94h-594v600h-103zM432 209h340q285 0 422 112.5t137 346.5q0 221 -112 340q-74 80 -185.5 114.5t-296.5 34.5h-305v-379h305v-178h-305v-391z " />
<glyph unicode="&#xd1;" horiz-adv-x="1732" d="M162 0v1366h418l755 -1110v1110h236v-1366h-385l-789 1145v-1145h-235zM553 1479q10 131 31 168q20 39 65 65.5t94 26.5q45 0 117 -29l137 -53q88 -35 111 -35q35 0 54.5 25.5t33.5 87.5h109v-31q0 -115 -47.5 -177.5t-135.5 -62.5q-39 0 -110 27l-156 61q-70 29 -106 29 q-66 0 -80 -74l-6 -28h-111z" />
<glyph unicode="&#xd2;" horiz-adv-x="1744" d="M100 684q0 180 59.5 328.5t168.5 234.5q193 154 565 154q367 0 560.5 -185.5t193.5 -535.5q0 -178 -59.5 -326.5t-164.5 -232.5q-193 -156 -551 -156q-356 0 -548 156q-106 86 -165 233.5t-59 329.5zM375 688q0 -252 125 -381q131 -135 374 -135q131 0 238 46t168 128 q92 121 92 338q0 246 -125 375q-59 61 -159.5 98t-204.5 37q-246 0 -377 -130t-131 -376zM457 1757h282l279 -305h-199z" />
<glyph unicode="&#xd3;" horiz-adv-x="1744" d="M100 684q0 180 59.5 328.5t168.5 234.5q193 154 565 154q367 0 560.5 -185.5t193.5 -535.5q0 -178 -59.5 -326.5t-164.5 -232.5q-193 -156 -551 -156q-356 0 -548 156q-106 86 -165 233.5t-59 329.5zM375 688q0 -252 125 -381q131 -135 374 -135q131 0 238 46t168 128 q92 121 92 338q0 246 -125 375q-59 61 -159.5 98t-204.5 37q-246 0 -377 -130t-131 -376zM805 1452l278 305h283l-362 -305h-199z" />
<glyph unicode="&#xd4;" horiz-adv-x="1744" d="M100 684q0 180 59.5 328.5t168.5 234.5q193 154 565 154q367 0 560.5 -185.5t193.5 -535.5q0 -178 -59.5 -326.5t-164.5 -232.5q-193 -156 -551 -156q-356 0 -548 156q-106 86 -165 233.5t-59 329.5zM375 688q0 -252 125 -381q131 -135 374 -135q131 0 238 46t168 128 q92 121 92 338q0 246 -125 375q-59 61 -159.5 98t-204.5 37q-246 0 -377 -130t-131 -376zM520 1470l217 269h297l221 -269h-170l-194 179l-189 -179h-182z" />
<glyph unicode="&#xd5;" horiz-adv-x="1744" d="M100 684q0 180 59.5 328.5t168.5 234.5q193 154 565 154q367 0 560.5 -185.5t193.5 -535.5q0 -178 -59.5 -326.5t-164.5 -232.5q-193 -156 -551 -156q-356 0 -548 156q-106 86 -165 233.5t-59 329.5zM375 688q0 -252 125 -381q131 -135 374 -135q131 0 238 46t168 128 q92 121 92 338q0 246 -125 375q-59 61 -159.5 98t-204.5 37q-246 0 -377 -130t-131 -376zM553 1479q10 131 31 168q20 39 65 65.5t94 26.5q45 0 117 -29l137 -53q88 -35 111 -35q35 0 54.5 25.5t33.5 87.5h109v-31q0 -115 -47.5 -177.5t-135.5 -62.5q-39 0 -110 27l-156 61 q-70 29 -106 29q-66 0 -80 -74l-6 -28h-111z" />
<glyph unicode="&#xd6;" horiz-adv-x="1744" d="M100 684q0 180 59.5 328.5t168.5 234.5q193 154 565 154q367 0 560.5 -185.5t193.5 -535.5q0 -178 -59.5 -326.5t-164.5 -232.5q-193 -156 -551 -156q-356 0 -548 156q-106 86 -165 233.5t-59 329.5zM375 688q0 -252 125 -381q131 -135 374 -135q131 0 238 46t168 128 q92 121 92 338q0 246 -125 375q-59 61 -159.5 98t-204.5 37q-246 0 -377 -130t-131 -376zM473 1503v201h252v-201h-252zM1065 1503v201h252v-201h-252z" />
<glyph unicode="&#xd7;" d="M104 416l314 311l-309 309l92 92l309 -309l311 314l97 -97l-314 -311l311 -311l-92 -92l-311 311l-311 -314z" />
<glyph unicode="&#xd8;" horiz-adv-x="1746" d="M100 18l172 183q-162 209 -161 481q0 170 57 313.5t160 227.5q98 84 246.5 131t310.5 47q227 0 430 -98l182 192l133 -123l-170 -174q188 -188 189 -514q0 -330 -204 -524.5t-552 -194.5q-317 0 -483 123l-183 -192zM393 672q0 -150 64 -279l690 729q-119 72 -266 72 q-215 0 -359 -137q-129 -125 -129 -385zM573 262q133 -88 306 -88q223 0 354 139.5t131 374.5q0 193 -86 320z" />
<glyph unicode="&#xd9;" horiz-adv-x="1716" d="M162 750v616h270v-606q0 -223 29 -322q35 -121 142.5 -191.5t257 -70.5t256 70.5t140.5 191.5q29 98 29 322v606h270v-616q0 -354 -108 -519q-84 -127 -237.5 -196.5t-352.5 -69.5q-211 0 -369.5 78t-238.5 223q-88 156 -88 484zM469 1757h283l278 -305h-199z" />
<glyph unicode="&#xda;" horiz-adv-x="1716" d="M162 750v616h270v-606q0 -223 29 -322q35 -121 142.5 -191.5t257 -70.5t256 70.5t140.5 191.5q29 98 29 322v606h270v-616q0 -354 -108 -519q-84 -127 -237.5 -196.5t-352.5 -69.5q-211 0 -369.5 78t-238.5 223q-88 156 -88 484zM791 1452l278 305h283l-363 -305h-198z " />
<glyph unicode="&#xdb;" horiz-adv-x="1716" d="M162 750v616h270v-606q0 -223 29 -322q35 -121 142.5 -191.5t257 -70.5t256 70.5t140.5 191.5q29 98 29 322v606h270v-616q0 -354 -108 -519q-84 -127 -237.5 -196.5t-352.5 -69.5q-211 0 -369.5 78t-238.5 223q-88 156 -88 484zM512 1470l217 269h297l221 -269h-170 l-194 179l-189 -179h-182z" />
<glyph unicode="&#xdc;" horiz-adv-x="1716" d="M162 750v616h270v-606q0 -223 29 -322q35 -121 142.5 -191.5t257 -70.5t256 70.5t140.5 191.5q29 98 29 322v606h270v-616q0 -354 -108 -519q-84 -127 -237.5 -196.5t-352.5 -69.5q-211 0 -369.5 78t-238.5 223q-88 156 -88 484zM444 1503v201h252v-201h-252zM1036 1503 v201h252v-201h-252z" />
<glyph unicode="&#xdd;" horiz-adv-x="1656" d="M25 1366h348l465 -618l487 618h309l-682 -844v-522h-270v532zM754 1452l278 305h283l-363 -305h-198z" />
<glyph unicode="&#xde;" horiz-adv-x="1468" d="M162 0v1366h270v-193h322q319 0 444 -69q195 -109 195 -352q0 -133 -64.5 -232.5t-177.5 -140.5q-133 -49 -344 -49h-375v-330h-270zM432 539h334q133 0 199 22q61 23 98 74t37 115q0 59 -34 110t-89 74q-78 31 -215 31h-330v-426z" />
<glyph unicode="&#xdf;" horiz-adv-x="1572" d="M166 688q0 188 18.5 291.5t65.5 179.5q150 242 551 242q229 0 365.5 -91t136.5 -245q0 -100 -52.5 -152.5t-189.5 -87.5q-125 -33 -125 -102q0 -35 23.5 -53.5t80.5 -32.5q164 -43 240 -74q190 -76 190 -268q0 -160 -119.5 -245t-344.5 -85q-213 0 -314.5 68.5 t-118.5 220.5h250q10 -139 189 -139q90 0 146 45t56 114q0 66 -47 99t-184 61q-164 35 -225 90q-82 70 -82 178q0 117 90 185q37 27 145 63q92 33 117 53.5t25 65.5q0 76 -77 122t-198 46q-209 0 -293 -145q-63 -113 -63 -422v-670h-256v688z" />
<glyph unicode="&#xe0;" horiz-adv-x="1390" d="M115 270q0 176 176 257t565 81h117q-2 121 -66.5 175.5t-206.5 54.5q-162 0 -239 -66q-39 -33 -51 -100h-250q33 311 526 311q311 0 432 -119q57 -57 82 -149t25 -258v-457h-252v178q-57 -100 -150 -145q-129 -68 -293 -68q-188 0 -301.5 83t-113.5 222zM379 283 q0 -74 58.5 -116t160.5 -42q227 0 322 156q43 70 53 184q-236 0 -342 -12q-131 -14 -191.5 -54t-60.5 -116zM416 1470h256l166 -409h-181z" />
<glyph unicode="&#xe1;" horiz-adv-x="1390" d="M115 270q0 176 176 257t565 81h117q-2 121 -66.5 175.5t-206.5 54.5q-162 0 -239 -66q-39 -33 -51 -100h-250q33 311 526 311q311 0 432 -119q57 -57 82 -149t25 -258v-457h-252v178q-57 -100 -150 -145q-129 -68 -293 -68q-188 0 -301.5 83t-113.5 222zM379 283 q0 -74 58.5 -116t160.5 -42q227 0 322 156q43 70 53 184q-236 0 -342 -12q-131 -14 -191.5 -54t-60.5 -116zM606 1061l166 409h256l-242 -409h-180z" />
<glyph unicode="&#xe2;" horiz-adv-x="1390" d="M115 270q0 176 176 257t565 81h117q-2 121 -66.5 175.5t-206.5 54.5q-162 0 -239 -66q-39 -33 -51 -100h-250q33 311 526 311q311 0 432 -119q57 -57 82 -149t25 -258v-457h-252v178q-57 -100 -150 -145q-129 -68 -293 -68q-188 0 -301.5 83t-113.5 222zM340 1079 l217 373h297l221 -373h-170l-194 283l-191 -283h-180zM379 283q0 -74 58.5 -116t160.5 -42q227 0 322 156q43 70 53 184q-236 0 -342 -12q-131 -14 -191.5 -54t-60.5 -116z" />
<glyph unicode="&#xe3;" horiz-adv-x="1390" d="M115 270q0 176 176 257t565 81h117q-2 121 -66.5 175.5t-206.5 54.5q-162 0 -239 -66q-39 -33 -51 -100h-250q33 311 526 311q311 0 432 -119q57 -57 82 -149t25 -258v-457h-252v178q-57 -100 -150 -145q-129 -68 -293 -68q-188 0 -301.5 83t-113.5 222zM346 1143 q10 119 31 166q20 41 64 66.5t96 25.5q43 0 116 -29l138 -53q86 -33 108 -33q35 0 54.5 24.5t35.5 86.5h109v-29q0 -115 -47 -177.5t-133 -62.5q-41 0 -113 27l-156 62q-76 29 -106 28q-63 0 -80 -74l-6 -28h-111zM379 283q0 -74 58.5 -116t160.5 -42q227 0 322 156 q43 70 53 184q-236 0 -342 -12q-131 -14 -191.5 -54t-60.5 -116z" />
<glyph unicode="&#xe4;" horiz-adv-x="1390" d="M115 270q0 176 176 257t565 81h117q-2 121 -66.5 175.5t-206.5 54.5q-162 0 -239 -66q-39 -33 -51 -100h-250q33 311 526 311q311 0 432 -119q57 -57 82 -149t25 -258v-457h-252v178q-57 -100 -150 -145q-129 -68 -293 -68q-188 0 -301.5 83t-113.5 222zM307 1165v201 h252v-201h-252zM379 283q0 -74 58.5 -116t160.5 -42q227 0 322 156q43 70 53 184q-236 0 -342 -12q-131 -14 -191.5 -54t-60.5 -116zM829 1165v201h252v-201h-252z" />
<glyph unicode="&#xe5;" horiz-adv-x="1390" d="M115 270q0 176 176 257t565 81h117q-2 121 -66.5 175.5t-206.5 54.5q-162 0 -239 -66q-39 -33 -51 -100h-250q33 311 526 311q311 0 432 -119q57 -57 82 -149t25 -258v-457h-252v178q-57 -100 -150 -145q-129 -68 -293 -68q-188 0 -301.5 83t-113.5 222zM379 283 q0 -74 58.5 -116t160.5 -42q227 0 322 156q43 70 53 184q-236 0 -342 -12q-131 -14 -191.5 -54t-60.5 -116zM477 1298.5q0 94.5 65.5 159t162.5 64.5q88 0 153.5 -66.5t65.5 -157.5q0 -94 -65.5 -159.5t-158 -65.5t-158 65.5t-65.5 160zM586 1298q0 -49 33.5 -82.5t81 -33.5 t81 33.5t33.5 82.5q0 47 -33.5 81t-79.5 34q-49 0 -82.5 -34t-33.5 -81z" />
<glyph unicode="&#xe6;" horiz-adv-x="2203" d="M117 285q0 82 47 148.5t125 92.5q94 33 233.5 46.5t460.5 17.5v20q0 92 -82 151.5t-209 59.5q-141 0 -215 -61q-35 -29 -53 -88h-256q14 141 150.5 224t355.5 83q199 0 330 -64q63 -31 122 -96q150 164 426 164q164 0 291 -58.5t187 -160.5q70 -115 69 -293v-27h-870 q8 -113 43 -178q82 -141 289 -141q221 0 258 158h264q-20 -141 -107 -205q-145 -111 -409 -111q-209 0 -348 90q-63 41 -132 131q-39 -61 -70.5 -91.5t-84.5 -59.5q-137 -72 -340 -72q-217 0 -346 87.5t-129 232.5zM381 276q0 -72 69.5 -115.5t184.5 -43.5q154 0 251 91 t97 236q-113 0 -211 -4q-229 -8 -289 -30q-102 -42 -102 -134zM1237 590h606q-2 104 -61 158q-84 80 -242 79q-135 0 -213 -61t-90 -176z" />
<glyph unicode="&#xe7;" horiz-adv-x="1345" d="M104 449q0 299 228 438q160 96 379 96q270 0 422 -129q92 -78 100 -225h-258q-10 84 -53 123q-76 72 -213 71q-162 0 -252 -96t-90 -270q0 -334 319 -334q133 0 202.5 47t96.5 154h258q-31 -358 -534 -359q-309 0 -453 119q-152 123 -152 365zM338 -362l244 241h215 l-203 -241h-256z" />
<glyph unicode="&#xe8;" horiz-adv-x="1380" d="M104 463q0 242 163 381t444 139q170 0 297 -55.5t186 -157.5q76 -125 82 -356h-918q10 -154 92 -225.5t246 -71.5q252 0 295 172h258q-14 -152 -159.5 -238t-391.5 -86q-285 0 -428 111q-78 59 -122 161.5t-44 225.5zM367 567h651q-6 102 -45 156q-80 109 -268 108 q-182 0 -279 -108q-51 -60 -59 -156zM397 1470h256l166 -409h-180z" />
<glyph unicode="&#xe9;" horiz-adv-x="1380" d="M104 463q0 242 163 381t444 139q170 0 297 -55.5t186 -157.5q76 -125 82 -356h-918q10 -154 92 -225.5t246 -71.5q252 0 295 172h258q-14 -152 -159.5 -238t-391.5 -86q-285 0 -428 111q-78 59 -122 161.5t-44 225.5zM367 567h651q-6 102 -45 156q-80 109 -268 108 q-182 0 -279 -108q-51 -60 -59 -156zM631 1061l166 409h256l-242 -409h-180z" />
<glyph unicode="&#xea;" horiz-adv-x="1380" d="M104 463q0 242 163 381t444 139q170 0 297 -55.5t186 -157.5q76 -125 82 -356h-918q10 -154 92 -225.5t246 -71.5q252 0 295 172h258q-14 -152 -159.5 -238t-391.5 -86q-285 0 -428 111q-78 59 -122 161.5t-44 225.5zM336 1079l217 373h297l221 -373h-170l-194 283 l-191 -283h-180zM367 567h651q-6 102 -45 156q-80 109 -268 108q-182 0 -279 -108q-51 -60 -59 -156z" />
<glyph unicode="&#xeb;" horiz-adv-x="1380" d="M104 463q0 242 163 381t444 139q170 0 297 -55.5t186 -157.5q76 -125 82 -356h-918q10 -154 92 -225.5t246 -71.5q252 0 295 172h258q-14 -152 -159.5 -238t-391.5 -86q-285 0 -428 111q-78 59 -122 161.5t-44 225.5zM324 1165v201h251v-201h-251zM367 567h651 q-6 102 -45 156q-80 109 -268 108q-182 0 -279 -108q-51 -60 -59 -156zM846 1165v201h252v-201h-252z" />
<glyph unicode="&#xec;" horiz-adv-x="583" d="M-23 1470h256l166 -409h-180zM164 0v948h252v-948h-252z" />
<glyph unicode="&#xed;" horiz-adv-x="583" d="M166 0v948h252v-948h-252zM205 1061l166 409h256l-242 -409h-180z" />
<glyph unicode="&#xee;" horiz-adv-x="581" d="M-61 1079l217 373h297l221 -373h-170l-195 283l-190 -283h-180zM166 0v948h252v-948h-252z" />
<glyph unicode="&#xef;" horiz-adv-x="583" d="M12 1165v201h217v-201h-217zM164 0v948h252v-948h-252zM367 1165v201h217v-201h-217z" />
<glyph unicode="&#xf0;" horiz-adv-x="1476" d="M104 469q0 231 171 371.5t450 140.5q96 0 201 -25q-63 88 -166 164t-219 121l-310 -197l-57 93l238 151q-129 31 -306 51l39 101q219 -16 390 -70l313 201l57 -90l-235 -152q319 -113 511.5 -344t192.5 -504q0 -242 -169 -379t-466 -137q-291 0 -463 137.5t-172 366.5z M360 479q0 -195 127 -282q102 -72 248 -72q172 0 271.5 94t99.5 256q0 160 -98.5 254t-266.5 94q-180 0 -280.5 -91t-100.5 -253z" />
<glyph unicode="&#xf1;" horiz-adv-x="1419" d="M166 0v948h252v-205q33 63 57.5 94t65.5 60q119 86 288 86q123 0 225.5 -49t151.5 -133q55 -90 56 -207v-176v-418h-252v426q0 145 -13.5 213t-52.5 111q-63 70 -186 69q-117 0 -197 -57t-110 -164q-33 -113 -33 -330v-268h-252zM410 1143q10 119 30 166q20 41 64.5 66.5 t95.5 25.5q43 0 117 -29l137 -53q86 -33 109 -33q35 0 54 24.5t36 86.5h108v-29q0 -115 -47 -177.5t-133 -62.5q-41 0 -113 27l-155 62q-76 29 -107 28q-66 0 -80 -74l-6 -28h-110z" />
<glyph unicode="&#xf2;" horiz-adv-x="1478" d="M104 475q0 231 175.5 369.5t472.5 138.5q281 0 452.5 -141.5t171.5 -370.5q0 -233 -171 -369.5t-464 -136.5q-295 0 -466 137t-171 373zM360 479q0 -168 99.5 -261t275.5 -93t275.5 93t99.5 259q0 158 -99.5 252t-267.5 94q-180 0 -281.5 -91t-101.5 -253zM440 1470h256 l166 -409h-180z" />
<glyph unicode="&#xf3;" horiz-adv-x="1478" d="M104 475q0 231 175.5 369.5t472.5 138.5q281 0 452.5 -141.5t171.5 -370.5q0 -233 -171 -369.5t-464 -136.5q-295 0 -466 137t-171 373zM360 479q0 -168 99.5 -261t275.5 -93t275.5 93t99.5 259q0 158 -99.5 252t-267.5 94q-180 0 -281.5 -91t-101.5 -253zM659 1061 l166 409h256l-241 -409h-181z" />
<glyph unicode="&#xf4;" horiz-adv-x="1478" d="M104 475q0 231 175.5 369.5t472.5 138.5q281 0 452.5 -141.5t171.5 -370.5q0 -233 -171 -369.5t-464 -136.5q-295 0 -466 137t-171 373zM360 479q0 -168 99.5 -261t275.5 -93t275.5 93t99.5 259q0 158 -99.5 252t-267.5 94q-180 0 -281.5 -91t-101.5 -253zM379 1079 l217 373h297l221 -373h-170l-194 283l-191 -283h-180z" />
<glyph unicode="&#xf5;" horiz-adv-x="1478" d="M104 475q0 231 175.5 369.5t472.5 138.5q281 0 452.5 -141.5t171.5 -370.5q0 -233 -171 -369.5t-464 -136.5q-295 0 -466 137t-171 373zM360 479q0 -168 99.5 -261t275.5 -93t275.5 93t99.5 259q0 158 -99.5 252t-267.5 94q-180 0 -281.5 -91t-101.5 -253zM446 1143 q10 119 31 166q20 41 64.5 66.5t95.5 25.5q43 0 117 -29l137 -53q86 -33 108 -33q35 0 54.5 24.5t36.5 86.5h108v-29q0 -115 -47 -177.5t-133 -62.5q-41 0 -113 27l-155 62q-76 29 -107 28q-66 0 -80 -74l-6 -28h-111z" />
<glyph unicode="&#xf6;" horiz-adv-x="1478" d="M104 475q0 231 175.5 369.5t472.5 138.5q281 0 452.5 -141.5t171.5 -370.5q0 -233 -171 -369.5t-464 -136.5q-295 0 -466 137t-171 373zM360 479q0 -168 99.5 -261t275.5 -93t275.5 93t99.5 259q0 158 -99.5 252t-267.5 94q-180 0 -281.5 -91t-101.5 -253zM360 1165v201 h252v-201h-252zM883 1165v201h252v-201h-252z" />
<glyph unicode="&#xf7;" d="M27 659v132h970v-132h-970zM406 365q0 45 31.5 75.5t76.5 30.5q43 0 73.5 -31.5t30.5 -74.5t-31.5 -75t-74.5 -32t-74.5 32t-31.5 75zM406 1085q0 45 31.5 76t76.5 31q43 0 73.5 -32t30.5 -75t-30.5 -74.5t-75.5 -31.5q-43 0 -74.5 31.5t-31.5 74.5z" />
<glyph unicode="&#xf8;" horiz-adv-x="1478" d="M104 463q0 246 172.5 383t479.5 137q170 0 327 -63l162 159l103 -110l-131 -127q160 -131 159.5 -366.5t-169.5 -373t-457 -137.5q-219 0 -373 68l-164 -158l-104 102l141 136q-146 151 -146 350zM369 473q0 -100 49 -197l522 506q-92 43 -197 43q-174 0 -274 -94 t-100 -258zM524 176q82 -53 209 -53q184 0 282.5 91t98.5 261q0 131 -61 211z" />
<glyph unicode="&#xf9;" horiz-adv-x="1419" d="M158 354v176v418h252v-426q0 -145 13 -212.5t52 -110.5q63 -70 187 -70q117 0 200.5 59.5t110.5 161.5q29 106 28 330v268h252v-948h-252v170q-94 -111 -187 -158t-224 -47q-123 0 -225.5 49t-151.5 133q-55 90 -55 207zM410 1470h256l165 -409h-180z" />
<glyph unicode="&#xfa;" horiz-adv-x="1419" d="M158 354v176v418h252v-426q0 -145 13 -212.5t52 -110.5q63 -70 187 -70q117 0 200.5 59.5t110.5 161.5q29 106 28 330v268h252v-948h-252v170q-94 -111 -187 -158t-224 -47q-123 0 -225.5 49t-151.5 133q-55 90 -55 207zM627 1061l166 409h256l-242 -409h-180z" />
<glyph unicode="&#xfb;" horiz-adv-x="1419" d="M158 354v176v418h252v-426q0 -145 13 -212.5t52 -110.5q63 -70 187 -70q117 0 200.5 59.5t110.5 161.5q29 106 28 330v268h252v-948h-252v170q-94 -111 -187 -158t-224 -47q-123 0 -225.5 49t-151.5 133q-55 90 -55 207zM354 1079l217 373h297l222 -373h-170l-195 283 l-190 -283h-181z" />
<glyph unicode="&#xfc;" horiz-adv-x="1419" d="M158 354v176v418h252v-426q0 -145 13 -212.5t52 -110.5q63 -70 187 -70q117 0 200.5 59.5t110.5 161.5q29 106 28 330v268h252v-948h-252v170q-94 -111 -187 -158t-224 -47q-123 0 -225.5 49t-151.5 133q-55 90 -55 207zM336 1165v201h252v-201h-252zM858 1165v201h252 v-201h-252z" />
<glyph unicode="&#xfd;" horiz-adv-x="1312" d="M25 948h286l359 -680l374 680h244l-524 -948l-186 -356h-250l200 364zM602 1061l166 409h256l-242 -409h-180z" />
<glyph unicode="&#xfe;" horiz-adv-x="1466" d="M166 -356v1722h252v-383q0 -98 -17 -186q55 72 111 106q129 80 309 80q244 0 393.5 -144.5t149.5 -379.5q0 -229 -141.5 -361.5t-388.5 -132.5q-141 0 -238.5 42t-177.5 138v-501h-252zM403 483q0 -176 107 -268q98 -86 248 -86q164 0 257 87t93 243q0 168 -95 264 t-259 96q-166 0 -258.5 -88t-92.5 -248z" />
<glyph unicode="&#xff;" horiz-adv-x="1312" d="M25 948h286l359 -680l374 680h244l-524 -948l-186 -356h-250l200 364zM283 1165v201h252v-201h-252zM805 1165v201h252v-201h-252z" />
<glyph unicode="&#x152;" horiz-adv-x="2449" d="M100 682q0 137 56.5 267t156.5 222q215 203 609 203q98 0 323 -6q59 -2 178 -2h883v-209h-723v-340h682v-209h-682v-399h766v-209h-911q-119 0 -193 -2q-215 -6 -301 -6q-373 0 -571 145q-125 90 -199 238.5t-74 306.5zM401 678q0 -115 51.5 -216.5t143.5 -166.5 q145 -104 418 -105q135 0 299 21v952q-182 8 -293 8q-291 0 -453 -135q-166 -137 -166 -358z" />
<glyph unicode="&#x153;" horiz-adv-x="2211" d="M102 440q0 244 161 392.5t427 148.5q188 0 328 -76q61 -33 129 -110q92 102 190.5 145t245.5 43q256 0 390 -130t134 -382v-27h-839q6 -154 61 -221q78 -94 246 -94q154 0 221 74q27 29 35 84h256q-16 -109 -64 -170q-115 -147 -413 -148q-229 0 -359 82q-47 31 -104 88 q-168 -174 -475 -174q-266 0 -418 126t-152 349zM371 475q0 -160 88 -252t241 -92q152 0 243 93t91 249q0 154 -91 249t-236 95q-154 0 -245 -93t-91 -249zM1274 590h579q-8 92 -41 137q-70 102 -239 102q-182 0 -260 -110q-31 -47 -39 -129z" />
<glyph unicode="&#x178;" horiz-adv-x="1656" d="M25 1366h348l465 -618l487 618h309l-682 -844v-522h-270v532zM420 1503v201h252v-201h-252zM1012 1503v201h252v-201h-252z" />
<glyph unicode="&#x2c6;" d="M145 1079l217 373h297l222 -373h-170l-195 283l-190 -283h-181z" />
<glyph unicode="&#x2dc;" d="M137 1143q10 119 31 166q20 41 64 66.5t96 25.5q43 0 116 -29l138 -53q86 -33 108 -33q35 0 54.5 24.5t35.5 86.5h109v-29q0 -115 -47 -177.5t-133 -62.5q-41 0 -113 27l-156 62q-76 29 -106 28q-63 0 -80 -74l-6 -28h-111z" />
<glyph unicode="&#x2013;" horiz-adv-x="1316" d="M137 416v149h1045v-149h-1045z" />
<glyph unicode="&#x2014;" horiz-adv-x="1738" d="M0 416v149h1739v-149h-1739z" />
<glyph unicode="&#x2018;" horiz-adv-x="610" d="M96 948l226 418h180l-154 -418h-252z" />
<glyph unicode="&#x2019;" horiz-adv-x="610" d="M109 948l153 418h252l-225 -418h-180z" />
<glyph unicode="&#x201a;" horiz-adv-x="493" d="M-20 -174l153 418h252l-225 -418h-180z" />
<glyph unicode="&#x201c;" horiz-adv-x="1015" d="M96 948l226 418h180l-154 -418h-252zM502 948l225 418h180l-153 -418h-252z" />
<glyph unicode="&#x201d;" horiz-adv-x="1015" d="M109 948l153 418h252l-225 -418h-180zM514 948l154 418h252l-226 -418h-180z" />
<glyph unicode="&#x201e;" horiz-adv-x="1015" d="M109 -174l153 418h252l-225 -418h-180zM514 -174l154 418h252l-226 -418h-180z" />
<glyph unicode="&#x2022;" horiz-adv-x="1366" d="M401 692q0 119 84 202t205 83q113 0 196 -84t83 -199q0 -119 -83 -201.5t-200 -82.5t-201 82.5t-84 199.5z" />
<glyph unicode="&#x2026;" horiz-adv-x="1480" d="M133 0v244h225v-244h-225zM627 0v244h225v-244h-225zM1122 0v244h226v-244h-226z" />
<glyph unicode="&#x2039;" horiz-adv-x="761" d="M82 492l375 473h211l-332 -473l332 -474h-211z" />
<glyph unicode="&#x203a;" horiz-adv-x="761" d="M96 18l332 474l-332 473h211l375 -473l-375 -474h-211z" />
<glyph unicode="&#x20ac;" horiz-adv-x="1845" d="M88 731l86 172h164q27 94 65 168q178 330 699 330q360 0 534 -174q55 -57 83 -123t38 -168h-287q-8 78 -43 123q-47 63 -141 100t-209 37q-154 0 -271.5 -67.5t-164.5 -184.5q-2 -4 -4 -9t-4 -13.5t-6 -18.5h633l-86 -172h-580q-2 -31 -2 -51q0 -18 2 -43h530l-86 -172 h-413q6 -25 16 -47q47 -119 163 -183.5t277 -64.5q115 0 206 35t136 96q33 43 47 131h287q-10 -158 -96 -260q-176 -207 -569 -207q-328 0 -514.5 123t-243.5 377h-246l86 172h137q-2 14 -2 35q0 33 2 59h-223z" />
<glyph unicode="&#x2122;" horiz-adv-x="2373" d="M25 1229v137h911v-137h-363v-682h-184v682h-364zM1071 547v819h297l297 -633l299 633h301v-819h-184v696l-322 -692h-205l-321 678v-682h-162z" />
<glyph unicode="&#xe000;" horiz-adv-x="950" d="M0 950h950v-950h-950v950z" />
<glyph unicode="&#xfb01;" horiz-adv-x="1454" d="M35 782v166h235v105q0 186 98.5 258.5t346.5 72.5q55 0 162 -6v-161q-80 8 -119 8q-133 0 -184.5 -50.5t-51.5 -179.5v-47h281v-166h-281v-782h-252v782h-235zM1036 0v948h252v-948h-252zM1036 1153v213h252v-213h-252z" />
<glyph unicode="&#xfb02;" horiz-adv-x="1454" d="M35 782v166h235v105q0 186 98.5 258.5t346.5 72.5q55 0 162 -6v-161q-80 8 -119 8q-133 0 -184.5 -50.5t-51.5 -179.5v-47h281v-166h-281v-782h-252v782h-235zM1036 0v1366h252v-1366h-252z" />
<glyph unicode="&#xfb03;" horiz-adv-x="2327" d="M1910 0v948h252v-948h-252zM1910 1153v213h252v-213h-252zM907 782v166h235v105q0 186 98.5 258.5t346.5 72.5q55 0 162 -6v-161q-80 8 -119 8q-133 0 -184.5 -50.5t-51.5 -179.5v-47h281v-166h-281v-782h-252v782h-235zM35 782v166h235v105q0 186 98.5 258.5t346.5 72.5 q55 0 162 -6v-161q-80 8 -119 8q-133 0 -184.5 -50.5t-51.5 -179.5v-47h281v-166h-281v-782h-252v782h-235z" />
<glyph unicode="&#xfb04;" horiz-adv-x="2325" d="M1910 0v1366h252v-1366h-252zM907 782v166h235v105q0 186 98.5 258.5t346.5 72.5q55 0 162 -6v-161q-80 8 -119 8q-133 0 -184.5 -50.5t-51.5 -179.5v-47h281v-166h-281v-782h-252v782h-235zM35 782v166h235v105q0 186 98.5 258.5t346.5 72.5q55 0 162 -6v-161 q-80 8 -119 8q-133 0 -184.5 -50.5t-51.5 -179.5v-47h281v-166h-281v-782h-252v782h-235z" />
</font>
</defs>
</svg>
