<?xml version="1.0" standalone="no"?>
<!DOCTYPE svg PUBLIC "-//W3C//DTD SVG 1.1//EN" "http://www.w3.org/Graphics/SVG/1.1/DTD/svg11.dtd" >
<svg xmlns="http://www.w3.org/2000/svg">
<metadata>
This is a custom SVG webfont generated by Font Squirrel.
Copyright   :  FontSite Inc 19962011 All Rights Reserved wwwfontsitecom
Designer    : FontSitecom
Foundry URL : httpwwwfontsitecom
</metadata>
<defs>
<font id="UrbanoLightItalic" horiz-adv-x="1228" >
<font-face units-per-em="2048" ascent="1638" descent="-410" />
<missing-glyph horiz-adv-x="512" />
<glyph unicode=" "  horiz-adv-x="512" />
<glyph unicode="&#x09;" horiz-adv-x="512" />
<glyph unicode="&#xa0;" horiz-adv-x="512" />
<glyph unicode="!" horiz-adv-x="493" d="M37 0l45 143h143l-47 -143h-141zM168 322l274 1044h168l-356 -1044h-86z" />
<glyph unicode="&#x22;" horiz-adv-x="589" d="M317 1366h107l-12 -547h-82zM573 1366h109l-14 -547h-82z" />
<glyph unicode="#" horiz-adv-x="1363" d="M164 565l45 74h305l115 192h-305l47 78h305l194 320h84l-194 -320h207l194 320h84l-194 -320h313l-47 -78h-313l-117 -192h313l-45 -74h-311l-193 -317h-84l193 317h-209l-193 -317h-82l193 317h-305zM596 639h209l115 192h-207z" />
<glyph unicode="$" d="M102 262q0 41 7 123h131q-12 -86 -13 -121q0 -154 195 -194l188 596q-111 45 -164 88q-49 39 -78.5 101.5t-29.5 123.5q0 115 72.5 217t185.5 150q82 35 244 45l37 118h71l-37 -118q164 -27 238 -89.5t74 -175.5q0 -27 -9 -82h-124q8 51 8 76q0 145 -219 172l-168 -534 q133 -55 168.5 -72.5t74.5 -48.5q98 -72 99 -221q0 -109 -62.5 -206t-173.5 -157q-137 -74 -352 -73l-37 -119h-72l37 119q-125 23 -188 69q-103 78 -103 213zM463 1020q0 -90 55 -150q37 -39 129 -84l160 506q-158 -12 -251 -85.5t-93 -186.5zM494 70q188 8 297 86 q137 100 137 241q0 80 -58.5 134.5t-197.5 105.5z" />
<glyph unicode="%" horiz-adv-x="1658" d="M254 831q0 106 32.5 218t86.5 188q102 150 260 149q98 0 150.5 -63t52.5 -182q0 -82 -32 -192.5t-77 -180.5q-106 -168 -274 -168q-199 0 -199 231zM289 0l1136 1374h88l-1136 -1374h-88zM334 823q0 -156 133 -155q127 0 207 161q33 66 55.5 158t22.5 158q0 90 -31 132 t-96 42q-131 0 -211 -164q-80 -168 -80 -332zM956 211q0 106 33 218t86 187q102 150 260 150q98 0 150.5 -63.5t52.5 -182.5q0 -82 -31.5 -192.5t-76.5 -180.5q-106 -168 -275 -167q-96 0 -147.5 59t-51.5 172zM1036 203q0 -156 133 -156q125 0 207 162q78 164 78 315 q0 90 -30.5 132t-96.5 42q-131 0 -211 -163q-80 -160 -80 -332z" />
<glyph unicode="&#x26;" horiz-adv-x="1357" d="M70 295q0 88 40 173t109 142q86 74 252 105q-143 90 -143 237q0 186 163.5 310t413.5 124q96 0 242 -30l-31 -99q-106 31 -235 31q-184 0 -308 -97t-124 -243q0 -61 36.5 -109t98.5 -63q86 -20 219 -20h225l90 291h131l-92 -291h248l-31 -97h-246l-208 -659h-404 q-203 0 -297 43q-70 31 -109.5 97.5t-39.5 154.5zM199 289q0 -98 77 -148q74 -45 238 -45h305l178 563h-182q-160 0 -240.5 -10t-148.5 -39q-102 -45 -164.5 -133t-62.5 -188z" />
<glyph unicode="'" horiz-adv-x="333" d="M313 1366h109l-12 -547h-84z" />
<glyph unicode="(" horiz-adv-x="571" d="M96 129q0 455 160 768q145 287 344 537h105q-260 -360 -383 -689q-70 -182 -93.5 -367t-23.5 -523q0 -49 2 -187h-88q-23 307 -23 461z" />
<glyph unicode=")" horiz-adv-x="571" d="M-86 -332q236 332 360 635q80 193 110 376t30 484q0 68 -2 271h86q25 -225 24 -455q0 -233 -32.5 -402t-110.5 -337q-137 -295 -359 -572h-106z" />
<glyph unicode="*" horiz-adv-x="614" d="M305 1235l55 74l132 -88l47 151l90 -26l-49 -154l159 -2l2 -94l-149 -4l45 -142l-100 -32l-39 151l-121 -100l-64 75l119 97z" />
<glyph unicode="+" d="M156 664v94h483v473h94v-473h486v-94h-486v-498h-94v498h-483z" />
<glyph unicode="," horiz-adv-x="436" d="M-102 -145l149 295h168l-207 -295h-110z" />
<glyph unicode="-" horiz-adv-x="460" d="M2 483l35 109h461l-35 -109h-461z" />
<glyph unicode="." horiz-adv-x="436" d="M-10 0l47 150h158l-48 -150h-157z" />
<glyph unicode="/" horiz-adv-x="1001" d="M-184 -219l1292 1585h119l-1286 -1585h-125z" />
<glyph unicode="0" d="M121 428q0 186 56 371.5t153 320.5q193 266 497 266q199 0 306.5 -120.5t107.5 -343.5q0 -145 -55.5 -333t-134.5 -310q-195 -299 -529 -299q-199 0 -300 113.5t-101 334.5zM246 403q0 -166 84 -253q68 -72 207 -72q281 0 438 299q61 117 101 274.5t40 280.5 q0 182 -70.5 269t-220.5 87q-287 0 -440 -303q-61 -121 -100 -284t-39 -298z" />
<glyph unicode="1" d="M537 0l381 1210q-74 -70 -152 -109.5t-186 -64.5l38 123q238 76 349 207h125l-430 -1366h-125z" />
<glyph unicode="2" d="M57 0l45 139q346 256 619 498q166 150 237.5 253t71.5 195q0 94 -63.5 148.5t-171.5 54.5q-162 0 -242 -114q-43 -59 -59 -168h-129q12 125 86 225q117 156 350 155q162 0 258 -80.5t96 -215.5q0 -123 -95 -254t-325 -320q-186 -156 -536 -418h792l-30 -98h-904z" />
<glyph unicode="3" d="M106 293q0 35 13 82h127q-10 -57 -10 -88q0 -94 80.5 -151.5t213.5 -57.5q174 0 286 101.5t112 258.5q0 141 -129 199q-57 25 -232 29l33 104q41 -2 92 -2q186 0 300 83t114 220q0 100 -75 158.5t-202 58.5q-158 0 -249 -100q-55 -63 -80 -180h-133q33 172 120 254 q129 125 347 124q180 0 288.5 -84.5t108.5 -228.5q0 -174 -154 -278q-82 -57 -223 -86q199 -86 199 -269q0 -199 -151.5 -329.5t-381.5 -130.5q-186 0 -300 86t-114 227z" />
<glyph unicode="4" d="M55 352l35 113l901 901h185l-289 -915h256l-31 -99h-256l-113 -352h-125l113 352h-676zM207 451h555l190 606q10 39 33 94q2 6 6 17.5t12.5 33t16.5 41.5q2 4 5 11.5t7 18.5t8 21l-143 -159q-31 -35 -59 -64z" />
<glyph unicode="5" d="M156 254q0 35 8 78h112q-2 -25 -2 -64q0 -190 230 -190q168 0 289 102q80 68 129 170.5t49 200.5q0 111 -72 178.5t-190 67.5q-225 0 -359 -244h-121l256 813h740l-31 -98h-614l-166 -525q94 86 167.5 119t168.5 33q154 0 250 -96.5t96 -249.5q0 -121 -58.5 -236.5 t-160.5 -199.5q-164 -133 -377 -133q-150 0 -234 63q-49 37 -79.5 95.5t-30.5 115.5z" />
<glyph unicode="6" d="M176 346q0 145 56.5 341t146.5 364q182 336 504 335q154 0 248 -76.5t94 -201.5q0 -35 -6 -80h-125q6 41 6 68q0 90 -58.5 141t-160.5 51q-229 0 -367 -221q-115 -182 -178 -401q102 125 200.5 179t217.5 54q147 0 239 -87t92 -226q0 -236 -172 -421t-391 -185 q-162 0 -254 97t-92 269zM301 324q0 -106 64.5 -176t164.5 -70q104 0 193.5 57.5t148.5 161.5q82 141 89 283q4 98 -63 159.5t-175 61.5q-158 0 -274 -125q-68 -72 -108 -167t-40 -185z" />
<glyph unicode="7" d="M391 0l739 1268h-702l31 98h825l-31 -98l-723 -1268h-139z" />
<glyph unicode="8" d="M102 285q0 100 50.5 193t136.5 151q102 70 276 90q-225 66 -225 237q0 129 82 240q141 190 432 190q176 0 279.5 -77.5t103.5 -210.5q0 -94 -50 -179t-136 -139q-74 -45 -232 -75q123 -35 176 -93q61 -72 62 -180q0 -96 -47 -189t-123 -149q-154 -115 -383 -114 q-180 0 -291 84t-111 221zM227 311q0 -106 76 -169.5t203 -63.5q178 0 303 104q53 47 88 117t35 133q0 106 -77 170t-206 64q-170 0 -296 -106t-126 -249zM465 958q0 -86 76.5 -141t195.5 -55q147 0 257 92t118 223q4 90 -69.5 150.5t-192.5 60.5q-156 0 -252 -76 q-59 -43 -96 -114.5t-37 -139.5z" />
<glyph unicode="9" d="M156 244q0 18 8 88h125q-8 -47 -8 -70q0 -84 55 -134t147 -50q109 0 208.5 67.5t162.5 182.5q72 133 141 354q-180 -162 -370 -162q-150 0 -236 92.5t-86 249.5q0 213 153.5 368.5t364.5 155.5q162 0 262.5 -97t100.5 -253q0 -115 -41 -281.5t-109 -324.5 q-98 -231 -234 -340.5t-325 -109.5q-150 0 -231 73q-88 78 -88 191zM428 850q0 -104 62.5 -168t164.5 -64q160 0 282 124t122 286q0 117 -67.5 188.5t-180.5 71.5q-154 0 -268.5 -131t-114.5 -307z" />
<glyph unicode=":" horiz-adv-x="436" d="M16 0l47 150h158l-47 -150h-158zM170 659l47 150h158l-47 -150h-158z" />
<glyph unicode=";" horiz-adv-x="436" d="M-102 -145l149 295h168l-207 -295h-110zM152 659l47 150h157l-47 -150h-157z" />
<glyph unicode="&#x3c;" horiz-adv-x="1024" d="M68 631v108l886 408v-125l-751 -338l751 -338v-123z" />
<glyph unicode="=" d="M156 516v96h1065v-96h-1065zM156 807v96h1065v-96h-1065z" />
<glyph unicode="&#x3e;" horiz-adv-x="1024" d="M70 223v125l751 338l-751 338v123l886 -408v-108z" />
<glyph unicode="?" horiz-adv-x="845" d="M139 0l45 143h142l-45 -143h-142zM240 319l53 164q33 96 60.5 130t123.5 96q172 106 246 193t74 179q0 88 -73 146.5t-185 58.5q-84 0 -222 -22l31 102q104 20 197 20q174 0 278.5 -80.5t104.5 -218.5q0 -119 -71 -211t-261 -219q-111 -74 -145 -104q-29 -29 -60 -119 l-37 -115h-114z" />
<glyph unicode="@" horiz-adv-x="1626" d="M141 428q0 305 222.5 527.5t527.5 222.5q248 0 417 -154t169 -379q0 -213 -161 -390t-353 -177q-53 0 -87 26.5t-32 69.5l2 29q-129 -113 -256 -113q-90 0 -146.5 60.5t-56.5 156.5q0 104 50 224t134 214q135 152 318 152q119 0 176 -98l33 69h162l-269 -592 q-37 -84 -37 -98q0 -12 15.5 -22.5t31.5 -10.5q66 0 139.5 45.5t137.5 124.5q121 154 121 320q0 199 -146.5 332t-363.5 133q-272 0 -471 -197.5t-199 -468.5q0 -236 166 -398.5t403 -162.5q250 0 435 174q55 51 123 156h86q-88 -154 -187 -238q-201 -170 -463 -170 q-270 0 -455.5 183.5t-185.5 449.5zM524 238q0 -39 28 -66t69 -27q115 0 215 166q45 76 106 209q57 123 70 209q6 45 -19.5 77t-68.5 34q-106 6 -226 -152q-63 -86 -118.5 -228t-55.5 -222z" />
<glyph unicode="A" horiz-adv-x="1257" d="M-104 0l942 1366h129l135 -1366h-123l-33 385h-651l-256 -385h-143zM367 494h571l-57 776z" />
<glyph unicode="B" horiz-adv-x="1185" d="M18 0l431 1366h329q219 0 314.5 -61.5t95.5 -200.5q0 -158 -94 -268q-74 -86 -244 -123q100 -35 145 -90q57 -70 58 -162q0 -109 -54.5 -210t-146.5 -165q-70 -47 -153 -66.5t-222 -19.5h-459zM184 109h295q131 0 202 17t124 64q53 45 85 116t32 140q0 117 -91 168 q-66 39 -213 39h-262zM389 762h180q160 0 250 24.5t150 83.5q88 92 88 230q0 88 -55.5 122.5t-192.5 34.5h-264z" />
<glyph unicode="C" horiz-adv-x="1234" d="M131 397q0 158 58.5 337t156.5 325q221 328 561 327q176 0 284.5 -84.5t108.5 -224.5q0 -33 -6 -80h-133q2 23 2 52q0 113 -70.5 175t-195.5 62q-252 0 -432 -274q-88 -137 -145.5 -312.5t-57.5 -314.5t88 -222t238 -83q160 0 270 88q66 51 117 149h143q-45 -98 -86 -149 t-104 -94q-145 -94 -340 -94q-219 0 -338 109t-119 308z" />
<glyph unicode="D" horiz-adv-x="1386" d="M18 0l431 1366h313q602 0 602 -446q0 -193 -83 -394.5t-216 -332.5q-109 -106 -243 -149.5t-353 -43.5h-451zM184 109h273q213 0 331.5 39.5t212.5 146.5q104 113 168 287t64 342q0 180 -117 260q-66 43 -146.5 58t-242.5 15h-182z" />
<glyph unicode="E" horiz-adv-x="1095" d="M18 0l431 1366h765l-32 -109h-637l-158 -503h635l-33 -109h-637l-168 -536h713l-33 -109h-846z" />
<glyph unicode="F" horiz-adv-x="1015" d="M18 0l431 1366h735l-35 -109h-604l-158 -503h635l-35 -109h-635l-202 -645h-132z" />
<glyph unicode="G" horiz-adv-x="1325" d="M139 436q0 150 58.5 324t154.5 313q219 313 566 313q188 0 292.5 -80.5t104.5 -226.5q0 -20 -4 -78h-131q6 43 6 76q0 98 -75 153.5t-210 55.5q-305 0 -495 -358q-135 -258 -136 -502q0 -346 412 -346q102 0 258 37l147 471h-325l35 108h456l-206 -655q-213 -61 -367 -61 q-264 0 -404 116q-137 117 -137 340z" />
<glyph unicode="H" horiz-adv-x="1351" d="M18 0l431 1366h131l-193 -612h752l192 612h131l-430 -1366h-131l203 645h-752l-202 -645h-132z" />
<glyph unicode="I" horiz-adv-x="468" d="M18 0l431 1366h131l-430 -1366h-132z" />
<glyph unicode="J" horiz-adv-x="923" d="M-51 231q0 45 24 119h131q-25 -88 -24 -123q0 -63 51 -105t129 -42q76 0 144.5 41t113.5 112q39 61 59.5 112.5t75.5 225.5l250 795h131l-256 -815q-63 -205 -97 -280.5t-93 -147.5q-119 -143 -316 -143q-145 0 -234 69t-89 182z" />
<glyph unicode="K" horiz-adv-x="1159" d="M18 0l431 1366h131l-189 -596l748 596h170l-789 -616l494 -750h-162l-467 750l-235 -750h-132z" />
<glyph unicode="L" horiz-adv-x="985" d="M18 0l431 1366h131l-396 -1257h672l-35 -109h-803z" />
<glyph unicode="M" horiz-adv-x="1785" d="M18 0l431 1366h192l98 -952l9 -78q2 -20 4 -49t2 -35q0 -2 1 -11.5t2 -27.5t1 -37q0 -6 4 -92q100 188 186 313l664 969h225l-371 -1366h-141l363 1294l-887 -1294h-133l-142 1294l-376 -1294h-132z" />
<glyph unicode="N" horiz-adv-x="1404" d="M18 0l431 1366h182l289 -930q2 -6 4 -17t11 -47t26 -93q12 -43 36 -185q12 61 17 74q4 18 18 65q12 45 15 50l20 73l317 1010h132l-431 -1366h-163l-340 1087q-14 45 -39 197q-12 -49 -26.5 -104.5t-22.5 -81.5q-16 -53 -17 -60l-327 -1038h-132z" />
<glyph unicode="O" horiz-adv-x="1431" d="M152 444q0 176 70.5 371t185.5 330q205 242 505 241q238 0 370 -126.5t132 -354.5q0 -152 -66.5 -340t-166.5 -315q-211 -270 -543 -270q-219 0 -353 126.5t-134 337.5zM283 430q0 -160 95 -255t255 -95t292 92t222 262q57 109 97 250t40 234q0 174 -97 271t-272 97 q-301 0 -475 -301q-72 -121 -114.5 -274.5t-42.5 -280.5z" />
<glyph unicode="P" horiz-adv-x="1132" d="M18 0l431 1366h323q221 0 318 -49q61 -33 98 -98.5t37 -141.5q0 -88 -42 -175t-114 -150q-88 -78 -185.5 -104.5t-283.5 -26.5h-254l-196 -621h-132zM379 729h250q141 0 213.5 19.5t132.5 72.5q119 102 119 254q0 113 -88 154q-57 29 -189 28h-272z" />
<glyph unicode="Q" horiz-adv-x="1447" d="M152 444q0 172 69.5 364.5t179.5 334.5q197 244 523 243q223 0 357 -123.5t134 -330.5q0 -143 -50 -300t-138 -288q-96 -147 -244 -256q158 18 252 18q55 0 100 -2l-32 -104q-80 6 -121 6q-37 0 -74 -2q-10 0 -54 -1t-75 -1q-127 -2 -195 -10q-109 -12 -163 -12 q-207 0 -338 129.5t-131 334.5zM283 438q0 -164 92 -261t246 -97q295 0 489 315q72 117 121 263.5t53 261.5v17q0 144 -96 241q-102 109 -275 108q-281 0 -456 -274q-80 -123 -127 -279t-47 -295z" />
<glyph unicode="R" horiz-adv-x="1220" d="M18 0l431 1366h325q215 0 327.5 -76t112.5 -221q0 -158 -122 -258q-49 -41 -107.5 -63.5t-167.5 -42.5q96 -27 130 -68t34 -133q0 -29 -16 -281q-8 -104 -11 -223h-131q4 63 4 66q8 225 17 327q0 18 3 57t3 54q0 82 -46 113.5t-167 31.5h-283l-204 -649h-132zM389 758 h250q127 0 196.5 17.5t131.5 62.5q117 88 116 227q0 109 -75 154q-70 39 -209 38h-254z" />
<glyph unicode="S" horiz-adv-x="1163" d="M78 274q0 43 8 111h129l-2 -39q-4 -49 -4 -61q0 -98 70.5 -151.5t199.5 -53.5q164 0 275 76q66 45 106.5 113.5t40.5 133.5q0 111 -119 177q-37 23 -184 79q-127 49 -182 97q-104 86 -105 223q0 178 142.5 292.5t363.5 114.5q174 0 278.5 -71.5t104.5 -188.5 q0 -23 -8 -86h-125q2 41 2 66q0 90 -78 135t-176 45q-164 0 -273.5 -81t-109.5 -199q0 -113 115 -187q43 -29 149 -69q190 -72 240 -117q96 -84 96 -217q0 -197 -178 -328q-152 -109 -377 -108q-399 -1 -399 294z" />
<glyph unicode="T" horiz-adv-x="1028" d="M262 1257l35 109h995l-32 -109h-408l-395 -1257h-131l395 1257h-459z" />
<glyph unicode="U" horiz-adv-x="1386" d="M154 305q0 102 55 281l246 780h131l-264 -836q-45 -141 -46 -204q0 -113 90.5 -179.5t243.5 -66.5q180 0 294 94t179 297l283 895h131l-258 -815q-51 -168 -89 -244t-103 -145q-170 -182 -445 -182q-190 0 -319 93t-129 232z" />
<glyph unicode="V" horiz-adv-x="1193" d="M293 1366h127l67 -1004q4 -74 5 -98v-28v-62v-65q41 96 139 241l672 1016h139l-922 -1366h-133z" />
<glyph unicode="W" horiz-adv-x="1863" d="M272 1366h131l7 -924l2 -96v-12q0 -63 -17 -242l47 80q10 16 21 37l12 24q31 51 39 70q25 45 39 70l553 993h123l78 -942q6 -55 6 -223q0 -14 -2 -109q20 39 43 84l28 62q4 8 33 63l41 82l494 983h127l-703 -1366h-155l-66 889q-4 61 -5 110q-1 25 -1 51.5t1 54.5v43 q0 50 -1 124q-63 -193 -174 -383l-512 -889h-166z" />
<glyph unicode="X" horiz-adv-x="1171" d="M-109 0l674 721l-260 645h139l215 -557l500 557h164l-612 -661l311 -705h-148l-251 623l-564 -623h-168z" />
<glyph unicode="Y" horiz-adv-x="1054" d="M258 1366h137l236 -674l520 674h145l-624 -786l-183 -580h-131l189 594z" />
<glyph unicode="Z" horiz-adv-x="1204" d="M47 0l19 145l1009 1112h-747l34 109h891l-12 -109l-1038 -1148h819l-33 -109h-942z" />
<glyph unicode="[" horiz-adv-x="643" d="M-117 -328l541 1714h387l-33 -106h-260l-473 -1501h283l-35 -107h-410z" />
<glyph unicode="\" horiz-adv-x="1343" d="M293 1366h106l842 -1585h-113z" />
<glyph unicode="]" horiz-adv-x="643" d="M-158 -328l33 107h285l473 1501h-260l33 106h387l-541 -1714h-410z" />
<glyph unicode="^" horiz-adv-x="1024" d="M72 778l368 590h144l366 -590h-123l-317 504l-317 -504h-121z" />
<glyph unicode="_" horiz-adv-x="1024" d="M0 -154h1024v-86h-1024v86z" />
<glyph unicode="`" horiz-adv-x="1024" d="M492 1366h131l129 -281h-101z" />
<glyph unicode="a" horiz-adv-x="1021" d="M27 219q0 115 72.5 201t197.5 119q98 27 330 26h147l17 53q14 43 14 89q0 96 -49 138t-160 42q-100 0 -156.5 -39t-91.5 -131h-119q37 121 101 172q100 84 266 84q154 0 241 -65.5t87 -180.5q0 -68 -45 -209l-66 -207q-51 -162 -84 -311h-117l25 76l18 57 q-94 -82 -170.5 -115.5t-173.5 -33.5q-127 0 -205.5 65.5t-78.5 169.5zM145 231q0 -74 51.5 -117.5t135.5 -43.5q168 0 286 145q57 68 130 264h-117q-221 0 -324 -39q-78 -29 -120 -83t-42 -126z" />
<glyph unicode="b" horiz-adv-x="1105" d="M2 0l430 1366h119l-166 -530q158 137 322 137q143 0 232 -92.5t89 -237.5q0 -127 -54 -266t-143 -240q-137 -154 -346 -153q-127 0 -209 59q-49 39 -98 141l-57 -184h-119zM240 301q0 -102 64.5 -166.5t166.5 -64.5q180 0 303 176q57 80 96 195.5t39 199.5 q0 113 -62.5 179.5t-168.5 66.5q-225 0 -348 -254q-90 -180 -90 -332z" />
<glyph unicode="c" horiz-adv-x="999" d="M76 303q0 123 59.5 259t159.5 241q162 170 381 170q137 0 224 -62.5t87 -162.5q0 -59 -18 -136h-129q18 94 18 125q0 70 -50 110t-136 40q-178 0 -314 -182q-164 -219 -163 -412q0 -104 68.5 -163.5t189.5 -59.5q92 0 155.5 43t118.5 143h129q-49 -86 -85 -128t-87 -75 q-104 -70 -246 -69q-162 0 -262 88t-100 231z" />
<glyph unicode="d" horiz-adv-x="1099" d="M78 313q0 121 47 253t125 227q152 180 373 180q129 0 213 -68q47 -37 88 -133l186 594h119l-330 -1051q-45 -145 -72 -315h-110l26 143q-168 -160 -342 -159q-147 0 -235 89.5t-88 239.5zM197 319q0 -117 61 -183t170 -66q203 0 328 217q109 193 108 368q0 104 -63.5 168 t-165.5 64q-203 0 -330 -213q-47 -78 -77.5 -178.5t-30.5 -176.5z" />
<glyph unicode="e" horiz-adv-x="1024" d="M70 281q0 129 54 274t138 242q150 174 369 174q147 0 231 -75t84 -206q0 -84 -51 -237h-676q-31 -86 -31 -174q0 -98 60.5 -153.5t169.5 -55.5q180 0 315 194h125q-63 -135 -180 -207.5t-268 -72.5q-156 0 -248 81t-92 216zM240 539h555q33 98 32 176q0 74 -55 122 t-143 48q-266 0 -389 -346z" />
<glyph unicode="f" horiz-adv-x="610" d="M78 0l272 862h-186l26 86h187l69 219q68 219 275 219q55 0 127 -20l-29 -90q-53 12 -90 12q-74 0 -112.5 -42t-77.5 -163l-43 -135h202l-26 -86h-203l-272 -862h-119z" />
<glyph unicode="g" horiz-adv-x="1107" d="M-33 -63h111q8 -106 55 -146q61 -55 195 -55q162 0 250 89t157 325q-92 -78 -161.5 -107t-161.5 -29q-143 0 -234.5 90.5t-91.5 231.5q0 119 49 249t125 218q152 172 369 172q125 0 211 -68q49 -39 90 -137l55 172h119l-232 -733q-51 -160 -76.5 -229.5t-38 -91 t-44.5 -62.5q-135 -176 -377 -176q-223 0 -311 104q-50 60 -58 183zM205 354q0 -117 63.5 -185.5t171.5 -68.5q102 0 192.5 64.5t147.5 179.5q90 180 90 309q0 106 -65.5 171t-171.5 65q-188 0 -316 -201q-49 -78 -80.5 -171t-31.5 -163z" />
<glyph unicode="h" horiz-adv-x="1075" d="M2 0l430 1366h119l-180 -578q100 102 179 143.5t177 41.5q119 0 190.5 -62.5t71.5 -167.5q0 -72 -22 -145l-189 -598h-119l185 584q27 80 26 157q0 61 -51 103.5t-127 42.5q-160 0 -291 -154q-78 -92 -159 -350l-121 -383h-119z" />
<glyph unicode="i" horiz-adv-x="421" d="M2 0l297 942h119l-297 -942h-119zM393 1243l39 123h119l-39 -123h-119z" />
<glyph unicode="j" horiz-adv-x="450" d="M-264 -340l26 82q41 -12 70 -12q59 0 102 47q41 45 105 248l289 917h118l-296 -942q-49 -156 -82 -223q-66 -133 -222 -133q-42 0 -110 16zM422 1241l39 125h119l-39 -125h-119z" />
<glyph unicode="k" horiz-adv-x="931" d="M2 0l430 1366h119l-254 -805l518 381h174l-565 -405l350 -537h-139l-344 537l-170 -537h-119z" />
<glyph unicode="l" horiz-adv-x="421" d="M2 0l430 1366h119l-430 -1366h-119z" />
<glyph unicode="m" horiz-adv-x="1667" d="M2 0l199 629q70 221 88 313h114l-38 -170q168 201 360 201q135 0 201 -90q35 -47 37 -133q178 223 374 223q106 0 178 -62.5t72 -156.5q0 -63 -31 -166l-184 -588h-119l185 588q35 109 35 151q0 63 -45.5 105.5t-114.5 42.5q-158 0 -283 -152q-84 -100 -137 -274 l-145 -461h-119l164 520q55 178 55 230q0 59 -45 98t-115 39q-162 0 -289 -154q-76 -90 -133 -272l-145 -461h-119z" />
<glyph unicode="n" horiz-adv-x="1067" d="M2 0l231 737q41 125 56 205h112l-34 -164q72 78 127 115q115 80 243 80q106 0 179 -61.5t73 -149.5q0 -70 -33 -178l-184 -584h-119l193 608q25 76 24 131q0 68 -47 108t-127 40q-150 0 -272 -127q-92 -92 -164 -320l-139 -440h-119z" />
<glyph unicode="o" horiz-adv-x="1103" d="M86 336q0 117 46 240.5t122 214.5q154 182 393 182q172 0 271.5 -98.5t99.5 -268.5q0 -113 -50 -239.5t-132 -214.5q-152 -168 -377 -168q-170 0 -271.5 95t-101.5 257zM205 324q0 -111 71.5 -182.5t182.5 -71.5q205 0 325 194q47 74 81 181.5t34 177.5 q0 121 -69.5 192.5t-184.5 71.5q-207 0 -332 -207q-47 -78 -77.5 -177t-30.5 -179z" />
<glyph unicode="p" horiz-adv-x="1114" d="M-106 -342l405 1284h119l-33 -102q154 133 326 133q145 0 236 -91t91 -237q0 -102 -40 -225t-101 -211q-74 -104 -183.5 -164.5t-224.5 -60.5q-123 0 -204 57q-61 43 -105 149l-168 -532h-118zM246 303q0 -106 63.5 -169.5t167.5 -63.5q193 0 318 196q51 76 88 187.5 t37 185.5q0 113 -64.5 180.5t-171.5 67.5q-96 0 -186 -61.5t-142 -163.5q-110 -216 -110 -359z" />
<glyph unicode="q" horiz-adv-x="1105" d="M78 305q0 123 49 259t129 233q66 82 165 129t204 47q145 0 233 -82q41 -41 72 -121l53 172h119l-404 -1284h-118l143 461q-92 -76 -160.5 -105.5t-159.5 -29.5q-147 0 -236 88t-89 233zM197 317q0 -113 63.5 -180t169.5 -67q213 0 336 235q102 195 102 344 q0 109 -62.5 173.5t-166.5 64.5q-205 0 -332 -219q-110 -189 -110 -351z" />
<glyph unicode="r" horiz-adv-x="679" d="M2 0l213 674q33 102 74 268h100l-59 -231q84 145 181 202q91 54 231 54h20l-37 -121h-49q-150 0 -247 -86t-155 -273l-153 -487h-119z" />
<glyph unicode="s" horiz-adv-x="921" d="M31 301h114q8 -119 48 -164q57 -68 182 -67q119 0 192.5 53t73.5 137q0 57 -35 94t-129 82q-174 80 -221 125q-53 53 -53 139q0 125 103.5 199t277.5 74q139 0 217 -59.5t78 -165.5q0 -37 -2 -62h-121q2 33 2 53q0 147 -185 148q-113 0 -182 -46t-69 -120q0 -68 75 -115 q37 -25 158 -80q205 -94 205 -256q0 -127 -110.5 -206.5t-287.5 -79.5q-172 0 -247.5 72.5t-83.5 244.5z" />
<glyph unicode="t" horiz-adv-x="649" d="M150 147q0 53 55 226l151 483h-184l27 86h184l49 160l133 45l-63 -205h178l-27 -86h-178l-170 -539q-37 -117 -37 -161q0 -76 103 -76q53 0 133 18l-31 -98q-80 -16 -113 -16q-210 -1 -210 163z" />
<glyph unicode="u" horiz-adv-x="1069" d="M100 223q0 90 64 291l135 428h119l-166 -528q-33 -106 -33 -181q0 -72 51.5 -117.5t130.5 -45.5q145 0 275 157q49 57 74.5 118t95.5 282l100 315h119l-166 -528q-59 -193 -84 -353q-4 -16 -10 -61h-111l27 176q-180 -193 -356 -192q-115 0 -190 67.5t-75 171.5z" />
<glyph unicode="v" horiz-adv-x="878" d="M147 942h111l43 -608q10 -139 10 -168q0 -8 4 -82q45 98 131 235l396 623h125l-621 -942h-119z" />
<glyph unicode="w" horiz-adv-x="1492" d="M147 942h113l21 -545v-168q0 -12 -5 -159q6 12 15.5 27.5t14.5 25.5t7 12l31 55q31 55 74 129l379 623h141l12 -545v-8q0 -2 -1 -21.5t-1 -37.5l-2 -72q0 -2 -2 -64.5t-6 -123.5q59 111 131 229l385 643h129l-608 -942h-113l-14 688v148v51q-37 -74 -60 -115 q-66 -119 -73 -131l-398 -641h-114z" />
<glyph unicode="x" horiz-adv-x="897" d="M-78 0l465 496l-209 446h119l168 -379l346 379h133l-434 -461l227 -481h-129l-174 414l-368 -414h-144z" />
<glyph unicode="y" horiz-adv-x="882" d="M61 -342l222 342l-136 942h111l102 -831l488 831h123l-281 -450q-10 -16 -115 -191q-8 -12 -35.5 -57t-63.5 -105.5t-70 -118.5q-139 -231 -205 -362h-140z" />
<glyph unicode="z" horiz-adv-x="862" d="M-2 0l31 100l659 756h-508l27 86h635l-35 -113l-649 -743h551l-27 -86h-684z" />
<glyph unicode="{" horiz-adv-x="641" d="M-16 -186q0 55 32 163l97 306q20 63 20 102q0 70 -78 96l33 99q72 20 111 63t67 129l107 338q45 141 121 205q88 72 288 71h41l-35 -114q-137 0 -198.5 -41t-97.5 -156l-101 -319q-33 -100 -71.5 -150.5t-110.5 -79.5q61 -39 61 -108q0 -49 -24 -125l-96 -307 q-23 -68 -23 -109q0 -59 53 -80q43 -16 137 -16l-32 -109q-111 0 -160 6q-76 8 -108.5 40.5t-32.5 95.5z" />
<glyph unicode="|" horiz-adv-x="1024" d="M451 -342v1708h124v-1708h-124z" />
<glyph unicode="}" horiz-adv-x="641" d="M-150 -328l35 109q139 -2 199.5 39t99.5 166l97 307q31 98 72.5 152.5t111.5 80.5q-63 39 -64 103q0 47 25 127l100 319q18 63 19 99q0 55 -41 75.5t-150 22.5l37 114h41q145 0 202.5 -31.5t57.5 -113.5q0 -53 -24 -131l-107 -338q-20 -68 -20 -98q0 -70 77 -94l-30 -99 q-72 -23 -112 -65.5t-68 -132.5l-97 -306q-61 -193 -148.5 -250t-312.5 -55z" />
<glyph unicode="~" horiz-adv-x="1366" d="M195 1257q106 217 270 218q80 0 240 -84q141 -72 198 -72q111 0 199 160l72 -54q-102 -217 -281 -217q-45 0 -88 16.5t-172 82.5q-111 55 -172 55q-57 0 -102.5 -37t-94.5 -123z" />
<glyph unicode="&#xa1;" horiz-adv-x="561" d="M-119 -424l355 1045h88l-277 -1045h-166zM266 799l45 143h144l-47 -143h-142z" />
<glyph unicode="&#xa2;" d="M248 532q0 223 180 437q84 100 168 144t221 61l39 120h72l-39 -120q141 -18 201 -74q66 -61 65 -162q0 -41 -12 -98h-121q8 51 8 75q0 80 -40 120t-128 48l-256 -811h25q168 0 264 160h119q-66 -111 -129 -160q-115 -86 -264 -86q-25 0 -43 2l-41 -133h-72l45 142 q-262 69 -262 335zM373 512q0 -131 88 -195q29 -18 76 -34l254 800q-154 -18 -263 -155q-70 -86 -112.5 -202t-42.5 -214z" />
<glyph unicode="&#xa3;" d="M55 0l31 98h113l192 613h-168l31 98h168l51 162q59 193 162 291q127 125 317 124q143 0 229.5 -62t86.5 -167q0 -25 -8 -74h-123q6 37 6 66q0 63 -53.5 101t-139.5 38q-162 0 -250 -110q-57 -74 -116 -256l-37 -113h282l-30 -98h-283l-192 -613h637l-31 -98h-875z" />
<glyph unicode="&#xa4;" d="M129 1178l74 73l188 -190q150 106 293 106q80 0 144.5 -23.5t146.5 -82.5l190 188l72 -71l-188 -189q104 -139 104 -291q0 -137 -100 -286l186 -189l-72 -73l-188 188q-135 -104 -287 -105q-143 0 -299 105l-186 -186l-72 71l182 189q-102 133 -102 290q0 137 104 287z M334 700q0 -145 102.5 -248.5t247.5 -103.5t247.5 103.5t102.5 249t-102.5 250t-243.5 104.5q-150 0 -252 -102.5t-102 -252.5z" />
<glyph unicode="&#xa5;" d="M180 532l31 99h407l-69 188h-279l31 99h211l-168 448h139l234 -674l520 674h145l-354 -448h238l-31 -99h-285l-149 -188h375l-31 -99h-400l-167 -532h-132l168 532h-434z" />
<glyph unicode="&#xa6;" horiz-adv-x="1024" d="M451 313h124v-655h-124v655zM451 690v676h124v-676h-124z" />
<glyph unicode="&#xa7;" d="M29 -143l39 123q111 -78 187.5 -109t162.5 -31q127 0 213 65.5t86 160.5q0 100 -96 174q-20 16 -164 100q-213 123 -213 262q0 193 293 316q-55 76 -56 149q0 135 110.5 227t274.5 92q156 0 293 -90l-33 -104q-119 102 -266 102q-113 0 -187.5 -61.5t-74.5 -155.5 q0 -63 39 -102q27 -25 54.5 -41t166.5 -92q201 -106 201 -252q0 -57 -29 -123t-76 -113q-29 -29 -153 -123q41 -74 41 -143q0 -152 -133 -254q-119 -90 -283 -90q-194 0 -397 113zM371 623q0 -53 34.5 -91t137.5 -96q98 -55 196 -131q111 74 154 132.5t43 131.5 q0 55 -36 96.5t-128 92.5q-74 41 -166 96q-137 -66 -186 -113.5t-49 -117.5z" />
<glyph unicode="&#xa8;" horiz-adv-x="1024" d="M473 1157l37 119h123l-39 -119h-121zM870 1157l37 119h123l-39 -119h-121z" />
<glyph unicode="&#xa9;" horiz-adv-x="1603" d="M164 688q0 291 209 494.5t506 203.5q283 0 487.5 -207.5t204.5 -494.5q0 -291 -206 -497.5t-497 -206.5q-293 0 -498.5 206.5t-205.5 501.5zM252 688q0 -258 180 -439t436 -181q254 0 434.5 181t180.5 435q0 250 -179.5 432t-426.5 182q-283 0 -467 -204 q-158 -175 -158 -406zM514 668q0 195 104.5 315.5t274.5 120.5q121 0 195.5 -56.5t89.5 -160.5h-107q-18 137 -178 137q-125 0 -198.5 -94t-73.5 -254q0 -147 74.5 -241.5t193.5 -94.5q158 0 201 152h102q-10 -90 -64 -140q-96 -92 -245 -92q-162 0 -265.5 115t-103.5 293z " />
<glyph unicode="&#xaa;" horiz-adv-x="778" d="M137 571l27 86h565l-29 -86h-563zM268 934q0 72 47 125t129 74q66 16 209 16h78l6 18q8 27 8 41q0 55 -27.5 79t-94.5 24q-59 0 -90 -21.5t-52 -77.5h-96q29 92 85 133t159 41q100 0 157.5 -40.5t57.5 -112.5q0 -37 -27 -123l-37 -121q-37 -123 -51 -194h-98q10 35 18 57 q-92 -68 -194 -68q-82 0 -134.5 42t-52.5 108zM367 948q0 -39 29.5 -63.5t78.5 -24.5q96 0 164 78q37 47 68 137h-60q-150 0 -215 -29.5t-65 -97.5z" />
<glyph unicode="&#xab;" horiz-adv-x="782" d="M84 485l383 402h92l-340 -416l88 -383h-92zM371 485l381 402h92l-338 -416l86 -383h-92z" />
<glyph unicode="&#xac;" horiz-adv-x="1024" d="M68 451v110h886v-561h-120v451h-766z" />
<glyph unicode="&#xad;" horiz-adv-x="460" d="M2 483l35 109h461l-35 -109h-461z" />
<glyph unicode="&#xae;" horiz-adv-x="1603" d="M164 688q0 291 209 494.5t506 203.5q283 0 487.5 -207.5t204.5 -494.5q0 -291 -206 -497.5t-497 -206.5q-293 0 -498.5 206.5t-205.5 501.5zM252 688q0 -258 180 -439t436 -181q254 0 434.5 181t180.5 435q0 250 -179.5 432t-426.5 182q-283 0 -467 -204 q-158 -175 -158 -406zM590 272v820h282q139 0 209 -43q88 -55 88 -162q0 -131 -153 -182q70 -27 92 -70t35 -170q14 -141 28 -193h-106q-27 133 -31 209q-10 125 -37 148q-33 33 -147 33h-158v-390h-102zM692 748h158q213 0 213 133q0 76 -72 106q-41 18 -143 19h-156v-258z " />
<glyph unicode="&#xaf;" horiz-adv-x="1024" d="M471 1169l33 105h577l-32 -105h-578z" />
<glyph unicode="&#xb0;" horiz-adv-x="677" d="M268 1116.5q0 112.5 80 190t195 77.5q109 0 187.5 -79.5t78.5 -190.5q0 -113 -79 -191.5t-191.5 -78.5t-191.5 80t-79 192.5zM352 1116q0 -78 54.5 -133t130.5 -55q78 0 132 54t54 132q0 76 -54.5 131t-127.5 55q-78 0 -133.5 -54t-55.5 -130z" />
<glyph unicode="&#xb1;" d="M57 0v94h1063v-94h-1063zM57 705v94h484v473h94v-473h485v-94h-485v-498h-94v498h-484z" />
<glyph unicode="&#xb2;" horiz-adv-x="802" d="M160 547l30 98q240 170 383 293q180 158 181 246q0 51 -37 81.5t-103 30.5q-80 0 -119.5 -37.5t-50.5 -125.5h-104q10 115 85 180t200 65q104 0 167.5 -50t63.5 -134q0 -100 -113.5 -215t-445.5 -350h473l-27 -82h-583z" />
<glyph unicode="&#xb3;" horiz-adv-x="802" d="M188 727q0 27 11 61h102q-6 -35 -6 -57q0 -51 49 -83t127 -32q100 0 162.5 52.5t62.5 136.5q0 82 -78 113q-39 14 -151 16l27 86q29 -2 73 -2q102 0 167 44t65 114q0 55 -44 87.5t-120 32.5q-84 0 -128 -38.5t-61 -124.5h-106q18 115 78 167q84 78 225 78 q117 0 187.5 -53t70.5 -141q0 -76 -54 -135.5t-147 -81.5q98 -45 99 -152q0 -121 -97.5 -200.5t-244.5 -79.5q-121 0 -195 53t-74 139z" />
<glyph unicode="&#xb4;" horiz-adv-x="1024" d="M608 1085l252 281h148l-281 -281h-119z" />
<glyph unicode="&#xb5;" horiz-adv-x="1069" d="M-106 -342l405 1284h119l-166 -528q-33 -106 -33 -181q0 -72 51.5 -117.5t130.5 -45.5q145 0 275 157q49 57 74.5 118t95.5 282l100 315h119l-166 -528q-63 -205 -86 -353q0 -8 -8 -61h-111l27 176q-180 -193 -356 -192q-147 0 -228 108l-125 -434h-118z" />
<glyph unicode="&#xb6;" d="M264 883q0 109 57.5 216t151.5 173q137 94 371 94h483l-22 -72h-121l-498 -1581h-88l498 1581h-222l-497 -1581h-88l293 930h-31q-287 0 -287 240z" />
<glyph unicode="&#xb7;" horiz-adv-x="430" d="M121 424l47 149h158l-47 -149h-158z" />
<glyph unicode="&#xb8;" horiz-adv-x="1024" d="M127 -389l233 293h103l-199 -293h-137z" />
<glyph unicode="&#xb9;" horiz-adv-x="802" d="M455 547l215 684q-76 -59 -203 -84l31 94q154 45 221 125h96l-258 -819h-102z" />
<glyph unicode="&#xba;" horiz-adv-x="778" d="M137 571l27 86h565l-29 -86h-563zM276 1008q0 150 103 266q100 113 254 112q113 0 178.5 -61t65.5 -168q0 -66 -31 -140.5t-82 -127.5q-98 -102 -244 -103q-113 0 -178.5 60t-65.5 162zM377 1006q0 -63 43 -104.5t108 -41.5q119 0 185 105q63 100 63 198q0 68 -41 109 t-110 41q-119 0 -189 -113q-59 -94 -59 -194z" />
<glyph unicode="&#xbb;" horiz-adv-x="776" d="M-53 88l338 424l-86 375h90l129 -395l-381 -404h-90zM231 88l340 424l-88 375h88l129 -395l-378 -404h-91z" />
<glyph unicode="&#xbc;" horiz-adv-x="2013" d="M449 0l1169 1366h106l-1165 -1366h-110zM457 547l215 684q-76 -59 -203 -84l31 94q150 45 221 125h96l-258 -819h-102zM1192 205l27 82l557 532h131l-168 -532h157l-24 -82h-160l-63 -205h-103l66 205h-420zM1329 287h307l109 340l10 35q10 31 12 34l2 4q2 2 3.5 6.5 t3.5 8.5q-74 -78 -84 -88z" />
<glyph unicode="&#xbd;" horiz-adv-x="2013" d="M434 0l1170 1366h106l-1165 -1366h-111zM455 547l217 684q-80 -59 -203 -84l29 94q152 45 221 125h96l-258 -819h-102zM1198 0l31 98q229 162 383 293q180 154 180 246q0 51 -37 82t-102 31q-78 0 -119 -38t-51 -126h-103q8 115 83 180t200 65q104 0 167.5 -50t63.5 -134 q0 -100 -113.5 -215t-445.5 -350h473l-26 -82h-584z" />
<glyph unicode="&#xbe;" horiz-adv-x="2013" d="M188 727q0 27 11 61h102q-6 -35 -6 -57q0 -51 49 -83t127 -32q100 0 162.5 52.5t62.5 136.5q0 82 -78 113q-39 14 -151 16l27 86q29 -2 73 -2q102 0 167 44t65 114q0 55 -44 87.5t-120 32.5q-84 0 -128 -38.5t-61 -124.5h-106q18 115 78 167q84 78 225 78 q117 0 187.5 -53t70.5 -141q0 -76 -54 -135.5t-147 -81.5q98 -45 99 -152q0 -121 -97.5 -200.5t-244.5 -79.5q-121 0 -195 53t-74 139zM461 0l1171 1366h105l-1164 -1366h-112zM1192 205l25 82l557 532h133l-168 -532h157l-26 -82h-158l-65 -205h-101l64 205h-418zM1329 287 h307l107 340l12 35q10 31 12 34l2 4q0 2 2.5 6.5t2.5 8.5q-51 -59 -82 -88z" />
<glyph unicode="&#xbf;" horiz-adv-x="899" d="M-84 -145q0 119 70.5 211t261.5 219q119 80 143 104q33 31 62 119l36 115h113l-51 -164q-31 -96 -58.5 -130t-125.5 -96q-172 -109 -246 -194.5t-74 -177.5q0 -88 73 -146.5t185 -58.5q84 0 221 22l-32 -102q-102 -20 -195 -20q-174 0 -278.5 81t-104.5 218zM518 799 l45 143h139l-45 -143h-139z" />
<glyph unicode="&#xc0;" horiz-adv-x="1257" d="M-104 0l942 1366h129l135 -1366h-123l-33 385h-651l-256 -385h-143zM367 494h571l-57 776zM709 1755h131l129 -280h-101z" />
<glyph unicode="&#xc1;" horiz-adv-x="1257" d="M-104 0l942 1366h129l135 -1366h-123l-33 385h-651l-256 -385h-143zM367 494h571l-57 776zM887 1475l252 280h147l-280 -280h-119z" />
<glyph unicode="&#xc2;" horiz-adv-x="1257" d="M-104 0l942 1366h129l135 -1366h-123l-33 385h-651l-256 -385h-143zM367 494h571l-57 776zM641 1475l320 278h118l150 -278h-119l-104 178l-228 -178h-137z" />
<glyph unicode="&#xc3;" horiz-adv-x="1257" d="M-104 0l942 1366h129l135 -1366h-123l-33 385h-651l-256 -385h-143zM367 494h571l-57 776zM659 1505q27 94 80 137q59 49 131 50q68 0 150 -70q49 -41 82 -41t54.5 18.5t43.5 67.5h100q-51 -180 -202 -180q-63 0 -131 55q-72 55 -109 55q-70 0 -102 -92h-97z" />
<glyph unicode="&#xc4;" horiz-adv-x="1257" d="M-104 0l942 1366h129l135 -1366h-123l-33 385h-651l-256 -385h-143zM367 494h571l-57 776zM686 1516l37 118h123l-39 -118h-121zM1098 1516l37 118h120l-36 -118h-121z" />
<glyph unicode="&#xc5;" horiz-adv-x="1257" d="M-104 0l942 1366h129l135 -1366h-123l-33 385h-651l-256 -385h-143zM367 494h571l-57 776zM793 1628q0 66 48 113t115 47q70 0 117 -48t47 -118q0 -68 -48 -115t-116 -47q-70 0 -116.5 48t-46.5 120zM858 1626q0 -41 30 -71.5t68.5 -30.5t68.5 30.5t30 69.5 q0 41 -28 69.5t-68.5 28.5t-70.5 -28.5t-30 -67.5z" />
<glyph unicode="&#xc6;" horiz-adv-x="1857" d="M-137 0l1220 1366h891l-32 -109h-740l-88 -503h668l-33 -109h-653l-92 -536h657l-35 -109h-749l69 383h-596l-340 -383h-147zM440 492h527l143 765z" />
<glyph unicode="&#xc7;" horiz-adv-x="1234" d="M131 397q0 158 58.5 337t156.5 325q221 328 561 327q176 0 284.5 -84.5t108.5 -224.5q0 -33 -6 -80h-133q2 23 2 52q0 113 -70.5 175t-195.5 62q-252 0 -432 -274q-88 -137 -145.5 -312.5t-57.5 -314.5t88 -222t238 -83q264 0 387 237h143q-45 -98 -86 -149t-104 -94 q-145 -94 -340 -94q-219 0 -338 109t-119 308zM272 -401l240 307h102l-204 -307h-138z" />
<glyph unicode="&#xc8;" horiz-adv-x="1095" d="M18 0l431 1366h765l-32 -109h-637l-158 -503h635l-33 -109h-637l-168 -536h713l-33 -109h-846zM670 1755h131l129 -280h-101z" />
<glyph unicode="&#xc9;" horiz-adv-x="1095" d="M18 0l431 1366h765l-32 -109h-637l-158 -503h635l-33 -109h-637l-168 -536h713l-33 -109h-846zM813 1475l252 280h147l-280 -280h-119z" />
<glyph unicode="&#xca;" horiz-adv-x="1095" d="M18 0l431 1366h765l-32 -109h-637l-158 -503h635l-33 -109h-637l-168 -536h713l-33 -109h-846zM582 1475l319 278h119l149 -278h-118l-105 178l-227 -178h-137z" />
<glyph unicode="&#xcb;" horiz-adv-x="1095" d="M18 0l431 1366h765l-32 -109h-637l-158 -503h635l-33 -109h-637l-168 -536h713l-33 -109h-846zM618 1516l37 118h123l-39 -118h-121zM1030 1516l37 118h121l-37 -118h-121z" />
<glyph unicode="&#xcc;" horiz-adv-x="468" d="M18 0l431 1366h131l-430 -1366h-132zM326 1755h131l129 -280h-101z" />
<glyph unicode="&#xcd;" horiz-adv-x="468" d="M18 0l431 1366h131l-430 -1366h-132zM487 1475l244 280h143l-268 -280h-119z" />
<glyph unicode="&#xce;" horiz-adv-x="468" d="M18 0l431 1366h131l-430 -1366h-132zM279 1475l286 278h119l117 -278h-119l-74 178l-196 -178h-133z" />
<glyph unicode="&#xcf;" horiz-adv-x="468" d="M18 0l431 1366h131l-430 -1366h-132zM360 1516l37 118h123l-39 -118h-121zM649 1516l37 118h121l-37 -118h-121z" />
<glyph unicode="&#xd0;" horiz-adv-x="1386" d="M18 0l205 651h-162l31 97h162l195 618h313q602 0 602 -446q0 -193 -83 -393.5t-216 -333.5q-109 -106 -243 -149.5t-353 -43.5h-451zM184 109h273q213 0 331.5 39.5t212.5 146.5q104 113 168 287t64 342q0 180 -117 260q-66 43 -146.5 58t-242.5 15h-182l-160 -509h408 l-31 -97h-408z" />
<glyph unicode="&#xd1;" horiz-adv-x="1404" d="M18 0l431 1366h182l289 -930q2 -6 4 -17t11 -47t26 -93q12 -43 36 -185q12 61 17 74q4 18 18 65q12 45 15 50l20 73l317 1010h132l-431 -1366h-163l-340 1087q-14 45 -39 197q-12 -49 -26.5 -104.5t-22.5 -81.5q-16 -53 -17 -60l-327 -1038h-132zM762 1505q27 94 80 137 q59 49 131 50q68 0 149 -70q49 -41 82 -41t54.5 18.5t44.5 67.5h100q-51 -180 -203 -180q-63 0 -131 55q-72 55 -108 55q-70 0 -103 -92h-96z" />
<glyph unicode="&#xd2;" horiz-adv-x="1431" d="M152 444q0 176 70.5 371t185.5 330q205 242 505 241q238 0 370 -126.5t132 -354.5q0 -152 -66.5 -340t-166.5 -315q-211 -270 -543 -270q-219 0 -353 126.5t-134 337.5zM283 430q0 -160 95 -255t255 -95t292 92t222 262q57 109 97 250t40 234q0 174 -97 271t-272 97 q-301 0 -475 -301q-72 -121 -114.5 -274.5t-42.5 -280.5zM831 1755h132l129 -280h-101z" />
<glyph unicode="&#xd3;" horiz-adv-x="1431" d="M152 444q0 176 70.5 371t185.5 330q205 242 505 241q238 0 370 -126.5t132 -354.5q0 -152 -66.5 -340t-166.5 -315q-211 -270 -543 -270q-219 0 -353 126.5t-134 337.5zM283 430q0 -160 95 -255t255 -95t292 92t222 262q57 109 97 250t40 234q0 174 -97 271t-272 97 q-301 0 -475 -301q-72 -121 -114.5 -274.5t-42.5 -280.5zM926 1475l252 280h147l-281 -280h-118z" />
<glyph unicode="&#xd4;" horiz-adv-x="1431" d="M152 444q0 176 70.5 371t185.5 330q205 242 505 241q238 0 370 -126.5t132 -354.5q0 -152 -66.5 -340t-166.5 -315q-211 -270 -543 -270q-219 0 -353 126.5t-134 337.5zM283 430q0 -160 95 -255t255 -95t292 92t222 262q57 109 97 250t40 234q0 174 -97 271t-272 97 q-301 0 -475 -301q-72 -121 -114.5 -274.5t-42.5 -280.5zM715 1475l319 278h119l150 -278h-119l-105 178l-227 -178h-137z" />
<glyph unicode="&#xd5;" horiz-adv-x="1431" d="M152 444q0 176 70.5 371t185.5 330q205 242 505 241q238 0 370 -126.5t132 -354.5q0 -152 -66.5 -340t-166.5 -315q-211 -270 -543 -270q-219 0 -353 126.5t-134 337.5zM283 430q0 -160 95 -255t255 -95t292 92t222 262q57 109 97 250t40 234q0 174 -97 271t-272 97 q-301 0 -475 -301q-72 -121 -114.5 -274.5t-42.5 -280.5zM754 1505q27 94 80 137q59 49 131 50q68 0 149 -70q49 -41 82 -41t54.5 18.5t43.5 67.5h101q-51 -180 -203 -180q-63 0 -131 55q-72 55 -109 55q-70 0 -102 -92h-96z" />
<glyph unicode="&#xd6;" horiz-adv-x="1431" d="M152 444q0 176 70.5 371t185.5 330q205 242 505 241q238 0 370 -126.5t132 -354.5q0 -152 -66.5 -340t-166.5 -315q-211 -270 -543 -270q-219 0 -353 126.5t-134 337.5zM283 430q0 -160 95 -255t255 -95t292 92t222 262q57 109 97 250t40 234q0 174 -97 271t-272 97 q-301 0 -475 -301q-72 -121 -114.5 -274.5t-42.5 -280.5zM758 1516l37 118h123l-39 -118h-121zM1169 1516l37 118h121l-37 -118h-121z" />
<glyph unicode="&#xd7;" d="M240 326l378 379l-370 372l67 66l371 -371l365 365l67 -68l-364 -364l370 -371l-65 -68l-373 373l-379 -381z" />
<glyph unicode="&#xd8;" horiz-adv-x="1431" d="M152 461q0 156 63.5 336t163.5 313q211 276 530 276q160 0 289 -67l107 139l69 -53l-104 -135q145 -143 145 -367q0 -174 -87 -386t-208 -339q-90 -92 -217 -145t-254 -53q-174 0 -299 77l-106 -141l-66 57l103 138q-70 76 -99.5 156.5t-29.5 193.5zM283 432 q0 -135 69 -229l778 1030q-100 53 -219 53q-287 0 -462 -289q-76 -125 -121 -279.5t-45 -285.5zM416 143q100 -63 219 -63q301 0 481 301q76 123 122 272.5t46 268.5q0 156 -82 256z" />
<glyph unicode="&#xd9;" horiz-adv-x="1386" d="M154 305q0 102 55 281l246 780h131l-264 -836q-45 -141 -46 -204q0 -113 90.5 -179.5t243.5 -66.5q180 0 294 94t179 297l283 895h131l-258 -815q-51 -168 -89 -244t-103 -145q-170 -182 -445 -182q-190 0 -319 93t-129 232zM817 1755h131l129 -280h-100z" />
<glyph unicode="&#xda;" horiz-adv-x="1386" d="M154 305q0 102 55 281l246 780h131l-264 -836q-45 -141 -46 -204q0 -113 90.5 -179.5t243.5 -66.5q180 0 294 94t179 297l283 895h131l-258 -815q-51 -168 -89 -244t-103 -145q-170 -182 -445 -182q-190 0 -319 93t-129 232zM922 1475l252 280h147l-281 -280h-118z" />
<glyph unicode="&#xdb;" horiz-adv-x="1386" d="M154 305q0 102 55 281l246 780h131l-264 -836q-45 -141 -46 -204q0 -113 90.5 -179.5t243.5 -66.5q180 0 294 94t179 297l283 895h131l-258 -815q-51 -168 -89 -244t-103 -145q-170 -182 -445 -182q-190 0 -319 93t-129 232zM729 1475l320 278h118l150 -278h-119 l-104 178l-228 -178h-137z" />
<glyph unicode="&#xdc;" horiz-adv-x="1386" d="M154 305q0 102 55 281l246 780h131l-264 -836q-45 -141 -46 -204q0 -113 90.5 -179.5t243.5 -66.5q180 0 294 94t179 297l283 895h131l-258 -815q-51 -168 -89 -244t-103 -145q-170 -182 -445 -182q-190 0 -319 93t-129 232zM764 1516l37 118h123l-39 -118h-121z M1176 1516l36 118h121l-37 -118h-120z" />
<glyph unicode="&#xdd;" horiz-adv-x="1054" d="M258 1366h137l236 -674l520 674h145l-624 -786l-183 -580h-131l189 594zM754 1475l252 280h147l-281 -280h-118z" />
<glyph unicode="&#xde;" horiz-adv-x="1132" d="M18 0l431 1366h131l-66 -213h193q223 0 315 -49q61 -33 98 -98.5t37 -141.5q0 -88 -42 -174t-114 -149q-88 -78 -184 -104.5t-285 -26.5h-253l-129 -410h-132zM313 518h250q139 0 213 19.5t131 70.5q53 47 86 117t33 139q0 109 -88 152q-59 29 -186 28h-273z" />
<glyph unicode="&#xdf;" horiz-adv-x="1060" d="M2 0l326 1034q57 186 154.5 269t254.5 83q141 0 224 -66.5t83 -180.5q0 -121 -106 -203q-51 -37 -182 -86q-53 -20 -75 -39.5t-22 -48.5t23 -60.5t168 -216.5q72 -90 72 -202q0 -131 -93.5 -215t-238.5 -84q-174 0 -258 112q-35 47 -56 129h134q27 -84 69.5 -119.5 t116.5 -35.5q88 0 147.5 60t59.5 151q0 59 -33 114.5t-158 202.5q-72 86 -71 170q0 72 55 121q41 33 164 78q166 61 166 172q0 72 -54.5 116.5t-138.5 44.5q-106 0 -177 -70.5t-120 -225.5l-315 -1004h-119z" />
<glyph unicode="&#xe0;" horiz-adv-x="1021" d="M27 219q0 115 72.5 201t197.5 119q98 27 330 26h147l17 53q14 43 14 89q0 96 -49 138t-160 42q-100 0 -156.5 -39t-91.5 -131h-119q37 121 101 172q100 84 266 84q154 0 241 -65.5t87 -180.5q0 -68 -45 -209l-66 -207q-51 -162 -84 -311h-117l25 76l18 57 q-94 -82 -170.5 -115.5t-173.5 -33.5q-127 0 -205.5 65.5t-78.5 169.5zM145 231q0 -74 51.5 -117.5t135.5 -43.5q168 0 286 145q57 68 130 264h-117q-221 0 -324 -39q-78 -29 -120 -83t-42 -126zM508 1366h131l129 -281h-100z" />
<glyph unicode="&#xe1;" horiz-adv-x="1021" d="M27 219q0 115 72.5 201t197.5 119q98 27 330 26h147l17 53q14 43 14 89q0 96 -49 138t-160 42q-100 0 -156.5 -39t-91.5 -131h-119q37 121 101 172q100 84 266 84q154 0 241 -65.5t87 -180.5q0 -68 -45 -209l-66 -207q-51 -162 -84 -311h-117l25 76l18 57 q-94 -82 -170.5 -115.5t-173.5 -33.5q-127 0 -205.5 65.5t-78.5 169.5zM145 231q0 -74 51.5 -117.5t135.5 -43.5q168 0 286 145q57 68 130 264h-117q-221 0 -324 -39q-78 -29 -120 -83t-42 -126zM604 1085l252 281h148l-281 -281h-119z" />
<glyph unicode="&#xe2;" horiz-adv-x="1021" d="M27 219q0 115 72.5 201t197.5 119q98 27 330 26h147l17 53q14 43 14 89q0 96 -49 138t-160 42q-100 0 -156.5 -39t-91.5 -131h-119q37 121 101 172q100 84 266 84q154 0 241 -65.5t87 -180.5q0 -68 -45 -209l-66 -207q-51 -162 -84 -311h-117l25 76l18 57 q-94 -82 -170.5 -115.5t-173.5 -33.5q-127 0 -205.5 65.5t-78.5 169.5zM145 231q0 -74 51.5 -117.5t135.5 -43.5q168 0 286 145q57 68 130 264h-117q-221 0 -324 -39q-78 -29 -120 -83t-42 -126zM389 1085l320 281h118l150 -281h-119l-104 179l-228 -179h-137z" />
<glyph unicode="&#xe3;" horiz-adv-x="1021" d="M27 219q0 115 72.5 201t197.5 119q98 27 330 26h147l17 53q14 43 14 89q0 96 -49 138t-160 42q-100 0 -156.5 -39t-91.5 -131h-119q37 121 101 172q100 84 266 84q154 0 241 -65.5t87 -180.5q0 -68 -45 -209l-66 -207q-51 -162 -84 -311h-117l25 76l18 57 q-94 -82 -170.5 -115.5t-173.5 -33.5q-127 0 -205.5 65.5t-78.5 169.5zM145 231q0 -74 51.5 -117.5t135.5 -43.5q168 0 286 145q57 68 130 264h-117q-221 0 -324 -39q-78 -29 -120 -83t-42 -126zM418 1137q27 94 80 135q59 49 131 49q68 0 149 -68q51 -41 82 -41 q33 0 54.5 18.5t43.5 65.5h101q-51 -178 -203 -178q-61 0 -131 53q-72 55 -109 56q-70 0 -102 -90h-96z" />
<glyph unicode="&#xe4;" horiz-adv-x="1021" d="M27 219q0 115 72.5 201t197.5 119q98 27 330 26h147l17 53q14 43 14 89q0 96 -49 138t-160 42q-100 0 -156.5 -39t-91.5 -131h-119q37 121 101 172q100 84 266 84q154 0 241 -65.5t87 -180.5q0 -68 -45 -209l-66 -207q-51 -162 -84 -311h-117l25 76l18 57 q-94 -82 -170.5 -115.5t-173.5 -33.5q-127 0 -205.5 65.5t-78.5 169.5zM145 231q0 -74 51.5 -117.5t135.5 -43.5q168 0 286 145q57 68 130 264h-117q-221 0 -324 -39q-78 -29 -120 -83t-42 -126zM492 1157l36 119h123l-39 -119h-120zM889 1157l37 119h123l-39 -119h-121z " />
<glyph unicode="&#xe5;" horiz-adv-x="1021" d="M27 219q0 115 72.5 201t197.5 119q98 27 330 26h147l17 53q14 43 14 89q0 96 -49 138t-160 42q-100 0 -156.5 -39t-91.5 -131h-119q37 121 101 172q100 84 266 84q154 0 241 -65.5t87 -180.5q0 -68 -45 -209l-66 -207q-51 -162 -84 -311h-117l25 76l18 57 q-94 -82 -170.5 -115.5t-173.5 -33.5q-127 0 -205.5 65.5t-78.5 169.5zM145 231q0 -74 51.5 -117.5t135.5 -43.5q168 0 286 145q57 68 130 264h-117q-221 0 -324 -39q-78 -29 -120 -83t-42 -126zM569 1229q0 68 48.5 115t115.5 47q70 0 117 -48.5t47 -117.5q0 -68 -48 -115 t-116 -47q-70 0 -117 48t-47 118zM635 1229q0 -41 29.5 -72t68.5 -31t68.5 31t29.5 70q0 41 -27.5 69.5t-68.5 28.5t-70.5 -28.5t-29.5 -67.5z" />
<glyph unicode="&#xe6;" horiz-adv-x="1667" d="M27 221q0 111 69.5 195t188.5 119q109 31 356 30h129q45 125 45 172q0 70 -56.5 110t-156.5 40q-104 0 -162.5 -39t-89.5 -129h-119q27 109 93 166q100 88 266 88q131 0 223 -49q68 -35 98 -119q147 168 365 168q150 0 231.5 -75t81.5 -210q0 -82 -43 -209h-672 q-39 -96 -38 -194q0 -84 34 -131q57 -84 191 -84q180 0 315 194h123q-49 -111 -135 -176q-135 -104 -309 -104q-170 0 -260 86q-39 35 -74 129q-195 -215 -408 -215q-131 0 -208.5 64t-77.5 173zM145 236q0 -76 50.5 -121t136.5 -45q80 0 156.5 37.5t127.5 103.5 q66 84 132 268h-62q-190 0 -293 -16q-121 -20 -184.5 -78.5t-63.5 -148.5zM893 565h553q25 96 24 152q0 76 -56 123t-144 47q-254 0 -377 -322z" />
<glyph unicode="&#xe7;" horiz-adv-x="999" d="M76 301q0 125 59.5 261t159.5 241q162 170 381 170q137 0 224 -62.5t87 -162.5q0 -59 -18 -136h-129q18 84 18 125q0 68 -51 109t-135 41q-203 0 -357 -246q-121 -190 -120 -344q0 -109 68.5 -168t193.5 -59q90 0 153.5 43t116.5 141h129q-49 -86 -85 -128t-87 -75 q-104 -70 -244 -69q-164 0 -264 88t-100 231zM127 -389l235 293h103l-201 -293h-137z" />
<glyph unicode="&#xe8;" horiz-adv-x="1024" d="M70 281q0 129 54 274t138 242q150 174 369 174q147 0 231 -75t84 -206q0 -84 -51 -237h-676q-31 -86 -31 -174q0 -98 60.5 -153.5t169.5 -55.5q180 0 315 194h125q-63 -135 -180 -207.5t-268 -72.5q-156 0 -248 81t-92 216zM240 539h555q33 98 32 176q0 74 -55 122 t-143 48q-266 0 -389 -346zM506 1366h131l129 -281h-100z" />
<glyph unicode="&#xe9;" horiz-adv-x="1024" d="M70 281q0 129 54 274t138 242q150 174 369 174q147 0 231 -75t84 -206q0 -84 -51 -237h-676q-31 -86 -31 -174q0 -98 60.5 -153.5t169.5 -55.5q180 0 315 194h125q-63 -135 -180 -207.5t-268 -72.5q-156 0 -248 81t-92 216zM240 539h555q33 98 32 176q0 74 -55 122 t-143 48q-266 0 -389 -346zM629 1085l252 281h147l-280 -281h-119z" />
<glyph unicode="&#xea;" horiz-adv-x="1024" d="M70 281q0 129 54 274t138 242q150 174 369 174q147 0 231 -75t84 -206q0 -84 -51 -237h-676q-31 -86 -31 -174q0 -98 60.5 -153.5t169.5 -55.5q180 0 315 194h125q-63 -135 -180 -207.5t-268 -72.5q-156 0 -248 81t-92 216zM240 539h555q33 98 32 176q0 74 -55 122 t-143 48q-266 0 -389 -346zM434 1085l320 281h118l150 -281h-119l-104 179l-228 -179h-137z" />
<glyph unicode="&#xeb;" horiz-adv-x="1024" d="M70 281q0 129 54 274t138 242q150 174 369 174q147 0 231 -75t84 -206q0 -84 -51 -237h-676q-31 -86 -31 -174q0 -98 60.5 -153.5t169.5 -55.5q180 0 315 194h125q-63 -135 -180 -207.5t-268 -72.5q-156 0 -248 81t-92 216zM240 539h555q33 98 32 176q0 74 -55 122 t-143 48q-266 0 -389 -346zM502 1157l37 119h123l-39 -119h-121zM899 1157l37 119h123l-39 -119h-121z" />
<glyph unicode="&#xec;" horiz-adv-x="421" d="M2 0l297 942h119l-297 -942h-119zM203 1366h125l112 -281h-98z" />
<glyph unicode="&#xed;" horiz-adv-x="421" d="M2 0l297 942h119l-297 -942h-119zM348 1085l236 281h141l-262 -281h-115z" />
<glyph unicode="&#xee;" horiz-adv-x="421" d="M2 0l297 942h119l-297 -942h-119zM156 1085l272 281h119l100 -281h-112l-64 179l-186 -179h-129z" />
<glyph unicode="&#xef;" horiz-adv-x="421" d="M2 0l297 942h119l-297 -942h-119zM227 1157l37 119h123l-39 -119h-121zM496 1157l36 119h121l-37 -119h-120z" />
<glyph unicode="&#xf0;" horiz-adv-x="1103" d="M86 336q0 117 45 238.5t123 216.5q72 84 174 133t209 49q193 0 276 -139q-27 213 -145 354l-229 -111l-35 76l205 100l-19 17l-43 33l-47 32q-12 10 -25 19l54 55q84 -51 166 -117l237 111l35 -76l-215 -98q186 -207 186 -492q0 -268 -129 -489q-76 -127 -192.5 -195.5 t-255.5 -68.5q-172 0 -273.5 95t-101.5 257zM205 324q0 -111 71.5 -182.5t182.5 -71.5q205 0 325 194q47 74 81 181.5t34 177.5q0 121 -69.5 192.5t-184.5 71.5q-207 0 -332 -207q-47 -78 -77.5 -177t-30.5 -179z" />
<glyph unicode="&#xf1;" horiz-adv-x="1067" d="M2 0l231 737q41 125 56 205h112l-34 -164q72 78 127 115q115 80 243 80q106 0 179 -61.5t73 -149.5q0 -70 -33 -178l-184 -584h-119l193 608q25 76 24 131q0 68 -47 108t-127 40q-150 0 -272 -127q-92 -92 -164 -320l-139 -440h-119zM477 1137q27 94 80 135q59 49 131 49 q68 0 150 -68q51 -41 82 -41q33 0 54 18.5t44 65.5h100q-51 -178 -203 -178q-61 0 -131 53q-72 55 -108 56q-70 0 -103 -90h-96z" />
<glyph unicode="&#xf2;" horiz-adv-x="1103" d="M86 336q0 117 46 240.5t122 214.5q154 182 393 182q172 0 271.5 -98.5t99.5 -268.5q0 -113 -50 -239.5t-132 -214.5q-152 -168 -377 -168q-170 0 -271.5 95t-101.5 257zM205 324q0 -111 71.5 -182.5t182.5 -71.5q205 0 325 194q47 74 81 181.5t34 177.5 q0 121 -69.5 192.5t-184.5 71.5q-207 0 -332 -207q-47 -78 -77.5 -177t-30.5 -179zM537 1366h131l129 -281h-101z" />
<glyph unicode="&#xf3;" horiz-adv-x="1103" d="M86 336q0 117 46 240.5t122 214.5q154 182 393 182q172 0 271.5 -98.5t99.5 -268.5q0 -113 -50 -239.5t-132 -214.5q-152 -168 -377 -168q-170 0 -271.5 95t-101.5 257zM205 324q0 -111 71.5 -182.5t182.5 -71.5q205 0 325 194q47 74 81 181.5t34 177.5 q0 121 -69.5 192.5t-184.5 71.5q-207 0 -332 -207q-47 -78 -77.5 -177t-30.5 -179zM662 1085l251 281h148l-281 -281h-118z" />
<glyph unicode="&#xf4;" horiz-adv-x="1103" d="M86 336q0 117 46 240.5t122 214.5q154 182 393 182q172 0 271.5 -98.5t99.5 -268.5q0 -113 -50 -239.5t-132 -214.5q-152 -168 -377 -168q-170 0 -271.5 95t-101.5 257zM205 324q0 -111 71.5 -182.5t182.5 -71.5q205 0 325 194q47 74 81 181.5t34 177.5 q0 121 -69.5 192.5t-184.5 71.5q-207 0 -332 -207q-47 -78 -77.5 -177t-30.5 -179zM444 1085l320 281h119l149 -281h-119l-104 179l-227 -179h-138z" />
<glyph unicode="&#xf5;" horiz-adv-x="1103" d="M86 336q0 117 46 240.5t122 214.5q154 182 393 182q172 0 271.5 -98.5t99.5 -268.5q0 -113 -50 -239.5t-132 -214.5q-152 -168 -377 -168q-170 0 -271.5 95t-101.5 257zM205 324q0 -111 71.5 -182.5t182.5 -71.5q205 0 325 194q47 74 81 181.5t34 177.5 q0 121 -69.5 192.5t-184.5 71.5q-207 0 -332 -207q-47 -78 -77.5 -177t-30.5 -179zM469 1137q27 94 80 135q59 49 131 49q68 0 149 -68q51 -41 82 -41q33 0 54.5 18.5t44.5 65.5h100q-51 -178 -203 -178q-61 0 -131 53q-72 55 -108 56q-70 0 -103 -90h-96z" />
<glyph unicode="&#xf6;" horiz-adv-x="1103" d="M86 336q0 117 46 240.5t122 214.5q154 182 393 182q172 0 271.5 -98.5t99.5 -268.5q0 -113 -50 -239.5t-132 -214.5q-152 -168 -377 -168q-170 0 -271.5 95t-101.5 257zM205 324q0 -111 71.5 -182.5t182.5 -71.5q205 0 325 194q47 74 81 181.5t34 177.5 q0 121 -69.5 192.5t-184.5 71.5q-207 0 -332 -207q-47 -78 -77.5 -177t-30.5 -179zM520 1157l37 119h123l-39 -119h-121zM918 1157l36 119h123l-39 -119h-120z" />
<glyph unicode="&#xf7;" d="M154 639v98h1065v-98h-1065zM608 383v145h142v-145h-142zM608 846v149h142v-149h-142z" />
<glyph unicode="&#xf8;" horiz-adv-x="1103" d="M82 -35l96 119q-94 102 -94 252q0 209 123 395q160 242 436 242q102 0 215 -51l98 118l66 -51l-98 -119q94 -100 94 -262q0 -104 -46 -226t-120 -210q-158 -188 -397 -188q-109 0 -213 53l-99 -125zM203 336q0 -90 47 -160l543 666q-80 45 -152 45q-90 0 -173 -46 t-136 -128q-57 -84 -93 -189.5t-36 -187.5zM307 117q76 -47 150 -47q242 0 364 260q78 162 78 303q0 76 -47 149z" />
<glyph unicode="&#xf9;" horiz-adv-x="1069" d="M100 223q0 90 64 291l135 428h119l-166 -528q-33 -106 -33 -181q0 -72 51.5 -117.5t130.5 -45.5q145 0 275 157q49 57 74.5 118t95.5 282l100 315h119l-166 -528q-59 -193 -84 -353q-4 -16 -10 -61h-111l27 176q-180 -193 -356 -192q-115 0 -190 67.5t-75 171.5z M526 1366h131l129 -281h-100z" />
<glyph unicode="&#xfa;" horiz-adv-x="1069" d="M100 223q0 90 64 291l135 428h119l-166 -528q-33 -106 -33 -181q0 -72 51.5 -117.5t130.5 -45.5q145 0 275 157q49 57 74.5 118t95.5 282l100 315h119l-166 -528q-59 -193 -84 -353q-4 -16 -10 -61h-111l27 176q-180 -193 -356 -192q-115 0 -190 67.5t-75 171.5z M662 1085l251 281h148l-281 -281h-118z" />
<glyph unicode="&#xfb;" horiz-adv-x="1069" d="M100 223q0 90 64 291l135 428h119l-166 -528q-33 -106 -33 -181q0 -72 51.5 -117.5t130.5 -45.5q145 0 275 157q49 57 74.5 118t95.5 282l100 315h119l-166 -528q-59 -193 -84 -353q-4 -16 -10 -61h-111l27 176q-180 -193 -356 -192q-115 0 -190 67.5t-75 171.5z M444 1085l320 281h119l149 -281h-119l-104 179l-227 -179h-138z" />
<glyph unicode="&#xfc;" horiz-adv-x="1069" d="M100 223q0 90 64 291l135 428h119l-166 -528q-33 -106 -33 -181q0 -72 51.5 -117.5t130.5 -45.5q145 0 275 157q49 57 74.5 118t95.5 282l100 315h119l-166 -528q-59 -193 -84 -353q-4 -16 -10 -61h-111l27 176q-180 -193 -356 -192q-115 0 -190 67.5t-75 171.5z M506 1157l37 119h123l-39 -119h-121zM903 1157l37 119h123l-39 -119h-121z" />
<glyph unicode="&#xfd;" horiz-adv-x="882" d="M61 -342l222 342l-136 942h111l102 -831l488 831h123l-281 -450q-10 -16 -115 -191q-8 -12 -35.5 -57t-63.5 -105.5t-70 -118.5q-139 -231 -205 -362h-140zM537 1085l251 281h148l-281 -281h-118z" />
<glyph unicode="&#xfe;" horiz-adv-x="1114" d="M-106 -342l538 1708h119l-166 -526q154 133 326 133q145 0 236 -91t91 -239q0 -100 -40 -223t-101 -211q-76 -104 -184.5 -164.5t-223.5 -60.5q-123 0 -204 57q-61 43 -105 149l-168 -532h-118zM246 303q0 -106 63.5 -169.5t167.5 -63.5q193 0 318 196q51 76 88 187.5 t37 185.5q0 113 -64.5 180.5t-171.5 67.5q-96 0 -186 -61.5t-142 -163.5q-110 -216 -110 -359z" />
<glyph unicode="&#xff;" horiz-adv-x="882" d="M61 -342l222 342l-136 942h111l102 -831l488 831h123l-281 -450q-10 -16 -115 -191q-8 -12 -35.5 -57t-63.5 -105.5t-70 -118.5q-139 -231 -205 -362h-140zM360 1157l37 119h123l-39 -119h-121zM758 1157l37 119h123l-39 -119h-121z" />
<glyph unicode="&#x152;" horiz-adv-x="1775" d="M135 399q0 223 113.5 459t294.5 383q178 145 407 145q86 0 142 -10q61 -10 67 -10h739l-32 -109h-639l-158 -503h629l-33 -109h-631l-170 -536h715l-35 -109h-819q-12 0 -66 -12q-31 -8 -88 -8q-201 0 -315 112q-121 117 -121 307zM266 410q0 -162 85 -246t249 -84 q49 0 131 20l369 1168q-82 18 -127 18q-211 0 -391 -160q-127 -113 -221.5 -326.5t-94.5 -389.5z" />
<glyph unicode="&#x153;" horiz-adv-x="1792" d="M88 340q0 260 165 445.5t394 185.5q131 0 232 -66q72 -45 114 -145q96 115 189.5 163t218.5 48q145 0 228 -75t83 -208q0 -82 -51 -235h-676q-29 -80 -29 -158q0 -121 64 -172q66 -53 166 -53q123 0 227 92q33 27 86 104h125q-63 -135 -180 -208.5t-270 -73.5 q-246 0 -320 186q-78 -88 -149 -125q-115 -61 -234 -61q-180 0 -281.5 94t-101.5 262zM207 328q0 -113 71.5 -185.5t182.5 -72.5q84 0 162.5 41t130.5 110q63 84 102 199t39 213q0 113 -70.5 182.5t-183.5 69.5q-86 0 -166 -45t-137 -123q-55 -74 -93 -186.5t-38 -202.5z M1004 539h557q33 100 32 166q0 82 -54 131t-146 49q-158 0 -277 -135q-61 -74 -112 -211z" />
<glyph unicode="&#x178;" horiz-adv-x="1054" d="M258 1366h137l236 -674l520 674h145l-624 -786l-183 -580h-131l189 594zM571 1516l37 118h123l-39 -118h-121zM983 1516l37 118h121l-37 -118h-121z" />
<glyph unicode="&#x2c6;" horiz-adv-x="1024" d="M420 1085l319 281h119l150 -281h-119l-105 179l-227 -179h-137z" />
<glyph unicode="&#x2dc;" horiz-adv-x="1024" d="M442 1137q27 94 80 135q59 49 131 49q68 0 150 -68q51 -41 82 -41q33 0 54.5 18.5t43.5 65.5h100q-51 -178 -202 -178q-61 0 -131 53q-72 55 -109 56q-70 0 -102 -90h-97z" />
<glyph unicode="&#x2013;" horiz-adv-x="1042" d="M133 483l35 109h782l-35 -109h-782z" />
<glyph unicode="&#x2014;" horiz-adv-x="1382" d="M2 483l35 109h1382l-35 -109h-1382z" />
<glyph unicode="&#x2018;" horiz-adv-x="393" d="M293 1100l186 266h99l-136 -266h-149z" />
<glyph unicode="&#x2019;" horiz-adv-x="378" d="M293 1100l135 266h150l-187 -266h-98z" />
<glyph unicode="&#x201a;" horiz-adv-x="378" d="M-90 -117l135 267h150l-187 -267h-98z" />
<glyph unicode="&#x201c;" horiz-adv-x="665" d="M293 1100l186 266h99l-136 -266h-149zM565 1100l187 266h100l-135 -266h-152z" />
<glyph unicode="&#x201d;" horiz-adv-x="653" d="M293 1100l135 266h150l-187 -266h-98zM565 1100l135 266h152l-186 -266h-101z" />
<glyph unicode="&#x201e;" horiz-adv-x="665" d="M-90 -117l135 267h150l-187 -267h-98zM182 -117l135 267h152l-186 -267h-101z" />
<glyph unicode="&#x2022;" horiz-adv-x="1366" d="M401 692q0 119 84 202t205 83q113 0 196 -84t83 -199q0 -119 -83 -201.5t-200 -82.5t-201 82.5t-84 199.5z" />
<glyph unicode="&#x2026;" horiz-adv-x="1310" d="M-10 0l47 150h158l-48 -150h-157zM426 0l47 150h158l-47 -150h-158zM864 0l47 150h158l-47 -150h-158z" />
<glyph unicode="&#x2039;" horiz-adv-x="497" d="M84 485l381 402h92l-338 -416l86 -383h-90z" />
<glyph unicode="&#x203a;" horiz-adv-x="493" d="M-53 88l342 424l-90 375h90l127 -395l-379 -404h-90z" />
<glyph unicode="&#x20ac;" horiz-adv-x="1431" d="M121 537l72 98h110q14 57 29 98h-152l72 98h115q113 272 286.5 413.5t395.5 141.5q176 0 284.5 -84.5t108.5 -224.5q0 -18 -4 -80h-133v47q0 115 -70 178.5t-195 63.5q-330 0 -528 -455h616l-71 -98h-584l-31 -98h543l-72 -98h-493q-16 -74 -17 -148q0 -141 88.5 -225 t237.5 -84q264 0 387 237h146q-47 -100 -87 -151t-104 -92q-141 -94 -340 -94q-213 0 -338 106q-121 104 -121 317q0 66 13 134h-164z" />
<glyph unicode="&#x2122;" horiz-adv-x="1687" d="M258 1282l27 84h602l-27 -84h-235l-217 -694h-103l219 694h-266zM725 588l246 778h131l65 -532l7 -43q4 -41 4 -48l2 -41l2 -14q49 88 84 135l383 543h151l-211 -778h-106l186 665l-471 -665h-92l-88 665l-193 -665h-100z" />
<glyph unicode="&#xe000;" horiz-adv-x="940" d="M0 940h940v-940h-940v940z" />
<glyph unicode="&#xfb01;" horiz-adv-x="1079" d="M78 0l272 862h-186l26 86h187l69 219q68 219 275 219q55 0 127 -20l-29 -90q-53 12 -90 12q-74 0 -112.5 -42t-77.5 -163l-43 -135h202l-26 -86h-203l-272 -862h-119zM659 0l297 942h119l-297 -942h-119zM1051 1243l39 123h118l-39 -123h-118z" />
<glyph unicode="&#xfb02;" horiz-adv-x="1105" d="M78 0l272 862h-186l26 86h187l69 219q68 219 275 219q55 0 127 -20l-29 -90q-53 12 -90 12q-74 0 -112.5 -42t-77.5 -163l-43 -135h202l-26 -86h-203l-272 -862h-119zM686 0l430 1366h119l-430 -1366h-119z" />
<glyph unicode="&#xfb03;" horiz-adv-x="1642" d="M1223 0l297 942h119l-297 -942h-119zM1614 1243l39 123h119l-39 -123h-119zM688 0l272 862h-186l26 86h187l69 219q68 219 275 219q55 0 127 -20l-29 -90q-53 12 -90 12q-74 0 -112.5 -42t-77.5 -163l-43 -135h202l-26 -86h-203l-272 -862h-119zM78 0l272 862h-186l26 86 h187l69 219q68 219 275 219q55 0 127 -20l-29 -90q-53 12 -90 12q-74 0 -112.5 -42t-77.5 -163l-43 -135h202l-26 -86h-203l-272 -862h-119z" />
<glyph unicode="&#xfb04;" horiz-adv-x="1642" d="M1223 0l430 1366h119l-430 -1366h-119zM688 0l272 862h-186l26 86h187l69 219q68 219 275 219q55 0 127 -20l-29 -90q-53 12 -90 12q-74 0 -112.5 -42t-77.5 -163l-43 -135h202l-26 -86h-203l-272 -862h-119zM78 0l272 862h-186l26 86h187l69 219q68 219 275 219 q55 0 127 -20l-29 -90q-53 12 -90 12q-74 0 -112.5 -42t-77.5 -163l-43 -135h202l-26 -86h-203l-272 -862h-119z" />
</font>
</defs>
</svg>
