<?xml version="1.0" standalone="no"?>
<!DOCTYPE svg PUBLIC "-//W3C//DTD SVG 1.1//EN" "http://www.w3.org/Graphics/SVG/1.1/DTD/svg11.dtd" >
<svg xmlns="http://www.w3.org/2000/svg">
<metadata>
This is a custom SVG webfont generated by Fontspring.
</metadata>
<defs>
<font id="UrbanoExtraBoldExpanded" horiz-adv-x="1024" >
<font-face units-per-em="2048" ascent="1638" descent="-410" />
<missing-glyph horiz-adv-x="614" />
<glyph unicode=" "  horiz-adv-x="614" />
<glyph unicode="&#x09;" horiz-adv-x="614" />
<glyph unicode="&#xa0;" horiz-adv-x="614" />
<glyph unicode="!" horiz-adv-x="679" d="M143 1366h394l-62 -965h-268zM176 0v270h330v-270h-330z" />
<glyph unicode="&#x22;" horiz-adv-x="968" d="M41 1366h405l-71 -549h-264zM524 1366h404l-70 -549h-264z" />
<glyph unicode="#" horiz-adv-x="1345" d="M158 422l22 164h207l25 182h-205l22 164h205l45 307h168l-43 -307h193l43 307h168l-43 -307h223l-23 -164h-223l-27 -182h226l-25 -164h-223l-47 -334h-168l47 334h-193l-47 -334h-170l50 334h-207zM555 586h193l24 182h-192z" />
<glyph unicode="$" horiz-adv-x="1515" d="M80 432h383q2 -115 61 -162q72 -59 232 -59q299 0 299 172q0 74 -70 111q-35 18 -81 28t-234 35q-283 39 -400 107q-164 100 -164 292q0 293 306 400q86 31 223 43v274h219v-272q276 0 408.5 -101.5t130.5 -312.5h-377q-2 94 -54.5 131t-185.5 37q-139 0 -214 -38 t-75 -109q0 -68 64 -99q59 -29 276 -61q193 -29 271 -47.5t141 -50.5q199 -102 199 -330q0 -205 -151.5 -322.5t-432.5 -132.5v-354h-219v350q-291 8 -426 124t-129 347z" />
<glyph unicode="%" horiz-adv-x="1943" d="M55 1014q0 367 361 366q350 0 350 -370.5t-358 -370.5q-180 0 -266.5 91t-86.5 284zM276 1018q0 -143 31 -200.5t107 -57.5q72 0 101.5 56t29.5 193.5t-30 191.5t-103 54q-72 0 -104 -56t-32 -181zM317 -82l1123 1516h180l-1128 -1516h-175zM1178 346q0 367 362 367 q350 0 350 -371t-360 -371q-180 0 -266 91t-86 284zM1399 350q0 -143 30.5 -200.5t106.5 -57.5q74 0 103.5 55.5t29.5 194.5q0 137 -29.5 191.5t-103.5 54.5q-72 0 -104.5 -56.5t-32.5 -181.5z" />
<glyph unicode="&#x26;" horiz-adv-x="1581" d="M82 350q0 117 67.5 204t182.5 122q51 16 168 26q-135 10 -195 39q-78 37 -124 114t-46 169q0 102 57.5 182t159.5 121q96 39 295 39h453v-231h-312q-147 0 -211.5 -39t-64.5 -127q0 -104 80 -142q68 -31 215 -30h250v166h360v-166h123v-226h-123v-571h-805 q-176 0 -260 13.5t-137 52.5q-61 45 -97 120.5t-36 163.5zM461 406q0 -104 80 -144q66 -31 260 -31h256v340h-262q-217 0 -279 -45q-55 -42 -55 -120z" />
<glyph unicode="'" horiz-adv-x="497" d="M41 1366h418l-72 -549h-276z" />
<glyph unicode="(" horiz-adv-x="747" d="M109 537q0 268 139 546q55 111 170 283h246q-268 -487 -269 -825q0 -180 60.5 -368.5t210.5 -471.5h-246q-113 170 -160 260q-151 287 -151 576z" />
<glyph unicode=")" horiz-adv-x="747" d="M82 -299q150 283 210 469t60 371q0 334 -268 825h246q111 -168 170 -283q139 -279 139 -546q0 -283 -152 -576q-39 -76 -159 -260h-246z" />
<glyph unicode="*" horiz-adv-x="927" d="M137 1069l41 158l197 -49v200h170v-200l188 65l58 -153l-193 -68l127 -162l-139 -98l-119 168l-111 -168l-141 98l113 162z" />
<glyph unicode="+" d="M10 662v172h412v415h178v-415h414v-172h-414v-414h-178v414h-412z" />
<glyph unicode="," horiz-adv-x="561" d="M-49 -272l151 505h353l-254 -505h-250z" />
<glyph unicode="-" horiz-adv-x="792" d="M0 385v213h793v-213h-793z" />
<glyph unicode="." horiz-adv-x="561" d="M117 0v272h329v-272h-329z" />
<glyph unicode="/" horiz-adv-x="1374" d="M-20 -236l1101 1602h240l-1098 -1602h-243z" />
<glyph unicode="0" horiz-adv-x="1515" d="M74 690q0 170 53 311.5t149 227.5q88 82 217.5 127t268.5 45q143 0 273 -49t218 -135q188 -188 189 -537q0 -342 -187 -528q-88 -88 -217 -137.5t-276 -49.5q-301 0 -488 174q-200 182 -200 551zM436 686q0 -475 330 -475q152 0 232.5 122t80.5 351q0 471 -317 471 q-158 0 -242 -120t-84 -349z" />
<glyph unicode="1" horiz-adv-x="1515" d="M307 848v305q74 16 212 86t216 127h305v-1366h-344l-4 745q0 143 10 297q-131 -124 -395 -194z" />
<glyph unicode="2" horiz-adv-x="1515" d="M154 0v268q154 86 473 299q240 160 312.5 236t72.5 166q0 84 -69 135t-181 51q-152 0 -213 -80q-29 -37 -35 -125h-344l-2 47q-8 190 151.5 297t446.5 107q270 0 432 -117t162 -311q0 -129 -75 -238.5t-236 -218.5q-102 -70 -490 -264h803v-252h-1208z" />
<glyph unicode="3" horiz-adv-x="1515" d="M145 344q0 18 2 31h371q2 -178 238 -178q125 0 193.5 50t68.5 142q0 106 -80 154q-59 35 -213 35h-92v227q39 -2 84 -2q119 0 182 26q45 18 70.5 61.5t25.5 96.5q0 88 -60.5 135t-170.5 47q-219 0 -227 -188h-349q-2 14 -2 31q0 150 119 256q152 133 463 133 q276 0 428 -105q154 -104 154 -280q0 -121 -76 -206t-205 -108v-20q141 -16 222 -101t81 -216q0 -98 -52 -184.5t-140 -131.5q-168 -84 -459 -84q-272 0 -424 100.5t-152 278.5z" />
<glyph unicode="4" horiz-adv-x="1515" d="M49 285v284l715 793h420v-838h295v-239h-295v-285h-322v285h-813zM319 524h543v606z" />
<glyph unicode="5" horiz-adv-x="1515" d="M160 377h370q18 -166 236 -166q123 0 189.5 60.5t66.5 173t-68.5 174t-191.5 61.5q-186 0 -232 -131h-340l33 817h1090v-252h-789l-12 -352q117 152 369 151q233 0 366 -127q137 -131 137 -335q0 -248 -198 -379q-166 -106 -465 -107q-285 0 -418 97.5t-143 314.5z" />
<glyph unicode="6" horiz-adv-x="1515" d="M109 631q0 379 182 574.5t536 195.5q317 0 457 -162q68 -80 74 -207h-348q-39 135 -209 135q-158 0 -250 -108.5t-92 -294.5q0 -37 2 -66q55 98 129 138q113 63 287 63q244 0 388 -116.5t144 -315.5q0 -225 -175 -363.5t-462 -138.5q-336 0 -499.5 165t-163.5 501z M498 432q0 -111 72.5 -173t201.5 -62q133 0 211 63.5t78 173.5q0 106 -75 170t-200 64q-131 0 -209.5 -65t-78.5 -171z" />
<glyph unicode="7" horiz-adv-x="1515" d="M166 1094v272h1184v-264l-609 -1102h-409l657 1094h-823z" />
<glyph unicode="8" horiz-adv-x="1515" d="M119 362q0 88 45 162t123 113q84 43 211 57v21q-338 43 -338 309q0 180 155.5 278.5t440.5 98.5q293 0 452.5 -100.5t159.5 -282.5q0 -135 -89 -215t-251 -88v-21q168 -12 269.5 -102t101.5 -230q0 -96 -47 -176t-133 -127q-166 -94 -457 -94q-287 0 -449 88 q-90 49 -142 132t-52 177zM461 401q0 -96 77.5 -150t215.5 -54q145 0 224 51t79 145q0 96 -79 150.5t-222 54.5q-137 0 -216 -52.5t-79 -144.5zM502 993q0 -180 266 -180q123 0 190.5 47t67.5 133q0 84 -67.5 130t-190.5 46q-266 0 -266 -176z" />
<glyph unicode="9" horiz-adv-x="1515" d="M115 915q0 227 171 356.5t470 129.5q324 0 481 -158q164 -166 164 -536q0 -420 -203 -590q-186 -152 -532 -152q-334 0 -461 150q-63 74 -78 223h346q23 -139 236 -139q188 0 276 119.5t88 377.5q-162 -193 -465 -192q-233 0 -363 108t-130 303zM457 952 q0 -106 72.5 -163.5t207.5 -57.5q133 0 211 59.5t78 162t-74.5 159.5t-208.5 57q-135 0 -210.5 -57.5t-75.5 -159.5z" />
<glyph unicode=":" horiz-adv-x="561" d="M117 0v272h329v-272h-329zM117 670v272h329v-272h-329z" />
<glyph unicode=";" horiz-adv-x="561" d="M-49 -272l151 505h353l-254 -505h-250zM125 670v272h330v-272h-330z" />
<glyph unicode="&#x3c;" d="M68 539v309l886 487v-370l-493 -273l491 -274l2 -367z" />
<glyph unicode="=" d="M10 508v166h1006v-166h-1006zM10 823v166h1006v-166h-1006z" />
<glyph unicode="&#x3e;" d="M68 51v371l493 272l-491 273l-2 368l886 -487v-311z" />
<glyph unicode="?" horiz-adv-x="1138" d="M55 1130v236q205 35 418 35q598 0 598 -371q0 -113 -64.5 -199t-215.5 -182q-143 -88 -169 -125t-30 -157h-299q-12 106 -12 155q0 68 32.5 104t221.5 171q100 72 136 116.5t36 98.5q0 78 -75 120t-210 42q-152 -1 -367 -44zM279 0v266h331v-266h-331z" />
<glyph unicode="@" horiz-adv-x="1372" d="M31 481q0 287 199.5 485.5t488.5 198.5q256 0 438 -165.5t182 -401.5q0 -238 -186 -379q-127 -96 -250 -96q-102 0 -147 82q-119 -86 -211 -86q-109 0 -180.5 77.5t-71.5 196.5q0 168 122 306.5t271 138.5q125 0 197 -95l22 62h182l-157 -483q-10 -31 -12 -35 q-6 -20 -7 -35q0 -16 14.5 -28.5t32.5 -12.5q35 0 82 29.5t86 74.5q100 119 101 273q0 195 -148.5 334t-359.5 139q-240 0 -403.5 -167t-163.5 -410.5t165.5 -411.5t407.5 -168q137 0 264 70.5t203 189.5l131 -2q-84 -164 -250 -265.5t-356 -101.5q-287 0 -486.5 200.5 t-199.5 485.5zM494 328q0 -55 23.5 -88t64.5 -33q57 0 100 48t80 155l45 129q23 63 22 100q0 43 -24.5 71.5t-59.5 28.5q-49 0 -98 -43t-84 -114q-69 -150 -69 -254z" />
<glyph unicode="A" horiz-adv-x="1918" d="M25 0l712 1366h451l706 -1366h-419l-138 285h-805l-135 -285h-372zM649 524h576l-289 594z" />
<glyph unicode="B" horiz-adv-x="1587" d="M154 0v1366h764q244 0 372 -78q145 -88 146 -262q0 -121 -73 -203t-204 -106v-19q154 -16 241 -102t87 -225q0 -174 -137 -279q-123 -92 -365 -92h-831zM518 238h313q145 0 205 32q74 41 74 137.5t-72 135.5q-63 33 -235 32h-285v-337zM518 803h266q145 0 210 39t65 129 q0 84 -60 121q-53 37 -219 36h-262v-325z" />
<glyph unicode="C" horiz-adv-x="1732" d="M100 664q0 383 248 577q207 166 584 166q477 0 643 -252q68 -98 70 -237h-408q-33 223 -328 223q-426 0 -426 -467q0 -449 422 -449q317 0 348 226h402q-12 -176 -119 -293q-182 -199 -618 -199q-434 0 -642 207q-176 181 -176 498z" />
<glyph unicode="D" horiz-adv-x="1783" d="M154 0v1366h657q248 0 393.5 -36t253.5 -122q106 -82 165.5 -223t59.5 -307q0 -190 -75.5 -340t-212.5 -225q-203 -113 -574 -113h-667zM526 246h183q195 0 299 21.5t166 72.5q127 109 126 352q0 252 -151 352q-113 76 -387 76h-236v-874z" />
<glyph unicode="E" horiz-adv-x="1404" d="M154 0v1366h1136v-266h-764v-271h711v-266h-711v-297h779v-266h-1151z" />
<glyph unicode="F" horiz-adv-x="1343" d="M154 0v1366h1112v-266h-740v-293h686v-266h-686v-541h-372z" />
<glyph unicode="G" horiz-adv-x="1789" d="M100 657q0 352 232.5 551t642.5 199q395 0 588 -182q57 -53 82.5 -117t31.5 -162h-397q-12 88 -59 127q-82 68 -256 68q-231 0 -356.5 -124t-125.5 -353q0 -197 101 -310q121 -129 420 -129q137 0 294 27v254h-368v244h721v-719q-397 -72 -670 -72q-451 0 -659 162 q-222 174 -222 536z" />
<glyph unicode="H" horiz-adv-x="1781" d="M154 0v1366h372v-537h729v537h373v-1366h-373v563h-729v-563h-372z" />
<glyph unicode="I" horiz-adv-x="679" d="M154 0v1366h372v-1366h-372z" />
<glyph unicode="J" horiz-adv-x="1421" d="M23 453v20h378q0 -119 41 -172q57 -76 195 -76q141 0 198.5 91.5t57.5 312.5v737h373v-762q0 -330 -158 -479q-176 -166 -498 -166q-356 0 -510 207q-77 105 -77 287z" />
<glyph unicode="K" horiz-adv-x="1699" d="M154 0v1366h372v-1366h-372zM551 735l584 631h464l-616 -606l692 -760h-501z" />
<glyph unicode="L" horiz-adv-x="1308" d="M154 0v1366h372v-1100h758v-266h-1130z" />
<glyph unicode="M" horiz-adv-x="2361" d="M154 0v1366h587l451 -985l436 985h578v-1366h-355v1112l-510 -1112h-366l-504 1077v-1077h-317z" />
<glyph unicode="N" horiz-adv-x="1837" d="M154 0v1366h483l709 -1061v1061h335v-1366h-559l-633 942v-942h-335z" />
<glyph unicode="O" horiz-adv-x="1810" d="M100 696q0 158 60.5 300.5t167.5 230.5q217 180 575 180q381 0 594 -190.5t213 -532.5q0 -188 -69.5 -341t-196.5 -243q-199 -141 -539 -141q-389 0 -592 188q-213 197 -213 549zM483 684q0 -211 90 -322q115 -137 334 -137q201 0 310.5 119t109.5 336q0 225 -108.5 343 t-315.5 118q-203 0 -311.5 -118t-108.5 -339z" />
<glyph unicode="P" horiz-adv-x="1523" d="M154 0v1366h723q340 0 481 -135q115 -111 115 -299q0 -201 -146 -322q-141 -115 -407 -114h-394v-496h-372zM526 741h209q201 0 278 42t77 149q0 96 -62 139q-68 49 -283 49h-219v-379z" />
<glyph unicode="Q" horiz-adv-x="1906" d="M100 688q0 305 174 488q217 231 635 231q367 0 578 -174q111 -92 172 -230.5t61 -295.5q0 -377 -334 -537l15 -29q203 104 483 105q43 0 80 -2v-264q-227 10 -496 10q-135 0 -358 -19q-135 -12 -223 -12q-332 0 -535 150q-119 88 -185.5 239.5t-66.5 339.5zM483 686 q0 -221 111 -341t315 -120q197 0 312.5 126t115.5 341q0 211 -111.5 330t-310.5 119q-205 0 -318.5 -120t-113.5 -335z" />
<glyph unicode="R" horiz-adv-x="1615" d="M154 0v1366h815q270 0 391 -84q139 -94 139 -262q0 -127 -83 -212t-236 -112v-20q129 -6 194.5 -68.5t83.5 -195.5l58 -412h-388l-36 305q-16 137 -62 180q-57 53 -188 54h-316v-539h-372zM526 784h359q233 0 233 172q0 86 -61.5 125t-198.5 39h-332v-336z" />
<glyph unicode="S" horiz-adv-x="1556" d="M100 432h383q6 -115 62 -162q72 -59 231 -59q143 0 220 44t77 126q0 78 -72 115q-33 18 -75.5 26t-235.5 35q-293 39 -399 107q-164 100 -164 294q0 229 178 334q195 113 516 113q309 0 449.5 -98.5t142.5 -319.5h-377q-2 92 -55 129t-186 37q-287 0 -287 -145 q0 -68 63 -99q59 -29 277 -61q190 -29 268 -47.5t141 -50.5q199 -102 199 -328q0 -463 -717 -463q-328 0 -483.5 106.5t-155.5 331.5v35z" />
<glyph unicode="T" horiz-adv-x="1478" d="M25 1100v266h1429v-266h-528v-1100h-373v1100h-528z" />
<glyph unicode="U" horiz-adv-x="1787" d="M154 614v752h372v-688q0 -244 88 -346q94 -106 285 -107q176 0 268 99q94 100 95 346v696h372v-731q0 -195 -53 -324t-168 -211q-197 -141 -530 -141q-326 0 -518 135q-111 78 -161 201.5t-50 318.5z" />
<glyph unicode="V" horiz-adv-x="1736" d="M25 1366h417l435 -1034l454 1034h381l-635 -1366h-436z" />
<glyph unicode="W" horiz-adv-x="2383" d="M25 1366h403l279 -932l280 932h443l299 -963l272 963h358l-420 -1366h-440l-305 979l-299 -979h-442z" />
<glyph unicode="X" horiz-adv-x="1769" d="M25 0l634 713l-587 653h479l358 -416l369 416h430l-590 -653l627 -713h-485l-398 475l-411 -475h-426z" />
<glyph unicode="Y" horiz-adv-x="1748" d="M25 1366h460l420 -569l408 569h411l-657 -891v-475h-373v475z" />
<glyph unicode="Z" horiz-adv-x="1505" d="M86 0v334l856 778h-805v254h1256v-330l-863 -782h889v-254h-1333z" />
<glyph unicode="[" horiz-adv-x="669" d="M137 -301v1667h424v-205h-151v-1257h151v-205h-424z" />
<glyph unicode="\" horiz-adv-x="1374" d="M55 1366h240l1102 -1602h-246z" />
<glyph unicode="]" horiz-adv-x="669" d="M109 -96h149v1257h-149v205h421v-1667h-421v205z" />
<glyph unicode="^" d="M16 696l291 678h412l289 -678h-326l-168 428l-172 -428h-326z" />
<glyph unicode="_" d="M0 -102h1024v-217h-1024v217z" />
<glyph unicode="`" d="M188 1366h396l250 -279h-310z" />
<glyph unicode="a" horiz-adv-x="1435" d="M111 258q0 231 303 303q156 37 534 37q-2 113 -53 160t-168 47q-109 0 -159 -33t-66 -117l-342 -4q0 82 27.5 135.5t93.5 98.5q143 98 448 98q281 0 414 -93t133 -292v-598h-318v174q-29 -57 -56.5 -89t-78.5 -58q-125 -68 -291 -68q-203 0 -312 78t-109 221zM459 287 q0 -61 50 -95t142 -34q135 0 219 71q39 35 55.5 79t20.5 128h-72q-236 0 -325.5 -32.5t-89.5 -116.5z" />
<glyph unicode="b" horiz-adv-x="1540" d="M158 0v1366h342v-596q78 100 159 148q121 66 283 65q229 0 364.5 -131t135.5 -356q0 -238 -151.5 -387.5t-393.5 -149.5q-244 0 -397 166v-125h-342zM485 469q0 -139 81 -219t220 -80q133 0 213 83t80 222q0 137 -77.5 217t-210.5 80q-135 0 -220.5 -84t-85.5 -219z" />
<glyph unicode="c" horiz-adv-x="1406" d="M96 453q0 131 52.5 241.5t146.5 177.5q158 113 459 113q266 0 401 -88t162 -279h-334q-39 156 -242 156q-283 0 -282 -309q0 -295 276 -295q215 0 248 184h348q-2 -80 -20.5 -130t-59.5 -97q-150 -168 -551 -168q-291 0 -436 111q-168 129 -168 383z" />
<glyph unicode="d" horiz-adv-x="1544" d="M96 446q0 244 148.5 390.5t396.5 146.5q252 0 401 -170v553h342v-1366h-342v166q-92 -111 -196.5 -159t-247.5 -48q-231 0 -366.5 131t-135.5 356zM459 475q0 -139 75.5 -222t206.5 -83q139 0 225.5 85t86.5 224q0 135 -80 214t-217 79q-133 0 -215 -82t-82 -215z" />
<glyph unicode="e" horiz-adv-x="1423" d="M96 451q0 258 163 395t470 137q598 0 598 -549q0 -29 -2 -47h-891q8 -117 62 -170q76 -76 223 -76q92 0 162 33q61 31 73 105h344q-8 -119 -84 -189q-66 -61 -205 -97t-309 -36q-309 0 -456.5 120t-147.5 374zM440 571h555q-8 233 -264 234q-250 -1 -291 -234z" />
<glyph unicode="f" horiz-adv-x="935" d="M35 723v219h231v74q0 205 99.5 281.5t363.5 76.5q109 0 199 -10v-201q-59 8 -111 8q-125 0 -168 -39.5t-43 -152.5q0 -23 2 -37h295v-219h-295v-723h-342v723h-231z" />
<glyph unicode="g" horiz-adv-x="1525" d="M96 477q0 219 152.5 362.5t388.5 143.5q246 0 395 -174v133h342v-801q0 -197 -54 -300t-187 -163q-176 -80 -486 -79q-348 0 -446 149q-45 68 -47 184h344q10 -72 49 -98q55 -41 176 -41q213 0 272 133q37 88 37 295q-63 -92 -151 -141q-127 -74 -293 -74 q-225 0 -358.5 128t-133.5 343zM459 498q0 -131 74.5 -206t203.5 -75q135 0 216 78t81 205q0 121 -80 196.5t-211 75.5q-127 0 -205.5 -75.5t-78.5 -198.5z" />
<glyph unicode="h" horiz-adv-x="1495" d="M158 0v1366h342v-586q90 102 180 144.5t221 42.5q301 0 393 -191q49 -100 49 -330v-446h-342v438q0 176 -57 242q-61 68 -178 68q-70 0 -128 -29t-89 -78q-49 -78 -49 -235v-406h-342z" />
<glyph unicode="i" horiz-adv-x="657" d="M158 0v942h342v-942h-342zM158 1118v240h342v-240h-342z" />
<glyph unicode="j" horiz-adv-x="657" d="M-82 -143q70 -4 72 -4q104 0 137 45t33 188v856h342v-879q0 -133 -22.5 -206.5t-76.5 -122.5q-106 -96 -290 -96q-74 0 -195 18v201zM160 1122v240h342v-240h-342z" />
<glyph unicode="k" horiz-adv-x="1443" d="M158 0v1366h342v-1366h-342zM520 522l445 420h378l-434 -393l533 -549h-451z" />
<glyph unicode="l" horiz-adv-x="657" d="M158 0v1366h342v-1366h-342z" />
<glyph unicode="m" horiz-adv-x="2275" d="M158 942h342v-166q78 102 164 146.5t206 44.5q289 0 398 -222q135 221 403 222q262 0 373 -156q78 -106 78 -346v-465h-342v416q0 160 -35 229q-53 102 -186 103q-76 0 -134.5 -38t-83.5 -102q-29 -74 -28 -233v-375h-342v391q0 164 -29 238q-23 53 -74 86t-116.5 33 t-124 -34t-84.5 -89q-43 -88 -43 -248v-377h-342v942z" />
<glyph unicode="n" horiz-adv-x="1490" d="M158 0v942h334v-215q55 106 124 158q113 82 289 82q217 0 334 -113q98 -98 98 -334v-520h-342v399q0 160 -24 232q-39 117 -187 117q-68 0 -128 -32t-95 -85q-61 -94 -61 -275v-356h-342z" />
<glyph unicode="o" horiz-adv-x="1552" d="M96 475q0 115 55.5 221.5t147.5 169.5q170 117 463 117q328 0 510 -135t182 -377t-178 -377t-494 -135q-301 0 -473 111q-213 139 -213 405zM459 473q0 -152 82 -233.5t233.5 -81.5t234.5 82t83 233q0 145 -84 228t-230 83q-147 0 -233 -84t-86 -227z" />
<glyph unicode="p" horiz-adv-x="1542" d="M158 -356v1298h342v-170q59 98 131 141q119 70 297 70q244 0 381 -130t137 -365.5t-152.5 -382t-398.5 -146.5q-121 0 -211 37t-184 127v-479h-342zM479 465q0 -135 82 -215t219 -80q135 0 219 85t84 220q0 133 -80.5 215t-211.5 82q-135 0 -223.5 -87t-88.5 -220z" />
<glyph unicode="q" horiz-adv-x="1542" d="M94 453q0 236 154.5 383t402.5 147q252 0 389 -164v123h342v-1296h-342v524q-55 -100 -141 -147q-115 -63 -274 -64q-252 0 -385 127q-146 136 -146 367zM457 471q0 -139 76.5 -220t209.5 -81q139 0 225.5 85t86.5 224q0 131 -83 212t-216 81t-216 -84t-83 -217z" />
<glyph unicode="r" horiz-adv-x="978" d="M158 942h342v-266q20 90 56 142t101 87q86 45 203 45q39 0 72 -4v-284q-80 6 -113 6q-168 0 -243.5 -88t-75.5 -283v-297h-342v942z" />
<glyph unicode="s" horiz-adv-x="1296" d="M84 299h340q23 -162 221 -162q215 0 215 123q0 68 -61 86q-43 14 -228 33q-219 20 -309 61q-137 63 -137 221t137 240t397 82q315 0 439 -106q43 -37 62.5 -83t23.5 -130h-342q-6 68 -39 96q-45 45 -158 45q-84 0 -133 -27.5t-49 -75.5q0 -35 22 -57q14 -18 49 -25.5 t166 -23.5q195 -20 265.5 -34.5t119.5 -41.5q127 -66 127 -229q0 -332 -561 -332q-319 0 -452 88q-63 41 -89 97.5t-26 154.5z" />
<glyph unicode="t" horiz-adv-x="954" d="M35 723v219h237v191l342 124v-315h306v-219h-306v-301q0 -135 39 -179t162 -44q47 0 105 8v-207q-117 -20 -258 -20q-201 0 -295.5 86t-94.5 270v387h-237z" />
<glyph unicode="u" horiz-adv-x="1490" d="M152 422v520h342v-399q0 -160 24 -232q39 -117 187 -116q68 0 128 31.5t95 84.5q61 94 61 275v356h342v-942h-334v215q-55 -106 -125 -158q-113 -82 -288 -82q-217 0 -334 113q-98 98 -98 334z" />
<glyph unicode="v" horiz-adv-x="1394" d="M25 942h376l316 -690l325 690h328l-465 -942h-418z" />
<glyph unicode="w" horiz-adv-x="2195" d="M25 942h364l262 -620l281 620h377l280 -620l260 620h322l-416 -942h-371l-286 633l-293 -633h-363z" />
<glyph unicode="x" horiz-adv-x="1435" d="M35 0l461 506l-404 436h426l209 -250l207 250h397l-397 -436l465 -506h-432l-265 299l-282 -299h-385z" />
<glyph unicode="y" horiz-adv-x="1363" d="M25 942h381l301 -606l309 606h323l-677 -1298h-330l188 360z" />
<glyph unicode="z" horiz-adv-x="1191" d="M76 0v256l563 475h-524v211h950v-237l-576 -494h625v-211h-1038z" />
<glyph unicode="{" d="M160 352v301q113 23 112 160v279q0 166 80 231q45 37 102.5 49t188.5 12q10 0 36 -1t74 -2t91 -1v-344h-33q-98 0 -133 -20q-23 -16 -30 -40t-7 -89v-139q0 -102 -24.5 -154.5t-96.5 -99.5q70 -45 95.5 -99.5t25.5 -156.5v-154q0 -72 7 -94.5t34 -38.5q33 -18 125 -19h37 v-323q-31 -2 -62 -2l-63 -2q-12 0 -41 -1t-43 -1q-131 0 -190.5 15t-104.5 60q-68 66 -68 224v272q0 84 -25.5 125t-86.5 53z" />
<glyph unicode="|" d="M324 -342v1708h374v-1708h-374z" />
<glyph unicode="}" d="M180 1055v325h64l61 2q14 0 42 1t42 1q129 0 189.5 -15t105.5 -60q68 -68 68 -222v-272q0 -86 25.5 -126t86.5 -54v-301q-113 -25 -112 -160v-278q0 -164 -80 -232q-45 -37 -102.5 -49t-184.5 -12q-41 0 -205 4v344h33q98 0 133 20q23 16 30 39t7 90v140q0 100 24.5 153 t96.5 101q-70 45 -95.5 99t-25.5 157v155q0 70 -7 92.5t-34 38.5q-33 18 -127 19h-35z" />
<glyph unicode="~" horiz-adv-x="1366" d="M188 1255q117 301 318 301q41 0 89 -15t212 -79q43 -16 70 -16q70 0 127 117l178 -152q-63 -162 -137 -230.5t-183 -68.5q-45 0 -83 11.5t-148 56.5q-100 41 -139 41q-66 0 -125 -117z" />
<glyph unicode="&#xa1;" horiz-adv-x="679" d="M143 -424l62 965h268l64 -965h-394zM174 672v270h330v-270h-330z" />
<glyph unicode="&#xa2;" horiz-adv-x="1515" d="M139 674q0 279 199 420q66 47 134.5 69.5t189.5 34.5v186h190v-180q231 -4 360 -96t146 -266h-334q-37 154 -240 153q-283 0 -282 -309q0 -291 274 -291q217 0 248 183h350q2 -170 -135 -272.5t-387 -117.5v-237h-190v237q-186 10 -285 62q-113 57 -175.5 168t-62.5 256z " />
<glyph unicode="&#xa3;" horiz-adv-x="1515" d="M78 606v252h198v90q0 238 138 336q164 117 479 117q264 0 404.5 -88t140.5 -256v-33h-385q-4 154 -191 154q-115 0 -168 -66q-39 -49 -39 -182v-72h375v-252h-375v-340h772v-266h-1321v266h170v340h-198z" />
<glyph unicode="&#xa4;" horiz-adv-x="1486" d="M68 221l213 211q-70 123 -70 260q0 129 76 269l-217 217l190 192l221 -223q139 70 262 70q121 0 256 -68l222 219l188 -190l-213 -213q78 -135 78 -273q0 -125 -68 -258l211 -213l-188 -190l-211 211q-131 -80 -268 -80q-139 0 -281 78l-211 -209zM535 692 q0 -86 61 -147.5t145 -61.5q86 0 147.5 61.5t61.5 149.5q0 84 -61.5 146.5t-143.5 62.5q-90 0 -150 -60.5t-60 -150.5z" />
<glyph unicode="&#xa5;" horiz-adv-x="1515" d="M76 1366h377l315 -590l317 590h357l-211 -373h151v-239h-290l-60 -113h342v-235h-444v-406h-352v406h-441v235h344l-63 113h-287v239h152z" />
<glyph unicode="&#xa6;" d="M324 313h374v-655h-374v655zM324 629v737h374v-737h-374z" />
<glyph unicode="&#xa7;" horiz-adv-x="1212" d="M137 571q0 100 54.5 176t175.5 144q-164 96 -164 231q0 127 108.5 201t296.5 74q195 0 416 -68l-2 -229q-80 29 -191.5 52.5t-173.5 23.5q-104 0 -104 -58q0 -45 98 -90l172 -80q252 -117 252 -325q0 -154 -119 -254q-35 -31 -104 -80q188 -90 188 -260 q0 -135 -119.5 -218t-314.5 -83q-207 0 -424 55v231q172 -55 348 -55q166 0 166 74q0 35 -28.5 57.5t-128.5 67.5q-211 94 -291 168q-111 98 -111 245zM428 592q0 -100 102 -160q27 -16 111 -55q143 117 143 221q0 68 -42 107.5t-169 93.5q-86 -76 -115.5 -118t-29.5 -89z " />
<glyph unicode="&#xa8;" d="M145 1081v285h289v-285h-289zM590 1081v285h289v-285h-289z" />
<glyph unicode="&#xa9;" horiz-adv-x="1564" d="M74 682q0 299 209 507t512 208q287 0 492.5 -211t205.5 -504q0 -295 -208 -504t-500.5 -209t-501.5 210t-209 503zM242 682q0 -229 159.5 -394t383 -165t382 164t158.5 395q0 229 -157.5 394t-374.5 165q-231 0 -391 -161.5t-160 -397.5zM397 688q0 180 109.5 295 t284.5 115q143 0 242.5 -84t107.5 -213h-164q-14 51 -63.5 80.5t-120.5 29.5q-82 0 -130.5 -60t-48.5 -165q0 -102 48.5 -161.5t130.5 -59.5q78 0 128 37t60 104h166q-12 -152 -109.5 -239.5t-253.5 -87.5q-174 0 -280.5 112.5t-106.5 296.5z" />
<glyph unicode="&#xaa;" horiz-adv-x="710" d="M35 602v154h645v-154h-645zM49 1001q0 74 51 115q31 27 131 49l27 6q37 8 41 9q70 14 86 21t16 24q0 41 -71 41q-61 0 -68 -49h-192q6 96 67.5 139t194.5 43q137 0 198 -49q70 -53 70 -168v-201q0 -47 12.5 -70.5t49.5 -48.5h-238l-10 29q-2 8 -6 18q-51 -41 -80 -52 t-78 -11q-92 0 -146.5 41.5t-54.5 113.5zM229 1014q0 -47 62 -47q100 0 112 112l3 21q-41 -18 -109 -30.5t-68 -55.5z" />
<glyph unicode="&#xab;" horiz-adv-x="1370" d="M61 471l416 477h256l-325 -469l333 -469h-256zM608 471l414 477h256l-326 -469l336 -469h-258z" />
<glyph unicode="&#xac;" d="M68 281v325h886v-606h-362v281h-524z" />
<glyph unicode="&#xad;" horiz-adv-x="792" d="M0 385v213h793v-213h-793z" />
<glyph unicode="&#xae;" horiz-adv-x="1564" d="M74 682q0 299 209 507t512 208q287 0 492.5 -211t205.5 -504q0 -295 -208 -504t-500.5 -209t-501.5 210t-209 503zM242 682q0 -229 159.5 -394t383 -165t382 165t158.5 394t-157.5 394t-374.5 165q-231 0 -391 -161.5t-160 -397.5zM485 1085h332q117 0 182 -36 q106 -61 107 -185q0 -131 -127 -190q63 -27 87 -79t28 -177q4 -72 20 -117h-207q-10 25 -16 107q-10 133 -39 165q-35 39 -98 39h-54v-311h-215v784zM700 735h72q63 0 92 26.5t29 84.5q0 109 -111 108h-82v-219z" />
<glyph unicode="&#xaf;" d="M66 1141v211h895v-211h-895z" />
<glyph unicode="&#xb0;" d="M176 1046.5q0 139.5 98.5 238.5t237.5 99t236.5 -98t97.5 -242q0 -137 -98.5 -234t-235.5 -97q-139 0 -237.5 97t-98.5 236.5zM317 1049q0 -82 57.5 -140.5t135.5 -58.5t136.5 58.5t58.5 135.5q0 84 -57.5 143.5t-139.5 59.5q-76 0 -133.5 -59t-57.5 -139z" />
<glyph unicode="&#xb1;" d="M10 18v172h1006v-172h-1006zM10 666v172h412v413h178v-413h416v-172h-416v-396h-178v396h-412z" />
<glyph unicode="&#xb2;" horiz-adv-x="968" d="M109 715q98 53 292 178q143 92 187.5 136t44.5 95q0 45 -40 74t-106 29q-76 0 -109.5 -29t-35.5 -92h-223v35q0 117 97 181t273 64q168 0 268.5 -70.5t100.5 -189.5q0 -150 -192 -274q-61 -41 -273 -143h467v-162h-751v168z" />
<glyph unicode="&#xb3;" horiz-adv-x="968" d="M104 756v24h240q2 -106 139 -106q154 0 154 106q0 59 -38 83t-134 24q-39 0 -64 -2v149h31h27q164 0 164 100.5t-134 100.5q-131 0 -133 -111h-227v25q0 109 96.5 173t263.5 64q170 0 266.5 -62t96.5 -173q0 -74 -49 -126t-127 -64q84 -6 137 -59.5t53 -133.5 q0 -244 -403 -244q-168 0 -263.5 61.5t-95.5 170.5z" />
<glyph unicode="&#xb4;" d="M188 1087l250 279h396l-336 -279h-310z" />
<glyph unicode="&#xb5;" d="M45 -352v1335h313v-496q0 -113 23 -155q43 -88 135 -88q150 0 150 245v494h313v-983h-313v115q-51 -133 -156 -133q-94 0 -152 112v-446h-313z" />
<glyph unicode="&#xb6;" horiz-adv-x="1329" d="M129 1008q0 215 170 305q98 53 299 53h539v-135h-101v-1462h-174v1462h-166v-1462h-174v890q-10 -2 -24 -2q-164 0 -266.5 97.5t-102.5 253.5z" />
<glyph unicode="&#xb7;" horiz-adv-x="561" d="M117 342v272h329v-272h-329z" />
<glyph unicode="&#xb8;" d="M285 -367l184 242h272l-153 -242h-303z" />
<glyph unicode="&#xb9;" horiz-adv-x="968" d="M203 1044v195q49 10 133 50t133 77h195v-819h-224l-4 446q0 4 6 158q-104 -74 -239 -107z" />
<glyph unicode="&#xba;" horiz-adv-x="710" d="M33 602v154h645v-154h-645zM59 1124q0 121 84 198t217 77q127 0 209 -79t82 -200q0 -119 -84 -196.5t-211 -77.5t-212 79.5t-85 198.5zM266 1120q0 -133 88 -133q92 0 92 135q0 137 -88 138q-92 -1 -92 -140z" />
<glyph unicode="&#xbb;" horiz-adv-x="1370" d="M82 10l334 469l-326 469h256l416 -477l-424 -461h-256zM629 10l334 469l-326 469h256l416 -477l-424 -461h-256z" />
<glyph unicode="&#xbc;" horiz-adv-x="2199" d="M203 1044v195q49 10 133 50t133 77h195v-819h-224l-4 446q0 4 6 158q-104 -74 -239 -107zM606 0l807 1366h178l-813 -1366h-172zM1274 170v176l440 473h266v-495h181v-154h-181v-170h-208v170h-498zM1462 324h310v333z" />
<glyph unicode="&#xbd;" horiz-adv-x="2199" d="M203 1044v195q49 10 133 50t133 77h195v-819h-224l-4 446q0 4 6 158q-104 -74 -239 -107zM606 0l807 1366h178l-813 -1366h-172zM1337 168q88 45 293 178q143 92 187.5 136t44.5 96q0 45 -40 73.5t-106 28.5q-76 0 -109.5 -27.5t-35.5 -91.5h-223v35q0 115 97 179.5 t273 64.5q168 0 268.5 -71t100.5 -187q0 -150 -193 -277q-72 -45 -272 -143h467v-162h-752v168z" />
<glyph unicode="&#xbe;" horiz-adv-x="2199" d="M104 756v24h240q2 -106 139 -106q154 0 154 106q0 59 -38 83t-134 24q-39 0 -64 -2v149h31h27q164 0 164 100.5t-134 100.5q-131 0 -133 -111h-227v25q0 109 96.5 173t263.5 64q170 0 266.5 -62t96.5 -173q0 -74 -49 -126t-127 -64q84 -6 137 -59.5t53 -133.5 q0 -244 -403 -244q-168 0 -263.5 61.5t-95.5 170.5zM608 0l807 1366h176l-813 -1366h-170zM1276 170v176l438 473h266v-495h181v-154h-181v-170h-208v170h-496zM1464 324h308v333z" />
<glyph unicode="&#xbf;" horiz-adv-x="1138" d="M68 -88q0 113 64.5 199t215.5 182q143 88 169 125t30 157h299q12 -106 12 -155q0 -68 -32.5 -103.5t-221.5 -171.5q-100 -72 -136 -116.5t-36 -98.5q0 -78 75 -119.5t210 -41.5q158 0 366 45v-236q-197 -37 -417 -37q-598 0 -598 371zM530 676v266h332v-266h-332z" />
<glyph unicode="&#xc0;" horiz-adv-x="1918" d="M25 0l712 1366h451l706 -1366h-419l-138 285h-805l-135 -285h-372zM465 1751h395l250 -276h-309zM649 524h576l-289 594z" />
<glyph unicode="&#xc1;" horiz-adv-x="1918" d="M25 0l712 1366h451l706 -1366h-419l-138 285h-805l-135 -285h-372zM649 524h576l-289 594zM813 1475l250 276h395l-336 -276h-309z" />
<glyph unicode="&#xc2;" horiz-adv-x="1918" d="M25 0l712 1366h451l706 -1366h-419l-138 285h-805l-135 -285h-372zM535 1475l227 278h422l229 -278h-272l-183 204l-174 -204h-249zM649 524h576l-289 594z" />
<glyph unicode="&#xc3;" horiz-adv-x="1918" d="M25 0l712 1366h451l706 -1366h-419l-138 285h-805l-135 -285h-372zM600 1509q10 113 53 170q74 98 201 99q49 0 81 -10.5t101 -49.5q66 -37 103 -37q49 0 59 60h186q-8 -125 -70.5 -199t-156.5 -74q-78 0 -203 64q-72 37 -106 37q-59 0 -72 -60h-176zM649 524h576 l-289 594z" />
<glyph unicode="&#xc4;" horiz-adv-x="1918" d="M25 0l712 1366h451l706 -1366h-419l-138 285h-805l-135 -285h-372zM588 1475v241h264v-241h-264zM649 524h576l-289 594zM1077 1475v241h264v-241h-264z" />
<glyph unicode="&#xc5;" horiz-adv-x="1918" d="M25 0l712 1366h451l706 -1366h-419l-138 285h-805l-135 -285h-372zM649 524h576l-289 594zM743 1671q0 88 64.5 150.5t155.5 62.5q86 0 148.5 -63.5t62.5 -151.5t-62.5 -151.5t-153 -63.5t-153 63.5t-62.5 153.5zM881 1669q0 -33 22.5 -55.5t55 -22.5t55 22.5t22.5 55.5 t-22.5 55.5t-52.5 22.5q-33 0 -56.5 -22.5t-23.5 -55.5z" />
<glyph unicode="&#xc6;" horiz-adv-x="2437" d="M10 0l912 1366h1396v-260h-864l78 -281h743v-260h-676l87 -305h651v-260h-944l-82 291h-736l-184 -291h-381zM733 530h516l-151 560z" />
<glyph unicode="&#xc7;" horiz-adv-x="1732" d="M100 664q0 383 248 577q207 166 584 166q477 0 643 -252q68 -98 70 -237h-408q-33 223 -328 223q-426 0 -426 -467q0 -449 422 -449q317 0 348 226h402q-12 -176 -119 -293q-182 -199 -618 -199q-434 0 -642 207q-176 181 -176 498zM522 -434l228 311h317l-156 -311h-389 z" />
<glyph unicode="&#xc8;" horiz-adv-x="1404" d="M154 0v1366h1136v-266h-764v-271h711v-266h-711v-297h779v-266h-1151zM270 1751h396l249 -276h-309z" />
<glyph unicode="&#xc9;" horiz-adv-x="1404" d="M154 0v1366h1136v-266h-764v-271h711v-266h-711v-297h779v-266h-1151zM563 1475l250 276h395l-336 -276h-309z" />
<glyph unicode="&#xca;" horiz-adv-x="1404" d="M154 0v1366h1136v-266h-764v-271h711v-266h-711v-297h779v-266h-1151zM297 1475l227 278h422l230 -278h-273l-182 204l-174 -204h-250z" />
<glyph unicode="&#xcb;" horiz-adv-x="1404" d="M154 0v1366h1136v-266h-764v-271h711v-266h-711v-297h779v-266h-1151zM332 1475v241h264v-241h-264zM821 1475v241h264v-241h-264z" />
<glyph unicode="&#xcc;" horiz-adv-x="679" d="M-139 1751h395l250 -276h-309zM154 0v1366h372v-1366h-372z" />
<glyph unicode="&#xcd;" horiz-adv-x="679" d="M154 0v1366h372v-1366h-372zM188 1475l250 276h396l-336 -276h-310z" />
<glyph unicode="&#xce;" horiz-adv-x="679" d="M-78 1475l228 278h421l230 -278h-273l-182 204l-174 -204h-250zM156 0v1366h372v-1366h-372z" />
<glyph unicode="&#xcf;" horiz-adv-x="679" d="M-55 1487v239h334v-239h-334zM156 0v1366h372v-1366h-372zM418 1487v239h334v-239h-334z" />
<glyph unicode="&#xd0;" horiz-adv-x="1783" d="M18 586v219h138v561h655q248 0 393.5 -36t253.5 -122q106 -84 165.5 -225t59.5 -307q0 -188 -76.5 -337t-211.5 -226q-203 -113 -574 -113h-665v586h-138zM528 246h181q193 0 298 21.5t167 72.5q127 104 126 350q0 254 -151 354q-113 76 -387 76h-234v-315h408v-219h-408 v-340z" />
<glyph unicode="&#xd1;" horiz-adv-x="1837" d="M154 0v1366h483l709 -1061v1061h335v-1366h-559l-633 942v-942h-335zM567 1509q10 113 54 170q74 98 200 99q49 0 81 -10.5t102 -49.5q66 -37 102 -37q49 0 59 60h187q-8 -125 -70.5 -199t-157.5 -74q-78 0 -202 64q-72 37 -107 37q-59 0 -72 -60h-176z" />
<glyph unicode="&#xd2;" horiz-adv-x="1810" d="M100 696q0 158 60.5 300.5t167.5 230.5q217 180 575 180q381 0 594 -190.5t213 -532.5q0 -188 -69.5 -341t-196.5 -243q-199 -141 -539 -141q-389 0 -592 188q-213 197 -213 549zM440 1751h396l249 -276h-309zM483 684q0 -211 90 -322q115 -137 334 -137q201 0 310.5 119 t109.5 336q0 225 -108.5 343t-315.5 118q-203 0 -311.5 -118t-108.5 -339z" />
<glyph unicode="&#xd3;" horiz-adv-x="1810" d="M100 696q0 158 60.5 300.5t167.5 230.5q217 180 575 180q381 0 594 -190.5t213 -532.5q0 -188 -69.5 -341t-196.5 -243q-199 -141 -539 -141q-389 0 -592 188q-213 197 -213 549zM483 684q0 -211 90 -322q115 -137 334 -137q201 0 310.5 119t109.5 336q0 225 -108.5 343 t-315.5 118q-203 0 -311.5 -118t-108.5 -339zM748 1475l249 276h396l-336 -276h-309z" />
<glyph unicode="&#xd4;" horiz-adv-x="1810" d="M100 696q0 158 60.5 300.5t167.5 230.5q217 180 575 180q381 0 594 -190.5t213 -532.5q0 -188 -69.5 -341t-196.5 -243q-199 -141 -539 -141q-389 0 -592 188q-213 197 -213 549zM483 684q0 -211 90 -322q115 -137 334 -137q201 0 310.5 119t109.5 336q0 225 -108.5 343 t-315.5 118q-203 0 -311.5 -118t-108.5 -339zM487 1475l228 278h422l229 -278h-272l-183 204l-174 -204h-250z" />
<glyph unicode="&#xd5;" horiz-adv-x="1810" d="M100 696q0 158 60.5 300.5t167.5 230.5q217 180 575 180q381 0 594 -190.5t213 -532.5q0 -188 -69.5 -341t-196.5 -243q-199 -141 -539 -141q-389 0 -592 188q-213 197 -213 549zM483 684q0 -211 90 -322q115 -137 334 -137q201 0 310.5 119t109.5 336q0 225 -108.5 343 t-315.5 118q-203 0 -311.5 -118t-108.5 -339zM567 1509q10 113 54 170q74 98 200 99q49 0 81 -10.5t102 -49.5q66 -37 102 -37q49 0 59 60h187q-8 -125 -70.5 -199t-157.5 -74q-78 0 -202 64q-72 37 -107 37q-59 0 -72 -60h-176z" />
<glyph unicode="&#xd6;" horiz-adv-x="1810" d="M100 696q0 158 60.5 300.5t167.5 230.5q217 180 575 180q381 0 594 -190.5t213 -532.5q0 -188 -69.5 -341t-196.5 -243q-199 -141 -539 -141q-389 0 -592 188q-213 197 -213 549zM483 684q0 -211 90 -322q115 -137 334 -137q201 0 310.5 119t109.5 336q0 225 -108.5 343 t-315.5 118q-203 0 -311.5 -118t-108.5 -339zM549 1475v241h264v-241h-264zM1038 1475v241h265v-241h-265z" />
<glyph unicode="&#xd7;" d="M88 451l303 301l-299 295l123 120l295 -297l301 304l125 -127l-303 -299l301 -297l-123 -123l-297 301l-301 -303z" />
<glyph unicode="&#xd8;" horiz-adv-x="1810" d="M100 686q0 334 214 527.5t585 193.5q190 0 342 -47l145 209l179 -125l-125 -180q270 -190 270 -580q0 -188 -69.5 -342t-196.5 -242q-199 -141 -533 -141q-199 0 -348 45l-149 -215l-178 127l131 188q-129 94 -198 246t-69 336zM483 678q0 -190 76 -297l512 733 q-80 27 -168 27q-205 0 -312.5 -119t-107.5 -344zM735 254q80 -29 172 -29q199 0 309.5 119t110.5 334q0 201 -80 311z" />
<glyph unicode="&#xd9;" horiz-adv-x="1787" d="M154 614v752h372v-688q0 -244 88 -346q94 -106 285 -107q176 0 268 99q94 100 95 346v696h372v-731q0 -195 -53 -324t-168 -211q-197 -141 -530 -141q-326 0 -518 135q-111 78 -161 201.5t-50 318.5zM442 1751h396l249 -276h-309z" />
<glyph unicode="&#xda;" horiz-adv-x="1787" d="M154 614v752h372v-688q0 -244 88 -346q94 -106 285 -107q176 0 268 99q94 100 95 346v696h372v-731q0 -195 -53 -324t-168 -211q-197 -141 -530 -141q-326 0 -518 135q-111 78 -161 201.5t-50 318.5zM741 1475l250 276h395l-335 -276h-310z" />
<glyph unicode="&#xdb;" horiz-adv-x="1787" d="M154 614v752h372v-688q0 -244 88 -346q94 -106 285 -107q176 0 268 99q94 100 95 346v696h372v-731q0 -195 -53 -324t-168 -211q-197 -141 -530 -141q-326 0 -518 135q-111 78 -161 201.5t-50 318.5zM475 1475l227 278h422l230 -278h-273l-182 204l-174 -204h-250z" />
<glyph unicode="&#xdc;" horiz-adv-x="1787" d="M154 614v752h372v-688q0 -244 88 -346q94 -106 285 -107q176 0 268 99q94 100 95 346v696h372v-731q0 -195 -53 -324t-168 -211q-197 -141 -530 -141q-326 0 -518 135q-111 78 -161 201.5t-50 318.5zM537 1475v241h264v-241h-264zM1026 1475v241h264v-241h-264z" />
<glyph unicode="&#xdd;" horiz-adv-x="1748" d="M25 1366h460l420 -569l408 569h411l-657 -891v-475h-373v475zM750 1475l249 276h396l-336 -276h-309z" />
<glyph unicode="&#xde;" horiz-adv-x="1523" d="M154 0v1366h372v-192h351q340 0 481 -136q115 -111 115 -299q0 -197 -146 -319q-141 -115 -407 -115h-394v-305h-372zM526 551h209q201 0 278 42t77 148q0 104 -76 145.5t-269 41.5h-219v-377z" />
<glyph unicode="&#xdf;" horiz-adv-x="1765" d="M158 0v723q0 684 702 684q287 0 443.5 -91t156.5 -257q0 -125 -104 -178q-35 -16 -185 -50q-74 -14 -105.5 -37.5t-31.5 -62.5q0 -45 34 -67.5t146 -49.5q274 -68 349 -122q106 -80 106 -218q0 -152 -137 -233.5t-395 -81.5q-311 0 -449 131q-70 63 -78 191h336 q8 -63 49 -86q53 -37 148 -37q88 0 136 30.5t48 87.5q0 49 -35 77t-125 48q-211 49 -301 91q-76 33 -117.5 94t-41.5 137q0 113 86 186q59 51 182 78q106 25 132 39t26 51q0 57 -70 94t-176 37q-217 0 -316 -151q-72 -111 -71 -359v-698h-342z" />
<glyph unicode="&#xe0;" horiz-adv-x="1435" d="M111 258q0 231 303 303q156 37 534 37q-2 113 -53 160t-168 47q-109 0 -159 -33t-66 -117l-342 -4q0 82 27.5 135.5t93.5 98.5q143 98 448 98q281 0 414 -93t133 -292v-598h-318v174q-29 -57 -56.5 -89t-78.5 -58q-125 -68 -291 -68q-203 0 -312 78t-109 221zM272 1366 h396l250 -279h-310zM459 287q0 -61 50 -95t142 -34q135 0 219 71q39 35 55.5 79t20.5 128h-72q-236 0 -325.5 -32.5t-89.5 -116.5z" />
<glyph unicode="&#xe1;" horiz-adv-x="1435" d="M111 258q0 231 303 303q156 37 534 37q-2 113 -53 160t-168 47q-109 0 -159 -33t-66 -117l-342 -4q0 82 27.5 135.5t93.5 98.5q143 98 448 98q281 0 414 -93t133 -292v-598h-318v174q-29 -57 -56.5 -89t-78.5 -58q-125 -68 -291 -68q-203 0 -312 78t-109 221zM459 287 q0 -61 50 -95t142 -34q135 0 219 71q39 35 55.5 79t20.5 128h-72q-236 0 -325.5 -32.5t-89.5 -116.5zM571 1087l250 279h396l-336 -279h-310z" />
<glyph unicode="&#xe2;" horiz-adv-x="1435" d="M111 258q0 231 303 303q156 37 534 37q-2 113 -53 160t-168 47q-109 0 -159 -33t-66 -117l-342 -4q0 82 27.5 135.5t93.5 98.5q143 98 448 98q281 0 414 -93t133 -292v-598h-318v174q-29 -57 -56.5 -89t-78.5 -58q-125 -68 -291 -68q-203 0 -312 78t-109 221zM305 1087 l227 279h422l230 -279h-273l-182 205l-174 -205h-250zM459 287q0 -61 50 -95t142 -34q135 0 219 71q39 35 55.5 79t20.5 128h-72q-236 0 -325.5 -32.5t-89.5 -116.5z" />
<glyph unicode="&#xe3;" horiz-adv-x="1435" d="M111 258q0 231 303 303q156 37 534 37q-2 113 -53 160t-168 47q-109 0 -159 -33t-66 -117l-342 -4q0 82 27.5 135.5t93.5 98.5q143 98 448 98q281 0 414 -93t133 -292v-598h-318v174q-29 -57 -56.5 -89t-78.5 -58q-125 -68 -291 -68q-203 0 -312 78t-109 221zM373 1133 q10 115 53 172q70 98 201 98q49 0 80.5 -10.5t101.5 -49.5q63 -37 102 -36q49 0 60 59h186q-10 -127 -71.5 -200.5t-155.5 -73.5q-82 0 -203 61q-78 39 -106 39q-59 0 -72 -59h-176zM459 287q0 -61 50 -95t142 -34q135 0 219 71q39 35 55.5 79t20.5 128h-72 q-236 0 -325.5 -32.5t-89.5 -116.5z" />
<glyph unicode="&#xe4;" horiz-adv-x="1435" d="M111 258q0 231 303 303q156 37 534 37q-2 113 -53 160t-168 47q-109 0 -159 -33t-66 -117l-342 -4q0 82 27.5 135.5t93.5 98.5q143 98 448 98q281 0 414 -93t133 -292v-598h-318v174q-29 -57 -56.5 -89t-78.5 -58q-125 -68 -291 -68q-203 0 -312 78t-109 221zM358 1081 v285h289v-285h-289zM459 287q0 -61 50 -95t142 -34q135 0 219 71q39 35 55.5 79t20.5 128h-72q-236 0 -325.5 -32.5t-89.5 -116.5zM803 1081v285h289v-285h-289z" />
<glyph unicode="&#xe5;" horiz-adv-x="1435" d="M111 258q0 231 303 303q156 37 534 37q-2 113 -53 160t-168 47q-109 0 -159 -33t-66 -117l-342 -4q0 82 27.5 135.5t93.5 98.5q143 98 448 98q281 0 414 -93t133 -292v-598h-318v174q-29 -57 -56 -89t-79 -58q-125 -68 -291 -68q-203 0 -312 78t-109 221zM459 287 q0 -61 50 -95t142 -34q135 0 219 71q39 35 55.5 79t20.5 128h-71q-236 0 -326 -32.5t-90 -116.5zM522 1296q0 86 61.5 146.5t149.5 60.5q84 0 144.5 -61.5t60.5 -145.5q0 -86 -61.5 -147.5t-145.5 -61.5q-88 0 -148.5 61.5t-60.5 147.5zM651 1296q0 -35 22.5 -57t57.5 -22 q33 0 55.5 23.5t22.5 55.5q0 31 -22.5 54.5t-55.5 23.5t-56.5 -22.5t-23.5 -55.5z" />
<glyph unicode="&#xe6;" horiz-adv-x="2267" d="M111 268q0 90 54 161t154 110q158 66 453 65h143h60q-8 102 -66.5 148.5t-179.5 46.5q-100 0 -148.5 -30t-58.5 -97h-338q2 86 35 140t111 97q135 74 370 74q311 0 437 -158q150 158 438 158q221 0 364.5 -85t196.5 -243q31 -90 33 -239h-864q2 -106 41 -164 q76 -109 239 -109q184 0 209 138h352q-4 -72 -23.5 -115t-64.5 -84q-66 -55 -185.5 -89t-252.5 -34q-180 0 -328 59q-104 43 -172 132q-166 -190 -528 -191q-223 0 -352 83t-129 226zM459 283q0 -66 59.5 -103t161.5 -37q295 0 295 277q-168 0 -299 -8.5t-168 -34.5 q-49 -31 -49 -94zM1317 600h524q-8 199 -264 199q-123 0 -184.5 -47.5t-75.5 -151.5z" />
<glyph unicode="&#xe7;" horiz-adv-x="1406" d="M96 453q0 131 52.5 241.5t146.5 177.5q158 113 459 113q266 0 401 -88t162 -279h-334q-39 156 -242 156q-283 0 -282 -309q0 -295 276 -295q215 0 248 184h348q-2 -80 -20.5 -130t-59.5 -97q-150 -168 -551 -168q-291 0 -436 111q-168 129 -168 383zM399 -367l185 242 h272l-154 -242h-303z" />
<glyph unicode="&#xe8;" horiz-adv-x="1423" d="M96 451q0 258 163 395t470 137q598 0 598 -549q0 -29 -2 -47h-891q8 -117 62 -170q76 -76 223 -76q92 0 162 33q61 31 73 105h344q-8 -119 -84 -189q-66 -61 -205 -97t-309 -36q-309 0 -456.5 120t-147.5 374zM252 1366h395l250 -279h-309zM440 571h555q-8 233 -264 234 q-250 -1 -291 -234z" />
<glyph unicode="&#xe9;" horiz-adv-x="1423" d="M96 451q0 258 163 395t470 137q598 0 598 -549q0 -29 -2 -47h-891q8 -117 62 -170q76 -76 223 -76q92 0 162 33q61 31 73 105h344q-8 -119 -84 -189q-66 -61 -205 -97t-309 -36q-309 0 -456.5 120t-147.5 374zM440 571h555q-8 233 -264 234q-250 -1 -291 -234zM573 1087 l250 279h396l-336 -279h-310z" />
<glyph unicode="&#xea;" horiz-adv-x="1423" d="M96 451q0 258 163 395t470 137q598 0 598 -549q0 -29 -2 -47h-891q8 -117 62 -170q76 -76 223 -76q92 0 162 33q61 31 73 105h344q-8 -119 -84 -189q-66 -61 -205 -97t-309 -36q-309 0 -456.5 120t-147.5 374zM319 1087l228 279h422l229 -279h-272l-183 205l-174 -205 h-250zM440 571h555q-8 233 -264 234q-250 -1 -291 -234z" />
<glyph unicode="&#xeb;" horiz-adv-x="1423" d="M96 451q0 258 163 395t470 137q598 0 598 -549q0 -29 -2 -47h-891q8 -117 62 -170q76 -76 223 -76q92 0 162 33q61 31 73 105h344q-8 -119 -84 -189q-66 -61 -205 -97t-309 -36q-309 0 -456.5 120t-147.5 374zM365 1081v285h288v-285h-288zM440 571h555q-8 233 -264 234 q-250 -1 -291 -234zM809 1081v285h289v-285h-289z" />
<glyph unicode="&#xec;" horiz-adv-x="657" d="M-152 1366h396l250 -279h-310zM158 0v942h342v-942h-342z" />
<glyph unicode="&#xed;" horiz-adv-x="657" d="M158 0v942h342v-942h-342zM182 1087l250 279h395l-335 -279h-310z" />
<glyph unicode="&#xee;" horiz-adv-x="657" d="M-90 1087l227 279h422l229 -279h-272l-182 205l-174 -205h-250zM158 0v942h342v-942h-342z" />
<glyph unicode="&#xef;" horiz-adv-x="657" d="M14 1126v240h252v-240h-252zM158 0v942h342v-942h-342zM406 1126v240h251v-240h-251z" />
<glyph unicode="&#xf0;" horiz-adv-x="1552" d="M96 467q0 119 54.5 226.5t148.5 172.5q162 115 422 115q201 0 321 -90q-31 113 -135 196.5t-266 124.5l-358 -256l-76 105l262 180q-84 8 -143 8q-76 0 -174 -10l71 147q113 6 185 7q115 0 235 -17l332 242l76 -107l-240 -170q311 -88 479 -297.5t168 -508.5 q0 -270 -139 -406q-176 -170 -545 -170q-315 0 -496.5 136t-181.5 372zM459 475q0 -154 81 -235.5t234 -81.5q152 0 236 82t84 231q0 147 -83 230t-231 83q-150 0 -235.5 -82t-85.5 -227z" />
<glyph unicode="&#xf1;" horiz-adv-x="1490" d="M158 0v942h334v-215q55 106 124 158q113 82 289 82q217 0 334 -113q98 -98 98 -334v-520h-342v399q0 160 -24 232q-39 117 -187 117q-68 0 -128 -32t-95 -85q-61 -94 -61 -275v-356h-342zM387 1133q10 115 53 172q70 98 201 98q49 0 81 -10.5t101 -49.5q66 -37 103 -36 q49 0 59 59h186q-10 -127 -71.5 -200.5t-155.5 -73.5q-82 0 -203 61q-78 39 -106 39q-59 0 -72 -59h-176z" />
<glyph unicode="&#xf2;" horiz-adv-x="1552" d="M96 475q0 115 55.5 221.5t147.5 169.5q170 117 463 117q328 0 510 -135t182 -377t-178 -377t-494 -135q-301 0 -473 111q-213 139 -213 405zM283 1366h395l250 -279h-310zM459 473q0 -152 82 -233.5t233.5 -81.5t234.5 82t83 233q0 145 -84 228t-230 83q-147 0 -233 -84 t-86 -227z" />
<glyph unicode="&#xf3;" horiz-adv-x="1552" d="M96 475q0 115 55.5 221.5t147.5 169.5q170 117 463 117q328 0 510 -135t182 -377t-178 -377t-494 -135q-301 0 -473 111q-213 139 -213 405zM459 473q0 -152 82 -233.5t233.5 -81.5t234.5 82t83 233q0 145 -84 228t-230 83q-147 0 -233 -84t-86 -227zM610 1087l250 279 h395l-335 -279h-310z" />
<glyph unicode="&#xf4;" horiz-adv-x="1552" d="M96 475q0 115 55.5 221.5t147.5 169.5q170 117 463 117q328 0 510 -135t182 -377t-178 -377t-494 -135q-301 0 -473 111q-213 139 -213 405zM356 1087l228 279h422l229 -279h-272l-183 205l-174 -205h-250zM459 473q0 -152 82 -233.5t233.5 -81.5t234.5 82t83 233 q0 145 -84 228t-230 83q-147 0 -233 -84t-86 -227z" />
<glyph unicode="&#xf5;" horiz-adv-x="1552" d="M96 475q0 115 55.5 221.5t147.5 169.5q170 117 463 117q328 0 510 -135t182 -377t-178 -377t-494 -135q-301 0 -473 111q-213 139 -213 405zM451 1133q10 115 53 172q70 98 201 98q49 0 80.5 -10.5t101.5 -49.5q63 -37 102 -36q49 0 60 59h186q-10 -127 -71.5 -200.5 t-155.5 -73.5q-82 0 -203 61q-78 39 -107 39q-59 0 -71 -59h-176zM459 473q0 -152 82 -233.5t233.5 -81.5t234.5 82t83 233q0 145 -84 228t-230 83q-147 0 -233 -84t-86 -227z" />
<glyph unicode="&#xf6;" horiz-adv-x="1552" d="M96 475q0 115 55.5 221.5t147.5 169.5q170 117 463 117q328 0 510 -135t182 -377t-178 -377t-494 -135q-301 0 -473 111q-213 139 -213 405zM422 1081v285h289v-285h-289zM459 473q0 -152 82 -233.5t233.5 -81.5t234.5 82t83 233q0 145 -84 228t-230 83q-147 0 -233 -84 t-86 -227zM866 1081v285h289v-285h-289z" />
<glyph unicode="&#xf7;" d="M10 662v172h1006v-172h-1006zM385 403.5q0 53.5 38 90t91 36.5q51 0 89 -37.5t38 -89.5q0 -53 -37 -91t-90 -38t-91 38t-38 91.5zM385 1091.5q0 53.5 38 91.5t91 38q51 0 89 -37t38 -90.5t-37 -91t-90 -37.5t-91 36.5t-38 90z" />
<glyph unicode="&#xf8;" horiz-adv-x="1552" d="M96 467q0 121 54.5 228.5t148.5 170.5q168 117 457 117q121 0 252 -25l139 201l135 -90l-111 -162q133 -57 208 -173t75 -263q0 -242 -177 -377t-493 -135q-131 0 -254 25l-139 -201l-133 94l111 160q-273 143 -273 430zM459 471q0 -127 63 -213l357 516q-61 10 -103 10 q-147 0 -232 -84t-85 -229zM659 170q57 -12 115 -12q152 0 235 82t83 233q0 135 -72 217z" />
<glyph unicode="&#xf9;" horiz-adv-x="1490" d="M152 422v520h342v-399q0 -160 24 -232q39 -117 187 -116q68 0 128 31.5t95 84.5q61 94 61 275v356h342v-942h-334v215q-55 -106 -125 -158q-113 -82 -288 -82q-217 0 -334 113q-98 98 -98 334zM272 1366h396l250 -279h-310z" />
<glyph unicode="&#xfa;" horiz-adv-x="1490" d="M152 422v520h342v-399q0 -160 24 -232q39 -117 187 -116q68 0 128 31.5t95 84.5q61 94 61 275v356h342v-942h-334v215q-55 -106 -125 -158q-113 -82 -288 -82q-217 0 -334 113q-98 98 -98 334zM586 1087l250 279h395l-336 -279h-309z" />
<glyph unicode="&#xfb;" horiz-adv-x="1490" d="M152 422v520h342v-399q0 -160 24 -232q39 -117 187 -116q68 0 128 31.5t95 84.5q61 94 61 275v356h342v-942h-334v215q-55 -106 -125 -158q-113 -82 -288 -82q-217 0 -334 113q-98 98 -98 334zM307 1087l228 279h421l230 -279h-273l-182 205l-174 -205h-250z" />
<glyph unicode="&#xfc;" horiz-adv-x="1490" d="M152 422v520h342v-399q0 -160 24 -232q39 -117 187 -116q68 0 128 31.5t95 84.5q61 94 61 275v356h342v-942h-334v215q-55 -106 -125 -158q-113 -82 -288 -82q-217 0 -334 113q-98 98 -98 334zM391 1081v285h289v-285h-289zM836 1081v285h288v-285h-288z" />
<glyph unicode="&#xfd;" horiz-adv-x="1363" d="M25 942h381l301 -606l309 606h323l-677 -1298h-330l188 360zM565 1087l250 279h395l-336 -279h-309z" />
<glyph unicode="&#xfe;" horiz-adv-x="1542" d="M158 -356v1722h342v-594q59 98 131 141q119 70 297 70q244 0 381 -130t137 -365.5t-152.5 -382t-398.5 -146.5q-121 0 -211 37t-184 127v-479h-342zM479 465q0 -135 82 -215t219 -80q135 0 219 85t84 220q0 133 -80.5 215t-211.5 82q-135 0 -223.5 -87t-88.5 -220z" />
<glyph unicode="&#xff;" horiz-adv-x="1363" d="M25 942h381l301 -606l309 606h323l-677 -1298h-330l188 360zM344 1081v285h289v-285h-289zM788 1081v285h289v-285h-289z" />
<glyph unicode="&#x152;" horiz-adv-x="2430" d="M100 692q0 211 100.5 372t280.5 239q158 68 439 67q68 0 112 -2q72 -2 150 -2h1132v-260h-731v-281h684v-260h-684v-305h748v-260h-1227q-88 0 -156 -2q-33 -2 -80 -2q-346 0 -536 154q-109 90 -170.5 234t-61.5 308zM483 676q0 -289 232 -383q104 -43 313 -43 q78 0 182 10v846q-106 12 -184 12q-236 0 -346 -61q-94 -51 -145.5 -150.5t-51.5 -230.5z" />
<glyph unicode="&#x153;" horiz-adv-x="2279" d="M96 471q0 233 167 372.5t450 139.5q303 0 467 -152q143 152 413 152q281 0 434.5 -139t153.5 -393v-64h-850q14 -111 60 -162q70 -82 206 -82q166 0 205 133h346q-12 -78 -43.5 -127t-99.5 -94q-145 -96 -373 -96q-289 0 -448 145q-100 -78 -210 -111.5t-269 -33.5 q-297 0 -453 131t-156 381zM459 475q0 -150 75.5 -241t200.5 -91q121 0 197 90.5t76 233.5q0 150 -75 241t-196 91q-123 0 -200.5 -90.5t-77.5 -233.5zM1335 571h516q-2 94 -39 142q-66 86 -217 86q-121 0 -183.5 -54.5t-76.5 -173.5z" />
<glyph unicode="&#x178;" horiz-adv-x="1748" d="M25 1366h460l420 -569l408 569h411l-657 -891v-475h-373v475zM524 1475v241h264v-241h-264zM1014 1475v241h264v-241h-264z" />
<glyph unicode="&#x2c6;" d="M74 1087l227 279h422l229 -279h-272l-182 205l-174 -205h-250z" />
<glyph unicode="&#x2dc;" d="M119 1133q10 115 53 172q70 98 201 98q49 0 80.5 -10.5t101.5 -49.5q63 -37 102 -36q49 0 60 59h186q-10 -127 -71.5 -200.5t-155.5 -73.5q-82 0 -203 61q-78 39 -106 39q-59 0 -72 -59h-176z" />
<glyph unicode="&#x2013;" horiz-adv-x="1439" d="M129 385v213h1180v-213h-1180z" />
<glyph unicode="&#x2014;" horiz-adv-x="1957" d="M0 385v213h1958v-213h-1958z" />
<glyph unicode="&#x2018;" horiz-adv-x="696" d="M96 860l256 506h248l-149 -506h-355z" />
<glyph unicode="&#x2019;" horiz-adv-x="708" d="M102 860l152 506h352l-254 -506h-250z" />
<glyph unicode="&#x201a;" horiz-adv-x="708" d="M102 -272l152 505h352l-254 -505h-250z" />
<glyph unicode="&#x201c;" horiz-adv-x="1150" d="M96 930l230 436h227l-141 -436h-316zM602 930l234 436h219l-140 -436h-313z" />
<glyph unicode="&#x201d;" horiz-adv-x="1150" d="M109 930l141 436h315l-229 -436h-227zM614 930l140 436h313l-233 -436h-220z" />
<glyph unicode="&#x201e;" horiz-adv-x="1136" d="M96 -246l142 436h315l-229 -436h-228zM602 -246l139 436h314l-234 -436h-219z" />
<glyph unicode="&#x2022;" horiz-adv-x="1366" d="M401 692q0 119 84 202t205 83q113 0 196 -84t83 -199q0 -119 -83 -201.5t-200 -82.5t-201 82.5t-84 199.5z" />
<glyph unicode="&#x2026;" horiz-adv-x="1683" d="M117 0v272h329v-272h-329zM678 0v272h330v-272h-330zM1239 0v272h330v-272h-330z" />
<glyph unicode="&#x2039;" horiz-adv-x="823" d="M61 471l416 477h256l-325 -469l333 -469h-256z" />
<glyph unicode="&#x203a;" horiz-adv-x="823" d="M82 10l334 469l-326 469h256l416 -477l-424 -461h-256z" />
<glyph unicode="&#x20ac;" horiz-adv-x="1941" d="M74 573l114 226h134q25 197 141 344q213 264 676 264q481 0 649 -252q68 -102 70 -237h-408q-33 223 -328 223q-360 0 -415 -342h505l-114 -226h-396q25 -176 127.5 -262t288.5 -86q317 0 348 226h402q-12 -176 -119 -293q-182 -199 -619 -199q-350 0 -540 125 q-125 84 -190.5 200.5t-82.5 288.5h-243z" />
<glyph unicode="&#x2122;" horiz-adv-x="2451" d="M25 1196v170h903v-170h-328v-649h-248v649h-327zM1057 547v819h379l274 -569l264 569h371v-819h-236v627l-303 -627h-237l-299 608v-608h-213z" />
<glyph unicode="&#xe000;" horiz-adv-x="940" d="M0 940h940v-940h-940v940z" />
<glyph unicode="&#xfb01;" horiz-adv-x="1595" d="M35 723v219h231v74q0 205 99.5 281.5t363.5 76.5q109 0 199 -10v-201q-59 8 -111 8q-125 0 -168 -39.5t-43 -152.5q0 -23 2 -37h295v-219h-295v-723h-342v723h-231zM1094 0v942h342v-942h-342zM1094 1118v240h342v-240h-342z" />
<glyph unicode="&#xfb02;" horiz-adv-x="1595" d="M35 723v219h231v74q0 205 99.5 281.5t363.5 76.5q109 0 199 -10v-201q-59 8 -111 8q-125 0 -168 -39.5t-43 -152.5q0 -23 2 -37h295v-219h-295v-723h-342v723h-231zM1094 0v1366h342v-1366h-342z" />
<glyph unicode="&#xfb03;" horiz-adv-x="2527" d="M2028 0v942h342v-942h-342zM2028 1118v240h342v-240h-342zM970 723v219h231v74q0 205 99.5 281.5t363.5 76.5q109 0 199 -10v-201q-59 8 -111 8q-125 0 -168 -39.5t-43 -152.5q0 -23 2 -37h295v-219h-295v-723h-342v723h-231zM35 723v219h231v74q0 205 99.5 281.5 t363.5 76.5q109 0 199 -10v-201q-59 8 -111 8q-125 0 -168 -39.5t-43 -152.5q0 -23 2 -37h295v-219h-295v-723h-342v723h-231z" />
<glyph unicode="&#xfb04;" horiz-adv-x="2527" d="M2028 0v1366h342v-1366h-342zM970 723v219h231v74q0 205 99.5 281.5t363.5 76.5q109 0 199 -10v-201q-59 8 -111 8q-125 0 -168 -39.5t-43 -152.5q0 -23 2 -37h295v-219h-295v-723h-342v723h-231zM35 723v219h231v74q0 205 99.5 281.5t363.5 76.5q109 0 199 -10v-201 q-59 8 -111 8q-125 0 -168 -39.5t-43 -152.5q0 -23 2 -37h295v-219h-295v-723h-342v723h-231z" />
</font>
</defs>
</svg>
