<?xml version="1.0" standalone="no"?>
<!DOCTYPE svg PUBLIC "-//W3C//DTD SVG 1.1//EN" "http://www.w3.org/Graphics/SVG/1.1/DTD/svg11.dtd" >
<svg xmlns="http://www.w3.org/2000/svg">
<metadata>
This is a custom SVG webfont generated by Fontspring.
</metadata>
<defs>
<font id="UrbanoUltraItalic" horiz-adv-x="1366" >
<font-face units-per-em="2048" ascent="1638" descent="-410" />
<missing-glyph horiz-adv-x="512" />
<glyph unicode=" "  horiz-adv-x="512" />
<glyph unicode="&#x09;" horiz-adv-x="512" />
<glyph unicode="&#xa0;" horiz-adv-x="512" />
<glyph unicode="!" horiz-adv-x="708" d="M125 0l94 313h459l-94 -313h-459zM283 399l215 967h544l-380 -967h-379z" />
<glyph unicode="&#x22;" horiz-adv-x="1071" d="M352 817l82 549h488l-254 -549h-316zM897 817l82 549h489l-256 -549h-315z" />
<glyph unicode="#" horiz-adv-x="1382" d="M291 406l86 192h188l74 162h-190l88 192h188l125 285h199l-127 -285h176l125 285h198l-127 -285h211l-86 -192h-211l-71 -162h211l-86 -192h-211l-140 -312h-196l137 312h-174l-139 -312h-197l137 312h-188zM764 598h174l74 162h-176z" />
<glyph unicode="$" d="M156 401l8 25h516q-45 -152 96 -152q59 0 106.5 31t61.5 76t-14.5 71.5t-108.5 47.5q-350 92 -426 174q-100 104 -47 282q35 115 126 213.5t210 151.5q113 53 270 61l62 199h280l-61 -194q225 0 317.5 -106.5t34.5 -297.5h-483q35 115 -92 115q-53 0 -92 -23.5t-50 -62.5 q-12 -39 19 -62.5t115 -44.5q340 -84 428 -188q88 -106 32 -283q-59 -199 -239.5 -322.5t-419.5 -131.5l-62 -207h-280l61 207q-221 -2 -323 115.5t-45 305.5z" />
<glyph unicode="%" horiz-adv-x="1591" d="M307 662q-20 46 -20 110q0 83 35 197q61 203 184 316.5t280 113.5q147 0 195 -107q21 -47 21 -112q0 -82 -33 -193q-63 -207 -184 -319.5t-281 -112.5q-150 1 -197 107zM377 0l1073 1366h176l-1071 -1366h-178zM544 805q0 -53 36 -53q61 0 133 227q35 117 35 171v11 q0 37 -33 37q-70 0 -133 -211q-38 -126 -38 -182zM1026 82q-20 46 -20 110q0 84 34 199q61 203 184.5 316.5t280.5 113.5q147 0 195 -107q20 -47 20 -111q0 -83 -34 -195q-63 -207 -183.5 -320t-279.5 -113q-150 1 -197 107zM1234 223q0 -24 7 -37q8 -14 27 -14 q66 0 135 227q37 115 37 185q0 37 -33 37q-70 0 -135 -213q-18 -61 -28 -106q-10 -50 -10 -79z" />
<glyph unicode="&#x26;" horiz-adv-x="1683" d="M164 232q-9 35 -9 73q0 52 17 107q55 180 225 254q82 37 201 47q-233 41 -233 198q0 38 14 82q20 74 75.5 142.5t127.5 109.5q205 121 567 121h385l-88 -291h-412q-131 0 -168 -114q-7 -23 -7 -42q0 -53 61 -73q35 -10 127 -10h202l47 151h447l-47 -151h180l-86 -285 h-180l-168 -551h-752q-172 0 -272.5 22.5t-167.5 75.5q-66 49 -86 134zM668 410q-8 -24 -8 -43q0 -30 20 -48q33 -29 123 -28h280l80 260h-196q-123 0 -174 -19q-98 -32 -125 -122z" />
<glyph unicode="'" horiz-adv-x="540" d="M352 817l82 549h502l-254 -549h-330z" />
<glyph unicode="(" horiz-adv-x="790" d="M194 239q7 185 50 328q96 311 471 826h350q-317 -563 -399 -828q-84 -274 -103 -815h-350q-21 239 -21 405q0 45 2 84z" />
<glyph unicode=")" horiz-adv-x="790" d="M72 -250q182 319 269 499.5t134 330.5q86 281 98 813h353q53 -543 -31 -818q-90 -299 -471 -825h-352z" />
<glyph unicode="*" horiz-adv-x="749" d="M414 1094l94 149l151 -55l54 178h155l-53 -178l184 55l5 -149l-185 -54l60 -143l-154 -92l-61 143l-148 -143l-100 90l149 145z" />
<glyph unicode="+" d="M340 559l82 266h379l108 359h267l-109 -359h379l-82 -266h-379l-111 -358h-266l111 358h-379z" />
<glyph unicode="," horiz-adv-x="690" d="M-6 -184l301 581h465l-381 -581h-385z" />
<glyph unicode="-" horiz-adv-x="583" d="M100 334l97 315h583l-96 -315h-584z" />
<glyph unicode="." horiz-adv-x="667" d="M100 0l121 395h465l-121 -395h-465z" />
<glyph unicode="/" horiz-adv-x="821" d="M-154 -231l1049 1597h356l-1048 -1597h-357z" />
<glyph unicode="0" d="M262 668q117 377 356 567q215 166 502 166q184 0 287.5 -59.5t146.5 -188.5q20 -64 20 -144q0 -128 -50 -298q-113 -365 -334 -555.5t-533 -190.5q-451 0 -451 384q0 136 56 319zM705 381q0 -80 69 -80q68 0 118 81t116 292q35 113 51 186.5t16 119.5t-16.5 65.5 t-48.5 19.5q-70 0 -122 -85t-117.5 -302t-65.5 -297z" />
<glyph unicode="1" d="M401 741l119 389q104 27 253 100t226 136h414l-416 -1366h-526l147 483q86 281 136 416q-61 -43 -170 -92.5t-183 -65.5z" />
<glyph unicode="2" d="M84 0l109 358q451 217 694 400q162 121 190 215q14 47 -7 73.5t-73 26.5q-123 0 -170 -158h-481q152 485 762 486q283 0 408.5 -111.5t66.5 -308.5q-61 -199 -280 -365q-135 -102 -469 -272q115 14 364 14h201l-109 -358h-1206z" />
<glyph unicode="3" d="M172 410q0 4 6 14h465l-2 -4q-11 -37 -11 -65q0 -85 103 -85q61 0 109.5 35t66.5 94q9 27 9 50q0 62 -68 83q-51 14 -150 15h-43l88 289h50q106 0 147 14q86 31 113 121q9 27 8 49q0 24 -10 42q-20 34 -74 34q-84 0 -131 -76q-12 -16 -33 -78h-459q70 223 261.5 341 t486.5 118q274 0 396 -103q84 -70 84 -179q0 -50 -17 -107q-37 -119 -134.5 -196t-240.5 -99l-4 -8q139 -6 198 -92q35 -50 36 -118q0 -47 -17 -104q-31 -96 -103.5 -183t-171.5 -142q-184 -104 -477 -105q-379 0 -471 168q-32 66 -32 143q0 64 22 134z" />
<glyph unicode="4" d="M104 221l117 385l694 760h664l-244 -799h166l-104 -346h-166l-68 -221h-497l67 221h-629zM586 567h262l74 242q57 184 86 238l-127 -148z" />
<glyph unicode="5" d="M201 375h481q-3 -19 -3 -35q0 -70 66 -70q111 0 175 199q18 61 18 102q0 82 -74 82q-92 0 -139 -114h-449l279 827h1059l-98 -326h-629l-86 -217q137 96 321 97q195 0 279 -123q49 -72 49 -170q0 -69 -25 -150q-70 -225 -270 -368q-199 -143 -485 -144q-358 0 -453 168 q-33 63 -33 135q0 52 17 107z" />
<glyph unicode="6" d="M279 651q113 367 338 558.5t544 191.5q334 0 393 -187q14 -47 14 -96q0 -60 -20 -125h-444q8 26 8 45q0 58 -74 58q-137 0 -243 -320q57 49 149 80t182 31q199 0 287 -119q53 -72 53 -169q0 -63 -22 -138q-68 -223 -272.5 -359.5t-473.5 -136.5q-307 0 -414 176 q-55 90 -55 222q0 125 50 288zM721 449q-16 -54 -16 -92q0 -87 86 -87q57 0 108 51.5t76 133.5q14 46 14 79q0 25 -8 44q-18 43 -78 43q-127 0 -182 -172z" />
<glyph unicode="7" d="M190 0l607 745l114 138l109 129q-168 -4 -199 -4h-420l109 358h1165l-86 -283l-846 -1083h-553z" />
<glyph unicode="8" d="M169 183q-11 38 -11 80q0 50 16 104q39 123 137.5 210t231.5 113v6q-57 10 -97 56q-59 67 -59 152q0 42 14 87q59 193 252 301.5t477 108.5q266 0 380 -106q75 -69 75 -177q0 -56 -20 -123q-33 -113 -120 -194.5t-196 -104.5v-6q113 -25 158 -110q25 -47 25 -106 q0 -47 -17 -101q-59 -197 -255.5 -302.5t-504.5 -105.5q-268 0 -393 86q-69 47 -93 132zM690 307q18 -37 72 -37q55 0 98 39t64 105q11 37 11 63q0 74 -83 74q-53 0 -97 -39t-63 -102q-11 -34 -11 -61q0 -25 9 -42zM872 967q-11 -34 -10 -60q0 -66 74 -65q104 0 145 133 q11 33 11 57q0 63 -74 64q-107 0 -146 -129z" />
<glyph unicode="9" d="M195 371h454q-6 -19 -6 -35q0 -22 11 -38q19 -28 67 -28q98 0 164 109q33 55 84 199q-147 -96 -326 -97q-197 0 -282 120q-50 71 -50 167q0 67 25 147q70 223 269.5 354.5t471.5 131.5q391 0 463 -254q17 -57 17 -129q0 -131 -56 -311q-115 -375 -346 -566 q-215 -176 -528 -176q-334 0 -418 172q-31 58 -31 127q1 51 17 107zM799 922q-15 -52 -16 -89q0 -86 85 -85q141 0 197 180q15 47 15 81q0 86 -97 87q-61 0 -110 -46t-74 -128z" />
<glyph unicode=":" horiz-adv-x="669" d="M102 0l121 395h465l-121 -395h-465zM270 553l121 395h465l-121 -395h-465z" />
<glyph unicode=";" horiz-adv-x="690" d="M-45 -184l301 581h465l-381 -581h-385zM303 553l121 395h465l-121 -395h-465z" />
<glyph unicode="&#x3c;" horiz-adv-x="1024" d="M223 510l113 371l1042 512l-135 -447l-491 -252l333 -254l-133 -442z" />
<glyph unicode="=" d="M283 369l75 252h1024l-75 -252h-1024zM403 766l76 252h1024l-76 -252h-1024z" />
<glyph unicode="&#x3e;" horiz-adv-x="1024" d="M66 -2l137 444l491 254l-336 254l134 443l731 -512l-115 -373z" />
<glyph unicode="?" horiz-adv-x="1075" d="M205 0l94 311h459l-94 -311h-459zM324 391q4 18 18 68q33 106 64.5 151t119.5 113q123 90 171 136t59 85q4 13 4 24q0 23 -18 38q-26 23 -78 22q-102 0 -281 -51l111 360q254 63 413 64q244 0 356 -101q76 -68 75 -168q0 -48 -17 -104q-45 -150 -193 -264 q-53 -41 -192 -129q-76 -49 -101.5 -85t-66.5 -159h-444z" />
<glyph unicode="@" horiz-adv-x="1425" d="M207 485q0 285 200.5 483.5t489.5 198.5q256 0 440.5 -168t184.5 -401q0 -113 -50.5 -212t-138.5 -165q-125 -94 -254 -94q-96 0 -147 70q-80 -47 -120 -62.5t-89 -15.5q-115 0 -190.5 81t-75.5 203q0 164 122.5 298.5t274.5 134.5q121 0 199 -82l18 49h215l-156 -486 l-4 -12q-2 -6 -3 -10t-1 -6q-8 -16 -8 -31q0 -12 11.5 -22.5t25.5 -10.5q27 0 73 32t81 73q88 115 88 256q0 188 -146.5 324.5t-349.5 136.5q-231 0 -391 -162t-160 -398q0 -238 163 -402.5t398 -164.5q131 0 252 65.5t199 180.5h151q-88 -168 -255 -269.5t-355 -101.5 q-287 0 -489.5 201.5t-202.5 488.5zM692 324q0 -47 20.5 -76t53.5 -29q96 0 164 193l45 129q20 55 20 96q0 35 -20.5 59.5t-48.5 24.5q-94 0 -164 -148q-70 -153 -70 -249z" />
<glyph unicode="A" horiz-adv-x="1542" d="M-25 0l854 1366h705l25 -1366h-566l15 219h-396l-120 -219h-517zM795 553h233l21 291q8 94 26 217h-8l-129 -244z" />
<glyph unicode="B" horiz-adv-x="1472" d="M113 0l415 1366h666q193 0 272.5 -12.5t132.5 -48.5q90 -62 91 -178q0 -52 -19 -115q-74 -236 -342 -291l-2 -10q133 -20 184 -104q28 -46 29 -107q0 -49 -18 -107q-53 -178 -217 -282q-141 -90 -387 -107q-61 -4 -285 -4h-520zM705 289q145 2 174 10q100 29 129 127 q8 25 7 46q0 35 -22 56q-33 33 -147 33h-60zM866 823q18 -2 43 -2q111 0 158 27q57 31 78 98q7 25 7 45q0 36 -24 58q-31 25 -145 24h-39z" />
<glyph unicode="C" horiz-adv-x="1482" d="M279 682q106 344 346.5 531.5t576.5 187.5q309 0 431 -140.5t42 -404.5h-506q27 100 10.5 145.5t-77.5 45.5q-90 0 -158 -101q-49 -74 -104 -258q-41 -135 -50.5 -215t12 -117t77.5 -37q123 0 184 185h514q-78 -250 -297 -394.5t-522 -144.5q-332 0 -457.5 188.5 t-21.5 528.5z" />
<glyph unicode="D" horiz-adv-x="1568" d="M113 0l415 1366h543q233 0 343 -19.5t190 -76.5q109 -78 137 -231q9 -50 9 -103q0 -112 -40 -244q-106 -344 -362 -528q-174 -125 -433 -156q-63 -8 -260 -8h-542zM752 315q143 0 204 41q113 74 195 336q39 126 39 208q0 78 -35 116q-20 25 -56 32t-122 7z" />
<glyph unicode="E" horiz-adv-x="1255" d="M113 0l415 1366h1045l-109 -360h-520l-45 -148h481l-106 -346h-481l-48 -152h539l-108 -360h-1063z" />
<glyph unicode="F" horiz-adv-x="1226" d="M113 0l415 1366h1053l-108 -360h-510l-50 -158h478l-107 -346h-477l-152 -502h-542z" />
<glyph unicode="G" horiz-adv-x="1585" d="M240 358q-3 31 -3 63q0 120 42 259q119 383 415 573q231 147 563 148q322 0 444 -115q77 -72 77 -191q0 -70 -27 -157h-512q4 18 4 33q0 75 -102 76q-63 0 -120.5 -36t-90.5 -100q-49 -92 -103 -266q-43 -142 -42 -214q0 -21 3 -36q20 -76 132 -76q82 0 147 21l51 168 h-184l84 270h708l-221 -719q-381 -94 -706 -94q-328 0 -467 158q-78 90 -92 235z" />
<glyph unicode="H" horiz-adv-x="1544" d="M113 0l415 1366h543l-141 -467h235l142 467h542l-415 -1366h-543l153 506h-235l-154 -506h-542z" />
<glyph unicode="I" horiz-adv-x="765" d="M113 0l415 1366h543l-416 -1366h-542z" />
<glyph unicode="J" horiz-adv-x="1353" d="M172 186q-27 100 25 269h460q-23 -74 -11.5 -105t63.5 -31q59 0 90.5 40t68.5 163l258 844h543l-227 -743q-59 -195 -95 -276t-98 -150q-197 -231 -612 -232q-395 0 -465 221z" />
<glyph unicode="K" horiz-adv-x="1542" d="M113 0l415 1366h543l-129 -426q-47 -152 -53 -164h6l27 36l25 34q9 12 11 16q66 86 66 88l334 416h571l-561 -639l197 -727h-584l-123 541q-4 23 -10 77h-8q-6 -31 -11 -38l-51 -174l-12 -41l-111 -365h-542z" />
<glyph unicode="L" horiz-adv-x="1224" d="M113 0l415 1366h543l-307 -1006h502l-109 -360h-1044z" />
<glyph unicode="M" horiz-adv-x="2021" d="M113 0l415 1366h760l-28 -299q-25 -252 -78 -526q141 322 245 520l158 305h742l-416 -1366h-453l133 436q2 8 176 543l-61 -121l-139 -272l-74 -140l-238 -446h-487l33 473q4 80 14 156l18 130q11 85 17 126l10 94l-76 -252l-73 -248l-146 -479h-452z" />
<glyph unicode="N" horiz-adv-x="1613" d="M113 0l415 1366h666l31 -512q8 -176 4 -309h8q37 158 100 368l138 453h444l-416 -1366h-655l-33 537q-8 123 -4 299h-8q-33 -139 -80 -291l-166 -545h-444z" />
<glyph unicode="O" horiz-adv-x="1554" d="M283 690q115 373 401 559q233 152 539 152q328 0 450 -188q67 -102 67 -250q0 -124 -46 -279q-102 -334 -350 -526.5t-576 -192.5q-336 0 -464 191q-70 104 -70 253q1 125 49 281zM784 399q8 -80 86 -80q82 0 143.5 86.5t121.5 282.5q59 190 59 269q0 9 -1 16 q-7 74 -89 74q-84 0 -145.5 -85t-124.5 -296q-50 -163 -51 -245q0 -12 1 -22z" />
<glyph unicode="P" horiz-adv-x="1443" d="M113 0l415 1366h711q152 0 229.5 -15.5t130.5 -56.5q72 -55 93 -155q8 -37 7 -77q0 -67 -22 -142q-43 -141 -147.5 -252t-241.5 -160q-125 -47 -420 -47h-73l-140 -461h-542zM891 774h4q115 0 154 19q76 33 106 129q10 33 10 57q0 34 -18 52q-31 32 -129 32h-39z" />
<glyph unicode="Q" horiz-adv-x="1552" d="M274 676q106 344 355.5 534.5t591.5 190.5q340 0 458 -199q63 -104 63 -239q0 -103 -36 -226q-80 -256 -274 -415q76 8 202 8l-100 -330h-84q-18 0 -59 -2t-62 -2l-117 -2q-39 0 -112 -6l-86 -8q-141 -14 -258 -15q-309 0 -432 152q-94 115 -95 289q0 121 45 270z M782 462q-2 -21 -2 -38q0 -46 16 -71q22 -34 72 -34q92 0 160 107q45 76 107 276q53 174 53 252q0 9 -1 18q-7 75 -87 75q-84 0 -144.5 -85t-126.5 -303q-39 -122 -47 -197z" />
<glyph unicode="R" horiz-adv-x="1495" d="M113 0l415 1366h650q213 0 291.5 -7t132.5 -30q84 -37 112 -118q13 -37 13 -78q0 -51 -19 -109q-39 -133 -137 -218t-236 -106l-2 -6q131 -14 162 -86q14 -32 14 -87q0 -70 -22 -177q-41 -205 -41 -344h-533q0 66 27 215q23 135 23 197q0 33 -7 46q-17 34 -126 34h-25 l-150 -492h-542zM881 801q135 0 176 18q76 33 104 119q8 27 8 47q0 33 -20 50q-33 28 -137 28h-51z" />
<glyph unicode="S" horiz-adv-x="1376" d="M160 410l4 18h516q-12 -38 -12 -67q0 -88 108 -89q53 0 101.5 34t62.5 81q4 13 4 25q0 26 -21 44q-32 26 -128 52q-236 66 -336 117q-86 45 -116 134q-14 41 -14 87q0 54 19 115q33 106 118 201t193 147q193 92 477.5 92t398.5 -106q74 -68 74 -180q0 -61 -22 -134h-483 q6 23 6 41q0 72 -96 72q-53 0 -94 -25t-52 -63q-4 -12 -4 -22q0 -30 37 -46q18 -10 201 -61q238 -63 317 -142q64 -64 64 -165q0 -61 -23 -136q-70 -227 -276.5 -348t-526.5 -121q-305 0 -434 117q-86 77 -86 195q0 61 23 133z" />
<glyph unicode="T" horiz-adv-x="1312" d="M354 1006l109 360h1216l-108 -360h-334l-307 -1006h-543l307 1006h-340z" />
<glyph unicode="U" horiz-adv-x="1527" d="M227 193q-35 104 47 364l246 809h543l-246 -805q-39 -131 -37 -176q2 -66 78 -66q84 0 127 74q23 35 64 164l245 809h543l-235 -774q-53 -174 -101.5 -264t-124.5 -160q-225 -203 -633 -203q-430 1 -516 228z" />
<glyph unicode="V" horiz-adv-x="1439" d="M365 0l26 1366h557l-84 -782q-10 -102 -45 -279h6q41 119 138 307l380 754h529l-803 -1366h-704z" />
<glyph unicode="W" horiz-adv-x="1992" d="M279 0l122 1366h488l-47 -324q-45 -307 -97 -526h7q131 317 229 524l154 326h563l-39 -305q-39 -289 -100 -565h6q90 233 235 551l146 319h475l-705 -1366h-586l60 428q33 231 86 459h-8q-90 -227 -199 -459l-197 -428h-593z" />
<glyph unicode="X" horiz-adv-x="1490" d="M-20 0l659 690l-213 676h567l37 -164q12 -55 33 -223l84 115q4 6 96 125l121 147h545l-623 -657l225 -709h-571l-37 152q-16 74 -16 86q-8 41 -17 131q-6 25 -8 49q-6 -8 -14 -17.5l-12 -14.5l-9 -10q-4 -5 -4 -7l-94 -121l-63 -80l-146 -168h-540z" />
<glyph unicode="Y" horiz-adv-x="1374" d="M369 1366h557l22 -405q2 -36 3 -70q0 -55 -7 -100h6q39 84 101 180l266 395h522l-741 -897l-144 -469h-534l143 469z" />
<glyph unicode="Z" horiz-adv-x="1310" d="M47 0l100 332l504 446q156 139 279 230q-59 -2 -172 -2h-387l108 360h1186l-100 -330l-529 -463l-254 -217q49 4 156 4h432l-108 -360h-1215z" />
<glyph unicode="[" horiz-adv-x="942" d="M92 -238l490 1604h700l-92 -307h-299l-303 -991h299l-94 -306h-701z" />
<glyph unicode="\" horiz-adv-x="821" d="M401 1366h357l73 -1597h-356z" />
<glyph unicode="]" horiz-adv-x="942" d="M0 -238l94 308h301l303 991h-301l92 305h703l-490 -1604h-702z" />
<glyph unicode="^" horiz-adv-x="1024" d="M203 670l483 706h494l49 -706h-387v407l-252 -407h-387z" />
<glyph unicode="_" horiz-adv-x="1024" d="M0 -86h1024v-258h-1024v258z" />
<glyph unicode="`" horiz-adv-x="1024" d="M537 1425h419l84 -325h-307z" />
<glyph unicode="a" horiz-adv-x="1177" d="M145 264q82 264 398 318q122 21 280 20h29l12 35q17 58 18 88q0 12 -3 19q-10 26 -66 26q-88 0 -117 -96l-381 -4q61 160 204 234.5t386 74.5q348 0 393 -150q5 -15 5 -38q0 -81 -56 -263l-65 -219q-78 -250 -84 -309h-414q2 8 4 20.5t4 22.5q8 27 15 53 q-90 -74 -158 -100.5t-162 -26.5q-156 0 -219 79q-39 48 -39 118q0 44 16 98zM555 307q-6 -20 -6 -36q0 -21 10 -38q18 -29 62 -28q63 0 101 38t64 132l15 45q-127 0 -168 -21q-60 -26 -78 -92z" />
<glyph unicode="b" horiz-adv-x="1304" d="M104 0q33 92 164 522l258 844h459l-115 -379q-8 -25 -49 -137q57 59 144.5 94t175.5 35q184 0 253 -130q35 -66 34 -154q0 -87 -33 -197q-76 -248 -228.5 -388.5t-347.5 -140.5q-190 0 -233 144l-45 -113h-437zM673 335q-1 -13 -2 -24q0 -32 12 -49q15 -23 52 -22 q57 0 99.5 57t83.5 190q25 80 29 128q1 12 1 23q0 31 -11 48q-15 23 -50 23q-57 0 -100.5 -55.5t-81.5 -182.5q-27 -86 -32 -136z" />
<glyph unicode="c" horiz-adv-x="1218" d="M177 266q-1 18 -1 36q0 82 27 173q74 238 267.5 371t465.5 133q336 0 397 -199q14 -47 14 -94q0 -57 -20 -117h-426q24 72 24 113q0 12 -2 21q-9 40 -63 40q-63 0 -107 -64.5t-94 -227.5q-29 -92 -34 -146q-2 -15 -2 -28q0 -32 11 -49q15 -24 56 -23q104 0 158 184h438 q-47 -147 -172 -264q-174 -156 -489 -156q-299 0 -394 133q-47 66 -54 164z" />
<glyph unicode="d" horiz-adv-x="1302" d="M201 90q-34 67 -35 160q0 101 41 233q70 229 221.5 362.5t341.5 133.5q178 0 225 -129q10 47 45 166l107 350h459l-312 -1024l-14 -45q-6 -23 -16 -55l-17 -54l-10 -34q-20 -66 -41 -154h-438l18 113q-55 -66 -144 -105t-181 -39q-88 0 -154.5 32t-95.5 89zM644 292 q7 -52 63 -52q57 0 97 56t83 193q33 105 33 156q0 9 -1 17q-7 47 -63 47q-59 0 -101 -55.5t-81 -186.5q-31 -103 -31 -156q0 -10 1 -19z" />
<glyph unicode="e" horiz-adv-x="1220" d="M205 479q76 244 260 372t463 128q409 0 409 -309q0 -92 -37 -211q-8 -29 -22 -68h-660q-20 -70 -20 -111q0 -21 5 -34q15 -41 87 -41q109 0 148 104h403q-76 -164 -241.5 -252t-399.5 -88q-272 0 -375 137q-52 76 -52 185q1 84 32 188zM682 596h248q15 48 15 81 q0 22 -7 37q-16 38 -80 38q-127 0 -176 -156z" />
<glyph unicode="f" horiz-adv-x="765" d="M129 0l203 664h-115l86 284h115l4 15q39 125 63 176q63 117 185.5 182t275.5 65q104 0 238 -26l-84 -268q-45 10 -84 10q-66 0 -92.5 -27.5t-59.5 -126.5h176l-86 -284h-176l-203 -664h-446z" />
<glyph unicode="g" horiz-adv-x="1302" d="M75 -191q-4 23 -4 45q0 42 13 85h446q-8 -35 11.5 -54.5t64.5 -19.5q86 0 129 78q14 27 74 202q-119 -131 -336 -131q-188 0 -261 126q-38 66 -38 157q0 81 31 182q35 117 106.5 224.5t153.5 170.5q135 104 307 105q190 0 236 -133l47 102h430l-219 -719 q-59 -195 -97.5 -275.5t-97.5 -146.5q-178 -195 -577 -194q-274 0 -371 92q-37 39 -48 104zM648 309q9 -43 63 -43q61 0 104 54.5t82 179.5q28 91 28 139q0 13 -2 22q-9 47 -66.5 47.5t-100.5 -58t-84 -193.5q-26 -82 -26 -126q0 -13 2 -22z" />
<glyph unicode="h" horiz-adv-x="1288" d="M104 0l416 1366h459l-70 -233l-51 -164l-33 -101q-2 -6 -14 -51q59 74 154.5 118t197.5 44q236 0 246 -191q2 -61 -45 -215l-174 -573h-459l152 498q35 117 35 137q6 59 -56 59q-63 0 -98 -63q-18 -29 -57 -158l-144 -473h-459z" />
<glyph unicode="i" horiz-adv-x="669" d="M104 0l289 948h459l-289 -948h-459zM432 1077l88 289h459l-88 -289h-459z" />
<glyph unicode="j" horiz-adv-x="677" d="M-166 -360l72 235h18h17q78 0 116.5 34t67.5 126l278 913h459l-260 -852q-72 -236 -147 -325q-113 -139 -426 -140q-95 1 -195 9zM442 1077l88 289h459l-88 -289h-459z" />
<glyph unicode="k" horiz-adv-x="1239" d="M104 0l416 1366h459l-242 -791l295 373h496l-391 -409l123 -539h-500l-45 500l-152 -500h-459z" />
<glyph unicode="l" horiz-adv-x="669" d="M104 0l416 1366h459l-416 -1366h-459z" />
<glyph unicode="m" horiz-adv-x="1921" d="M111 0l206 680q23 70 76 268h445l-35 -147q61 84 160.5 131t212.5 47q219 0 243 -186q152 188 369 188q106 0 175 -47t79 -127q8 -66 -41 -221l-178 -586h-459l162 532q29 92 26 113q-4 49 -59 49q-63 0 -102 -76q-12 -29 -41 -120l-152 -498h-459l152 502q37 117 37 135 q0 57 -60 57q-53 0 -94 -53q-18 -23 -41 -104l-164 -537h-458z" />
<glyph unicode="n" horiz-adv-x="1296" d="M111 0l206 678q53 178 76 270h447l-37 -145q150 176 356 176q113 0 179.5 -46t76.5 -130q4 -37 -6 -84t-47 -174l-166 -545h-459l152 500q37 121 35 139q0 55 -56 55q-66 0 -102 -69q-14 -25 -47 -133l-150 -492h-458z" />
<glyph unicode="o" horiz-adv-x="1292" d="M205 481q72 229 268.5 363.5t462.5 134.5q281 0 396 -133q71 -81 71 -203q0 -78 -29 -172q-72 -236 -272 -373q-186 -129 -465 -129q-295 0 -404 150q-58 80 -57 191q0 78 29 171zM655 451q-26 -83 -26 -136q0 -94 82 -94q127 0 204 250q35 116 36 171q0 15 -3 26 q-10 59 -82 59q-129 0 -211 -276z" />
<glyph unicode="p" horiz-adv-x="1306" d="M-2 -362l311 1017l53 187l31 106h436l-28 -121q139 152 334 152q197 0 262 -132q31 -62 31 -149q0 -98 -39 -227q-76 -248 -232 -379q-145 -123 -323 -123q-88 0 -150.5 37t-83.5 98q-8 -16 -8 -22l-21 -72l-114 -372h-459zM678 293q6 -53 63 -53q59 0 96.5 49t75.5 178 q29 94 36 145q2 16 3 30q0 29 -11 44q-15 23 -54 23q-57 0 -96 -51.5t-76 -174.5q-38 -120 -38 -176q0 -7 1 -14z" />
<glyph unicode="q" horiz-adv-x="1308" d="M195 102q-30 63 -30 149q0 97 38 224q86 272 266 402q143 102 311 102q188 0 230 -152l45 121h436q-43 -125 -82 -250l-326 -1060h-458l86 276q47 154 63 197q-125 -141 -328 -142q-188 0 -251 133zM644 337q-1 -13 -1 -25q0 -32 10 -49q14 -24 54 -23q76 0 120 86 q25 51 64 172q32 106 31 151q0 14 -2 23q-14 37 -66 37q-104 0 -178 -234q-27 -88 -32 -138z" />
<glyph unicode="r" horiz-adv-x="878" d="M104 0l195 641q0 16 45 158l43 149h440l-16 -102q125 119 238 119q59 0 116 -27l-110 -358q-117 29 -170 28q-106 0 -156 -90q-20 -39 -45 -119l-121 -399h-459z" />
<glyph unicode="s" horiz-adv-x="1138" d="M143 307h420q-39 -129 70 -129q45 0 80 22.5t45 59.5q12 41 -10.5 60.5t-96.5 29.5q-229 35 -309 80q-57 31 -76.5 92.5t2.5 134.5q25 82 91.5 152t154.5 109q143 61 352 61q244 0 343.5 -80t54.5 -235h-396q16 57 1 81.5t-68 24.5q-90 0 -111 -70q-12 -39 14.5 -56 t112.5 -30q242 -35 328 -100q82 -63 37 -209q-102 -336 -623 -336q-266 0 -367.5 83t-48.5 255z" />
<glyph unicode="t" horiz-adv-x="829" d="M205 188q6 35 37 136l104 340h-129l86 284h129l47 156l496 160l-96 -316h219l-86 -284h-219l-78 -252q-19 -59 -19 -89q0 -15 4 -22q16 -25 74 -25q45 0 109 15l-86 -281q-168 -37 -316 -37q-250 0 -274 140q-5 23 -5 44q0 16 3 31z" />
<glyph unicode="u" horiz-adv-x="1298" d="M172 211q8 57 43 172l172 565h459l-170 -559q-16 -54 -16 -84q0 -13 3 -21q9 -30 56 -30t76.5 30.5t50.5 102.5l172 561h459l-205 -672q-41 -135 -78 -276h-449l23 131q-135 -162 -350 -162q-199 0 -240 135q-9 31 -9 66q0 20 3 41z" />
<glyph unicode="v" horiz-adv-x="1177" d="M274 0v948h476l-60 -608l311 608h478l-582 -948h-623z" />
<glyph unicode="w" horiz-adv-x="1777" d="M199 0l75 948h445l-107 -631l13 27l45 92l12 29l238 483h501l-65 -504q0 -6 -4 -33.5t-6 -48.5l-7 -34q0 -12 -2 -25l299 645h443l-520 -948h-566l35 356v9q0 6 1 15t1 19q6 80 27 209q-84 -180 -125 -260l-172 -348h-561z" />
<glyph unicode="x" horiz-adv-x="1196" d="M-25 0l445 506l-127 442h481l10 -59q14 -78 19 -195q66 111 127 199l39 55h485l-377 -442l144 -506h-486l-12 68q-33 188 -37 219q-31 -49 -151 -213l-56 -74h-504z" />
<glyph unicode="y" horiz-adv-x="1161" d="M127 -362l227 335l-92 975h492l-9 -205q-4 -168 -28 -348q63 131 196 373l101 180h456l-847 -1310h-496z" />
<glyph unicode="z" horiz-adv-x="1009" d="M41 0l80 262l299 256l78 66l80 69h-314l90 295h873l-90 -295l-244 -202l-31 -27l-61 -49q-8 -8 -29.5 -23.5t-32.5 -25.5q-8 -6 -18 -17h342l-94 -309h-928z" />
<glyph unicode="{" horiz-adv-x="942" d="M211 57l63 205q25 84 11.5 123t-70.5 51l84 279q68 14 100 47q39 39 60 106l61 201q53 176 164 244q59 35 119.5 45t195.5 10q61 0 177 -6q35 0 71 -2l-102 -330q-27 2 -45 2q-109 0 -140.5 -21.5t-60.5 -115.5l-20 -70q-37 -123 -101 -188q-29 -29 -102 -72 q55 -47 64.5 -103t-21.5 -159l-29 -92q-29 -94 -10.5 -114.5t131.5 -20.5h43l-94 -307l-72 -2l-70 -5q-37 -2 -110 -2q-141 0 -198.5 13.5t-90.5 52.5q-57 63 -8 231z" />
<glyph unicode="|" horiz-adv-x="1024" d="M180 -342l522 1708h451l-522 -1708h-451z" />
<glyph unicode="}" horiz-adv-x="942" d="M39 -231l94 307h43q113 0 143.5 20.5t59.5 114.5l29 92q33 104 74.5 159.5t127.5 102.5q-51 49 -61 82q-6 19 -6 45q0 52 24 133l21 70q18 60 18 90q0 19 -7 27q-17 20 -126 20q-25 0 -49 -2l102 330q37 2 72 2l68 4q39 2 114 2q141 0 197.5 -12.5t91.5 -52.5 q29 -35 29 -97q0 -57 -25 -137l-61 -201q-12 -41 -12 -70q0 -21 6 -36q16 -33 71 -47l-84 -279q-68 -12 -104.5 -51t-61.5 -123l-63 -205q-53 -176 -166 -241q-57 -35 -117.5 -45.5t-197.5 -10.5l-172 7z" />
<glyph unicode="~" d="M569 1255q119 172 220.5 249t211.5 77q37 0 70 -10t195 -72q35 -14 55 -14q37 0 76 35q16 12 61 67l158 -178q-121 -170 -217 -248q-106 -84 -215 -84q-49 0 -275 88q-27 10 -51 11q-51 0 -133 -101z" />
<glyph unicode="&#xa1;" horiz-adv-x="708" d="M-47 -416l381 965h379l-215 -965h-545zM319 635l97 313h458l-96 -313h-459z" />
<glyph unicode="&#xa2;" d="M324 682q63 207 223 342t368 158l62 202h264l-61 -202q168 -12 244 -126q47 -69 47 -157q0 -56 -19 -119h-422q18 60 18 99q0 73 -63 73t-111.5 -67.5t-95.5 -227.5q-37 -118 -37 -173q0 -9 1 -17q7 -53 67 -53q104 0 166 184h434q-57 -174 -198.5 -282.5t-336.5 -129.5 l-67 -225h-264l67 225q-195 16 -272 151q-43 74 -43 171q0 79 29 174z" />
<glyph unicode="&#xa3;" d="M86 0l109 358h139l53 177h-180l98 317h180q43 145 75 209.5t91 126.5q96 102 247 157.5t331 55.5q262 0 364.5 -107.5t38.5 -314.5l-6 -21h-471q25 100 -41 101q-68 0 -110 -76q-18 -31 -52 -131h271l-99 -317h-270l-53 -177h608l-109 -358h-1214z" />
<glyph unicode="&#xa4;" horiz-adv-x="1515" d="M111 219l288 221q-7 43 -7 86q0 81 26 162q45 139 147 264l-157 226l299 229l159 -231q141 57 268.5 57t229.5 -55l299 225l156 -225l-287 -222q13 -54 13 -111q0 -76 -23 -155q-41 -129 -136 -250l154 -219l-295 -227l-151 217q-154 -70 -310 -70q-119 0 -231 68 l-285 -215zM809 694q-8 -27 -8 -50q0 -38 20 -67q33 -48 99 -49q68 0 131 48.5t84 117.5q8 26 7 49q0 37 -20 67q-33 48 -98 48q-70 0 -132.5 -47t-82.5 -117z" />
<glyph unicode="&#xa5;" d="M172 348l70 225h325l-37 179h-233l68 225h116l-84 389h510l37 -405q6 -94 -4 -170h6q45 100 101 180l280 395h471l-321 -389h116l-67 -225h-234l-147 -179h325l-69 -225h-381l-105 -348h-466l104 348h-381z" />
<glyph unicode="&#xa6;" horiz-adv-x="1024" d="M180 -342l201 655h450l-200 -655h-451zM473 612l229 754h451l-229 -754h-451z" />
<glyph unicode="&#xa7;" d="M88 -176l88 289q209 -68 320 -68q100 0 123 74q10 35 -13.5 53t-142.5 68q-135 57 -180 132q-26 43 -26 98q0 40 13 87q29 98 115 173t211 108q-121 54 -121 166q0 36 12 77q47 156 210 238t421 82q188 0 436 -45l-84 -277q-166 45 -274 45q-82 0 -98 -53q-6 -23 10 -34 t119 -62q115 -55 150.5 -77.5t58.5 -55.5q35 -48 35 -114q0 -45 -17 -99q-33 -113 -128 -201t-214 -119q102 -49 102 -152q0 -38 -14 -83q-47 -147 -194 -228q-162 -84 -420 -84q-252 1 -498 62zM725 614q-4 -13 -4 -24q0 -28 21 -49q30 -31 139 -84q125 76 143 135 q3 10 3 20q0 30 -29 55q-38 34 -130 66q-127 -62 -143 -119z" />
<glyph unicode="&#xa8;" horiz-adv-x="1024" d="M465 1104l98 321h316l-99 -321h-315zM918 1104l98 321h313l-98 -321h-313z" />
<glyph unicode="&#xa9;" horiz-adv-x="1556" d="M256 688q0 297 213 505t516 208q287 0 496 -212t209 -505q0 -297 -210 -508t-507 -211q-299 0 -508 211t-209 512zM385 688q0 -248 172 -421t416 -173t416 173t172 417q0 240 -171 414t-407 174q-270 0 -446 -195q-152 -168 -152 -389zM600 682q0 178 101.5 275.5 t285.5 97.5q172 0 262 -75t90 -216h-284q-6 96 -64 96q-43 0 -59.5 -39t-16.5 -139q0 -96 17.5 -137t58.5 -41q61 0 64 94h288q2 -135 -93 -212t-265 -77q-182 0 -283.5 98.5t-101.5 274.5z" />
<glyph unicode="&#xaa;" horiz-adv-x="851" d="M236 547l40 133h715l-41 -133h-714zM383 971q35 109 136.5 158t299.5 49l4 12q14 47 9 60.5t-35 13.5q-47 0 -62 -50h-248q47 100 132.5 143.5t236.5 43.5q219 0 248 -92q3 -10 3 -26q0 -51 -32 -157l-41 -131q-43 -135 -51 -188h-266q0 14 10 47q-92 -66 -188.5 -66 t-138.5 50q-26 31 -26 75q0 27 9 58zM649 995q-4 -13 -4 -22q0 -31 41 -31q35 0 56.5 21.5t35.5 72.5l6 19q-68 0 -96.5 -12.5t-38.5 -47.5z" />
<glyph unicode="&#xab;" horiz-adv-x="1241" d="M170 473l432 475h367l-353 -475l64 -473h-367zM702 473l433 475h366l-352 -475l63 -473h-366z" />
<glyph unicode="&#xac;" horiz-adv-x="1024" d="M137 229l119 392h887l-189 -621h-436l70 229h-451z" />
<glyph unicode="&#xad;" horiz-adv-x="583" d="M100 334l97 315h583l-96 -315h-584z" />
<glyph unicode="&#xae;" horiz-adv-x="1556" d="M256 688q0 297 213 505t516 208q287 0 496 -212t209 -505q0 -297 -210 -508t-507 -211q-299 0 -508 211t-209 512zM385 688q0 -248 172 -421t416 -173t416 173t172 417q0 240 -171 414t-407 174q-270 0 -446 -195q-152 -168 -152 -389zM604 328v710h359q180 0 235 -20 q113 -41 113 -162t-123 -166q59 -14 80.5 -49t34.5 -131q12 -109 36 -182h-301q-8 25 -22 116q-14 96 -27.5 115t-70.5 19h-7v-250h-307zM901 750h23q92 0 92 63q0 35 -22.5 46t-92.5 11v-120z" />
<glyph unicode="&#xaf;" horiz-adv-x="1024" d="M481 1149l64 209h760l-64 -209h-760z" />
<glyph unicode="&#xb0;" horiz-adv-x="663" d="M412 1128q35 109 135 187t209 78q111 0 164 -77q32 -46 32 -106q0 -39 -14 -84q-33 -106 -134.5 -183t-207.5 -77q-109 0 -163 77q-34 48 -34 108q1 36 13 77zM573 1130q-5 -15 -4 -29q0 -23 13 -41q20 -30 61 -30t80 28.5t51 69.5q5 15 5 30q0 23 -13 41q-20 30 -61 30 t-80.5 -29t-51.5 -70z" />
<glyph unicode="&#xb1;" horiz-adv-x="1024" d="M-10 -16l61 200h1032l-61 -200h-1032zM199 664l61 200h410l127 420h209l-127 -420h413l-61 -200h-414l-123 -402h-209l123 402h-409z" />
<glyph unicode="&#xb2;" horiz-adv-x="886" d="M233 547l68 221q289 131 428 236q98 68 113 120q20 55 -45 56q-72 0 -95 -78l-4 -15h-309v7q0 2 41 80q35 66 53.5 87t67.5 52q125 74 313 73q176 0 258 -67.5t47 -185.5q-33 -100 -129 -182.5t-307 -186.5q76 6 197 6h131l-68 -223h-760z" />
<glyph unicode="&#xb3;" horiz-adv-x="886" d="M287 795h299q-6 -41 6 -58.5t51 -17.5q35 0 61.5 19.5t36.5 49.5q4 14 5 26q0 26 -22 43q-32 24 -103 24h-33l49 159h35q131 0 157 86q8 31 -4 49.5t-41 18.5q-63 0 -92 -76h-295q100 268 463 268q172 0 250 -62q55 -44 55 -112q0 -29 -10 -61q-39 -137 -213 -176 q129 -22 129 -124q0 -29 -10 -65q-41 -129 -172 -198q-117 -61 -297 -62q-238 0 -295 101q-23 40 -23 89q0 37 13 79z" />
<glyph unicode="&#xb4;" horiz-adv-x="1024" d="M657 1100l281 325h420l-395 -325h-306z" />
<glyph unicode="&#xb5;" horiz-adv-x="1024" d="M-86 -356l410 1339h376l-145 -475q-29 -102 -31 -121q-4 -39 20.5 -63.5t67.5 -24.5q55 0 97 43q39 39 43 70q14 61 24 94l146 477h376l-299 -983h-376l26 90q-70 -104 -141 -104q-70 0 -82 96l-135 -438h-377z" />
<glyph unicode="&#xb6;" horiz-adv-x="1396" d="M461 1010q66 215 260 303q72 33 136.5 43t189.5 10h561l-47 -158h-95l-440 -1439h-205l441 1439h-148l-440 -1439h-205l274 897q-10 -2 -26 -2q-137 0 -221 79q-56 56 -56 145q0 55 21 122z" />
<glyph unicode="&#xb7;" horiz-adv-x="512" d="M141 313l109 357h418l-109 -357h-418z" />
<glyph unicode="&#xb8;" horiz-adv-x="1024" d="M102 -446l281 323h279l-195 -323h-365z" />
<glyph unicode="&#xb9;" horiz-adv-x="886" d="M424 983l74 242q66 16 158 59t141 82h264l-250 -819h-338l90 291l74 233q-121 -65 -213 -88z" />
<glyph unicode="&#xba;" horiz-adv-x="851" d="M236 547l40 133h715l-41 -133h-714zM393 1098q43 139 166 221t291 82q176 0 249 -81q46 -51 45 -127q0 -45 -16 -99q-45 -143 -165.5 -224.5t-292.5 -81.5q-176 0 -249 81q-45 50 -45 126q0 47 17 103zM684 1081q-15 -49 -15 -79q0 -52 44 -52q78 0 121 144q20 64 19 97 q0 8 -1 15q-6 33 -47 33q-74 0 -121 -158z" />
<glyph unicode="&#xbb;" horiz-adv-x="1241" d="M27 0l350 473l-62 475h367l141 -475l-430 -473h-366zM559 0l350 473l-61 475h366l142 -475l-430 -473h-367z" />
<glyph unicode="&#xbc;" horiz-adv-x="2191" d="M424 983l74 242q66 16 158 59t141 82h264l-250 -819h-338l90 291l74 233q-121 -65 -213 -88zM635 0l1132 1366h205l-1130 -1366h-207zM1380 131l72 234l428 454h420l-146 -473h103l-66 -215h-102l-39 -131h-319l38 131h-389zM1681 346h160l43 139q8 35 41 129l-74 -79z " />
<glyph unicode="&#xbd;" horiz-adv-x="2191" d="M424 983l74 242q66 16 158 59t141 82h264l-250 -819h-338l90 291l74 233q-121 -65 -213 -88zM635 0l1132 1366h205l-1130 -1366h-207zM1370 0l68 221q276 129 428 236q96 72 112 123q3 11 4 20q0 35 -51 35q-70 0 -92 -78l-6 -16h-309v6q0 2 41 80q33 63 53 85.5t70 53.5 q123 74 313 74q176 0 257 -68q57 -47 56 -119q0 -31 -10 -67q-31 -100 -127 -182t-309 -187q78 6 198 6h132l-68 -223h-760z" />
<glyph unicode="&#xbe;" horiz-adv-x="2191" d="M287 795h299q-6 -41 6 -58.5t51 -17.5q35 0 61.5 19.5t36.5 49.5q4 14 5 26q0 26 -22 43q-32 24 -103 24h-33l49 159h35q131 0 157 86q8 31 -4 49.5t-41 18.5q-63 0 -92 -76h-295q100 268 463 268q172 0 250 -62q55 -44 55 -112q0 -29 -10 -61q-39 -137 -213 -176 q129 -22 129 -124q0 -29 -10 -65q-41 -129 -172 -198q-117 -61 -297 -62q-238 0 -295 101q-23 40 -23 89q0 37 13 79zM635 0l1130 1366h207l-1132 -1366h-205zM1378 131l72 234l430 454h420l-146 -473h103l-66 -215h-102l-39 -131h-319l38 131h-391zM1679 346h162l43 139 q8 35 41 129l-74 -79z" />
<glyph unicode="&#xbf;" horiz-adv-x="1075" d="M43 -78q35 115 107.5 189.5t277.5 203.5q76 47 101.5 84t66.5 158h444q-4 -12 -9 -32.5l-9 -35.5q-35 -106 -66.5 -152t-119.5 -110q-121 -90 -169.5 -136t-60.5 -85q-3 -11 -3 -21q0 -24 19 -40q26 -23 78 -23q106 0 279 49l-111 -360q-254 -61 -411 -62 q-244 0 -356 101q-76 68 -75 169q0 47 17 103zM608 637l94 311h459l-94 -311h-459z" />
<glyph unicode="&#xc0;" horiz-adv-x="1542" d="M-25 0l854 1366h705l25 -1366h-566l15 219h-396l-120 -219h-517zM795 553h233l21 291q8 94 26 217h-8l-129 -244zM848 1802h446l90 -297h-333z" />
<glyph unicode="&#xc1;" horiz-adv-x="1542" d="M-25 0l854 1366h705l25 -1366h-566l15 219h-396l-120 -219h-517zM795 553h233l21 291q8 94 26 217h-8l-129 -244zM1071 1505l275 297h446l-387 -297h-334z" />
<glyph unicode="&#xc2;" horiz-adv-x="1542" d="M-25 0l854 1366h705l25 -1366h-566l15 219h-396l-120 -219h-517zM772 1499l324 307h444l137 -307h-354l-51 162l-150 -162h-350zM795 553h233l21 291q8 94 26 217h-8l-129 -244z" />
<glyph unicode="&#xc3;" horiz-adv-x="1542" d="M-25 0l854 1366h705l25 -1366h-566l15 219h-396l-120 -219h-517zM795 553h233l21 291q8 94 26 217h-8l-129 -244zM866 1501q31 90 82 164q43 59 115 97t141 38q35 0 59.5 -7t110.5 -40q72 -25 90 -24q45 0 78 73h205q-39 -100 -64 -139q-47 -72 -117.5 -117t-138.5 -45 q-45 0 -159 45q-88 35 -117 35q-47 0 -80 -80h-205z" />
<glyph unicode="&#xc4;" horiz-adv-x="1542" d="M-25 0l854 1366h705l25 -1366h-566l15 219h-396l-120 -219h-517zM795 553h233l21 291q8 94 26 217h-8l-129 -244zM819 1507l88 291h342l-88 -291h-342zM1300 1507l89 291h342l-89 -291h-342z" />
<glyph unicode="&#xc5;" horiz-adv-x="1542" d="M-25 0l854 1366h705l25 -1366h-566l15 219h-396l-120 -219h-517zM795 553h233l21 291q8 94 26 217h-8l-129 -244zM991 1673q29 92 130.5 152.5t226.5 60.5q127 0 192 -60q46 -42 46 -100q0 -25 -9 -53q-29 -94 -131.5 -154.5t-235.5 -60.5q-127 0 -187 61q-41 41 -41 97 q0 27 9 57zM1180 1673q-3 -12 -4 -23q0 -24 16 -43q23 -28 63.5 -28t81.5 27.5t52 64.5q4 14 4 26q0 23 -15 41q-23 28 -63 27q-45 0 -84 -26.5t-51 -65.5z" />
<glyph unicode="&#xc6;" horiz-adv-x="1964" d="M-25 0l992 1366h1321l-109 -360h-489l-33 -148h438l-106 -346h-400l-30 -152h432l-109 -360h-893l45 221h-399l-152 -221h-508zM856 555h244l71 348q4 10 9 31q29 119 39 153h-9l-145 -227z" />
<glyph unicode="&#xc7;" horiz-adv-x="1482" d="M279 682q106 344 346.5 531.5t576.5 187.5q309 0 431 -140q74 -85 74 -215q0 -85 -32 -190h-506q16 62 17 103q0 25 -6 42q-16 45 -78 46q-90 0 -158 -101q-49 -74 -104 -258q-41 -135 -50 -215q-3 -24 -3 -44q0 -47 15 -73q22 -37 77 -37q123 0 184 185h514 q-78 -250 -297 -394.5t-522 -144.5q-332 0 -458 189q-69 103 -69 251q1 123 48 277zM309 -446l281 323h299l-195 -323h-385z" />
<glyph unicode="&#xc8;" horiz-adv-x="1255" d="M113 0l415 1366h1045l-109 -360h-520l-45 -148h481l-106 -346h-481l-48 -152h539l-108 -360h-1063zM739 1802h447l90 -297h-334z" />
<glyph unicode="&#xc9;" horiz-adv-x="1255" d="M113 0l415 1366h1045l-109 -360h-520l-45 -148h481l-106 -346h-481l-48 -152h539l-108 -360h-1063zM958 1505l275 297h446l-387 -297h-334z" />
<glyph unicode="&#xca;" horiz-adv-x="1255" d="M113 0l415 1366h1045l-109 -360h-520l-45 -148h481l-106 -346h-481l-48 -152h539l-108 -360h-1063zM649 1499l324 307h444l137 -307h-354l-51 162l-150 -162h-350z" />
<glyph unicode="&#xcb;" horiz-adv-x="1255" d="M113 0l415 1366h1045l-109 -360h-520l-45 -148h481l-106 -346h-481l-48 -152h539l-108 -360h-1063zM690 1507l88 291h342l-88 -291h-342zM1171 1507l89 291h342l-89 -291h-342z" />
<glyph unicode="&#xcc;" horiz-adv-x="765" d="M113 0l415 1366h543l-416 -1366h-542zM477 1802h447l90 -297h-334z" />
<glyph unicode="&#xcd;" horiz-adv-x="765" d="M113 0l415 1366h543l-416 -1366h-542zM686 1505l275 297h446l-387 -297h-334z" />
<glyph unicode="&#xce;" horiz-adv-x="765" d="M111 0l415 1366h543l-416 -1366h-542zM408 1499l323 307h445l137 -307h-355l-51 162l-149 -162h-350z" />
<glyph unicode="&#xcf;" horiz-adv-x="765" d="M113 0l415 1366h543l-416 -1366h-542zM502 1507l88 291h301l-88 -291h-301zM913 1507l88 291h302l-89 -291h-301z" />
<glyph unicode="&#xd0;" horiz-adv-x="1587" d="M129 0l174 573h-123l72 232h123l170 561h542q233 0 343 -19.5t190 -76.5q109 -78 137 -231q9 -50 10 -104q0 -113 -41 -245q-51 -164 -145 -301t-217 -225q-174 -125 -432 -156q-63 -8 -260 -8h-543zM768 315h14q135 0 197 39q121 76 203 336q38 125 38 206.5t-38 119.5 q-23 25 -61 32t-128 7l-75 -250h149l-72 -232h-149z" />
<glyph unicode="&#xd1;" horiz-adv-x="1613" d="M113 0l415 1366h666l31 -512q5 -117 5 -216q0 -49 -1 -93h8q37 158 100 368l138 453h444l-416 -1366h-655l-33 537q-5 82 -5 187q0 53 1 112h-8q-33 -139 -80 -291l-166 -545h-444zM934 1501q31 90 82 164q43 59 114.5 97t141.5 38q35 0 59.5 -7t110.5 -40q70 -25 90 -24 q45 0 78 73h205q-39 -100 -64 -139q-47 -72 -117.5 -117t-138.5 -45q-45 0 -160 45q-86 35 -116 35q-47 0 -80 -80h-205z" />
<glyph unicode="&#xd2;" horiz-adv-x="1554" d="M283 690q115 373 401 559q233 152 539 152q328 0 450 -188q67 -102 67 -250q0 -124 -46 -279q-102 -334 -350 -526.5t-576 -192.5q-336 0 -464 191q-70 104 -70 253q1 125 49 281zM784 399q8 -80 86 -80q82 0 143.5 86.5t121.5 282.5q59 190 59 269q0 9 -1 16 q-7 74 -89 74q-84 0 -145.5 -85t-124.5 -296q-50 -163 -51 -245q0 -12 1 -22zM889 1802h446l90 -297h-333z" />
<glyph unicode="&#xd3;" horiz-adv-x="1554" d="M283 690q115 373 401 559q233 152 539 152q328 0 450 -188q67 -102 67 -250q0 -124 -46 -279q-102 -334 -350 -526.5t-576 -192.5q-336 0 -464 191q-70 104 -70 253q1 125 49 281zM784 399q8 -80 86 -80q82 0 143.5 86.5t121.5 282.5q59 190 59 269q0 9 -1 16 q-7 74 -89 74q-84 0 -145.5 -85t-124.5 -296q-50 -163 -51 -245q0 -12 1 -22zM1094 1505l274 297h447l-388 -297h-333z" />
<glyph unicode="&#xd4;" horiz-adv-x="1554" d="M283 690q115 373 401 559q233 152 539 152q328 0 450 -188q67 -102 67 -250q0 -124 -46 -279q-102 -334 -350 -526.5t-576 -192.5q-336 0 -464 191q-70 104 -70 253q1 125 49 281zM784 399q8 -80 86 -80q82 0 143.5 86.5t121.5 282.5q59 190 59 269q0 9 -1 16 q-7 74 -89 74q-84 0 -145.5 -85t-124.5 -296q-50 -163 -51 -245q0 -12 1 -22zM803 1499l323 307h445l137 -307h-354l-51 162l-150 -162h-350z" />
<glyph unicode="&#xd5;" horiz-adv-x="1554" d="M283 690q115 373 401 559q233 152 539 152q328 0 450 -188q67 -102 67 -250q0 -124 -46 -279q-102 -334 -350 -526.5t-576 -192.5q-336 0 -464 191q-70 104 -70 253q1 125 49 281zM784 399q8 -80 86 -80q82 0 143.5 86.5t121.5 282.5q59 190 59 269q0 9 -1 16 q-7 74 -89 74q-84 0 -145.5 -85t-124.5 -296q-50 -163 -51 -245q0 -12 1 -22zM897 1501q31 90 82 164q43 59 114.5 97t141.5 38q35 0 59.5 -7t110.5 -40q70 -25 90 -24q45 0 78 73h205q-39 -100 -64 -139q-47 -72 -117.5 -117t-138.5 -45q-45 0 -160 45q-86 35 -116 35 q-47 0 -80 -80h-205z" />
<glyph unicode="&#xd6;" horiz-adv-x="1554" d="M283 690q115 373 401 559q233 152 539 152q328 0 450 -188q67 -102 67 -250q0 -124 -46 -279q-102 -334 -350 -526.5t-576 -192.5q-336 0 -464 191q-70 104 -70 253q1 125 49 281zM784 399q8 -80 86 -80q82 0 143.5 86.5t121.5 282.5q59 190 59 269q0 9 -1 16 q-7 74 -89 74q-84 0 -145.5 -85t-124.5 -296q-50 -163 -51 -245q0 -12 1 -22zM848 1507l88 291h342l-88 -291h-342zM1329 1507l88 291h342l-88 -291h-342z" />
<glyph unicode="&#xd7;" d="M324 401l383 291l-203 293l246 189l202 -293l381 293l131 -189l-383 -293l203 -291l-246 -188l-200 291l-383 -291z" />
<glyph unicode="&#xd8;" horiz-adv-x="1554" d="M106 20l181 160q-54 113 -55 231q0 114 47 271q104 340 353 529.5t589 189.5q119 0 195.5 -19.5t174.5 -74.5l178 151l105 -110l-186 -156q52 -125 52 -244q0 -114 -46 -264q-102 -336 -351 -527.5t-583 -191.5q-193 0 -309 66l-62 35l-180 -156zM762 573l446 424 q-16 41 -38.5 55.5t-67.5 14.5q-156 0 -248 -229q-33 -75 -92 -265zM770 375q16 -43 34.5 -58.5t57.5 -15.5q195 0 309 371l29 112z" />
<glyph unicode="&#xd9;" horiz-adv-x="1527" d="M227 193q-10 31 -10 76q0 106 57 288l246 809h543l-246 -805q-37 -125 -37 -171q0 -70 78 -71q84 0 127 74q23 35 64 164l245 809h543l-235 -774q-53 -174 -101.5 -264t-124.5 -160q-225 -203 -633 -203q-430 1 -516 228zM854 1802h446l91 -297h-334z" />
<glyph unicode="&#xda;" horiz-adv-x="1527" d="M227 193q-10 31 -10 76q0 106 57 288l246 809h543l-246 -805q-37 -125 -37 -171q0 -70 78 -71q84 0 127 74q23 35 64 164l245 809h543l-235 -774q-53 -174 -101.5 -264t-124.5 -160q-225 -203 -633 -203q-430 1 -516 228zM1065 1505l274 297h447l-387 -297h-334z" />
<glyph unicode="&#xdb;" horiz-adv-x="1527" d="M227 193q-10 31 -10 76q0 106 57 288l246 809h543l-246 -805q-37 -125 -37 -171q0 -70 78 -71q84 0 127 74q23 35 64 164l245 809h543l-235 -774q-53 -174 -101.5 -264t-124.5 -160q-225 -203 -633 -203q-430 1 -516 228zM782 1499l324 307h444l138 -307h-355l-51 162 l-149 -162h-351z" />
<glyph unicode="&#xdc;" horiz-adv-x="1527" d="M227 193q-10 31 -10 76q0 106 57 288l246 809h543l-246 -805q-37 -125 -37 -171q0 -70 78 -71q84 0 127 74q23 35 64 164l245 809h543l-235 -774q-53 -174 -101.5 -264t-124.5 -160q-225 -203 -633 -203q-430 1 -516 228zM819 1507l88 291h342l-88 -291h-342zM1300 1507 l89 291h342l-89 -291h-342z" />
<glyph unicode="&#xdd;" horiz-adv-x="1374" d="M369 1366h557l22 -405q2 -36 3 -70q0 -55 -7 -100h6q39 84 101 180l266 395h522l-741 -897l-144 -469h-534l143 469zM1010 1505l274 297h447l-388 -297h-333z" />
<glyph unicode="&#xde;" horiz-adv-x="1443" d="M113 0l415 1366h543l-53 -178h168q152 0 228.5 -15.5t129.5 -56.5q72 -55 93 -155q8 -37 8 -77q0 -68 -23 -143q-43 -141 -146.5 -251.5t-240.5 -159.5q-129 -47 -420 -47h-74l-86 -283h-542zM836 596h4q115 0 153 18q80 33 107 129q11 35 11 61q0 32 -17 49 q-31 32 -129 32h-39z" />
<glyph unicode="&#xdf;" horiz-adv-x="1521" d="M104 0l261 852q59 193 89.5 255t96.5 122q195 180 614 180q281 0 407 -87t77 -247q-35 -119 -201 -227q-78 -49 -92 -92q-10 -37 22 -64q16 -16 78 -55q166 -113 109 -301q-53 -170 -210 -268.5t-380 -98.5q-205 0 -266.5 81t-1.5 274h329l-6 -17q-23 -76 37 -76 q55 0 76 66q12 43 -10.5 81t-94.5 91q-98 72 -125 113q-43 70 -16 153q27 80 92 139q41 37 139 103q61 41 76 94q14 47 -9.5 75t-78.5 28q-197 0 -293 -320l-260 -854h-459z" />
<glyph unicode="&#xe0;" horiz-adv-x="1177" d="M145 264q82 264 398 318q122 21 280 20h29l12 35q17 58 18 88q0 12 -3 19q-10 26 -66 26q-88 0 -117 -96l-381 -4q61 160 204 234.5t386 74.5q348 0 393 -150q5 -15 5 -38q0 -81 -56 -263l-65 -219q-78 -250 -84 -309h-414q2 8 4 20.5t4 22.5q8 27 15 53 q-90 -74 -158 -100.5t-162 -26.5q-156 0 -219 79q-39 48 -39 118q0 44 16 98zM555 307q-6 -20 -6 -36q0 -21 10 -38q18 -29 62 -28q63 0 101 38t64 132l15 45q-127 0 -168 -21q-60 -26 -78 -92zM592 1425h420l84 -325h-308z" />
<glyph unicode="&#xe1;" horiz-adv-x="1177" d="M145 264q82 264 398 318q122 21 280 20h29l12 35q17 58 18 88q0 12 -3 19q-10 26 -66 26q-88 0 -117 -96l-381 -4q61 160 204 234.5t386 74.5q348 0 393 -150q5 -15 5 -38q0 -81 -56 -263l-65 -219q-78 -250 -84 -309h-414q2 8 4 20.5t4 22.5q8 27 15 53 q-90 -74 -158 -100.5t-162 -26.5q-156 0 -219 79q-39 48 -39 118q0 44 16 98zM555 307q-6 -20 -6 -36q0 -21 10 -38q18 -29 62 -28q63 0 101 38t64 132l15 45q-127 0 -168 -21q-60 -26 -78 -92zM803 1100l280 325h420l-395 -325h-305z" />
<glyph unicode="&#xe2;" horiz-adv-x="1177" d="M145 264q82 264 398 318q122 21 280 20h29l12 35q17 58 18 88q0 12 -3 19q-10 26 -66 26q-88 0 -117 -96l-381 -4q61 160 204 234.5t386 74.5q348 0 393 -150q5 -15 5 -38q0 -81 -56 -263l-65 -219q-78 -250 -84 -309h-414q2 8 4 20.5t4 22.5q8 27 15 53 q-90 -74 -158 -100.5t-162 -26.5q-156 0 -219 79q-39 48 -39 118q0 44 16 98zM549 1104l319 323h424l119 -323h-336l-45 170l-147 -170h-334zM555 307q-6 -20 -6 -36q0 -21 10 -38q18 -29 62 -28q63 0 101 38t64 132l15 45q-127 0 -168 -21q-60 -26 -78 -92z" />
<glyph unicode="&#xe3;" horiz-adv-x="1177" d="M145 264q82 264 398 318q122 21 280 20h29l12 35q17 58 18 88q0 12 -3 19q-10 26 -66 26q-88 0 -117 -96l-381 -4q61 160 204 234.5t386 74.5q348 0 393 -150q5 -15 5 -38q0 -81 -56 -263l-65 -219q-78 -250 -84 -309h-414q2 8 4 20.5t4 22.5q8 27 15 53 q-90 -74 -158 -100.5t-162 -26.5q-156 0 -219 79q-39 48 -39 118q0 44 16 98zM555 307q-6 -20 -6 -36q0 -21 10 -38q18 -29 62 -28q63 0 101 38t64 132l15 45q-127 0 -168 -21q-60 -26 -78 -92zM594 1114q35 98 86 174q41 57 109.5 94t134.5 37q41 0 155 -45q63 -25 88 -24 q47 0 76 73h205q-27 -88 -66 -147q-45 -72 -110.5 -116t-128.5 -44q-41 0 -146 43q-90 35 -118 35q-47 0 -80 -80h-205z" />
<glyph unicode="&#xe4;" horiz-adv-x="1177" d="M145 264q82 264 398 318q122 21 280 20h29l12 35q17 58 18 88q0 12 -3 19q-10 26 -66 26q-88 0 -117 -96l-381 -4q61 160 204 234.5t386 74.5q348 0 393 -150q5 -15 5 -38q0 -81 -56 -263l-65 -219q-78 -250 -84 -309h-414q2 8 4 20.5t4 22.5q8 27 15 53 q-90 -74 -158 -100.5t-162 -26.5q-156 0 -219 79q-39 48 -39 118q0 44 16 98zM555 307q-6 -20 -6 -36q0 -21 10 -38q18 -29 62 -28q63 0 101 38t64 132l15 45q-127 0 -168 -21q-60 -26 -78 -92zM578 1104l98 321h315l-98 -321h-315zM1030 1104l98 321h314l-99 -321h-313z " />
<glyph unicode="&#xe5;" horiz-adv-x="1177" d="M145 264q82 264 398 318q122 21 280 20h29l12 35q17 58 18 88q0 12 -3 19q-10 26 -66 26q-88 0 -117 -96l-381 -4q61 160 204 234.5t386 74.5q348 0 393 -150q5 -15 5 -38q0 -81 -56 -263l-65 -219q-78 -250 -84 -309h-414q2 8 4 20.5t4 22.5q8 27 15 53 q-90 -74 -158 -100.5t-162 -26.5q-156 0 -219 79q-39 48 -39 118q0 44 16 98zM555 307q-6 -20 -6 -36q0 -21 10 -38q18 -29 62 -28q63 0 101 38t64 132l15 45q-127 0 -168 -21q-60 -26 -78 -92zM717 1270q29 92 130 153.5t226 61.5q127 0 193 -61q46 -42 45 -100 q0 -26 -8 -54q-29 -94 -131.5 -154.5t-235.5 -60.5q-127 0 -187 60q-41 41 -41 98q0 27 9 57zM905 1270q-3 -12 -3 -22q0 -24 16 -44q23 -29 63.5 -28.5t81.5 29t51 65.5q3 12 3 23q0 23 -14 42q-22 29 -63 29q-45 0 -84 -27.5t-51 -66.5z" />
<glyph unicode="&#xe6;" horiz-adv-x="1767" d="M139 274q63 199 281 273q115 41 424 49l14 43q15 54 16 83q0 13 -4 21q-10 27 -63 27q-88 0 -119 -96l-2 -8h-377q121 313 537 313q229 0 307 -109q143 109 358 109q227 0 319 -138q51 -77 51 -186q0 -85 -32 -188q-12 -41 -26 -76h-658q-20 -63 -19 -103q0 -23 6 -39 q17 -44 87 -44q104 0 147 104h398q-76 -164 -233.5 -252t-376.5 -88q-240 0 -310 133q-133 -133 -393 -133q-205 0 -291 79q-56 52 -56 133q0 42 15 93zM551 315q-6 -18 -6 -32q0 -21 12 -36q20 -26 68 -26q63 0 104 41q27 33 53 117l13 37q-121 0 -174.5 -22t-69.5 -79z M1229 596h250q13 44 13 75q0 81 -87 81q-125 0 -176 -156z" />
<glyph unicode="&#xe7;" horiz-adv-x="1218" d="M177 266q-1 18 -1 36q0 82 27 173q74 238 267.5 371t465.5 133q336 0 397 -199q14 -47 14 -94q0 -57 -20 -117h-426q24 72 24 113q0 12 -2 21q-9 40 -63 40q-63 0 -107 -64.5t-94 -227.5q-29 -92 -34 -146q-2 -15 -2 -28q0 -32 11 -49q15 -24 56 -23q104 0 158 184h438 q-47 -147 -172 -264q-174 -156 -489 -156q-299 0 -394 133q-47 66 -54 164zM178 -446l281 323h278l-194 -323h-365z" />
<glyph unicode="&#xe8;" horiz-adv-x="1220" d="M205 479q76 244 260 372t463 128q409 0 409 -309q0 -92 -37 -211q-8 -29 -22 -68h-660q-20 -70 -20 -111q0 -21 5 -34q15 -41 87 -41q109 0 148 104h403q-76 -164 -241.5 -252t-399.5 -88q-272 0 -375 137q-52 76 -52 185q1 84 32 188zM627 1425h420l83 -325h-307z M682 596h248q15 48 15 81q0 22 -7 37q-16 38 -80 38q-127 0 -176 -156z" />
<glyph unicode="&#xe9;" horiz-adv-x="1220" d="M205 479q76 244 260 372t463 128q409 0 409 -309q0 -92 -37 -211q-8 -29 -22 -68h-660q-20 -70 -20 -111q0 -21 5 -34q15 -41 87 -41q109 0 148 104h403q-76 -164 -241.5 -252t-399.5 -88q-272 0 -375 137q-52 76 -52 185q1 84 32 188zM682 596h248q15 48 15 81 q0 22 -7 37q-16 38 -80 38q-127 0 -176 -156zM836 1100l280 325h420l-395 -325h-305z" />
<glyph unicode="&#xea;" horiz-adv-x="1220" d="M205 479q76 244 260 372t463 128q409 0 409 -309q0 -92 -37 -211q-8 -29 -22 -68h-660q-20 -70 -20 -111q0 -21 5 -34q15 -41 87 -41q109 0 148 104h403q-76 -164 -241.5 -252t-399.5 -88q-272 0 -375 137q-52 76 -52 185q1 84 32 188zM549 1104l319 323h424l119 -323 h-336l-45 170l-147 -170h-334zM682 596h248q15 48 15 81q0 22 -7 37q-16 38 -80 38q-127 0 -176 -156z" />
<glyph unicode="&#xeb;" horiz-adv-x="1220" d="M205 479q76 244 260 372t463 128q409 0 409 -309q0 -92 -37 -211q-8 -29 -22 -68h-660q-20 -70 -20 -111q0 -21 5 -34q15 -41 87 -41q109 0 148 104h403q-76 -164 -241.5 -252t-399.5 -88q-272 0 -375 137q-52 76 -52 185q1 84 32 188zM596 1104l98 321h316l-99 -321 h-315zM682 596h248q15 48 15 81q0 22 -7 37q-16 38 -80 38q-127 0 -176 -156zM1049 1104l98 321h313l-98 -321h-313z" />
<glyph unicode="&#xec;" horiz-adv-x="669" d="M106 0l289 948h459l-289 -948h-459zM326 1425h419l84 -325h-307z" />
<glyph unicode="&#xed;" horiz-adv-x="669" d="M104 0l289 948h459l-289 -948h-459zM526 1100l281 325h420l-396 -325h-305z" />
<glyph unicode="&#xee;" horiz-adv-x="669" d="M104 0l289 948h459l-289 -948h-459zM260 1104l320 323h424l118 -323h-336l-45 170l-147 -170h-334z" />
<glyph unicode="&#xef;" horiz-adv-x="669" d="M104 0l289 948h459l-289 -948h-459zM356 1118l90 293h275l-90 -293h-275zM748 1118l90 293h272l-90 -293h-272z" />
<glyph unicode="&#xf0;" horiz-adv-x="1292" d="M203 473q84 272 338 412q147 82 293 82q70 0 118.5 -18.5t108.5 -67.5q-25 156 -146 249l-241 -118l-51 100l176 86l-49 16l-60 17q-2 0 -7 2t-15.5 5t-18.5 7l146 180q115 -2 317 -75l229 112l66 -96l-184 -88q150 -147 188 -352q14 -72 14 -148q0 -140 -47 -295 q-78 -248 -269 -381t-472 -133q-295 0 -404 150q-57 82 -57 191q0 75 27 163zM655 451q-26 -83 -26 -136q0 -94 82 -94q127 0 204 250q35 116 36 171q0 15 -3 26q-10 59 -82 59q-129 0 -211 -276z" />
<glyph unicode="&#xf1;" horiz-adv-x="1296" d="M111 0l206 678q53 178 76 270h447l-37 -145q150 176 356 176q113 0 179.5 -46t76.5 -130q1 -11 1 -22q0 -28 -7 -62q-10 -47 -47 -174l-166 -545h-459l152 500q35 114 35 137q0 58 -56 57q-66 0 -102 -69q-14 -25 -47 -133l-150 -492h-458zM647 1114q35 98 86 174 q41 57 109.5 94t134.5 37q41 0 156 -45q63 -25 88 -24q47 0 75 73h205q-27 -88 -65 -147q-45 -72 -110.5 -116t-129.5 -44q-41 0 -145 43q-90 35 -119 35q-47 0 -80 -80h-205z" />
<glyph unicode="&#xf2;" horiz-adv-x="1292" d="M205 481q72 229 268.5 363.5t462.5 134.5q281 0 396 -133q71 -81 71 -203q0 -78 -29 -172q-72 -236 -272 -373q-186 -129 -465 -129q-295 0 -404 150q-58 80 -57 191q0 78 29 171zM639 1425h420l84 -325h-307zM655 451q-26 -83 -26 -136q0 -94 82 -94q127 0 204 250 q35 116 36 171q0 15 -3 26q-10 59 -82 59q-129 0 -211 -276z" />
<glyph unicode="&#xf3;" horiz-adv-x="1292" d="M205 481q72 229 268.5 363.5t462.5 134.5q281 0 396 -133q71 -81 71 -203q0 -78 -29 -172q-72 -236 -272 -373q-186 -129 -465 -129q-295 0 -404 150q-58 80 -57 191q0 78 29 171zM655 451q-26 -83 -26 -136q0 -94 82 -94q127 0 204 250q35 116 36 171q0 15 -3 26 q-10 59 -82 59q-129 0 -211 -276zM838 1100l280 325h420l-395 -325h-305z" />
<glyph unicode="&#xf4;" horiz-adv-x="1292" d="M205 481q72 229 268.5 363.5t462.5 134.5q281 0 396 -133q71 -81 71 -203q0 -78 -29 -172q-72 -236 -272 -373q-186 -129 -465 -129q-295 0 -404 150q-58 80 -57 191q0 78 29 171zM563 1104l320 323h424l118 -323h-335l-46 170l-147 -170h-334zM655 451q-26 -83 -26 -136 q0 -94 82 -94q127 0 204 250q35 116 36 171q0 15 -3 26q-10 59 -82 59q-129 0 -211 -276z" />
<glyph unicode="&#xf5;" horiz-adv-x="1292" d="M205 481q72 229 268.5 363.5t462.5 134.5q281 0 396 -133q71 -81 71 -203q0 -78 -29 -172q-72 -236 -272 -373q-186 -129 -465 -129q-295 0 -404 150q-58 80 -57 191q0 78 29 171zM655 451q-26 -83 -25 -136q0 -94 81 -94q127 0 204 250q35 116 36 171q0 15 -3 26 q-10 59 -82 59q-129 0 -211 -276zM666 1114q35 98 86 174q41 57 109.5 94t133.5 37q41 0 156 -45q66 -25 88 -24q47 0 76 73h205q-27 -88 -66 -147q-45 -72 -110.5 -116t-129.5 -44q-41 0 -145 43q-90 35 -119 35q-47 0 -80 -80h-204z" />
<glyph unicode="&#xf6;" horiz-adv-x="1292" d="M205 481q72 229 268.5 363.5t462.5 134.5q281 0 396 -133q71 -81 71 -203q0 -78 -29 -172q-72 -236 -272 -373q-186 -129 -465 -129q-295 0 -404 150q-58 80 -57 191q0 78 29 171zM612 1104l99 321h315l-98 -321h-316zM655 451q-26 -83 -26 -136q0 -94 82 -94 q127 0 204 250q35 116 36 171q0 15 -3 26q-10 59 -82 59q-129 0 -211 -276zM1065 1104l98 321h314l-99 -321h-313z" />
<glyph unicode="&#xf7;" d="M340 559l82 266h1024l-82 -266h-1024zM588 168l78 256h290l-77 -256h-291zM829 961l78 256h291l-78 -256h-291z" />
<glyph unicode="&#xf8;" horiz-adv-x="1292" d="M86 0l150 117q-59 87 -59 199q0 74 26 159q72 233 269.5 368.5t465.5 135.5q100 0 162.5 -13.5t146.5 -52.5l166 129l84 -92l-149 -119q52 -90 51 -199q0 -76 -25 -161q-72 -236 -272 -373q-186 -129 -461 -129q-174 0 -313 62l-164 -129zM616 244q14 -31 31 -41t53 -10 q76 0 135.5 61t94.5 176q6 23 28 115zM623 412l340 295q-20 51 -84 51q-156 0 -240 -279q-10 -34 -16 -67z" />
<glyph unicode="&#xf9;" horiz-adv-x="1298" d="M172 211q8 57 43 172l172 565h459l-170 -559q-16 -54 -16 -84q0 -13 3 -21q9 -30 56 -30t76.5 30.5t50.5 102.5l172 561h459l-205 -672q-41 -135 -78 -276h-449l23 131q-135 -162 -350 -162q-199 0 -240 135q-9 31 -9 66q0 20 3 41zM631 1425h420l84 -325h-308z" />
<glyph unicode="&#xfa;" horiz-adv-x="1298" d="M172 211q8 57 43 172l172 565h459l-170 -559q-16 -54 -16 -84q0 -13 3 -21q9 -30 56 -30t76.5 30.5t50.5 102.5l172 561h459l-205 -672q-41 -135 -78 -276h-449l23 131q-135 -162 -350 -162q-199 0 -240 135q-9 31 -9 66q0 20 3 41zM827 1100l281 325h420l-395 -325h-306 z" />
<glyph unicode="&#xfb;" horiz-adv-x="1298" d="M172 211q8 57 43 172l172 565h459l-170 -559q-16 -54 -16 -84q0 -13 3 -21q9 -30 56 -30t76.5 30.5t50.5 102.5l172 561h459l-205 -672q-41 -135 -78 -276h-449l23 131q-135 -162 -350 -162q-199 0 -240 135q-9 31 -9 66q0 20 3 41zM557 1104l320 323h423l119 -323h-336 l-45 170l-147 -170h-334z" />
<glyph unicode="&#xfc;" horiz-adv-x="1298" d="M172 211q8 57 43 172l172 565h459l-170 -559q-16 -54 -16 -84q0 -13 3 -21q9 -30 56 -30t76.5 30.5t50.5 102.5l172 561h459l-205 -672q-41 -135 -78 -276h-449l23 131q-135 -162 -350 -162q-199 0 -240 135q-9 31 -9 66q0 20 3 41zM602 1104l98 321h316l-98 -321h-316z M1055 1104l98 321h313l-98 -321h-313z" />
<glyph unicode="&#xfd;" horiz-adv-x="1161" d="M127 -362l227 335l-92 975h492l-9 -205q-4 -168 -28 -348q63 131 196 373l101 180h456l-847 -1310h-496zM780 1100l281 325h420l-396 -325h-305z" />
<glyph unicode="&#xfe;" horiz-adv-x="1306" d="M-2 -362l438 1433q14 43 56 189q18 72 28 106h465l-113 -371q-25 -82 -55 -147q158 131 318 131q197 0 262 -132q31 -62 31 -149q0 -98 -39 -227q-76 -248 -232 -379q-145 -123 -323 -123q-88 0 -150.5 37t-83.5 98q-8 -16 -8 -22l-21 -72l-114 -372h-459zM678 293 q6 -53 63 -53q59 0 96.5 49t75.5 178q29 94 36 145q2 16 3 30q0 29 -11 44q-15 23 -54 23q-57 0 -96 -51.5t-76 -174.5q-38 -120 -38 -176q0 -7 1 -14z" />
<glyph unicode="&#xff;" horiz-adv-x="1161" d="M127 -362l227 335l-92 975h492l-9 -205q-4 -168 -28 -348q63 131 196 373l101 180h456l-847 -1310h-496zM551 1104l98 321h316l-99 -321h-315zM1004 1104l98 321h313l-98 -321h-313z" />
<glyph unicode="&#x152;" horiz-adv-x="1888" d="M281 684q100 334 332.5 511t568.5 177q29 0 184 -4q39 -2 197 -2h655l-109 -360h-430l-45 -148h387l-106 -346h-387l-47 -152h436l-109 -360h-661q-211 0 -320 -4q-31 -2 -84 -2q-322 0 -442 181q-66 99 -66 242q0 118 46 267zM750 391q20 -74 114 -74q59 0 103 21 l209 686q-33 25 -86 25q-82 0 -146 -64q-70 -63 -141 -297q-57 -187 -57 -264q0 -20 4 -33z" />
<glyph unicode="&#x153;" horiz-adv-x="1837" d="M199 459q41 133 127 245.5t198 178.5q168 96 383 96q201 0 293 -105q61 47 162.5 76t208.5 29q242 0 332 -137q48 -74 48 -180q0 -92 -36 -207q-10 -41 -23 -64h-657q-18 -64 -18 -104q0 -23 6 -39q16 -43 86 -43q104 0 145 104h399q-68 -162 -223 -251t-368 -89 q-221 0 -310 121q-145 -121 -368 -121q-252 0 -355 129q-60 76 -60 188q0 78 30 173zM625 321q-1 -10 -1 -20q0 -37 13 -56q16 -24 57 -24q59 0 100.5 56.5t84.5 197.5q40 126 39 183v15q-6 54 -68 54q-63 0 -105.5 -58.5t-89.5 -207.5q-26 -88 -30 -140zM1298 596h248 q13 44 13 75q0 81 -86 81q-55 0 -102.5 -39t-65.5 -101z" />
<glyph unicode="&#x178;" horiz-adv-x="1374" d="M369 1366h557l22 -405q2 -36 3 -70q0 -55 -7 -100h6q39 84 101 180l266 395h522l-741 -897l-144 -469h-534l143 469zM743 1507l88 291h343l-89 -291h-342zM1225 1507l88 291h342l-88 -291h-342z" />
<glyph unicode="&#x2c6;" horiz-adv-x="1024" d="M418 1104l319 323h424l119 -323h-336l-45 170l-147 -170h-334z" />
<glyph unicode="&#x2dc;" horiz-adv-x="1024" d="M471 1114q35 98 86 174q41 57 109.5 94t134.5 37q41 0 155 -45q63 -25 88 -24q47 0 76 73h205q-27 -88 -65 -147q-45 -72 -111 -116t-129 -44q-41 0 -146 43q-90 35 -118 35q-47 0 -80 -80h-205z" />
<glyph unicode="&#x2013;" d="M240 334l96 315h1085l-96 -315h-1085z" />
<glyph unicode="&#x2014;" horiz-adv-x="1718" d="M100 334l97 315h1718l-96 -315h-1719z" />
<glyph unicode="&#x2018;" horiz-adv-x="681" d="M281 799l389 567h362l-313 -567h-438z" />
<glyph unicode="&#x2019;" horiz-adv-x="681" d="M309 799l314 567h438l-389 -567h-363z" />
<glyph unicode="&#x201a;" horiz-adv-x="681" d="M12 -170l316 567h438l-391 -567h-363z" />
<glyph unicode="&#x201c;" horiz-adv-x="1216" d="M281 799l389 567h362l-313 -567h-438zM815 799l389 567h363l-314 -567h-438z" />
<glyph unicode="&#x201d;" horiz-adv-x="1216" d="M309 799l314 567h438l-389 -567h-363zM844 799l313 567h438l-389 -567h-362z" />
<glyph unicode="&#x201e;" horiz-adv-x="1216" d="M12 -170l316 567h438l-391 -567h-363zM547 -170l315 567h438l-391 -567h-362z" />
<glyph unicode="&#x2022;" d="M612 692q37 121 145.5 203t229.5 82q115 0 171 -84q35 -52 35 -116q0 -39 -13 -83q-35 -119 -143.5 -201.5t-225.5 -82.5t-175 83q-37 52 -37 117q0 38 13 82z" />
<glyph unicode="&#x2026;" horiz-adv-x="2000" d="M100 0l121 395h465l-121 -395h-465zM768 0l121 395h465l-121 -395h-465zM1434 0l120 395h465l-121 -395h-464z" />
<glyph unicode="&#x2039;" horiz-adv-x="708" d="M170 473l432 475h367l-353 -475l64 -473h-367z" />
<glyph unicode="&#x203a;" horiz-adv-x="708" d="M27 0l350 473l-62 475h367l141 -475l-430 -473h-366z" />
<glyph unicode="&#x20ac;" horiz-adv-x="1667" d="M233 573l166 226h109q256 602 878 602q309 0 431 -140.5t43 -404.5h-504q25 100 8.5 145.5t-78.5 45.5q-72 0 -124 -57.5t-99 -190.5h221l-166 -226h-125q-16 -72 -18 -104q-18 -150 88 -150q125 0 186 185h512q-76 -250 -294 -394.5t-523 -144.5q-307 0 -436 153.5 t-72 454.5h-203z" />
<glyph unicode="&#x2122;" horiz-adv-x="2021" d="M399 1151l66 215h731l-66 -215h-196l-172 -563h-334l172 563h-201zM1040 588l238 778h461l-15 -172q-18 -174 -32 -246l116 242l95 176h448l-237 -778h-281l78 252l74 231l-119 -229l-140 -254h-299l19 270q4 74 20 211l-61 -207l-84 -274h-281z" />
<glyph unicode="&#xe000;" horiz-adv-x="950" d="M0 950h950v-950h-950v950z" />
<glyph unicode="&#xfb01;" horiz-adv-x="1456" d="M129 0l203 664h-115l86 284h115l4 15q39 125 63 176q63 117 185.5 182t275.5 65q104 0 238 -26l-84 -268q-45 10 -84 10q-66 0 -92.5 -27.5t-59.5 -126.5h176l-86 -284h-176l-203 -664h-446zM893 0l289 948h458l-288 -948h-459zM1221 1077l88 289h458l-88 -289h-458z" />
<glyph unicode="&#xfb02;" horiz-adv-x="1456" d="M129 0l203 664h-115l86 284h115l4 15q39 125 63 176q63 117 185.5 182t275.5 65q104 0 238 -26l-84 -268q-45 10 -84 10q-66 0 -92.5 -27.5t-59.5 -126.5h176l-86 -284h-176l-203 -664h-446zM893 0l416 1366h458l-415 -1366h-459z" />
<glyph unicode="&#xfb03;" horiz-adv-x="2199" d="M1634 0l289 948h459l-289 -948h-459zM1962 1077l88 289h459l-88 -289h-459zM894 0l203 664h-115l86 284h115l4 15q39 125 63 176q63 117 185.5 182t275.5 65q104 0 238 -26l-84 -268q-45 10 -84 10q-66 0 -92.5 -27.5t-59.5 -126.5h176l-86 -284h-176l-203 -664h-446z M129 0l203 664h-115l86 284h115l4 15q39 125 63 176q63 117 185.5 182t275.5 65q104 0 238 -26l-84 -268q-45 10 -84 10q-66 0 -92.5 -27.5t-59.5 -126.5h176l-86 -284h-176l-203 -664h-446z" />
<glyph unicode="&#xfb04;" horiz-adv-x="2199" d="M1634 0l416 1366h459l-416 -1366h-459zM894 0l203 664h-115l86 284h115l4 15q39 125 63 176q63 117 185.5 182t275.5 65q104 0 238 -26l-84 -268q-45 10 -84 10q-66 0 -92.5 -27.5t-59.5 -126.5h176l-86 -284h-176l-203 -664h-446zM129 0l203 664h-115l86 284h115l4 15 q39 125 63 176q63 117 185.5 182t275.5 65q104 0 238 -26l-84 -268q-45 10 -84 10q-66 0 -92.5 -27.5t-59.5 -126.5h176l-86 -284h-176l-203 -664h-446z" />
</font>
</defs>
</svg>
