<?xml version="1.0" standalone="no"?>
<!DOCTYPE svg PUBLIC "-//W3C//DTD SVG 1.1//EN" "http://www.w3.org/Graphics/SVG/1.1/DTD/svg11.dtd" >
<svg xmlns="http://www.w3.org/2000/svg">
<metadata>
This is a custom SVG webfont generated by Fontspring.
</metadata>
<defs>
<font id="UrbanoLightCondensedItalic" horiz-adv-x="819" >
<font-face units-per-em="2048" ascent="1638" descent="-410" />
<missing-glyph horiz-adv-x="382" />
<glyph unicode=" "  horiz-adv-x="382" />
<glyph unicode="&#x09;" horiz-adv-x="382" />
<glyph unicode="&#xa0;" horiz-adv-x="382" />
<glyph unicode="!" horiz-adv-x="403" d="M-20 0l47 150h157l-47 -150h-157zM106 295l304 1071h145l-356 -1071h-93z" />
<glyph unicode="&#x22;" horiz-adv-x="555" d="M287 1366h110l-14 -547h-82zM541 1366h110l-14 -547h-82z" />
<glyph unicode="#" horiz-adv-x="1228" d="M162 444l10 93h238l51 317h-238l10 92h238l66 420h104l-66 -420h320l63 420h105l-66 -420h230l-8 -92h-232l-49 -317h229l-10 -93h-233l-68 -444h-106l67 444h-317l-68 -444h-102l69 444h-237zM516 537h318l47 317h-318z" />
<glyph unicode="$" d="M43 211q0 61 37 184h121q-45 -119 -45 -174q0 -51 29.5 -77.5t97.5 -36.5l172 561q-106 111 -136 161t-30 123q0 178 102.5 286t270.5 108l30 104h49l-30 -104q100 -20 145 -66.5t45 -128.5q0 -53 -29 -145h-116q33 104 32 149q0 80 -106 98l-154 -501 q104 -100 138 -157.5t34 -135.5q0 -98 -37.5 -195.5t-97.5 -154.5q-88 -82 -262 -97l-37 -121h-49l37 121q-211 39 -211 199zM332 107q115 8 172 83q84 104 84 254q0 55 -20.5 94.5t-75.5 90.5zM401 973q0 -53 19.5 -92t71.5 -90l141 462q-100 -2 -160 -79q-72 -97 -72 -201 z" />
<glyph unicode="%" horiz-adv-x="1155" d="M86 -63l1016 1513h86l-1008 -1513h-94zM190 821q0 45 47.5 205t81.5 236q61 125 203 124q70 0 114 -35.5t44 -95.5q0 -63 -55.5 -240t-92.5 -231q-68 -94 -186 -94q-70 0 -113 37t-43 94zM272 825q0 -33 22.5 -53t57.5 -20q84 0 123 84q33 74 78 226t45 193 q0 33 -22.5 51.5t-61.5 18.5q-78 0 -115 -82q-35 -78 -81 -230.5t-46 -187.5zM604 111q0 45 47 204.5t82 235.5q61 125 203 125q70 0 114 -36t44 -95q0 -63 -55.5 -240.5t-92.5 -230.5q-68 -94 -186 -94q-70 0 -113 37t-43 94zM686 115q0 -33 22.5 -53.5t57.5 -20.5 q84 0 123 84q33 74 78 226.5t45 193.5q0 33 -22.5 51t-61.5 18q-78 0 -115 -82q-35 -78 -81 -230t-46 -187z" />
<glyph unicode="&#x26;" horiz-adv-x="870" d="M33 225q0 104 44 226t103 180q76 74 232 84q-152 33 -152 186q0 100 46 213t114 178q74 74 248 74h190l-27 -88h-133q-94 0 -143 -16.5t-82 -59.5q-35 -43 -71.5 -153.5t-36.5 -171.5q0 -68 46 -96.5t158 -28.5h129l72 235h115l-72 -235h129l-27 -88h-131l-202 -664h-273 q-133 0 -194 47q-82 61 -82 178zM143 213q0 -68 42 -96.5t143 -28.5h166l178 576h-178q-147 0 -205 -58q-59 -59 -102.5 -176t-43.5 -217z" />
<glyph unicode="'" horiz-adv-x="301" d="M293 1366h110l-14 -547h-82z" />
<glyph unicode="(" horiz-adv-x="485" d="M53 -236q0 256 35 549q31 240 133.5 466.5t349.5 606.5h86q-297 -510 -397 -838.5t-121 -856.5h-86v73z" />
<glyph unicode=")" horiz-adv-x="485" d="M-129 -309q297 510 397.5 838.5t120.5 856.5h84q2 -31 2 -73q0 -551 -106 -860q-94 -276 -414 -762h-84z" />
<glyph unicode="*" d="M369 1225l49 71l162 -120l63 200l78 -24l-62 -199h199v-82l-196 -2l75 -199l-73 -28l-76 194l-168 -125l-45 70l157 117z" />
<glyph unicode="+" d="M139 653v99h293v286h98v-286h291v-99h-291v-284h-98v284h-293z" />
<glyph unicode="," horiz-adv-x="368" d="M-92 -147l123 297h143l-176 -297h-90z" />
<glyph unicode="-" horiz-adv-x="303" d="M2 475l25 84h305l-27 -84h-303z" />
<glyph unicode="." horiz-adv-x="368" d="M-39 0l47 150h158l-45 -150h-160z" />
<glyph unicode="/" horiz-adv-x="569" d="M-164 -248l873 1634h79l-870 -1634h-82z" />
<glyph unicode="0" d="M37 199q0 70 53 239l176 576q70 227 156 297q88 76 223 75q125 0 196.5 -57t71.5 -158q0 -68 -61 -272l-195 -639q-84 -281 -350 -280q-131 0 -200.5 56.5t-69.5 162.5zM150 199q0 -61 44 -96t119 -35q94 0 150.5 53t95.5 182l191 625q51 168 51 243q0 57 -43 92t-115 35 q-123 0 -180 -86q-39 -53 -92 -227l-176 -577q-45 -146 -45 -209z" />
<glyph unicode="1" d="M276 0l379 1241q-80 -90 -229 -135l35 111q143 74 248 169h104l-424 -1386h-113z" />
<glyph unicode="2" d="M-45 0l29 90l604 692q201 227 200 394q0 57 -37.5 89.5t-105.5 32.5q-113 0 -172 -81q-41 -57 -74 -187h-114q47 190 114 264q88 92 248 92q119 0 186.5 -54t67.5 -146q0 -215 -235 -475l-557 -621h497l-26 -90h-625z" />
<glyph unicode="3" d="M23 184q0 70 43 201h116l-6 -25q-10 -45 -20 -80l-14 -48q-3 -11 -5 -22t-2 -24q0 -57 41 -87.5t117 -30.5q115 0 176 90q43 66 83 196.5t40 210.5q0 68 -62 94q-37 14 -139 17l29 94q14 -2 33 -2q168 0 235 119q35 63 60.5 149t25.5 146q0 53 -38 84.5t-101 31.5 q-119 0 -176 -100q-35 -57 -68 -168h-112q39 186 124.5 271.5t237.5 85.5q246 0 246 -199q0 -100 -44 -219t-104 -176q-74 -68 -176 -74q78 -27 110 -66t32 -106q0 -98 -47.5 -246.5t-98.5 -206.5q-100 -115 -278 -114q-121 0 -189.5 55t-68.5 149z" />
<glyph unicode="4" d="M10 373l27 90l672 923h192l-283 -923h162l-28 -90h-160l-115 -373h-112l114 373h-469zM162 463h344l250 819z" />
<glyph unicode="5" d="M49 186q0 78 43 193h115q-45 -141 -45 -194.5t39 -85t106 -31.5q141 0 211 133q41 84 86 239.5t45 221.5q0 57 -38 88.5t-105 31.5q-78 0 -130 -41t-93 -135h-119l248 760h524l-27 -90h-417l-162 -494q57 49 101 68.5t106 19.5q104 0 164.5 -53t60.5 -143q0 -82 -49 -260 t-95 -258q-102 -176 -311 -176q-123 0 -190.5 54t-67.5 152z" />
<glyph unicode="6" d="M51 197q0 92 41 225l211 686q41 133 132 205.5t218 72.5q113 0 178.5 -53t65.5 -143q0 -59 -25 -158h-110q23 102 22 152q0 53 -34.5 83.5t-98.5 30.5q-178 0 -252 -241l-96 -316q94 96 211 97q100 0 162.5 -53.5t62.5 -139.5t-48 -259t-95 -253q-92 -154 -295 -153 q-119 0 -184.5 57.5t-65.5 159.5zM164 199q0 -61 37 -96t102 -35q139 0 201 120q39 76 81 225.5t42 213.5q0 123 -144 123q-135 0 -194 -109q-43 -82 -84 -227t-41 -215z" />
<glyph unicode="7" d="M104 0l715 1276h-448l28 90h570l-27 -90l-706 -1276h-132z" />
<glyph unicode="8" d="M43 186q0 84 42 225.5t87 204.5q35 49 76 74t117 39q-104 51 -105 156q0 74 35 184.5t80 183.5q84 133 266 133q248 0 248 -204q0 -76 -30 -177.5t-71 -164.5q-33 -51 -73.5 -78t-116.5 -45q68 -29 93.5 -62.5t25.5 -91.5q0 -78 -31 -197.5t-74 -205.5 q-90 -180 -309 -180q-121 0 -190.5 55t-69.5 151zM156 195q0 -127 147 -127q152 0 213 149q35 86 61.5 193.5t26.5 161t-41 83t-112 29.5q-121 0 -177 -98q-41 -70 -79.5 -197.5t-38.5 -193.5zM373 872q0 -51 38 -79.5t103 -28.5q76 0 124 43t85 141q53 150 53 234 q0 53 -37 84.5t-98 31.5q-121 0 -182 -118q-33 -63 -59.5 -159t-26.5 -149z" />
<glyph unicode="9" d="M39 168q0 68 45 211h117q-49 -154 -49 -199q0 -113 149 -112q92 0 151.5 56t96.5 179l98 326q-92 -90 -211 -90q-100 0 -161.5 54t-61.5 142q0 94 59.5 276.5t112.5 256.5q86 119 266 118q115 0 186.5 -57t71.5 -147q0 -70 -57 -256l-209 -672q-41 -133 -134 -203.5 t-224 -70.5q-111 0 -178.5 52t-67.5 136zM326 743q0 -53 35.5 -84.5t97.5 -31.5q68 0 126 32.5t85 85.5q33 63 80 219t47 203q0 59 -40 95t-108 36q-125 0 -184 -108q-43 -82 -91 -235t-48 -212z" />
<glyph unicode=":" horiz-adv-x="368" d="M-39 0l47 150h158l-45 -150h-160zM207 807l47 149h160l-47 -149h-160z" />
<glyph unicode=";" horiz-adv-x="368" d="M-92 -147l123 297h143l-176 -297h-90zM207 807l47 149h158l-45 -149h-160z" />
<glyph unicode="&#x3c;" horiz-adv-x="1024" d="M68 637v100l886 404v-113l-764 -340l764 -342v-113z" />
<glyph unicode="=" d="M139 559v98h682v-98h-682zM139 750v98h682v-98h-682z" />
<glyph unicode="&#x3e;" horiz-adv-x="1024" d="M70 233v113l764 342l-764 340v113l886 -404v-100z" />
<glyph unicode="?" horiz-adv-x="624" d="M100 0l47 150h160l-47 -150h-160zM221 309q35 164 60.5 223.5t95.5 139.5q123 141 180 241q41 66 68.5 148t27.5 137q0 45 -27.5 69.5t-76.5 24.5q-106 0 -156 -108q-14 -31 -49 -156h-117q53 197 107 266q76 92 223 92q94 0 150.5 -47t56.5 -125q0 -106 -62 -253 q-29 -68 -57.5 -109t-144.5 -178q-84 -98 -109.5 -137t-40.5 -86q-25 -76 -37 -142h-92z" />
<glyph unicode="@" horiz-adv-x="1550" d="M135 504q0 297 206 500.5t505 203.5q279 0 464 -173t185 -435q0 -195 -100.5 -342t-233.5 -147q-63 0 -104 39.5t-43 107.5q-96 -152 -256 -152q-127 0 -207 93.5t-80 240.5q0 176 104.5 297t253.5 121q178 0 238 -178l29 151h80l-89 -448q-12 -55 -12 -100 q0 -47 24.5 -76t67.5 -29q100 0 177 128t77 292q0 236 -161.5 387.5t-413.5 151.5q-266 0 -448.5 -183.5t-182.5 -449.5q0 -262 172 -445q182 -190 485 -190q225 0 449 108l27 -69q-227 -113 -476 -113q-332 0 -536 205q-94 96 -147.5 229.5t-53.5 274.5zM559 440 q0 -115 59.5 -185.5t153.5 -70.5q111 0 184.5 104.5t73.5 262.5q0 104 -52 164.5t-142 60.5q-115 0 -196 -99.5t-81 -236.5z" />
<glyph unicode="A" horiz-adv-x="884" d="M-102 0l753 1376h160l-76 -1376h-121l27 381h-414l-207 -381h-122zM281 473h364l49 770z" />
<glyph unicode="B" horiz-adv-x="874" d="M-12 0l418 1366h290q119 0 182.5 -58.5t63.5 -166.5q0 -90 -32.5 -184.5t-82.5 -149.5q-47 -49 -97 -72.5t-136 -34.5q172 -31 172 -182q0 -109 -45 -236.5t-107 -193.5q-82 -88 -327 -88h-299zM133 92h172q182 0 244 96q41 63 71.5 168t30.5 179q0 129 -166 129h-178z M334 752h176q166 0 231 114q35 57 60.5 138t25.5 135q0 63 -36.5 99t-102.5 36h-194z" />
<glyph unicode="C" horiz-adv-x="782" d="M33 178q0 86 55 266l148 486q86 283 165 362q94 94 254 94q125 0 192.5 -54t67.5 -154q0 -66 -32 -172h-121q39 127 39 172q0 53 -39 82.5t-111 29.5q-135 0 -198 -100q-29 -45 -46.5 -92t-68.5 -215l-148 -486q-43 -145 -43 -217q0 -49 41 -76.5t115 -27.5 q100 0 155.5 61.5t106.5 227.5h121q-35 -119 -58.5 -172.5t-60.5 -98.5q-96 -115 -272 -114q-123 0 -192.5 52t-69.5 146z" />
<glyph unicode="D" horiz-adv-x="897" d="M-14 0l417 1366h265q164 0 227 -53q74 -61 74 -168q0 -98 -90 -412q-125 -444 -213 -579q-53 -82 -143.5 -118t-239.5 -36h-297zM131 92h145q115 0 175.5 19.5t103.5 72.5q55 70 174 457q125 412 125 500q0 133 -186 133h-176z" />
<glyph unicode="E" horiz-adv-x="757" d="M-12 0l418 1366h530l-27 -92h-415l-160 -522h397l-29 -88h-395l-174 -572h436l-28 -92h-553z" />
<glyph unicode="F" horiz-adv-x="714" d="M-12 0l418 1366h524l-29 -92h-407l-160 -522h397l-29 -88h-395l-203 -664h-116z" />
<glyph unicode="G" horiz-adv-x="845" d="M49 225q0 88 64 301l151 496q68 221 168 293t248 72q125 0 193.5 -56.5t68.5 -156.5q0 -45 -24 -152h-121q31 115 30 152q0 55 -43 85.5t-118 30.5q-115 0 -179.5 -66.5t-117.5 -240.5l-152 -500q-53 -178 -53 -256q0 -152 190 -151q84 0 164 33l144 473h-168l26 92h293 l-195 -633q-160 -61 -286 -61q-133 0 -208 65t-75 180z" />
<glyph unicode="H" horiz-adv-x="917" d="M-14 0l417 1366h117l-188 -614h424l188 614h117l-418 -1366h-117l203 664h-424l-203 -664h-116z" />
<glyph unicode="I" horiz-adv-x="376" d="M-12 0l420 1376h116l-420 -1376h-116z" />
<glyph unicode="J" horiz-adv-x="718" d="M-63 166q0 84 36 182h121q-43 -127 -43 -172q0 -100 142 -100q109 0 157 71q51 80 103 250l295 969h116l-317 -1040q-63 -209 -129 -273q-82 -74 -238 -73q-119 0 -181 48t-62 138z" />
<glyph unicode="K" d="M-14 0l417 1366h117l-418 -1366h-116zM346 735l555 631h139l-573 -637l203 -729h-125z" />
<glyph unicode="L" horiz-adv-x="684" d="M-12 0l418 1366h116l-389 -1274h430l-28 -92h-547z" />
<glyph unicode="M" horiz-adv-x="1265" d="M-14 0l417 1366h203l-74 -1212q29 78 109 221l545 991h209l-404 -1366h-117l381 1270l-706 -1270h-131l71 1270l-387 -1270h-116z" />
<glyph unicode="N" horiz-adv-x="958" d="M-14 0l417 1366h183l35 -1245q18 109 94 358l270 887h117l-418 -1366h-172l-39 1266q-47 -209 -96 -371l-275 -895h-116z" />
<glyph unicode="O" horiz-adv-x="860" d="M33 180q0 92 30 189l199 651q39 125 78 190.5t98 106.5q100 70 240 69q125 0 200.5 -61t75.5 -162q0 -78 -65 -289l-152 -491q-53 -170 -98 -243.5t-125 -114.5q-86 -45 -203 -45q-133 0 -205.5 53t-72.5 147zM147 205q0 -61 47.5 -95t131.5 -34q104 0 174 63 q68 61 129 264l155 510q55 182 56 252q0 57 -48.5 91t-125.5 34q-109 0 -174 -59q-66 -55 -121 -242l-201 -653q-23 -76 -23 -131z" />
<glyph unicode="P" horiz-adv-x="825" d="M-12 0l418 1366h256q141 0 204 -43q80 -57 80 -162q0 -109 -51 -247t-115 -195q-94 -88 -309 -88h-174l-193 -631h-116zM326 723h131q92 0 126.5 6t73.5 27q80 41 136 198q39 117 38.5 188.5t-38 101.5t-131.5 30h-168z" />
<glyph unicode="Q" horiz-adv-x="868" d="M33 190q0 76 33 181l206 673q61 203 170 277q98 65 236 65q125 0 199.5 -63t74.5 -168q0 -70 -30 -170l-203 -663q-63 -205 -201 -250l-2 -13q100 25 195 25h47l-29 -94q-92 6 -178 6q-70 0 -191 -12q-66 -4 -75 -4q-119 0 -185.5 55t-66.5 155zM147 197q0 -121 166 -121 q119 0 185.5 64.5t117.5 228.5l197 643q25 78 25 141q0 61 -48.5 99t-125.5 38q-109 0 -174.5 -63.5t-110.5 -214.5l-215 -703q-17 -53 -17 -112z" />
<glyph unicode="R" horiz-adv-x="888" d="M-14 0l417 1366h310q117 0 182.5 -59.5t65.5 -161.5q0 -94 -35 -187.5t-95 -154.5q-35 -39 -77.5 -58.5t-128.5 -35.5q82 -20 115.5 -53t33.5 -91q0 -59 -18 -119l-92 -301q-16 -53 -17 -100q0 -25 2 -45h-121q2 98 17 141l94 310q20 66 20 114q0 55 -36.5 77t-126.5 22 h-191l-203 -664h-116zM332 752h151q182 0 254 90q41 53 75 147t34 158q0 127 -168 127h-186z" />
<glyph unicode="S" horiz-adv-x="800" d="M20 193q0 49 35 186h125q-45 -123 -45 -189q0 -53 40 -83.5t110 -30.5q115 0 188 67q49 43 82 126t33 163q0 84 -78 174q-27 31 -123 125q-121 119 -121 248q0 70 28 149.5t71 133.5q100 125 276 124q127 0 195.5 -53t68.5 -151q0 -51 -31 -152h-120q37 100 37 154 q0 47 -40 76.5t-106 29.5q-109 0 -186.5 -88t-77.5 -211q0 -59 27.5 -102t121.5 -137q88 -88 115 -127q57 -84 57 -187q0 -100 -38.5 -199.5t-102.5 -158.5q-106 -100 -287 -100q-119 0 -186.5 56.5t-67.5 156.5z" />
<glyph unicode="T" horiz-adv-x="737" d="M168 0l389 1274h-305l29 92h723l-29 -92h-301l-389 -1274h-117z" />
<glyph unicode="U" horiz-adv-x="927" d="M63 184q0 59 35 176l308 1006h116l-319 -1042q-25 -82 -25 -127q0 -55 43 -88t119 -33q104 0 186 65q41 35 68 90.5t74 210.5l282 924h117l-293 -960q-53 -170 -91 -240t-108 -115q-104 -72 -239 -71q-125 0 -199 55t-74 149z" />
<glyph unicode="V" horiz-adv-x="804" d="M186 0l105 1366h121l-109 -1239l617 1239h124l-698 -1366h-160z" />
<glyph unicode="W" horiz-adv-x="1318" d="M141 0l150 1366h110l-141 -1235l565 1235h170l-161 -1251l587 1251h119l-659 -1366h-164l166 1260l-576 -1260h-166z" />
<glyph unicode="X" horiz-adv-x="804" d="M-137 0l547 735l-109 631h119l90 -524l397 524h129l-504 -657l123 -709h-116l-103 600l-448 -600h-125z" />
<glyph unicode="Y" horiz-adv-x="774" d="M178 0l182 594l-79 772h116l64 -641l438 641h121l-551 -797l-174 -569h-117z" />
<glyph unicode="Z" horiz-adv-x="792" d="M-68 0l37 119l834 1155h-481l28 92h621l-29 -92l-858 -1182h526l-28 -92h-650z" />
<glyph unicode="[" horiz-adv-x="587" d="M-102 -309l518 1695h395l-29 -94h-282l-461 -1509h297l-29 -92h-409z" />
<glyph unicode="\" horiz-adv-x="987" d="M299 1386h76l461 -1634h-74z" />
<glyph unicode="]" horiz-adv-x="587" d="M-182 -309l28 94h283l463 1509h-299l29 92h409l-518 -1695h-395z" />
<glyph unicode="^" horiz-adv-x="1024" d="M66 768l372 600h150l373 -600h-127l-324 512l-320 -512h-124z" />
<glyph unicode="_" horiz-adv-x="1024" d="M0 -145h1024v-107h-1024v107z" />
<glyph unicode="`" horiz-adv-x="1024" d="M459 1325h149l133 -248h-100z" />
<glyph unicode="a" horiz-adv-x="722" d="M14 143q0 92 46.5 201t105.5 156q74 57 197 69q35 2 153 4q10 0 25 2q57 188 57 230q0 37 -26.5 58.5t-73.5 21.5q-70 0 -124.5 -52.5t-76.5 -142.5h-104q72 276 315 277q90 0 144.5 -41t54.5 -109q0 -53 -21 -115l-215 -702h-94l37 121q-63 -72 -117.5 -101.5 t-120.5 -29.5q-76 0 -119 40.5t-43 112.5zM123 158q0 -41 26.5 -63.5t71.5 -22.5q51 0 102.5 36.5t88.5 100.5q29 51 42 88t60 195q-29 2 -65 2q-178 0 -244 -99q-31 -45 -56.5 -120.5t-25.5 -116.5z" />
<glyph unicode="b" horiz-adv-x="729" d="M-33 0l424 1386h107l-166 -540q61 66 112.5 93.5t114.5 27.5q76 0 123 -39t47 -101q0 -59 -63.5 -281t-118.5 -353q-84 -203 -271 -203q-61 0 -102 21.5t-82 76.5l-26 -88h-99zM139 172q0 -45 35 -72.5t90 -27.5q76 0 125 51t90 170q141 424 142 510q0 37 -28 59.5 t-75 22.5q-74 0 -137.5 -57.5t-101.5 -161.5q-4 -8 -99 -320q-41 -135 -41 -174z" />
<glyph unicode="c" horiz-adv-x="618" d="M16 147q0 63 29 156q2 8 9 31.5t14.5 51.5t15.5 54q96 346 162 424q84 102 237 103q88 0 135.5 -38t47.5 -110q0 -59 -25 -141h-104q8 41 8 45q12 49 12 82q0 37 -24.5 58.5t-65.5 21.5q-68 0 -111 -40t-80 -136q-47 -123 -99 -311.5t-52 -233.5q0 -41 27.5 -66.5 t74.5 -25.5q139 0 189 209h104q-43 -160 -112.5 -225.5t-198.5 -65.5q-90 0 -141.5 41.5t-51.5 115.5z" />
<glyph unicode="d" horiz-adv-x="724" d="M8 135q0 86 103 393q57 174 88.5 245t74.5 116q74 78 179 78q113 0 178 -97l160 516h106l-424 -1386h-98l28 98q-121 -109 -237 -108q-72 0 -115 38.5t-43 106.5zM117 152q0 -80 98 -80q111 0 180 114q41 66 117 293q80 241 80 305q0 42 -31 70q-35 31 -92 31 q-80 0 -123 -56.5t-108 -240.5q-121 -340 -121 -436z" />
<glyph unicode="e" horiz-adv-x="688" d="M12 135q0 80 80 348.5t129 350.5q82 141 250 141q100 0 157.5 -39t57.5 -107q0 -66 -96 -395h-397q-72 -199 -72 -280q0 -39 29.5 -60.5t78.5 -21.5q141 0 199 200h111q-43 -152 -116 -217t-202 -65q-100 0 -154.5 37.5t-54.5 107.5zM217 520h289q72 219 72 289 q0 37 -30 60.5t-77 23.5q-86 0 -135 -66q-49 -63 -119 -307z" />
<glyph unicode="f" horiz-adv-x="409" d="M-6 0l266 870h-121l25 86h123l63 207q41 135 88 181.5t144 46.5q29 0 96 -13l-25 -78q-45 8 -55 9q-61 0 -90 -33q-27 -29 -59 -139l-56 -181h156l-27 -86h-155l-267 -870h-106z" />
<glyph unicode="g" horiz-adv-x="722" d="M-78 -215q0 37 10 76h109q-10 -31 -10 -56q0 -82 106 -81q84 0 137 61q35 43 93 223l36 119q-98 -104 -206 -104q-82 0 -128 42t-46 115q0 61 50 240.5t109 327.5q31 78 53.5 112.5t57.5 61.5q66 45 147 45q131 0 199 -93l27 82h98l-291 -950q-41 -135 -71.5 -196.5 t-75.5 -104.5q-78 -74 -213 -74q-88 0 -139.5 41t-51.5 113zM131 193q0 -88 94 -89q113 0 181 117q47 82 113 279q75 222 75 286q0 41 -31 68q-35 31 -92 31q-78 0 -128 -60.5t-95 -203.5q-117 -371 -117 -428z" />
<glyph unicode="h" horiz-adv-x="733" d="M-33 0l424 1386h107l-168 -546q92 129 231 129q70 0 112 -39t42 -103q0 -66 -45 -209l-189 -618h-106l182 602q49 164 49 205q0 37 -22.5 58.5t-61.5 21.5q-178 0 -280 -334l-168 -553h-107z" />
<glyph unicode="i" horiz-adv-x="346" d="M-18 0l292 956h107l-293 -956h-106zM354 1268l37 123h129l-39 -123h-127z" />
<glyph unicode="j" horiz-adv-x="331" d="M-260 -356l22 75h11q65 0 92 25q29 27 59 127l334 1085h107l-342 -1118q-35 -115 -81 -157.5t-130 -42.5q-21 0 -72 6zM338 1268l37 123h129l-39 -123h-127z" />
<glyph unicode="k" horiz-adv-x="647" d="M-35 0l424 1386h107l-424 -1386h-107zM258 555l354 401h127l-379 -407l154 -549h-121z" />
<glyph unicode="l" horiz-adv-x="325" d="M-33 0l424 1386h107l-424 -1386h-107z" />
<glyph unicode="m" horiz-adv-x="1130" d="M-33 0l293 956h98l-32 -106q72 68 120 92.5t105 24.5q66 0 110 -41t44 -99v-8q106 147 243 148q74 0 121 -39t47 -98.5t-47 -211.5l-190 -618h-107l197 643q39 125 39 166q0 76 -90 76q-82 0 -146.5 -67.5t-103.5 -192.5l-191 -625h-106l198 651q35 113 35 152 t-24.5 60.5t-67.5 21.5q-166 0 -248 -264l-190 -621h-107z" />
<glyph unicode="n" horiz-adv-x="739" d="M-33 0l293 956h98l-39 -127q68 76 122.5 107t117.5 31q74 0 120 -37t46 -94.5t-45 -204.5l-193 -631h-106l199 653q37 119 36.5 154t-24 56.5t-64.5 21.5q-96 0 -166 -80q-66 -74 -126 -273l-162 -532h-107z" />
<glyph unicode="o" horiz-adv-x="718" d="M12 156q0 68 78 320.5t125 338.5q84 152 266 152q109 0 169.5 -42t60.5 -118q0 -90 -107 -418q-57 -180 -86 -239.5t-78 -96.5q-84 -63 -198 -63q-104 0 -167 45t-63 121zM121 168q0 -96 127 -96q92 0 148.5 75.5t109.5 272.5q27 106 63 219q33 92 33 156 q0 41 -32.5 65.5t-88.5 24.5q-76 0 -122 -39t-85 -139q-41 -102 -97 -300t-56 -239z" />
<glyph unicode="p" horiz-adv-x="731" d="M-143 -354l401 1310h98l-37 -120q70 72 122.5 101.5t115.5 29.5q78 0 123 -40t45 -110q0 -47 -40 -196.5t-91 -296.5q-47 -139 -83 -198.5t-93 -94.5q-66 -41 -146 -41q-115 0 -172 100l-137 -444h-106zM137 170q0 -45 33 -71.5t86 -26.5q111 0 166 110 q45 86 119.5 322.5t74.5 290.5q0 90 -100 90q-111 0 -186 -129q-31 -47 -49.5 -98.5t-79.5 -237.5q-64 -197 -64 -250z" />
<glyph unicode="q" horiz-adv-x="729" d="M10 145q0 63 63.5 270.5t127.5 356.5q82 195 262 195q125 0 176 -113l31 102h98l-403 -1321h-107l148 480q-66 -72 -115 -98.5t-113 -26.5q-74 0 -121 42.5t-47 112.5zM119 158q0 -35 29.5 -60.5t70.5 -25.5q133 0 238 237q39 88 87 251t48 208q0 53 -33 85t-88 32 q-68 0 -113 -48.5t-92 -170.5q-43 -115 -95 -293t-52 -215z" />
<glyph unicode="r" horiz-adv-x="450" d="M-33 0l293 956h98l-51 -165q51 90 103.5 128.5t124.5 38.5h22l-31 -104q-8 2 -20 2q-90 0 -158.5 -91t-132.5 -302l-141 -463h-107z" />
<glyph unicode="s" horiz-adv-x="616" d="M-20 139q0 49 34 152h109q-33 -113 -33 -137q0 -82 92 -82q109 0 160 92q47 86 47 151q0 35 -20.5 64t-75.5 70q-88 66 -118 106.5t-30 99.5q0 68 30 138.5t75 109.5q76 63 190 64q88 0 140.5 -39t52.5 -105q0 -39 -27 -137h-110q29 100 28 127q0 72 -88 72 q-80 0 -123 -60q-59 -82 -59 -155q0 -35 23.5 -67t87.5 -79q78 -61 105.5 -101t27.5 -93q0 -66 -31 -140.5t-76 -121.5q-78 -78 -221 -78q-190 -1 -190 149z" />
<glyph unicode="t" horiz-adv-x="452" d="M61 109q0 20 29 112l199 649h-127l24 86h129l37 121l119 41l-49 -162h137l-27 -86h-137l-200 -653q-16 -51 -17 -82q0 -66 107 -65h39l-23 -74q-23 -4 -53 -4q-106 0 -142 24q-45 34 -45 93z" />
<glyph unicode="u" horiz-adv-x="731" d="M23 121q0 61 43 207l192 628h107l-203 -661q-31 -102 -31 -145q0 -35 23.5 -56.5t62.5 -21.5q100 0 176 102q51 66 103 229l168 553h106l-293 -956h-98l41 133q-68 -84 -119 -113.5t-129 -29.5q-149 0 -149 131z" />
<glyph unicode="v" horiz-adv-x="628" d="M96 0l80 956h103l-76 -845l430 845h104l-487 -956h-154z" />
<glyph unicode="w" horiz-adv-x="1075" d="M78 0l98 956h111l-94 -811l409 811h148l-78 -823l407 823h105l-475 -956h-152l82 825l-412 -825h-149z" />
<glyph unicode="x" horiz-adv-x="575" d="M-133 0l375 528l-52 428h101l41 -329l231 329h111l-326 -462l66 -494h-109l-43 399l-280 -399h-115z" />
<glyph unicode="y" horiz-adv-x="614" d="M-66 -354l197 358l35 952h102l-45 -784l406 784h94l-682 -1310h-107z" />
<glyph unicode="z" horiz-adv-x="538" d="M-92 0l26 90l553 793h-311l21 73h424l-31 -98l-549 -784h336l-23 -74h-446z" />
<glyph unicode="{" horiz-adv-x="587" d="M-2 -160q0 49 31 156l92 307q18 63 18 100q0 70 -76 97l25 80q72 20 111 62t65 128l105 340q45 143 129 210q84 66 219 66h31l-25 -86q-109 -2 -163 -44t-87 -148l-106 -342q-31 -98 -71 -149.5t-112 -79.5q63 -41 64 -113q0 -51 -23 -123l-98 -324q-23 -76 -23 -108 q0 -47 35 -68.5t117 -23.5l-27 -86h-24q-207 -1 -207 149z" />
<glyph unicode="|" horiz-adv-x="1024" d="M457 -342v1708h112v-1708h-112z" />
<glyph unicode="}" horiz-adv-x="587" d="M-119 -307l27 84q109 4 163 45t87 147l104 342q31 98 71 149.5t111 80.5q-63 41 -63 112q0 45 22 123l101 324q20 61 20 108t-34.5 68.5t-116.5 26.5l26 84h27q205 0 205 -148q0 -68 -29 -158l-94 -307q-18 -57 -19 -100q0 -70 76 -96l-24 -78q-72 -23 -111 -65t-65 -128 l-103 -340q-43 -143 -128 -209.5t-222 -66.5q-17 0 -31 2z" />
<glyph unicode="~" horiz-adv-x="1366" d="M193 1253q63 121 124.5 170.5t147.5 49.5q80 0 233 -78q145 -72 207 -72q59 0 103.5 35t93.5 119l72 -43q-111 -217 -283 -217q-43 0 -91 18t-192 86q-92 45 -151 45q-106 0 -195 -158z" />
<glyph unicode="&#xa1;" horiz-adv-x="403" d="M-145 -410l358 1072h90l-303 -1072h-145zM225 807l47 149h158l-47 -149h-158z" />
<glyph unicode="&#xa2;" d="M160 352q0 72 73.5 323t120.5 341q72 141 254 153l45 144h49l-45 -144q147 -20 148 -145q0 -55 -27 -141h-102q0 8 2 18t3 17.5t1 9.5q10 51 10 82q0 59 -59 77l-250 -813q125 10 172 211h104q-41 -158 -107.5 -222t-193.5 -68l-49 -160h-49l51 162q-70 8 -110.5 48.5 t-40.5 106.5zM272 367q0 -70 64 -88l248 806q-59 -10 -94 -47t-68 -125q-45 -121 -97.5 -310t-52.5 -236z" />
<glyph unicode="&#xa3;" d="M-82 0l27 90h133l190 625h-153l26 90h154l65 213q41 135 58.5 176t54.5 82q98 111 262 110q121 0 195 -59t74 -160q0 -47 -31 -149h-109q27 74 27 127q0 66 -45 102.5t-127 36.5q-113 0 -170 -82q-39 -61 -90 -229l-51 -168h272l-29 -90h-270l-191 -625h545l-28 -90h-789 z" />
<glyph unicode="&#xa4;" horiz-adv-x="1366" d="M213 1202l59 62l189 -189q141 113 299 113q156 0 297 -111l188 185l60 -60l-187 -186q109 -141 109 -295q0 -158 -109 -293l189 -188l-60 -60l-188 189q-135 -109 -297 -109q-152 0 -297 107l-186 -187l-60 60l184 188q-111 135 -110 295q0 154 110 293zM389 723 q0 -154 108.5 -262.5t262 -108.5t262 108.5t108.5 262.5q0 152 -108.5 262.5t-257.5 110.5q-156 0 -265.5 -108.5t-109.5 -264.5z" />
<glyph unicode="&#xa5;" d="M111 543l26 90h248l-6 123h-203l27 90h166l-54 520h117l60 -635l436 635h125l-365 -520h178l-26 -90h-215l-80 -123h258l-29 -90h-285l-165 -543h-113l166 543h-266z" />
<glyph unicode="&#xa6;" horiz-adv-x="1024" d="M457 313h112v-655h-112v655zM457 692v674h112v-674h-112z" />
<glyph unicode="&#xa7;" d="M-10 -25l55 95q180 -117 305 -117q100 0 162.5 55t62.5 144q0 74 -47 127t-178 122q-129 70 -179 129.5t-50 139.5q0 82 41 144.5t135 125.5q-68 76 -68 166q0 123 90.5 201.5t229.5 78.5q162 0 299 -106l-45 -94q-156 98 -268 98q-80 0 -133.5 -46t-53.5 -114 q0 -70 64 -127q23 -18 168 -100q115 -66 166 -130.5t51 -145.5q0 -84 -46 -156t-124 -109q68 -78 67 -180q0 -152 -94 -239t-255.5 -87t-354.5 125zM240 688q0 -43 27.5 -76.5t101.5 -81.5q37 -25 176 -104q133 82 133 178q0 78 -72 133q-39 31 -192 117l-33 20 q-141 -98 -141 -186z" />
<glyph unicode="&#xa8;" horiz-adv-x="1024" d="M520 1128l37 123h129l-39 -123h-127zM776 1128l39 123h127l-37 -123h-129z" />
<glyph unicode="&#xa9;" horiz-adv-x="1583" d="M162 688q0 289 206.5 490.5t499.5 201.5q281 0 483.5 -205.5t202.5 -490.5q0 -289 -203.5 -493.5t-492.5 -204.5q-291 0 -493.5 204.5t-202.5 497.5zM244 688q0 -258 179 -439t435 -181q254 0 434.5 181t180.5 435q0 250 -179.5 432t-425.5 182q-283 0 -467 -204 q-157 -175 -157 -406zM657 655v56q0 242 17 288q35 102 188 103q102 0 152 -53q45 -47 45 -160v-29h-96l-2 23q0 88 -19 114q-27 31 -82 31q-78 0 -96 -65q-12 -45 -12 -252v-56q0 -205 12 -252q18 -66 96 -65q61 0 84 35q16 23 17 110l2 23h96v-29q0 -113 -45 -160 q-49 -53 -152 -53q-154 0 -188 103q-17 46 -17 288z" />
<glyph unicode="&#xaa;" horiz-adv-x="571" d="M135 598l23 72h379l-23 -72h-379zM254 893q0 59 28.5 123.5t67.5 93.5q37 29 77 37t146 10q31 94 31 121q0 39 -53 39q-84 0 -111 -113h-84q43 182 207 182q57 0 93 -26.5t36 -69.5q0 -23 -12 -67l-129 -422h-78l14 47q-61 -53 -127 -53q-47 0 -76.5 26.5t-29.5 71.5z M342 907q0 -45 53 -45q59 0 103 74q18 35 55 154h-6h-25q-98 0 -135 -52q-45 -72 -45 -131z" />
<glyph unicode="&#xab;" horiz-adv-x="632" d="M92 0v524l293 432h84l-276 -456l-15 -500h-86zM330 0v524l291 432h86l-277 -456l-16 -500h-84z" />
<glyph unicode="&#xac;" horiz-adv-x="1024" d="M68 440v105h886v-545h-112v440h-774z" />
<glyph unicode="&#xad;" horiz-adv-x="303" d="M2 475l25 84h305l-27 -84h-303z" />
<glyph unicode="&#xae;" horiz-adv-x="1583" d="M162 688q0 289 206.5 490.5t499.5 201.5q281 0 483.5 -205.5t202.5 -490.5q0 -289 -203.5 -493.5t-492.5 -204.5q-291 0 -493.5 204.5t-202.5 497.5zM244 688q0 -258 179 -439t435 -181q254 0 434.5 181t180.5 435q0 250 -179.5 432t-425.5 182q-283 0 -467 -204 q-157 -175 -157 -406zM651 1092h232q94 0 139 -52.5t45 -162.5q0 -80 -20.5 -119t-75.5 -62q51 -16 71.5 -52t20.5 -109v-263h-90v269q0 70 -26.5 94t-104.5 24h-101v-387h-90v820zM741 733h82q90 0 121 30t31 120q0 78 -27.5 106.5t-105.5 28.5h-101v-285z" />
<glyph unicode="&#xaf;" horiz-adv-x="1024" d="M514 1141l29 94h413l-28 -94h-414z" />
<glyph unicode="&#xb0;" horiz-adv-x="763" d="M305 1116q0 113 81 191.5t198 78.5q109 0 188.5 -80.5t79.5 -191.5q0 -113 -80 -193.5t-192 -80.5q-115 0 -195 80.5t-80 195.5zM408 1114q0 -72 50 -122t122 -50q70 0 120 51t50 121t-50.5 120t-117.5 50q-72 0 -123 -50t-51 -120z" />
<glyph unicode="&#xb1;" d="M66 162v98h682v-98h-682zM66 653v99h292v286h99v-286h291v-99h-291v-284h-99v284h-292z" />
<glyph unicode="&#xb2;" horiz-adv-x="540" d="M94 545l21 65l366 410q115 127 115 221q0 66 -80 66q-57 0 -85 -32t-52 -126h-90q31 127 73 170q55 59 160 59q76 0 120 -34.5t44 -92.5q0 -129 -143 -284l-320 -349h295l-22 -73h-402z" />
<glyph unicode="&#xb3;" horiz-adv-x="540" d="M135 664q0 45 29 129h92l-5 -14.5t-3 -10.5q-23 -78 -23 -98q0 -63 88 -64q63 0 97 45q25 37 47 113t22 121q0 33 -24.5 44t-100.5 13l23 76q12 -2 29 -2q94 0 131 61q49 86 49 166q0 63 -78 64q-53 0 -81 -32t-54 -126h-88q20 119 76.5 174t154.5 55q160 0 160 -125 q0 -98 -55 -192q-39 -63 -109 -86q57 -35 57 -98q0 -59 -28.5 -147.5t-59.5 -123.5q-63 -72 -180 -71q-76 0 -121 35t-45 94z" />
<glyph unicode="&#xb4;" horiz-adv-x="1024" d="M653 1077l183 248h151l-229 -248h-105z" />
<glyph unicode="&#xb5;" horiz-adv-x="731" d="M-143 -354l401 1310h107l-203 -661q-31 -102 -31 -145q0 -35 23.5 -56.5t60.5 -21.5q98 0 178 102q49 66 101 229l170 553h106l-293 -956h-98l41 133q-68 -84 -120 -113.5t-128 -29.5q-63 0 -106 28l-103 -372h-106z" />
<glyph unicode="&#xb6;" d="M143 -246l271 885h-31q-100 0 -155.5 57.5t-55.5 161.5q0 111 52 223.5t138 186.5q113 98 306 98h372l-26 -82h-84l-467 -1530h-92l467 1530h-136l-469 -1530h-90z" />
<glyph unicode="&#xb7;" horiz-adv-x="368" d="M90 424l47 149h158l-45 -149h-160z" />
<glyph unicode="&#xb8;" horiz-adv-x="1024" d="M162 -360l178 249h92l-149 -249h-121z" />
<glyph unicode="&#xb9;" horiz-adv-x="540" d="M291 547l215 706q-45 -37 -133 -65l26 86q86 43 156 104h80l-254 -831h-90z" />
<glyph unicode="&#xba;" horiz-adv-x="571" d="M135 598l23 72h379l-23 -72h-379zM254 901q0 41 46 190.5t75 198.5q55 96 172 96q72 0 110.5 -26.5t38.5 -73.5q0 -37 -35.5 -163t-68.5 -208q-51 -121 -189 -120q-68 0 -108.5 29.5t-40.5 76.5zM342 911q0 -49 70 -49q51 0 81.5 41t59.5 152q27 96 37 129q18 49 18 88 q0 47 -65 47q-43 0 -66.5 -20.5t-46.5 -75.5q-23 -57 -55.5 -172t-32.5 -140z" />
<glyph unicode="&#xbb;" horiz-adv-x="630" d="M-68 0l277 457l16 499h84v-524l-291 -432h-86zM170 0l276 457l15 499h86l-2 -524l-291 -432h-84z" />
<glyph unicode="&#xbc;" horiz-adv-x="1378" d="M291 547l215 706q-45 -37 -133 -65l26 86q86 43 156 104h80l-254 -831h-90zM356 0l750 1366h88l-750 -1366h-88zM797 219l18 66l410 546h133l-164 -538h98l-22 -74h-99l-67 -219h-88l65 219h-284zM920 293h184l129 418z" />
<glyph unicode="&#xbd;" horiz-adv-x="1378" d="M291 547l215 706q-45 -37 -133 -65l26 86q86 43 156 104h80l-254 -831h-90zM336 0l749 1366h89l-750 -1366h-88zM764 0l22 66l365 407q117 129 117 221q0 66 -80 66q-57 0 -86 -32t-53 -126h-91q31 123 74 170q59 59 162 59q76 0 120 -34.5t44 -91.5q0 -129 -144 -285 l-321 -346h295l-23 -74h-401z" />
<glyph unicode="&#xbe;" horiz-adv-x="1378" d="M135 664q0 45 29 129h92l-5 -14.5t-3 -10.5q-23 -78 -23 -98q0 -63 88 -64q63 0 97 45q25 37 47 113t22 121q0 33 -24.5 44t-100.5 13l23 76q12 -2 29 -2q94 0 131 61q49 86 49 166q0 63 -78 64q-53 0 -81 -32t-54 -126h-88q20 119 76.5 174t154.5 55q160 0 160 -125 q0 -98 -55 -192q-39 -63 -109 -86q57 -35 57 -98q0 -59 -28.5 -147.5t-59.5 -123.5q-63 -72 -180 -71q-76 0 -121 35t-45 94zM354 0l750 1366h88l-748 -1366h-90zM795 219l18 66l410 546h133l-164 -538h98l-22 -74h-99l-67 -219h-88l65 219h-284zM918 293h184l129 418z" />
<glyph unicode="&#xbf;" horiz-adv-x="612" d="M-147 -264q0 117 61 256q27 66 55.5 104.5t147.5 179.5q86 104 110.5 140.5t38.5 83.5q25 76 37 141h92q-33 -158 -60.5 -219.5t-94.5 -140.5q-117 -135 -183 -242q-94 -156 -94 -289q0 -41 28.5 -66.5t78.5 -25.5q104 0 153 109q16 41 49 157h117q-53 -199 -106 -266 q-80 -92 -224 -92q-94 0 -150 46t-56 124zM311 807l47 149h160l-47 -149h-160z" />
<glyph unicode="&#xc0;" horiz-adv-x="884" d="M-102 0l753 1376h160l-76 -1376h-121l27 381h-414l-207 -381h-122zM281 473h364l49 770zM535 1722h149l133 -245h-100z" />
<glyph unicode="&#xc1;" horiz-adv-x="884" d="M-102 0l753 1376h160l-76 -1376h-121l27 381h-414l-207 -381h-122zM281 473h364l49 770zM715 1477l182 245h152l-230 -245h-104z" />
<glyph unicode="&#xc2;" horiz-adv-x="884" d="M-102 0l753 1376h160l-76 -1376h-121l27 381h-414l-207 -381h-122zM281 473h364l49 770zM541 1477l225 249h129l96 -249h-104l-70 170l-188 -170h-88z" />
<glyph unicode="&#xc3;" horiz-adv-x="884" d="M-102 0l753 1376h160l-76 -1376h-121l27 381h-414l-207 -381h-122zM281 473h364l49 770zM563 1522q41 170 154 170q29 0 47 -7.5t92 -50.5q31 -16 43 -16q45 0 74 76h86q-18 -82 -61.5 -129t-98.5 -47q-43 0 -135 53q-41 23 -53 22q-33 0 -62 -71h-86z" />
<glyph unicode="&#xc4;" horiz-adv-x="884" d="M-102 0l753 1376h160l-76 -1376h-121l27 381h-414l-207 -381h-122zM281 473h364l49 770zM582 1520l36 129h134l-37 -129h-133zM852 1520l37 129h133l-37 -129h-133z" />
<glyph unicode="&#xc5;" horiz-adv-x="884" d="M-102 0l753 1376h160l-76 -1376h-121l27 381h-414l-207 -381h-122zM281 473h364l49 770zM616 1603.5q0 69.5 49.5 117.5t120.5 48q68 0 117 -50t49 -117q0 -70 -49 -119t-118.5 -49t-119 50t-49.5 119.5zM688 1601.5q0 -40.5 28.5 -68.5t67.5 -28t68 28t29 69 q0 39 -28 67.5t-67 28.5q-41 0 -69.5 -28t-28.5 -68.5z" />
<glyph unicode="&#xc6;" horiz-adv-x="1185" d="M-137 0l766 1366h653l-29 -92h-450l-68 -522h412l-27 -88h-397l-76 -572h428l-26 -92h-527l53 403h-368l-221 -403h-123zM258 496h330l102 778z" />
<glyph unicode="&#xc7;" horiz-adv-x="782" d="M33 176q0 88 55 268l148 486q86 283 165 362q94 94 254 94q125 0 192.5 -54t67.5 -154q0 -66 -32 -172h-121q39 127 39 172q0 53 -39 82.5t-111 29.5q-135 0 -198 -100q-29 -45 -46.5 -92t-68.5 -215l-148 -486q-12 -41 -27.5 -117.5t-15.5 -99.5q0 -49 41 -76.5 t115 -27.5q100 0 156.5 61.5t107.5 227.5h119q-33 -117 -57.5 -171.5t-61.5 -99.5q-96 -115 -272 -114q-123 0 -192.5 52t-69.5 144zM57 -360l179 249h92l-148 -249h-123z" />
<glyph unicode="&#xc8;" horiz-adv-x="757" d="M-12 0l418 1366h530l-27 -92h-415l-160 -522h397l-29 -88h-395l-174 -572h436l-28 -92h-553zM485 1722h150l133 -245h-100z" />
<glyph unicode="&#xc9;" horiz-adv-x="757" d="M-12 0l418 1366h530l-27 -92h-415l-160 -522h397l-29 -88h-395l-174 -572h436l-28 -92h-553zM651 1477l183 245h151l-229 -245h-105z" />
<glyph unicode="&#xca;" horiz-adv-x="757" d="M-12 0l418 1366h530l-27 -92h-415l-160 -522h397l-29 -88h-395l-174 -572h436l-28 -92h-553zM498 1477l225 249h129l96 -249h-104l-70 170l-188 -170h-88z" />
<glyph unicode="&#xcb;" horiz-adv-x="757" d="M-12 0l418 1366h530l-27 -92h-415l-160 -522h397l-29 -88h-395l-174 -572h436l-28 -92h-553zM530 1520l37 129h133l-36 -129h-134zM801 1520l37 129h133l-37 -129h-133z" />
<glyph unicode="&#xcc;" horiz-adv-x="376" d="M-12 0l420 1376h116l-420 -1376h-116zM285 1722h141l121 -245h-101z" />
<glyph unicode="&#xcd;" horiz-adv-x="376" d="M-12 0l420 1376h116l-420 -1376h-116zM446 1477l168 245h152l-213 -245h-107z" />
<glyph unicode="&#xce;" horiz-adv-x="376" d="M-12 0l420 1376h116l-420 -1376h-116zM307 1477l205 249h131l74 -249h-105l-49 170l-168 -170h-88z" />
<glyph unicode="&#xcf;" horiz-adv-x="376" d="M-12 0l420 1376h116l-420 -1376h-116zM344 1520l37 129h127l-37 -129h-127zM559 1520l39 129h125l-37 -129h-127z" />
<glyph unicode="&#xd0;" horiz-adv-x="897" d="M-14 0l202 664h-122l26 88h123l188 614h265q164 0 227 -53q74 -61 74 -168q0 -94 -90 -412q-131 -453 -213 -579q-53 -82 -143.5 -118t-239.5 -36h-297zM131 92h145q115 0 175.5 19.5t103.5 72.5q55 68 174 457q125 408 125 500q0 133 -186 133h-176l-160 -522h246 l-27 -88h-246z" />
<glyph unicode="&#xd1;" horiz-adv-x="958" d="M-14 0l417 1366h183l35 -1245q18 109 94 358l270 887h117l-418 -1366h-172l-39 1266q-47 -209 -96 -371l-275 -895h-116zM606 1522q41 170 154 170q29 0 47 -7.5t92 -50.5q31 -16 43 -16q45 0 74 76h86q-18 -82 -61.5 -129t-98.5 -47q-41 0 -135 53q-41 23 -53 22 q-33 0 -62 -71h-86z" />
<glyph unicode="&#xd2;" horiz-adv-x="860" d="M33 180q0 92 30 189l199 651q39 125 78 190.5t98 106.5q100 70 240 69q125 0 200.5 -61t75.5 -162q0 -78 -65 -289l-152 -491q-53 -170 -98 -243.5t-125 -114.5q-86 -45 -203 -45q-133 0 -205.5 53t-72.5 147zM147 205q0 -61 47.5 -95t131.5 -34q104 0 174 63 q68 61 129 264l155 510q55 182 56 252q0 57 -48.5 91t-125.5 34q-109 0 -174 -59q-66 -55 -121 -242l-201 -653q-23 -76 -23 -131zM514 1722h150l133 -245h-101z" />
<glyph unicode="&#xd3;" horiz-adv-x="860" d="M33 180q0 92 30 189l199 651q39 125 78 190.5t98 106.5q100 70 240 69q125 0 200.5 -61t75.5 -162q0 -78 -65 -289l-152 -491q-53 -170 -98 -243.5t-125 -114.5q-86 -45 -203 -45q-133 0 -205.5 53t-72.5 147zM147 205q0 -61 47.5 -95t131.5 -34q104 0 174 63 q68 61 129 264l155 510q55 182 56 252q0 57 -48.5 91t-125.5 34q-109 0 -174 -59q-66 -55 -121 -242l-201 -653q-23 -76 -23 -131zM674 1477l182 245h152l-230 -245h-104z" />
<glyph unicode="&#xd4;" horiz-adv-x="860" d="M33 180q0 92 30 189l199 651q39 125 78 190.5t98 106.5q100 70 240 69q125 0 200.5 -61t75.5 -162q0 -78 -65 -289l-152 -491q-53 -170 -98 -243.5t-125 -114.5q-86 -45 -203 -45q-133 0 -205.5 53t-72.5 147zM147 205q0 -61 47.5 -95t131.5 -34q104 0 174 63 q68 61 129 264l155 510q55 182 56 252q0 57 -48.5 91t-125.5 34q-109 0 -174 -59q-66 -55 -121 -242l-201 -653q-23 -76 -23 -131zM520 1477l225 249h129l97 -249h-105l-69 170l-189 -170h-88z" />
<glyph unicode="&#xd5;" horiz-adv-x="860" d="M33 180q0 92 30 189l199 651q39 125 78 190.5t98 106.5q100 70 240 69q125 0 200.5 -61t75.5 -162q0 -78 -65 -289l-152 -491q-53 -170 -98 -243.5t-125 -114.5q-86 -45 -203 -45q-133 0 -205.5 53t-72.5 147zM147 205q0 -61 47.5 -95t131.5 -34q104 0 174 63 q68 61 129 264l155 510q55 182 56 252q0 57 -48.5 91t-125.5 34q-109 0 -174 -59q-66 -55 -121 -242l-201 -653q-23 -76 -23 -131zM565 1522q41 170 154 170q29 0 47 -7.5t92 -50.5q31 -16 43 -16q45 0 74 76h86q-18 -82 -61.5 -129t-98.5 -47q-41 0 -135 53q-41 23 -53 22 q-33 0 -62 -71h-86z" />
<glyph unicode="&#xd6;" horiz-adv-x="860" d="M33 180q0 92 30 189l199 651q39 125 78 190.5t98 106.5q100 70 240 69q125 0 200.5 -61t75.5 -162q0 -78 -65 -289l-152 -491q-53 -170 -98 -243.5t-125 -114.5q-86 -45 -203 -45q-133 0 -205.5 53t-72.5 147zM147 205q0 -61 47.5 -95t131.5 -34q104 0 174 63 q68 61 129 264l155 510q55 182 56 252q0 57 -48.5 91t-125.5 34q-109 0 -174 -59q-66 -55 -121 -242l-201 -653q-23 -76 -23 -131zM559 1520l37 129h133l-37 -129h-133zM829 1520l37 129h133l-36 -129h-134z" />
<glyph unicode="&#xd7;" d="M152 963l69 69l260 -260l254 256l70 -70l-254 -256l258 -258l-68 -69l-260 258l-256 -254l-69 70l256 253z" />
<glyph unicode="&#xd8;" horiz-adv-x="860" d="M-25 -47l86 127q-27 55 -26 102q0 80 31 187l198 651q39 127 77 191.5t99 105.5q100 70 240 69q117 0 197 -57l79 115l62 -45l-90 -131q29 -55 28 -105q0 -76 -65 -289l-152 -491q-53 -168 -99 -242.5t-126 -115.5q-84 -45 -201 -45q-111 0 -194 43l-82 -115zM147 170 l654 1077q-51 43 -133 43q-106 0 -176 -59q-63 -57 -119 -242l-201 -653q-25 -78 -25 -148v-18zM195 111q51 -35 118 -35q94 0 160 41q49 33 83 94t73 192l155 510q55 180 56 265z" />
<glyph unicode="&#xd9;" horiz-adv-x="927" d="M63 184q0 59 35 176l308 1006h116l-319 -1042q-25 -82 -25 -127q0 -55 43 -88t119 -33q104 0 186 65q41 35 68 90.5t74 210.5l282 924h117l-293 -960q-53 -170 -91 -240t-108 -115q-104 -72 -239 -71q-125 0 -199 55t-74 149zM555 1722h150l133 -245h-101z" />
<glyph unicode="&#xda;" horiz-adv-x="927" d="M63 184q0 59 35 176l308 1006h116l-319 -1042q-25 -82 -25 -127q0 -55 43 -88t119 -33q104 0 186 65q41 35 68 90.5t74 210.5l282 924h117l-293 -960q-53 -170 -91 -240t-108 -115q-104 -72 -239 -71q-125 0 -199 55t-74 149zM733 1477l182 245h152l-229 -245h-105z" />
<glyph unicode="&#xdb;" horiz-adv-x="927" d="M63 184q0 59 35 176l308 1006h116l-319 -1042q-25 -82 -25 -127q0 -55 43 -88t119 -33q104 0 186 65q41 35 68 90.5t74 210.5l282 924h117l-293 -960q-53 -170 -91 -240t-108 -115q-104 -72 -239 -71q-125 0 -199 55t-74 149zM557 1477l225 249h129l97 -249h-105l-69 170 l-189 -170h-88z" />
<glyph unicode="&#xdc;" horiz-adv-x="927" d="M63 184q0 59 35 176l308 1006h116l-319 -1042q-25 -82 -25 -127q0 -55 43 -88t119 -33q104 0 186 65q41 35 68 90.5t74 210.5l282 924h117l-293 -960q-53 -170 -91 -240t-108 -115q-104 -72 -239 -71q-125 0 -199 55t-74 149zM612 1520l37 129h133l-37 -129h-133z M883 1520l37 129h133l-37 -129h-133z" />
<glyph unicode="&#xdd;" horiz-adv-x="774" d="M178 0l182 594l-79 772h116l64 -641l438 641h121l-551 -797l-174 -569h-117zM637 1477l182 245h152l-230 -245h-104z" />
<glyph unicode="&#xde;" horiz-adv-x="825" d="M-12 0l418 1366h116l-67 -219h139q143 0 205 -43q80 -57 80 -162q0 -109 -51.5 -247t-114.5 -195q-90 -88 -307 -88h-177l-125 -412h-116zM258 504h133q90 0 125 6t74 27q80 41 135 198q39 117 39 188.5t-38 101.5t-130 30h-170z" />
<glyph unicode="&#xdf;" horiz-adv-x="845" d="M-35 0l354 1155q37 121 113 176t201 55q221 0 221 -172q0 -92 -41 -170q-20 -39 -48 -66.5t-101 -80.5q-121 -86 -121 -168q0 -37 17.5 -76t76.5 -131q82 -131 82 -231q0 -129 -86 -215t-213 -86q-100 0 -155.5 42t-55.5 118q0 47 22 94h105q-18 -53 -19 -88 q0 -84 99 -84q84 0 139 64.5t55 164.5q0 78 -69 180q-106 158 -107 246q0 74 60 139q25 27 114 95q137 104 137 237q0 106 -122 107q-84 0 -132.5 -46.5t-80.5 -152.5l-338 -1106h-107z" />
<glyph unicode="&#xe0;" horiz-adv-x="722" d="M14 143q0 92 46.5 201t105.5 156q74 57 197 69q35 2 153 4q10 0 25 2q57 188 57 230q0 37 -26.5 58.5t-73.5 21.5q-70 0 -124.5 -52.5t-76.5 -142.5h-104q72 276 315 277q90 0 144.5 -41t54.5 -109q0 -53 -21 -115l-215 -702h-94l37 121q-63 -72 -117.5 -101.5 t-120.5 -29.5q-76 0 -119 40.5t-43 112.5zM123 158q0 -41 26.5 -63.5t71.5 -22.5q51 0 102.5 36.5t88.5 100.5q29 51 42 88t60 195q-29 2 -65 2q-178 0 -244 -99q-31 -45 -56.5 -120.5t-25.5 -116.5zM328 1325h149l133 -248h-100z" />
<glyph unicode="&#xe1;" horiz-adv-x="722" d="M14 143q0 92 46.5 201t105.5 156q74 57 197 69q35 2 153 4q10 0 25 2q57 188 57 230q0 37 -26.5 58.5t-73.5 21.5q-70 0 -124.5 -52.5t-76.5 -142.5h-104q72 276 315 277q90 0 144.5 -41t54.5 -109q0 -53 -21 -115l-215 -702h-94l37 121q-63 -72 -117.5 -101.5 t-120.5 -29.5q-76 0 -119 40.5t-43 112.5zM123 158q0 -41 26.5 -63.5t71.5 -22.5q51 0 102.5 36.5t88.5 100.5q29 51 42 88t60 195q-29 2 -65 2q-178 0 -244 -99q-31 -45 -56.5 -120.5t-25.5 -116.5zM528 1077l183 248h151l-229 -248h-105z" />
<glyph unicode="&#xe2;" horiz-adv-x="722" d="M14 143q0 92 46.5 201t105.5 156q74 57 197 69q35 2 153 4q10 0 25 2q57 188 57 230q0 37 -26.5 58.5t-73.5 21.5q-70 0 -124.5 -52.5t-76.5 -142.5h-104q72 276 315 277q90 0 144.5 -41t54.5 -109q0 -53 -21 -115l-215 -702h-94l37 121q-63 -72 -117.5 -101.5 t-120.5 -29.5q-76 0 -119 40.5t-43 112.5zM123 158q0 -41 26.5 -63.5t71.5 -22.5q51 0 102.5 36.5t88.5 100.5q29 51 42 88t60 195q-29 2 -65 2q-178 0 -244 -99q-31 -45 -56.5 -120.5t-25.5 -116.5zM350 1077l225 250h130l96 -250h-105l-69 170l-189 -170h-88z" />
<glyph unicode="&#xe3;" horiz-adv-x="722" d="M14 143q0 92 46.5 201t105.5 156q74 57 197 69q35 2 153 4q10 0 25 2q57 188 57 230q0 37 -26.5 58.5t-73.5 21.5q-70 0 -124.5 -52.5t-76.5 -142.5h-104q72 276 315 277q90 0 144.5 -41t54.5 -109q0 -53 -21 -115l-215 -702h-94l37 121q-63 -72 -117.5 -101.5 t-120.5 -29.5q-76 0 -119 40.5t-43 112.5zM123 158q0 -41 26.5 -63.5t71.5 -22.5q51 0 102.5 36.5t88.5 100.5q29 51 42 88t60 195q-29 2 -65 2q-178 0 -244 -99q-31 -45 -56.5 -120.5t-25.5 -116.5zM371 1112q41 174 153 174q29 0 49.5 -10t61.5 -49q20 -16 43 -17 q47 0 76 76h86q-20 -82 -63.5 -130t-98.5 -48q-47 0 -113 53q-31 25 -47 25q-33 0 -61 -74h-86z" />
<glyph unicode="&#xe4;" horiz-adv-x="722" d="M14 143q0 92 46.5 201t105.5 156q74 57 197 69q35 2 153 4q10 0 25 2q57 188 57 230q0 37 -26.5 58.5t-73.5 21.5q-70 0 -124.5 -52.5t-76.5 -142.5h-104q72 276 315 277q90 0 144.5 -41t54.5 -109q0 -53 -21 -115l-215 -702h-94l37 121q-63 -72 -117.5 -101.5 t-120.5 -29.5q-76 0 -119 40.5t-43 112.5zM123 158q0 -41 26.5 -63.5t71.5 -22.5q51 0 102.5 36.5t88.5 100.5q29 51 42 88t60 195q-29 2 -65 2q-178 0 -244 -99q-31 -45 -56.5 -120.5t-25.5 -116.5zM383 1128l37 123h129l-39 -123h-127zM639 1128l39 123h127l-37 -123h-129 z" />
<glyph unicode="&#xe5;" horiz-adv-x="722" d="M14 143q0 92 46 201t106 156q74 57 196 69q35 2 154 4q10 0 25 2q57 188 57 230q0 37 -26.5 58.5t-73.5 21.5q-70 0 -124.5 -52.5t-76.5 -142.5h-104q72 276 315 277q90 0 144.5 -41t54.5 -109q0 -53 -21 -115l-215 -702h-94l37 121q-63 -72 -117.5 -101.5t-120.5 -29.5 q-76 0 -119 40.5t-43 112.5zM123 158q0 -41 26.5 -63.5t71.5 -22.5q51 0 102.5 36.5t88.5 100.5q29 51 42 88t60 195q-29 2 -65 2q-178 0 -244 -99q-31 -45 -56.5 -120.5t-25.5 -116.5zM424 1210.5q0 69.5 49 117.5t121 48q68 0 117 -50t49 -118q0 -70 -49 -119t-119 -49 t-119 50.5t-49 120zM496 1208q0 -41 28.5 -68.5t67.5 -27.5t67.5 27.5t28.5 68.5q0 39 -27.5 68t-66.5 29q-41 0 -69.5 -28t-28.5 -69z" />
<glyph unicode="&#xe6;" horiz-adv-x="1110" d="M14 152q0 100 49.5 197t124.5 147q57 39 123 49t234 10q57 182 57 233q0 45 -31.5 71t-87.5 26q-143 0 -188 -197h-109q35 143 108 211t191 68q141 0 193 -117q49 63 99 90t126 27q88 0 141.5 -42t53.5 -114q0 -76 -51 -252l-27 -90h-397q-27 -70 -51.5 -167t-24.5 -128 q0 -47 31.5 -74.5t83.5 -27.5q66 0 109.5 45t82.5 155h107q-45 -150 -116 -216t-183 -66q-82 0 -129.5 34.5t-73.5 112.5q-121 -147 -260 -147q-84 0 -134.5 43t-50.5 119zM123 162q0 -41 27.5 -65.5t74.5 -24.5q113 0 193 135q53 92 100 262q-4 2 -12 2q-25 4 -41 4 q-166 0 -246 -80q-39 -39 -67.5 -109.5t-28.5 -123.5zM649 555h291q49 190 49 240q0 90 -104 90q-84 0 -138.5 -77t-97.5 -253z" />
<glyph unicode="&#xe7;" horiz-adv-x="618" d="M-31 -360l178 249h93l-150 -249h-121zM14 147q0 51 29 156l10 35l15 50l14 52q94 342 162 424q84 102 237 103q88 0 135.5 -38t47.5 -110q0 -61 -25 -141h-104q8 41 8 45q12 49 12 82q0 37 -24.5 58.5t-65.5 21.5q-68 0 -111 -40t-80 -136q-47 -123 -99 -311.5 t-52 -233.5q0 -41 28.5 -66.5t73.5 -25.5q139 0 189 209h104q-41 -160 -111.5 -225.5t-197.5 -65.5q-92 0 -143.5 41.5t-51.5 115.5z" />
<glyph unicode="&#xe8;" horiz-adv-x="688" d="M12 135q0 80 80 348.5t129 350.5q82 141 250 141q100 0 157.5 -39t57.5 -107q0 -66 -96 -395h-397q-72 -199 -72 -280q0 -39 29.5 -60.5t78.5 -21.5q141 0 199 200h111q-43 -152 -116 -217t-202 -65q-100 0 -154.5 37.5t-54.5 107.5zM217 520h289q72 219 72 289 q0 37 -30 60.5t-77 23.5q-86 0 -135 -66q-49 -63 -119 -307zM303 1325h150l133 -248h-101z" />
<glyph unicode="&#xe9;" horiz-adv-x="688" d="M12 135q0 80 80 348.5t129 350.5q82 141 250 141q100 0 157.5 -39t57.5 -107q0 -66 -96 -395h-397q-72 -199 -72 -280q0 -39 29.5 -60.5t78.5 -21.5q141 0 199 200h111q-43 -152 -116 -217t-202 -65q-100 0 -154.5 37.5t-54.5 107.5zM217 520h289q72 219 72 289 q0 37 -30 60.5t-77 23.5q-86 0 -135 -66q-49 -63 -119 -307zM475 1077l182 248h152l-229 -248h-105z" />
<glyph unicode="&#xea;" horiz-adv-x="688" d="M12 135q0 80 80 348.5t129 350.5q82 141 250 141q100 0 157.5 -39t57.5 -107q0 -66 -96 -395h-397q-72 -199 -72 -280q0 -39 29.5 -60.5t78.5 -21.5q141 0 199 200h111q-43 -152 -116 -217t-202 -65q-100 0 -154.5 37.5t-54.5 107.5zM217 520h289q72 219 72 289 q0 37 -30 60.5t-77 23.5q-86 0 -135 -66q-49 -63 -119 -307zM319 1077l226 250h129l96 -250h-104l-70 170l-188 -170h-89z" />
<glyph unicode="&#xeb;" horiz-adv-x="688" d="M12 135q0 80 80 348.5t129 350.5q82 141 250 141q100 0 157.5 -39t57.5 -107q0 -66 -96 -395h-397q-72 -199 -72 -280q0 -39 29.5 -60.5t78.5 -21.5q141 0 199 200h111q-43 -152 -116 -217t-202 -65q-100 0 -154.5 37.5t-54.5 107.5zM217 520h289q72 219 72 289 q0 37 -30 60.5t-77 23.5q-86 0 -135 -66q-49 -63 -119 -307zM375 1128l37 123h129l-39 -123h-127zM631 1128l39 123h127l-37 -123h-129z" />
<glyph unicode="&#xec;" horiz-adv-x="346" d="M-18 0l292 956h107l-293 -956h-106zM164 1325h141l107 -248h-93z" />
<glyph unicode="&#xed;" horiz-adv-x="346" d="M-18 0l292 956h107l-293 -956h-106zM313 1077l160 248h145l-200 -248h-105z" />
<glyph unicode="&#xee;" horiz-adv-x="346" d="M-18 0l292 956h107l-293 -956h-106zM184 1077l199 250h129l66 -250h-103l-41 170l-162 -170h-88z" />
<glyph unicode="&#xef;" horiz-adv-x="346" d="M-18 0l292 956h107l-293 -956h-106zM231 1128l37 123h121l-37 -123h-121zM434 1128l37 123h121l-37 -123h-121z" />
<glyph unicode="&#xf0;" horiz-adv-x="718" d="M12 156q0 68 78 320.5t125 338.5q82 152 260 152q61 0 94 -16.5t62 -61.5q16 90 16 155q0 63 -18 125l-168 -63l-37 74l170 65q-61 68 -113 107l64 57q25 -14 73 -59t66 -70l168 63l41 -71l-168 -66q33 -92 33 -166q0 -160 -123 -557q-66 -209 -98.5 -289.5t-71.5 -119.5 q-84 -84 -221 -84q-106 0 -169 45t-63 121zM121 168q0 -96 127 -96q92 0 148.5 75.5t109.5 272.5q27 106 63 219q33 92 33 156q0 41 -32.5 65.5t-88.5 24.5q-76 0 -122 -39t-85 -139q-41 -102 -97 -300t-56 -239z" />
<glyph unicode="&#xf1;" horiz-adv-x="739" d="M-33 0l293 956h98l-39 -127q68 76 122.5 107t117.5 31q74 0 120 -37t46 -94.5t-45 -204.5l-193 -631h-106l199 653q37 119 36.5 154t-24 56.5t-64.5 21.5q-96 0 -166 -80q-66 -74 -126 -273l-162 -532h-107zM383 1112q41 174 154 174q29 0 49 -10t61 -49q20 -16 43 -17 q47 0 76 76h86q-20 -82 -63.5 -130t-98.5 -48q-47 0 -112 53q-31 25 -48 25q-33 0 -61 -74h-86z" />
<glyph unicode="&#xf2;" horiz-adv-x="718" d="M12 156q0 68 78 320.5t125 338.5q84 152 266 152q109 0 169.5 -42t60.5 -118q0 -90 -107 -418q-57 -180 -86 -239.5t-78 -96.5q-84 -63 -198 -63q-104 0 -167 45t-63 121zM121 168q0 -96 127 -96q92 0 148.5 75.5t109.5 272.5q27 106 63 219q33 92 33 156 q0 41 -32.5 65.5t-88.5 24.5q-76 0 -122 -39t-85 -139q-41 -102 -97 -300t-56 -239zM326 1325h149l133 -248h-100z" />
<glyph unicode="&#xf3;" horiz-adv-x="718" d="M12 156q0 68 78 320.5t125 338.5q84 152 266 152q109 0 169.5 -42t60.5 -118q0 -90 -107 -418q-57 -180 -86 -239.5t-78 -96.5q-84 -63 -198 -63q-104 0 -167 45t-63 121zM121 168q0 -96 127 -96q92 0 148.5 75.5t109.5 272.5q27 106 63 219q33 92 33 156 q0 41 -32.5 65.5t-88.5 24.5q-76 0 -122 -39t-85 -139q-41 -102 -97 -300t-56 -239zM496 1077l182 248h151l-229 -248h-104z" />
<glyph unicode="&#xf4;" horiz-adv-x="718" d="M12 156q0 68 78 320.5t125 338.5q84 152 266 152q109 0 169.5 -42t60.5 -118q0 -90 -107 -418q-57 -180 -86 -239.5t-78 -96.5q-84 -63 -198 -63q-104 0 -167 45t-63 121zM121 168q0 -96 127 -96q92 0 148.5 75.5t109.5 272.5q27 106 63 219q33 92 33 156 q0 41 -32.5 65.5t-88.5 24.5q-76 0 -122 -39t-85 -139q-41 -102 -97 -300t-56 -239zM334 1077l225 250h129l96 -250h-104l-70 170l-188 -170h-88z" />
<glyph unicode="&#xf5;" horiz-adv-x="718" d="M12 156q0 68 78 320.5t125 338.5q84 152 266 152q109 0 169.5 -42t60.5 -118q0 -90 -107 -418q-57 -180 -86 -239.5t-78 -96.5q-84 -63 -198 -63q-104 0 -167 45t-63 121zM121 168q0 -96 127 -96q92 0 148.5 75.5t109.5 272.5q27 106 63 219q33 92 33 156 q0 41 -32.5 65.5t-88.5 24.5q-76 0 -122 -39t-85 -139q-41 -102 -97 -300t-56 -239zM352 1112q41 174 154 174q29 0 49 -10t61 -49q20 -16 43 -17q47 0 76 76h86q-20 -82 -63 -130t-99 -48q-45 0 -112 53q-31 25 -47 25q-33 0 -62 -74h-86z" />
<glyph unicode="&#xf6;" horiz-adv-x="718" d="M12 156q0 68 78 320.5t125 338.5q84 152 266 152q109 0 169.5 -42t60.5 -118q0 -90 -107 -418q-57 -180 -86 -239.5t-78 -96.5q-84 -63 -198 -63q-104 0 -167 45t-63 121zM121 168q0 -96 127 -96q92 0 148.5 75.5t109.5 272.5q27 106 63 219q33 92 33 156 q0 41 -32.5 65.5t-88.5 24.5q-76 0 -122 -39t-85 -139q-41 -102 -97 -300t-56 -239zM387 1128l37 123h129l-39 -123h-127zM643 1128l39 123h127l-37 -123h-129z" />
<glyph unicode="&#xf7;" d="M139 653v99h682v-99h-682zM410 313v150h143v-150h-143zM410 942v150h143v-150h-143z" />
<glyph unicode="&#xf8;" horiz-adv-x="718" d="M-43 -35l80 111q-25 47 -25 78q0 70 77 321.5t124 339.5q84 152 264 152q98 0 170 -37l76 98l51 -41l-80 -106q16 -41 17 -76q0 -84 -107 -416q-57 -182 -86 -241.5t-76 -94.5q-86 -63 -198 -63q-86 0 -162 37l-74 -97zM119 160l459 694q-39 31 -99 31q-82 0 -132 -53.5 t-95 -188.5q-115 -346 -133 -483zM150 100q41 -29 98 -28q92 0 146.5 73.5t111.5 274.5q10 37 65 219q23 74 35 147z" />
<glyph unicode="&#xf9;" horiz-adv-x="731" d="M23 121q0 61 43 207l192 628h107l-203 -661q-31 -102 -31 -145q0 -35 23.5 -56.5t62.5 -21.5q100 0 176 102q51 66 103 229l168 553h106l-293 -956h-98l41 133q-68 -84 -119 -113.5t-129 -29.5q-149 0 -149 131zM324 1325h149l133 -248h-100z" />
<glyph unicode="&#xfa;" horiz-adv-x="731" d="M23 121q0 61 43 207l192 628h107l-203 -661q-31 -102 -31 -145q0 -35 23.5 -56.5t62.5 -21.5q100 0 176 102q51 66 103 229l168 553h106l-293 -956h-98l41 133q-68 -84 -119 -113.5t-129 -29.5q-149 0 -149 131zM504 1077l182 248h152l-230 -248h-104z" />
<glyph unicode="&#xfb;" horiz-adv-x="731" d="M23 121q0 61 43 207l192 628h107l-203 -661q-31 -102 -31 -145q0 -35 23.5 -56.5t62.5 -21.5q100 0 176 102q51 66 103 229l168 553h106l-293 -956h-98l41 133q-68 -84 -119 -113.5t-129 -29.5q-149 0 -149 131zM342 1077l225 250h129l97 -250h-105l-70 170l-188 -170 h-88z" />
<glyph unicode="&#xfc;" horiz-adv-x="731" d="M23 121q0 61 43 207l192 628h107l-203 -661q-31 -102 -31 -145q0 -35 23.5 -56.5t62.5 -21.5q100 0 176 102q51 66 103 229l168 553h106l-293 -956h-98l41 133q-68 -84 -119 -113.5t-129 -29.5q-149 0 -149 131zM399 1128l37 123h129l-39 -123h-127zM655 1128l39 123h127 l-37 -123h-129z" />
<glyph unicode="&#xfd;" horiz-adv-x="614" d="M-66 -354l197 358l35 952h102l-45 -784l406 784h94l-682 -1310h-107zM430 1077l182 248h152l-229 -248h-105z" />
<glyph unicode="&#xfe;" horiz-adv-x="731" d="M-143 -354l532 1740h107l-168 -550q109 131 229 131q78 0 123 -40t45 -110q0 -47 -40 -196.5t-91 -296.5q-47 -139 -83 -198.5t-93 -94.5q-66 -41 -146 -41q-115 0 -172 100l-137 -444h-106zM137 170q0 -45 33 -71.5t86 -26.5q111 0 166 110q45 86 119.5 322.5 t74.5 290.5q0 90 -100 90q-111 0 -186 -129q-31 -47 -49.5 -98.5t-79.5 -237.5q-64 -197 -64 -250z" />
<glyph unicode="&#xff;" horiz-adv-x="614" d="M-66 -354l197 358l35 952h102l-45 -784l406 784h94l-682 -1310h-107zM326 1128l36 123h130l-39 -123h-127zM582 1128l39 123h127l-37 -123h-129z" />
<glyph unicode="&#x152;" horiz-adv-x="1249" d="M51 215q0 111 60 301l133 440q74 238 143 308q106 106 315 106q51 0 89 -2q43 -2 137 -2h497l-26 -92h-400l-159 -522h379l-27 -88h-379l-174 -572h420l-29 -92h-502q-41 0 -79.5 -2t-98.5 -2q-154 0 -226.5 53t-72.5 166zM166 225q0 -70 49 -101.5t158 -31.5 q57 0 153 12l357 1168q-131 2 -150 2q-168 0 -240.5 -65.5t-138.5 -276.5l-137 -445q-51 -170 -51 -262z" />
<glyph unicode="&#x153;" horiz-adv-x="1099" d="M16 166q0 74 105 407q51 166 88 238t90 111q74 51 172 51q160 0 199 -125q88 125 231 125q90 0 141.5 -41t51.5 -115q0 -70 -74 -317q-6 -12 -21 -66h-391q-18 -49 -41.5 -144t-23.5 -122q0 -41 32.5 -68.5t81.5 -27.5q63 0 112.5 55t68.5 145h112 q-33 -135 -109.5 -208.5t-185.5 -73.5q-139 0 -194 119q-90 -119 -244 -119q-90 0 -145.5 48t-55.5 128zM125 166q0 -94 113 -94q131 0 190 149q23 53 100 316q63 211 64 254q0 47 -32 73.5t-89 26.5q-106 0 -154 -92q-43 -82 -117.5 -328t-74.5 -305zM637 520h281 q68 229 67 287q0 84 -104 84q-94 0 -144 -82q-25 -39 -42 -88t-58 -201z" />
<glyph unicode="&#x178;" horiz-adv-x="774" d="M178 0l182 594l-79 772h116l64 -641l438 641h121l-551 -797l-174 -569h-117zM510 1520l37 129h133l-37 -129h-133zM780 1520l37 129h133l-37 -129h-133z" />
<glyph unicode="&#x2c6;" horiz-adv-x="1024" d="M479 1077l226 250h129l96 -250h-105l-69 170l-189 -170h-88z" />
<glyph unicode="&#x2dc;" horiz-adv-x="1024" d="M504 1112q41 174 153 174q29 0 49.5 -10t61.5 -49q20 -16 43 -17q47 0 76 76h86q-20 -82 -63.5 -130t-98.5 -48q-45 0 -113 53q-31 25 -47 25q-33 0 -61 -74h-86z" />
<glyph unicode="&#x2013;" horiz-adv-x="827" d="M104 475l27 84h621l-25 -84h-623z" />
<glyph unicode="&#x2014;" horiz-adv-x="911" d="M2 475l25 84h913l-27 -84h-911z" />
<glyph unicode="&#x2018;" horiz-adv-x="358" d="M293 1112l158 266h92l-111 -266h-139z" />
<glyph unicode="&#x2019;" horiz-adv-x="358" d="M289 1098l110 268h140l-160 -268h-90z" />
<glyph unicode="&#x201a;" horiz-adv-x="358" d="M-88 -133l111 268h139l-160 -268h-90z" />
<glyph unicode="&#x201c;" horiz-adv-x="630" d="M293 1112l158 266h92l-111 -266h-139zM565 1112l160 266h90l-110 -266h-140z" />
<glyph unicode="&#x201d;" horiz-adv-x="630" d="M289 1098l110 268h140l-160 -268h-90zM561 1098l111 268h139l-158 -268h-92z" />
<glyph unicode="&#x201e;" horiz-adv-x="630" d="M-88 -133l111 268h139l-160 -268h-90zM184 -133l111 268h139l-158 -268h-92z" />
<glyph unicode="&#x2022;" horiz-adv-x="1366" d="M401 694q0 119 84 202t205 83q113 0 196 -84t83 -199q0 -119 -83 -201.5t-200 -82.5t-201 82.5t-84 199.5z" />
<glyph unicode="&#x2026;" horiz-adv-x="1105" d="M-39 0l47 150h158l-45 -150h-160zM330 0l47 150h158l-46 -150h-159zM698 0l47 150h158l-45 -150h-160z" />
<glyph unicode="&#x2039;" horiz-adv-x="395" d="M92 0v524l293 432h84l-276 -456l-15 -500h-86z" />
<glyph unicode="&#x203a;" horiz-adv-x="395" d="M-68 0l277 457l16 499h84v-524l-291 -432h-86z" />
<glyph unicode="&#x20ac;" horiz-adv-x="864" d="M37 537l61 98h90l31 98h-123l62 98h90l31 99q90 287 165 362q98 94 252 94q125 0 193.5 -54t68.5 -154q0 -63 -32 -172h-121q39 127 39 172q0 53 -39 82.5t-111 29.5q-135 0 -198 -100l-15 -25q-6 -10 -13 -25.5t-11 -25.5t-14 -38l-15 -46q-6 -18 -20.5 -65t-26.5 -82 l-16 -52h307l-62 -98h-274l-31 -98h244l-62 -98h-213l-41 -140q-12 -41 -27.5 -116.5t-15.5 -100.5q0 -49 41 -76.5t113 -27.5q102 0 157.5 60.5t106.5 228.5h121q-57 -199 -121 -271q-94 -115 -270 -114q-123 0 -192.5 52t-69.5 144q0 102 53 268l29 93h-121z" />
<glyph unicode="&#x2122;" horiz-adv-x="1202" d="M219 588l215 706h-176l23 72h438l-21 -72h-174l-217 -706h-88zM541 588l237 778h135l-30 -631l39 74l313 557h139l-229 -778h-88l190 637l-362 -637h-92l30 635l-194 -635h-88z" />
<glyph unicode="&#xe000;" horiz-adv-x="955" d="M0 955h955v-955h-955v955z" />
<glyph unicode="&#xfb01;" horiz-adv-x="768" d="M-6 0l266 870h-121l25 86h123l63 207q41 135 88 181.5t144 46.5q29 0 96 -13l-25 -78q-45 8 -55 9q-61 0 -90 -33q-27 -29 -59 -139l-56 -181h156l-27 -86h-155l-267 -870h-106zM403 0l293 956h107l-293 -956h-107zM776 1268l39 123h127l-37 -123h-129z" />
<glyph unicode="&#xfb02;" horiz-adv-x="763" d="M-6 0l266 870h-121l25 86h123l63 207q41 135 88 181.5t144 46.5q29 0 96 -13l-25 -78q-45 8 -55 9q-61 0 -90 -33q-27 -29 -59 -139l-56 -181h156l-27 -86h-155l-267 -870h-106zM403 0l424 1386h107l-424 -1386h-107z" />
<glyph unicode="&#xfb03;" horiz-adv-x="1164" d="M800 0l292 956h107l-293 -956h-106zM1172 1268l37 123h129l-39 -123h-127zM403 0l266 870h-121l25 86h123l63 207q41 135 88 181.5t144 46.5q29 0 96 -13l-25 -78q-45 8 -55 9q-61 0 -90 -33q-27 -29 -59 -139l-56 -181h156l-27 -86h-155l-267 -870h-106zM-6 0l266 870 h-121l25 86h123l63 207q41 135 88 181.5t144 46.5q29 0 96 -13l-25 -78q-45 8 -55 9q-61 0 -90 -33q-27 -29 -59 -139l-56 -181h156l-27 -86h-155l-267 -870h-106z" />
<glyph unicode="&#xfb04;" horiz-adv-x="1143" d="M785 0l424 1386h107l-424 -1386h-107zM403 0l266 870h-121l25 86h123l63 207q41 135 88 181.5t144 46.5q29 0 96 -13l-25 -78q-45 8 -55 9q-61 0 -90 -33q-27 -29 -59 -139l-56 -181h156l-27 -86h-155l-267 -870h-106zM-6 0l266 870h-121l25 86h123l63 207 q41 135 88 181.5t144 46.5q29 0 96 -13l-25 -78q-45 8 -55 9q-61 0 -90 -33q-27 -29 -59 -139l-56 -181h156l-27 -86h-155l-267 -870h-106z" />
</font>
</defs>
</svg>
