<?xml version="1.0" standalone="no"?>
<!DOCTYPE svg PUBLIC "-//W3C//DTD SVG 1.1//EN" "http://www.w3.org/Graphics/SVG/1.1/DTD/svg11.dtd" >
<svg xmlns="http://www.w3.org/2000/svg">
<metadata>
This is a custom SVG webfont generated by Fontspring.
</metadata>
<defs>
<font id="UrbanoCondensedItalic" horiz-adv-x="956" >
<font-face units-per-em="2048" ascent="1638" descent="-410" />
<missing-glyph horiz-adv-x="382" />
<glyph unicode=" "  horiz-adv-x="382" />
<glyph unicode="&#x09;" horiz-adv-x="382" />
<glyph unicode="&#xa0;" horiz-adv-x="382" />
<glyph unicode="!" horiz-adv-x="407" d="M-18 0l53 174h174l-53 -174h-174zM111 305l272 1061h188l-358 -1061h-102z" />
<glyph unicode="&#x22;" horiz-adv-x="679" d="M293 1366h190l-28 -549h-133zM604 1366h191l-29 -549h-133z" />
<glyph unicode="#" horiz-adv-x="1398" d="M150 457l53 131h280l82 203h-280l53 133h280l154 381h141l-153 -381h205l153 381h142l-154 -381h280l-53 -133h-280l-84 -203h280l-53 -131h-281l-153 -381h-139l153 381h-205l-153 -381h-142l154 381h-280zM625 588h202l84 203h-204z" />
<glyph unicode="$" horiz-adv-x="960" d="M96 295q0 76 39 154h158q-25 -84 -25 -127q0 -49 35 -79t92 -30q127 0 201 74q33 33 56.5 91t23.5 109q0 68 -58 119q-14 12 -112 78q-131 86 -170 135t-39 131q0 100 46 193.5t118 142.5q88 59 248 72l43 143h98l-45 -147q100 -14 155.5 -67.5t55.5 -137.5 q0 -39 -31 -148h-160q18 100 19 125q0 96 -131 97q-100 0 -162 -56q-35 -31 -58.5 -86t-23.5 -108q0 -45 25.5 -74t111.5 -84q139 -90 190.5 -153.5t51.5 -147.5q0 -106 -50 -207.5t-128 -152.5q-96 -63 -254 -76l-54 -168h-98l53 168q-117 16 -169 66.5t-52 150.5z" />
<glyph unicode="%" horiz-adv-x="1247" d="M113 0l1028 1366h123l-1028 -1366h-123zM166 797q0 23 8 55l111 362q49 160 233 160q90 0 144.5 -37t54.5 -100q0 -27 -12 -66l-111 -360q-25 -78 -80 -113.5t-156 -35.5q-192 0 -192 135zM283 811q0 -59 82 -59q51 0 79.5 22.5t44.5 77.5l99 319q14 45 14 58 q0 23 -25.5 40t-62.5 17q-88 0 -125 -115l-98 -319q-8 -33 -8 -41zM666 127q0 23 8 55l110 363q49 160 234 160q90 0 144.5 -37t54.5 -101q0 -27 -13 -65l-110 -361q-25 -78 -80.5 -113.5t-155.5 -35.5q-192 0 -192 135zM782 137q0 -25 21 -40q23 -15 61 -15q51 0 80 22.5 t45 77.5l98 320q14 45 15 57q0 23 -25.5 40t-62.5 17q-88 0 -125 -114l-98 -320q-9 -33 -9 -45z" />
<glyph unicode="&#x26;" horiz-adv-x="1095" d="M47 221q0 119 52.5 255t127.5 214q53 53 136 53h6l45 -2q-131 35 -131 146q0 113 51 234.5t123 183.5q74 61 239 61h254l-43 -143h-207q-84 0 -129 -39q-45 -37 -74.5 -116t-29.5 -161q0 -63 36 -87.5t126 -24.5h194l66 213h170l-62 -213h181l-45 -144h-183l-196 -651 h-439q-129 0 -198.5 57.5t-69.5 163.5zM227 233q0 -49 33 -69.5t115 -20.5h250l153 508h-233q-143 0 -207 -84q-41 -55 -76 -159.5t-35 -174.5z" />
<glyph unicode="'" horiz-adv-x="368" d="M281 1366h190l-29 -549h-133z" />
<glyph unicode="(" horiz-adv-x="475" d="M31 -66q0 90 13 248t26 228q51 262 288 663q147 248 187 293h114l-79 -154q-242 -453 -324 -764t-92 -800h-123q-10 79 -10 286z" />
<glyph unicode=")" horiz-adv-x="475" d="M-152 -352l80 153q244 455 325 764t91 801h123q10 -72 10 -338q0 -59 -14 -216t-25 -208q-49 -252 -288 -663q-143 -244 -187 -293h-115z" />
<glyph unicode="*" horiz-adv-x="710" d="M289 1202l65 96l156 -102l53 176l113 -33l-55 -182l182 4l6 -114l-182 -7l59 -172l-108 -41l-66 174l-147 -106l-70 94l149 109z" />
<glyph unicode="+" d="M168 633v139h313v299h140v-299h311v-139h-311v-299h-140v299h-313z" />
<glyph unicode="," horiz-adv-x="368" d="M-131 -182l182 344h180l-237 -344h-125z" />
<glyph unicode="-" horiz-adv-x="356" d="M-4 457l41 135h356l-41 -135h-356z" />
<glyph unicode="." horiz-adv-x="368" d="M-45 0l55 178h180l-53 -178h-182z" />
<glyph unicode="/" horiz-adv-x="653" d="M-162 -219l938 1585h123l-940 -1585h-121z" />
<glyph unicode="0" d="M47 219q0 59 37 182l201 660q39 131 133 221q104 102 293 102q156 0 245 -63q92 -61 93 -180q0 -74 -31 -176l-201 -656q-49 -154 -139 -231q-113 -96 -299 -96q-158 0 -245 62t-87 175zM227 242q0 -53 44 -86t118 -33q94 0 162 51q35 27 55.5 61.5t42.5 110.5l211 686 q8 25 8 82q0 59 -45 94t-121 35q-98 0 -157.5 -53t-95.5 -174l-203 -670q-19 -67 -19 -104z" />
<glyph unicode="1" d="M297 0l346 1133q-127 -106 -237 -107l49 166q199 66 309 186h133l-422 -1378h-178z" />
<glyph unicode="2" d="M-20 0l47 156q164 121 495 456q303 303 303 508q0 123 -147 123q-84 0 -130 -42t-69 -138q0 -10 -6 -25h-176q18 123 86 211q102 135 330 135q139 0 211.5 -66.5t72.5 -191.5q0 -119 -90 -275.5t-245 -311.5q-113 -113 -247 -228.5t-194 -154.5h508l-47 -156h-702z" />
<glyph unicode="3" d="M20 193q0 43 35 153h174l-6 -41q-8 -53 -8 -74q0 -109 150 -108q125 0 186 110q31 57 60.5 155.5t29.5 146.5q0 96 -141 96h-6l-74 -2l47 151q18 -2 41 -2q129 0 184 68q37 43 72 136t35 146q0 47 -38 81t-93 34q-109 0 -162 -78q-23 -39 -39 -123h-178q27 137 65 195 q102 147 324 147q127 0 203 -45q41 -25 65.5 -72.5t24.5 -99.5q0 -133 -72 -299q-53 -125 -207 -172q121 -39 121 -143q0 -78 -36 -195.5t-81 -193.5q-61 -102 -144 -142t-230 -40q-121 0 -195 41q-107 59 -107 170z" />
<glyph unicode="4" d="M4 328l43 143l680 895h270l-274 -895h205l-45 -143h-203l-100 -328h-179l101 328h-498zM227 471h318l219 715z" />
<glyph unicode="5" horiz-adv-x="962" d="M70 205q0 76 45 153h170q-31 -92 -31 -133q0 -53 41 -83.5t111 -30.5q78 0 137 46t82 122l69 229q20 68 21 115q0 49 -32 77.5t-85 28.5q-102 0 -174 -67q-29 -29 -68 -105h-182l270 809h607l-50 -156h-434l-147 -444q68 59 117 81.5t118 22.5q113 0 181.5 -57t68.5 -151 q0 -51 -28 -144l-80 -264q-27 -92 -123 -180q-98 -92 -279 -92q-152 0 -238.5 59.5t-86.5 163.5z" />
<glyph unicode="6" d="M68 225q0 63 26 154l207 678q100 328 414 327q143 0 222 -49t79 -137q0 -61 -25 -141h-170l2 28q4 49 4 62q0 45 -32.5 70.5t-89.5 25.5q-80 0 -139.5 -49t-86.5 -137l-92 -307q119 119 270 118q113 0 173.5 -53t60.5 -149q0 -78 -27 -166l-55 -181 q-55 -180 -153.5 -258.5t-266.5 -78.5q-150 0 -235.5 65t-85.5 178zM248 238q0 -51 42 -83t111 -32q168 0 234 213l61 201q14 47 15 98q0 92 -136 92q-92 0 -159.5 -50t-93.5 -140l-62 -201q-12 -43 -12 -98z" />
<glyph unicode="7" d="M131 0l688 1210h-502l50 156h692l-47 -156l-684 -1210h-197z" />
<glyph unicode="8" d="M55 207q0 49 15 92l67 219q39 94 92.5 140.5t167.5 84.5q-2 2 -8 7q-6 2 -8 4q-78 49 -97.5 72.5t-19.5 72.5q0 35 12 74l66 213q29 94 126 146t241 52q133 0 206.5 -59t73.5 -168q0 -37 -10 -74l-45 -147q-23 -76 -70 -118t-137 -66q-2 0 -6 -2t-10 -3.5t-11 -3.5 q59 -27 84 -43q74 -45 74 -137q0 -41 -12 -84l-78 -250q-39 -127 -160 -190q-113 -57 -246 -57q-143 0 -229 67q-78 64 -78 158zM233 229q0 -47 44.5 -76.5t113.5 -29.5q86 0 144 41q49 37 77 135l56 180q12 41 12 72q0 47 -45 77.5t-117 30.5q-158 0 -203 -141l-67 -219 q-15 -47 -15 -70zM442 889q0 -37 34 -61.5t85 -24.5q158 0 199 133l45 147q12 39 12 64q0 43 -42 69.5t-109 26.5q-129 0 -164 -119l-58 -188q-2 -45 -2 -47z" />
<glyph unicode="9" d="M47 184q0 92 37 181h174q-33 -88 -33 -140q0 -102 140 -102q100 0 151 42t84 146l100 328q-135 -106 -260 -107q-94 0 -159.5 60.5t-65.5 144.5q0 47 23 117l73 242q45 150 168 231q82 57 238 57q139 0 221 -60t82 -163q0 -53 -31 -157l-211 -693q-35 -117 -65.5 -167 t-89.5 -91q-104 -72 -261 -71q-141 0 -228 55t-87 147zM393 774q0 -45 38 -72.5t99 -27.5q78 0 145.5 52t90.5 128l61 201q14 45 15 71q0 53 -40 85t-104 32q-70 0 -128 -40t-76 -99l-78 -250q-23 -74 -23 -80z" />
<glyph unicode=":" horiz-adv-x="368" d="M-43 0l55 178h181l-54 -178h-182zM188 758l56 178h180l-53 -178h-183z" />
<glyph unicode=";" horiz-adv-x="368" d="M-131 -182l182 344h180l-237 -344h-125zM186 758l56 178h182l-55 -178h-183z" />
<glyph unicode="&#x3c;" horiz-adv-x="1024" d="M68 618v146l886 422v-170l-704 -326l704 -325v-170z" />
<glyph unicode="=" d="M168 510v139h764v-139h-764zM168 756v139h764v-139h-764z" />
<glyph unicode="&#x3e;" horiz-adv-x="1024" d="M70 195v170l704 325l-704 328v168l886 -422v-148z" />
<glyph unicode="?" horiz-adv-x="733" d="M152 0l51 166h178l-55 -166h-174zM233 999q4 29 7 33q20 113 45.5 168t81.5 105q98 82 251 81q250 0 250 -210q0 -57 -26.5 -138.5t-67.5 -140.5q-18 -31 -34.5 -48.5t-96.5 -94.5l-117 -119q-57 -57 -74.5 -86t-27.5 -88l-29 -154h-137l39 197q12 68 52 132t163 208 q160 190 160 315q0 43 -26.5 68.5t-72.5 25.5q-80 0 -124 -75q-25 -41 -46 -148q0 -2 -1 -6t-3 -11l-4 -14h-162z" />
<glyph unicode="@" horiz-adv-x="1501" d="M121 502q0 299 208 507t511 208q279 0 464 -174.5t185 -434.5q0 -193 -102.5 -338t-235.5 -145q-59 0 -101 36t-51 95q-92 -141 -256 -141q-125 0 -206.5 93t-81.5 236q0 168 106.5 291t251.5 123q160 0 219 -137l23 113h131l-82 -420q-12 -61 -12 -97q0 -37 18 -60.5 t47 -23.5q82 0 148.5 115t66.5 258q0 215 -148.5 353.5t-379.5 138.5q-250 0 -422 -173t-172 -427q0 -244 162 -416q162 -168 436 -168q233 0 420 86l35 -117q-201 -88 -451 -88q-322 0 -522 195q-98 96 -153.5 232.5t-55.5 279.5zM602 449q0 -88 48 -144.5t124 -56.5 q90 0 153.5 84t63.5 203q0 84 -44 135t-118 51q-92 0 -159.5 -80.5t-67.5 -191.5z" />
<glyph unicode="A" horiz-adv-x="1001" d="M-117 0l807 1366h209l-35 -1366h-178l10 315h-452l-181 -315h-180zM330 463h370l31 715z" />
<glyph unicode="B" horiz-adv-x="974" d="M-25 0l418 1366h395q135 0 187 -74q51 -70 51 -151q0 -102 -41 -197.5t-111 -155.5q-43 -37 -169 -69l16 -4q162 -39 162 -176q0 -45 -19.5 -141.5t-40.5 -149.5q-100 -248 -387 -248h-461zM199 147h180q180 0 254 121q29 49 49 124t20 134q0 57 -32 90q-31 31 -115 31 h-203zM397 795h189q123 0 184 79q35 45 60.5 115t25.5 117q0 57 -41 90t-110 33h-177z" />
<glyph unicode="C" horiz-adv-x="899" d="M39 215q0 72 27 162l196 643q53 178 177 272.5t304 94.5q125 0 202 -67t77 -173q0 -47 -27 -127l-8 -25h-176q31 102 31 138q0 49 -41 80.5t-105 31.5q-90 0 -166 -74q-61 -57 -116 -237l-170 -557q-25 -80 -25 -129q0 -59 38 -93t101 -34q51 0 104.5 27.5t82.5 68.5 q63 86 86 186h174q-72 -424 -486 -423q-280 -1 -280 235z" />
<glyph unicode="D" horiz-adv-x="991" d="M-20 0l417 1366h363q150 0 217 -57q39 -33 64.5 -86.5t25.5 -102.5q0 -92 -79 -374.5t-154 -462.5q-61 -145 -160 -214t-248 -69h-446zM203 147h203q104 0 162.5 45.5t111.5 165.5q49 117 135 412q72 242 72 334q0 61 -36 88t-118 27h-203z" />
<glyph unicode="E" horiz-adv-x="806" d="M-20 0l417 1366h590l-45 -147h-412l-137 -447h393l-45 -147h-393l-145 -478h438l-45 -147h-616z" />
<glyph unicode="F" horiz-adv-x="759" d="M-23 0l418 1366h580l-45 -147h-402l-137 -447h391l-45 -147h-391l-190 -625h-179z" />
<glyph unicode="G" horiz-adv-x="966" d="M49 233q0 90 37 207l158 521q72 233 166 315q57 49 152 79.5t192 30.5q143 0 221 -58t78 -167q0 -57 -35 -162h-176q31 92 30 138q0 109 -135 108q-129 0 -197.5 -61.5t-117.5 -222.5l-172 -566q-20 -70 -21 -131q0 -72 43 -108q45 -35 146 -35q86 0 180 41l129 420h-213 l45 147h391l-207 -672q-150 -78 -337 -77q-168 0 -262.5 66t-94.5 187z" />
<glyph unicode="H" horiz-adv-x="1009" d="M-23 0l418 1366h178l-178 -584h418l178 584h178l-417 -1366h-179l195 635h-418l-194 -635h-179z" />
<glyph unicode="I" horiz-adv-x="423" d="M-18 0l417 1366h179l-418 -1366h-178z" />
<glyph unicode="J" horiz-adv-x="786" d="M-66 182q0 51 13 92l39 127h184l-39 -127q-16 -53 -16 -73q0 -80 116 -80q86 0 134.5 46t85.5 165l315 1034h178l-334 -1092q-47 -158 -145 -221q-109 -74 -264 -73q-129 0 -198 52t-69 150z" />
<glyph unicode="K" horiz-adv-x="929" d="M-23 0l418 1366h178l-417 -1366h-179zM401 768l560 598h217l-582 -621l199 -745h-197z" />
<glyph unicode="L" horiz-adv-x="716" d="M-23 0l418 1366h178l-372 -1219h426l-45 -147h-605z" />
<glyph unicode="M" horiz-adv-x="1396" d="M-20 0l448 1366h279l-70 -1069l604 1069h295l-391 -1366h-170l350 1210l-684 -1210h-174l78 1210l-393 -1210h-172z" />
<glyph unicode="N" horiz-adv-x="1054" d="M-18 0l417 1366h273l2 -1208l368 1208h166l-417 -1366h-275l2 1210l-371 -1210h-165z" />
<glyph unicode="O" horiz-adv-x="962" d="M31 205q0 61 32 168l222 721q43 139 158.5 215.5t281.5 76.5q158 0 240 -61q96 -74 96 -180q0 -57 -29 -148l-198 -655q-37 -123 -76 -184.5t-105 -106.5q-104 -72 -276 -71q-152 0 -246 63q-100 66 -100 162zM211 244q0 -55 47 -89t125 -34q111 0 178.5 68.5 t118.5 232.5l162 532q39 129 39 164q0 133 -156 133q-129 0 -205 -82q-51 -51 -100 -215l-178 -581q-31 -102 -31 -129z" />
<glyph unicode="P" horiz-adv-x="907" d="M-25 0l418 1366h375q133 0 193 -68q27 -29 46 -82t19 -98q0 -92 -48 -214t-108 -179q-115 -109 -331 -109h-197l-188 -616h-179zM387 764h164q150 0 217 102q78 117 78 240q0 63 -43 94q-29 18 -98 19h-179z" />
<glyph unicode="Q" horiz-adv-x="976" d="M31 223q0 43 10 74l238 776q96 313 440 313q174 0 248 -61q94 -74 94 -188q0 -45 -33 -150l-205 -668q-23 -74 -55 -135q-2 -2 -14 -26q57 10 86 10q31 0 59 -10l-51 -168q-63 23 -143 22q-37 0 -250 -28q-41 -4 -82 -4q-158 0 -238 51q-104 69 -104 192zM211 238 q0 -51 46 -83t122 -32q121 0 196 82q53 57 93 186l172 563l14 45q27 86 27 119q0 125 -154 125q-217 0 -293 -244l-182 -596q-41 -136 -41 -165z" />
<glyph unicode="R" horiz-adv-x="1009" d="M-20 0l417 1366h410q74 0 115 -13.5t73 -47.5q59 -66 60 -168q0 -111 -50.5 -226.5t-117.5 -162.5q-49 -35 -187 -58q84 -31 113 -53q53 -37 53 -123q0 -39 -16 -100l-66 -258q-16 -63 -16 -99q0 -25 16 -57h-145q-51 0 -51 45q0 14 16 80l66 270q16 61 16 117 q0 45 -37 75.5t-92 30.5h-211l-188 -618h-178zM391 766h168q168 0 242 106q29 41 51 110t22 110q0 59 -43 93t-118 34h-183z" />
<glyph unicode="S" horiz-adv-x="911" d="M18 221q0 80 43 168h172q-35 -94 -34.5 -147.5t40.5 -87t103 -33.5q139 0 219 84q39 39 64.5 104.5t25.5 120.5q0 74 -61 129q-16 16 -117 86q-150 102 -187.5 151.5t-37.5 141.5q0 188 127 326q53 57 146 90t202 33q135 0 217 -62.5t82 -169.5q0 -45 -33 -162h-176 q4 23 6 27q0 2 2 9t5 20.5t5 25.5q10 41 11 64q0 106 -148 106q-106 0 -176 -63q-39 -35 -64.5 -98.5t-25.5 -122.5q0 -45 27.5 -78t117.5 -95q156 -104 207 -169.5t51 -157.5q0 -94 -38.5 -191.5t-102.5 -163.5q-57 -57 -160.5 -91.5t-220.5 -34.5q-291 -1 -291 241z" />
<glyph unicode="T" horiz-adv-x="831" d="M190 0l373 1219h-334l45 147h832l-45 -147h-320l-372 -1219h-179z" />
<glyph unicode="U" horiz-adv-x="1007" d="M63 197q0 94 35 202l295 967h178l-303 -995q-25 -80 -24 -123q0 -51 45 -89t108 -38q133 0 207 84q45 55 88 194l295 967h178l-305 -995q-39 -127 -79 -194.5t-107 -115.5q-113 -82 -295 -81q-141 0 -228.5 60.5t-87.5 156.5z" />
<glyph unicode="V" horiz-adv-x="915" d="M221 0l53 1366h175l-56 -1124l584 1124h192l-723 -1366h-225z" />
<glyph unicode="W" horiz-adv-x="1470" d="M176 0l98 1366h168l-88 -1116l520 1116h234l-125 -1116l553 1116h186l-684 -1366h-221l121 1176l-543 -1176h-219z" />
<glyph unicode="X" horiz-adv-x="903" d="M-125 0l551 733l-152 633h170l121 -508l381 508h184l-526 -692l162 -674h-172l-125 541l-408 -541h-186z" />
<glyph unicode="Y" horiz-adv-x="901" d="M221 0l180 588l-127 778h177l92 -600l424 600h192l-596 -827l-164 -539h-178z" />
<glyph unicode="Z" horiz-adv-x="886" d="M-68 0l58 184l809 1035h-500l45 147h713l-56 -180l-817 -1039h555l-45 -147h-762z" />
<glyph unicode="[" horiz-adv-x="569" d="M-121 -332l518 1698h398l-39 -131h-226l-438 -1432h225l-41 -135h-397z" />
<glyph unicode="\" horiz-adv-x="987" d="M272 1366h111l448 -1585h-110z" />
<glyph unicode="]" horiz-adv-x="569" d="M-199 -332l43 135h224l438 1432h-225l43 131h395l-520 -1698h-398z" />
<glyph unicode="^" horiz-adv-x="1024" d="M43 735l356 635h224l356 -635h-184l-285 500l-285 -500h-182z" />
<glyph unicode="_" horiz-adv-x="1024" d="M0 -127h1024v-156h-1024v156z" />
<glyph unicode="`" horiz-adv-x="1024" d="M616 1378h211l80 -299h-121z" />
<glyph unicode="a" horiz-adv-x="794" d="M-4 143.5q0 75.5 38 171t91 154.5q94 106 307 106q68 0 133 -14l43 139q8 33 8 52q0 88 -127 88t-163 -170h-164q29 139 116 211.5t222 72.5q121 0 193.5 -57t72.5 -152q0 -57 -21 -131l-106 -387q-35 -127 -35 -209q0 -8 2 -18h-168l-2 102q-106 -121 -239 -120 q-96 0 -148.5 43t-52.5 118.5zM168 166q0 -39 24.5 -60.5t67.5 -21.5q80 0 150 74q49 53 77 147l45 150q-53 6 -73 6q-137 0 -205 -76q-31 -35 -58.5 -104.5t-27.5 -114.5z" />
<glyph unicode="b" horiz-adv-x="796" d="M-43 0l418 1366h172l-154 -502q102 90 232 90q178 0 178 -153q0 -76 -39 -203l-94 -305q-55 -178 -115 -236q-82 -76 -197 -75q-66 0 -111.5 25.5t-96.5 90.5l-31 -98h-162zM199 184q0 -41 29.5 -64.5t80.5 -23.5q129 0 189 197l125 403q8 25 8 56q0 100 -92 100 q-68 0 -126.5 -57.5t-86.5 -153.5l-107 -348q-20 -62 -20 -109z" />
<glyph unicode="c" horiz-adv-x="706" d="M6 176q0 51 14 94l138 447q35 113 121 175t206 62q113 0 175.5 -49t62.5 -135q0 -41 -18 -98h-168q14 61 14 104q0 63 -82 64q-102 0 -139 -123l-137 -447q-14 -43 -15 -90q0 -35 27.5 -59.5t68.5 -24.5q119 0 158 174h168q-20 -131 -114.5 -209.5t-229.5 -78.5 q-109 0 -179.5 54t-70.5 140z" />
<glyph unicode="d" horiz-adv-x="800" d="M6 152q0 37 14 90l123 436q39 133 120 206.5t194 73.5q66 0 105.5 -26.5t84.5 -95.5l162 530h172l-418 -1366h-162l29 94l-20 -16q-123 -96 -230 -96q-78 0 -126 47t-48 123zM178 164q0 -37 23.5 -58.5t64.5 -21.5q72 0 131.5 64.5t96.5 185.5l92 301q18 57 18 106 q0 47 -29.5 75t-80.5 28q-123 0 -175 -166l-133 -436q-8 -41 -8 -78z" />
<glyph unicode="e" horiz-adv-x="757" d="M10 174q0 55 23 135l114 381q25 80 54.5 125t83.5 80q92 61 215 61q121 0 189.5 -51t68.5 -141q0 -66 -19 -125l-65 -215h-434l-47 -154q-10 -37 -11 -88q0 -86 115 -86q143 0 158 174h172q-29 -156 -112 -222t-245 -66q-123 0 -191.5 51t-68.5 141zM274 541h263l45 149 q4 8 4 64q0 100 -107 100q-59 0 -96 -38t-64 -126z" />
<glyph unicode="f" horiz-adv-x="483" d="M2 0l250 819h-141l34 117h144l55 182q25 80 47.5 119t63.5 72q78 63 196 63h94l-36 -117h-50q-61 0 -104 -49q-23 -29 -51 -125l-43 -145h149l-35 -117h-151l-250 -819h-172z" />
<glyph unicode="g" horiz-adv-x="794" d="M-98 -193q0 35 18 78h164q-10 -33 -10 -61q0 -90 104 -90q129 0 174 151l60 195q-100 -98 -211 -98q-88 0 -145.5 49t-57.5 125q0 47 10 77l150 486q35 113 110.5 174t182.5 61q133 0 198 -129l33 111h162l-320 -1051q-33 -106 -116 -180q-94 -86 -248 -86 q-121 0 -189.5 50t-68.5 138zM170 176q0 -39 27.5 -65.5t66.5 -26.5q90 0 148 72q37 45 71 157l88 291q23 72 23 107q0 61 -28.5 95t-82.5 34q-63 0 -106 -55.5t-82 -180.5l-107 -348q-18 -57 -18 -80z" />
<glyph unicode="h" horiz-adv-x="813" d="M-43 0l418 1366h172l-152 -494q111 82 219 82q86 0 137.5 -48t51.5 -128q0 -53 -12 -90l-211 -688h-172l190 623q33 106 33 135q0 41 -28 67.5t-68 26.5q-145 0 -216 -229l-190 -623h-172z" />
<glyph unicode="i" horiz-adv-x="364" d="M-47 0l287 936h172l-287 -936h-172zM317 1192l54 174h172l-54 -174h-172z" />
<glyph unicode="j" horiz-adv-x="370" d="M-258 -356l35 114h18q57 0 75.5 17.5t41.5 87.5l328 1073h172l-342 -1118q-29 -96 -89.5 -139.5t-168.5 -43.5q-35 1 -70 9zM317 1192l54 174h172l-54 -174h-172z" />
<glyph unicode="k" horiz-adv-x="755" d="M-47 0l418 1366h172l-246 -803l321 373h218l-377 -399l159 -537h-182l-147 537l-164 -537h-172z" />
<glyph unicode="l" horiz-adv-x="366" d="M-47 0l418 1366h172l-418 -1366h-172z" />
<glyph unicode="m" horiz-adv-x="1230" d="M-43 0l287 936h162l-29 -92q121 111 221 110q147 0 176 -141q102 141 240 141q88 0 146.5 -49t58.5 -125q0 -43 -25 -129l-199 -651h-172l187 610q37 123 37 152q0 39 -26 64.5t-63 25.5q-80 0 -137 -74q-39 -49 -73 -168l-187 -610h-172l201 651q23 72 22 107 q0 45 -25.5 69.5t-70.5 24.5q-78 0 -137 -82q-23 -27 -64 -160l-186 -610h-172z" />
<glyph unicode="n" horiz-adv-x="817" d="M-43 0l287 936h162l-27 -88q63 59 113.5 82.5t111.5 23.5q90 0 142.5 -50t52.5 -138q0 -53 -17 -107l-200 -659h-172l194 635q23 72 23 117q0 43 -29 71.5t-74 28.5q-61 0 -114.5 -52t-79.5 -141l-201 -659h-172z" />
<glyph unicode="o" horiz-adv-x="788" d="M4 178q0 39 16 92l130 426q37 119 130 188.5t215.5 69.5t205.5 -61.5t83 -153.5q0 -47 -22 -118l-125 -406q-35 -113 -128 -173t-235 -60q-123 0 -196.5 53t-73.5 143zM176 184q0 -41 30 -64.5t81 -23.5q141 0 205 201l106 348q14 49 14 88q0 51 -28.5 79t-81.5 28 q-135 0 -187 -168l-131 -426q-8 -29 -8 -62z" />
<glyph unicode="p" horiz-adv-x="794" d="M-156 -369l400 1305h162l-27 -82q133 100 231 100q82 0 132.5 -51t50.5 -135q0 -72 -29 -164l-109 -354q-39 -127 -114.5 -197.5t-173.5 -70.5q-66 0 -121.5 34.5t-81.5 96.5l-148 -482h-172zM199 193q0 -47 32.5 -78t81.5 -31q63 0 108.5 54.5t82.5 176.5l88 289 q29 96 29 133q0 47 -26 75t-69 28q-63 0 -117.5 -54.5t-82.5 -144.5l-111 -360q-16 -53 -16 -88z" />
<glyph unicode="q" horiz-adv-x="798" d="M4 162q0 31 10 71l138 449q25 84 46 122t64 70q84 66 197 66q115 0 194 -119l35 115h162l-399 -1305h-172l137 447q-92 -96 -223 -96q-84 0 -136.5 49t-52.5 131zM176 176q0 -35 27.5 -57.5t70.5 -22.5q68 0 125.5 58.5t87.5 158.5l93 303q20 70 20 113t-30.5 69.5 t-82.5 26.5q-121 0 -178 -188l-119 -389q-14 -52 -14 -72z" />
<glyph unicode="r" horiz-adv-x="534" d="M-45 0l287 936h161l-34 -111l22 19q63 55 109.5 74.5t109.5 19.5q20 0 41 -2l-43 -139h-41q-119 0 -186 -68q-31 -31 -46.5 -63.5t-43.5 -126.5l-164 -539h-172z" />
<glyph unicode="s" horiz-adv-x="673" d="M-31 160q0 45 23 106h162l-4 -24q-8 -49 -9 -66q0 -80 103 -80q68 0 104 43q49 61 49 144q0 31 -20.5 57.5t-91.5 87.5q-74 63 -99 94q-53 66 -53 146q0 123 91 204.5t227 81.5q113 0 181 -52t68 -136q0 -33 -16 -92h-162q14 51 15 80q0 39 -27 62.5t-70 23.5 q-57 0 -96 -44t-39 -110q0 -47 21.5 -74.5t115.5 -105.5q127 -106 127 -219q0 -133 -94 -219t-242 -86q-125 0 -194.5 47t-69.5 131z" />
<glyph unicode="t" horiz-adv-x="501" d="M55 115q0 37 15 80l192 624h-143l37 117h141l57 190l191 60l-76 -250h147l-34 -117h-148l-178 -579q-18 -59 -18 -99q-2 -29 23.5 -39t113.5 -12l-29 -90q-57 -25 -108 -25q-113 0 -152 52q-31 43 -31 88z" />
<glyph unicode="u" horiz-adv-x="833" d="M18 143q0 49 17 109l209 684h172l-201 -655q-25 -80 -25 -107q0 -35 31 -56.5t78 -21.5q74 0 132 56.5t89 154.5l193 629h172l-287 -936h-162l33 102q-70 -70 -123 -95t-125 -25q-94 0 -148.5 42.5t-54.5 118.5z" />
<glyph unicode="v" horiz-adv-x="735" d="M143 0v936h150v-752l395 752h164l-498 -936h-211z" />
<glyph unicode="w" horiz-adv-x="1148" d="M49 0l94 936h148l-78 -721l393 721h215l-55 -721l342 721h158l-445 -936h-215l64 782l-410 -782h-211z" />
<glyph unicode="x" horiz-adv-x="700" d="M-100 0l358 508l-113 428h164l84 -313l223 313h168l-340 -483l119 -453h-170l-86 344l-246 -344h-161z" />
<glyph unicode="y" horiz-adv-x="716" d="M-70 -369l215 346v959h150v-688l367 688h174l-730 -1305h-176z" />
<glyph unicode="z" horiz-adv-x="636" d="M-82 0l45 143l529 676h-324l37 117h510l-35 -117l-571 -702h385l-35 -117h-541z" />
<glyph unicode="{" horiz-adv-x="569" d="M-45 -176q0 57 27 143l90 297q18 61 18 98q0 68 -78 91l43 139q68 16 106 55t64 121l97 315q45 147 136 215t247 68q10 0 71 -2l-45 -145q-119 -2 -167 -36t-79 -136l-88 -289q-33 -102 -74.5 -153.5t-117.5 -88.5q66 -49 65 -121q0 -53 -22 -125l-84 -278 q-23 -72 -23 -101q0 -41 37 -58t125 -17l-45 -148h-72q-231 0 -231 156z" />
<glyph unicode="|" horiz-adv-x="1024" d="M426 -342v1708h170v-1708h-170z" />
<glyph unicode="}" horiz-adv-x="569" d="M-178 -332l45 148q117 0 166 34.5t80 137.5l88 288q33 102 73.5 154.5t118.5 87.5q-66 47 -65 121q0 45 22 125l84 278q23 72 23 99q0 43 -36 60.5t-126 17.5l45 147h72q231 0 231 -158q0 -61 -27 -143l-90 -295q-18 -61 -18 -100q0 -66 76 -88l-41 -140 q-70 -16 -108 -55t-62 -121l-97 -315q-45 -150 -137 -217.5t-245 -67.5q-27 0 -72 2z" />
<glyph unicode="~" horiz-adv-x="1366" d="M188 1249q41 86 76 133q82 113 211 113q78 0 225 -68q141 -63 195 -63q57 0 95 28.5t83 104.5l103 -59q-61 -123 -121 -170q-80 -68 -181 -68q-68 0 -288 98q-78 33 -125 33q-53 0 -93 -33.5t-81 -111.5z" />
<glyph unicode="&#xa1;" horiz-adv-x="407" d="M-160 -430l359 1061h102l-272 -1061h-189zM203 762l53 174h174l-53 -174h-174z" />
<glyph unicode="&#xa2;" d="M195 371q0 43 16 92l141 455q35 117 110 176t202 69l61 203h98l-61 -203q166 -29 166 -176q0 -49 -23 -125h-168q18 66 19 101q0 41 -28 64.5t-73 23.5q-49 0 -82 -33q-18 -18 -43 -100l-141 -455q-16 -57 -16 -74q0 -33 26.5 -53.5t71.5 -20.5q57 0 90 33t53 111l11 37 h168q-10 -127 -92.5 -211t-198.5 -84h-33l-61 -201h-99l62 201q-176 45 -176 170z" />
<glyph unicode="&#xa3;" d="M-78 0l49 158h125l156 512h-152l50 157h151l74 248q45 150 149.5 229.5t255.5 79.5q150 0 232 -58t82 -165q0 -41 -21 -112h-172q8 39 8 81q0 53 -39 83t-106 30q-158 0 -217 -194l-68 -222h320l-47 -157h-322l-156 -512h527l-47 -158h-832z" />
<glyph unicode="&#xa4;" horiz-adv-x="1366" d="M178 1231l98 98l197 -199q145 102 295 103q152 0 289 -100l198 194l97 -96l-197 -197q102 -141 102 -290.5t-100 -286.5l199 -197l-96 -98l-197 198q-139 -102 -293 -102q-145 0 -295 100l-196 -196l-97 96l195 199q-100 133 -101 288q0 150 103 287zM438 745.5 q0 -137.5 96.5 -233.5t231.5 -96q137 0 233.5 96t96.5 233q0 135 -95.5 232.5t-228.5 97.5q-139 0 -236.5 -96t-97.5 -233.5z" />
<glyph unicode="&#xa5;" d="M104 492l48 155h270l-25 139h-202l47 156h131l-70 424h174l94 -600l422 600h195l-307 -424h120l-47 -156h-184l-102 -139h245l-49 -155h-286l-150 -492h-178l149 492h-295z" />
<glyph unicode="&#xa6;" horiz-adv-x="1024" d="M426 313h170v-655h-170v655zM426 678v688h170v-688h-170z" />
<glyph unicode="&#xa7;" horiz-adv-x="1024" d="M35 -49l65 121q16 -12 21 -13q166 -106 346 -106q113 0 176.5 52t63.5 142q0 47 -22.5 78t-82.5 60l-274 137q-170 86 -170 240q0 152 170 247q4 2 24 15q-78 94 -78 188q0 131 91.5 202.5t261.5 71.5q102 0 207.5 -30.5t162.5 -77.5l-65 -123q-53 39 -145.5 64.5 t-172 25.5t-129.5 -22q-29 -14 -47 -44t-18 -61q0 -80 158 -160l231 -118q84 -43 120 -95.5t36 -134.5q0 -119 -86 -198q-27 -27 -93 -70q72 -88 72 -188q0 -141 -114.5 -241.5t-274.5 -100.5q-100 0 -219 38t-215 101zM307 672q0 -74 94 -119l283 -139q66 31 103.5 78 t37.5 96q0 43 -20.5 68.5t-75.5 54.5l-287 145q-55 -31 -95 -85t-40 -99z" />
<glyph unicode="&#xa8;" horiz-adv-x="1024" d="M477 1137l53 174h175l-54 -174h-174zM786 1137l54 174h174l-53 -174h-175z" />
<glyph unicode="&#xa9;" horiz-adv-x="1570" d="M154 688q0 289 206.5 490.5t499.5 201.5q281 0 483.5 -205.5t202.5 -490.5q0 -289 -203.5 -493.5t-492.5 -204.5q-291 0 -493.5 204.5t-202.5 497.5zM256 688q0 -250 173 -425t421 -175q246 0 420 174t174 422q0 242 -173 418t-411 176q-272 0 -450 -197 q-154 -170 -154 -393zM621 688q0 250 28 301q57 100 203 101q227 0 227 -234q0 -12 -2 -20h-129q2 10 2 26q0 123 -96 123q-68 0 -90 -47q-12 -27 -12 -203q0 -272 12 -307q23 -49 90 -49q57 0 80 41q14 29 14 131h129q2 -12 2 -31q0 -127 -54 -186.5t-171 -59.5 q-180 0 -217 127q-16 58 -16 287z" />
<glyph unicode="&#xaa;" horiz-adv-x="583" d="M113 592l26 86h434l-26 -86h-434zM211 899q0 47 23.5 103.5t56.5 93.5q59 66 196 65q33 0 70 -6l23 72q6 14 6 26q2 23 -18.5 35t-55.5 12q-72 0 -88 -100h-117q35 184 217 184q78 0 124 -35.5t46 -95.5q0 -27 -14 -77l-62 -228q-18 -74 -18 -119v-22h-119l-2 49 q-68 -59 -139 -59q-59 0 -94 27.5t-35 74.5zM334 915q0 -43 49 -43q90 0 127 121l25 82q-16 2 -37 2q-78 0 -117 -41q-16 -18 -31.5 -57t-15.5 -64z" />
<glyph unicode="&#xab;" horiz-adv-x="731" d="M47 375l72 246l330 217l-66 -222l-221 -151l127 -189l-56 -186zM369 375l71 246l330 217l-65 -222l-224 -151l127 -189l-53 -186z" />
<glyph unicode="&#xac;" horiz-adv-x="1024" d="M68 387v160h886v-547h-170v387h-716z" />
<glyph unicode="&#xad;" horiz-adv-x="356" d="M-4 457l41 135h356l-41 -135h-356z" />
<glyph unicode="&#xae;" horiz-adv-x="1570" d="M154 688q0 289 206.5 490.5t499.5 201.5q281 0 483.5 -205.5t202.5 -490.5q0 -289 -203.5 -493.5t-492.5 -204.5q-291 0 -493.5 204.5t-202.5 497.5zM256 688q0 -250 173 -425t421 -175q246 0 420 174t174 422q0 242 -173 418t-411 176q-272 0 -450 -197 q-154 -170 -154 -393zM614 287v792h228q133 0 187 -47t54 -162q0 -72 -24.5 -109.5t-85.5 -64.5q57 -20 73.5 -62t26.5 -200q4 -78 33 -147h-143q-16 33 -19 75l-6 80l-8 82q-8 74 -30.5 94.5t-98.5 20.5h-56v-352h-131zM745 743h74q72 0 102.5 28t30.5 93q0 63 -28.5 87 t-104.5 24h-74v-232z" />
<glyph unicode="&#xaf;" horiz-adv-x="1024" d="M477 1155l35 129h518l-35 -129h-518z" />
<glyph unicode="&#xb0;" horiz-adv-x="737" d="M295 1116q0 113 81 191.5t197 78.5q109 0 189 -80.5t80 -191.5q0 -113 -80 -193.5t-193 -80.5q-115 0 -194.5 80.5t-79.5 195.5zM397 1114q0 -72 50.5 -122t119.5 -50q72 0 122 50t50 122q0 70 -50 120t-118 50q-72 0 -123 -50t-51 -120z" />
<glyph unicode="&#xb1;" d="M80 59v140h764v-140h-764zM80 633v139h313v299h139v-299h312v-139h-312v-299h-139v299h-313z" />
<glyph unicode="&#xb2;" horiz-adv-x="624" d="M111 547l30 104q98 68 301 269q178 172 179 288q0 68 -84 68q-47 0 -71 -22.5t-38 -73.5q-2 -2 -6 -23h-123q29 219 264 219q88 0 134 -41t46 -118q0 -63 -47 -149.5t-125 -168.5q-100 -102 -276 -244h293l-33 -108h-444z" />
<glyph unicode="&#xb3;" horiz-adv-x="624" d="M137 666q0 25 25 100h121q-10 -53 -11 -72q0 -59 86 -59q68 0 103 59q16 31 33.5 88.5t17.5 83.5q0 39 -37 47q-29 5 -63 6q-17 0 -35 -1l33 106q29 -4 30 -4q76 0 105 35q20 23 39.5 76t19.5 81q0 27 -21.5 45.5t-52.5 18.5q-61 0 -88 -41q-12 -16 -22 -76h-125l4 25 q16 88 66 133q70 59 176 59q88 0 137 -34.5t49 -100.5q0 -49 -18.5 -114.5t-42.5 -96.5q-29 -37 -88 -65q57 -29 57 -84q0 -47 -21.5 -118t-48.5 -116q-39 -63 -91 -87.5t-146 -24.5q-90 0 -140.5 35t-50.5 96z" />
<glyph unicode="&#xb4;" horiz-adv-x="1024" d="M604 1079l156 299h231l-260 -299h-127z" />
<glyph unicode="&#xb5;" horiz-adv-x="833" d="M-156 -369l400 1305h172l-201 -655q-25 -80 -25 -107q0 -35 31 -56.5t78 -21.5q74 0 132 56.5t89 154.5l193 629h172l-287 -936h-162l33 102q-70 -70 -124 -95t-126 -25q-59 0 -110 20l-93 -371h-172z" />
<glyph unicode="&#xb6;" horiz-adv-x="1024" d="M182 -197l258 846h-26q-94 0 -150.5 57.5t-56.5 153.5q0 115 50 227.5t130 176.5q125 102 330 102h495l-43 -143h-104l-434 -1420h-158l434 1420h-133l-434 -1420h-158z" />
<glyph unicode="&#xb7;" horiz-adv-x="368" d="M80 410l55 178h182l-55 -178h-182z" />
<glyph unicode="&#xb8;" horiz-adv-x="983" d="M94 -381l207 272h137l-151 -272h-193z" />
<glyph unicode="&#xb9;" horiz-adv-x="624" d="M305 547l201 653q-74 -51 -141 -51l32 113q129 41 193 112h94l-254 -827h-125z" />
<glyph unicode="&#xba;" horiz-adv-x="583" d="M113 592l26 86h434l-26 -86h-434zM238 920q0 20 10 55l76 250q23 74 82 116.5t137 42.5t131 -37.5t53 -95.5q0 -25 -14 -71l-72 -238q-45 -145 -231 -145q-78 0 -125 34t-47 89zM360 930q0 -49 62 -49q80 0 113 110l61 203q8 33 8 49q0 57 -61 57q-76 0 -103 -90 l-75 -249q-5 -13 -5 -31z" />
<glyph unicode="&#xbb;" horiz-adv-x="731" d="M-20 131l65 221l221 150l-125 190l54 187l186 -285l-72 -246zM301 131l64 221l223 150l-127 190l55 187l186 -285l-71 -246z" />
<glyph unicode="&#xbc;" horiz-adv-x="1640" d="M305 547l201 653q-74 -51 -141 -51l32 113q129 41 193 112h94l-254 -827h-125zM334 0l1028 1366h131l-1028 -1366h-131zM975 193l29 94l413 532h178l-161 -526h125l-31 -100h-125l-60 -193h-124l59 193h-303zM1135 293h174l114 375z" />
<glyph unicode="&#xbd;" horiz-adv-x="1640" d="M305 547l201 653q-74 -51 -141 -51l32 113q129 41 193 112h94l-254 -827h-125zM307 0l1028 1366h131l-1028 -1366h-131zM961 0l32 104q86 61 299 269q178 178 178 289q0 68 -84 67q-47 0 -71.5 -21.5t-36.5 -74.5q0 -2 -4 -23h-125q31 219 266 219q86 0 132 -40.5 t46 -118.5q0 -63 -47 -150.5t-125 -167.5q-90 -96 -276 -243h295l-33 -109h-446z" />
<glyph unicode="&#xbe;" horiz-adv-x="1640" d="M137 666q0 25 25 100h121q-10 -53 -11 -72q0 -59 86 -59q68 0 103 59q16 31 33.5 88.5t17.5 83.5q0 39 -37 47q-29 5 -63 6q-17 0 -35 -1l33 106q29 -4 30 -4q76 0 105 35q20 23 39.5 76t19.5 81q0 27 -21.5 45.5t-52.5 18.5q-61 0 -88 -41q-12 -16 -22 -76h-125l4 25 q16 88 66 133q70 59 176 59q88 0 137 -34.5t49 -100.5q0 -49 -18.5 -114.5t-42.5 -96.5q-29 -37 -88 -65q57 -29 57 -84q0 -47 -21.5 -118t-48.5 -116q-39 -63 -91 -87.5t-146 -24.5q-90 0 -140.5 35t-50.5 96zM334 0l1028 1366h131l-1028 -1366h-131zM975 193l29 94 l413 532h178l-161 -526h125l-31 -100h-125l-60 -193h-124l59 193h-303zM1135 293h174l114 375z" />
<glyph unicode="&#xbf;" horiz-adv-x="733" d="M-139 -240q0 57 26.5 138.5t67.5 140.5q27 41 131 143l117 119q57 59 74.5 88t27.5 86l29 154h137l-39 -197q-12 -70 -52 -134.5t-163 -205.5q-160 -186 -160 -315q0 -43 27 -68.5t72 -25.5q80 0 125 75q23 39 45 148q0 8 8 31h162q-4 -29 -7 -33q-20 -113 -45.5 -168 t-81.5 -105q-98 -82 -251 -82q-250 0 -250 211zM348 770l55 166h175l-52 -166h-178z" />
<glyph unicode="&#xc0;" horiz-adv-x="1001" d="M-117 0l807 1366h209l-35 -1366h-178l10 315h-452l-181 -315h-180zM330 463h370l31 715zM559 1780h223l111 -297h-143z" />
<glyph unicode="&#xc1;" horiz-adv-x="1001" d="M-117 0l807 1366h209l-35 -1366h-178l10 315h-452l-181 -315h-180zM330 463h370l31 715zM764 1483l184 297h238l-273 -297h-149z" />
<glyph unicode="&#xc2;" horiz-adv-x="1001" d="M-117 0l807 1366h209l-35 -1366h-178l10 315h-452l-181 -315h-180zM330 463h370l31 715zM567 1485l228 295h219l88 -295h-135l-82 182l-176 -182h-142z" />
<glyph unicode="&#xc3;" horiz-adv-x="1001" d="M-117 0l807 1366h209l-35 -1366h-178l10 315h-452l-181 -315h-180zM330 463h370l31 715zM580 1530q14 100 69.5 157.5t138.5 57.5q37 0 60.5 -9.5t69.5 -41.5q61 -47 86 -47q45 0 73 90h115q-18 -102 -72.5 -161.5t-130.5 -59.5q-37 0 -56.5 9t-101.5 66q-41 29 -61 29 q-43 0 -63 -59q-4 -6 -11 -31h-116z" />
<glyph unicode="&#xc4;" horiz-adv-x="1001" d="M-117 0l807 1366h209l-35 -1366h-178l10 315h-452l-181 -315h-180zM330 463h370l31 715zM586 1526l55 184h186l-57 -184h-184zM928 1526l55 184h186l-57 -184h-184z" />
<glyph unicode="&#xc5;" horiz-adv-x="1001" d="M-117 0l807 1366h209l-35 -1366h-178l10 315h-452l-181 -315h-180zM330 463h370l31 715zM668 1632q0 80 56 135.5t138 55.5q76 0 132.5 -56.5t56.5 -134.5q0 -80 -56.5 -136t-134.5 -56q-80 0 -136 56t-56 136zM764 1632q0 -39 27.5 -67.5t66.5 -28.5t67.5 28.5 t28.5 67.5t-27.5 66.5t-66.5 27.5t-67.5 -27.5t-28.5 -66.5z" />
<glyph unicode="&#xc6;" horiz-adv-x="1396" d="M-137 0l979 1366h729l-45 -147h-414l-135 -447h393l-45 -147h-393l-148 -478h445l-45 -147h-623l119 385h-348l-277 -385h-192zM434 532h291l221 721z" />
<glyph unicode="&#xc7;" horiz-adv-x="899" d="M23 -381l223 272h141l-158 -272h-206zM37 213q0 68 29 164l194 643q53 178 178 272t305 94q123 0 200 -66.5t77 -172.5q0 -49 -35 -152h-176q31 94 31 138q0 49 -41 80.5t-103 31.5q-92 0 -168 -74q-57 -55 -114 -237l-170 -557q-27 -86 -27 -129q0 -59 38 -93t101 -34 q51 0 104.5 27.5t84.5 68.5q66 90 84 186h176q-72 -424 -486 -423q-282 0 -282 233z" />
<glyph unicode="&#xc8;" horiz-adv-x="806" d="M-20 0l417 1366h590l-45 -147h-412l-137 -447h393l-45 -147h-393l-145 -478h438l-45 -147h-616zM473 1780h223l111 -297h-143z" />
<glyph unicode="&#xc9;" horiz-adv-x="806" d="M-20 0l417 1366h590l-45 -147h-412l-137 -447h393l-45 -147h-393l-145 -478h438l-45 -147h-616zM662 1483l184 297h237l-272 -297h-149z" />
<glyph unicode="&#xca;" horiz-adv-x="806" d="M-20 0l417 1366h590l-45 -147h-412l-137 -447h393l-45 -147h-393l-145 -478h438l-45 -147h-616zM481 1485l228 295h219l88 -295h-135l-82 182l-176 -182h-142z" />
<glyph unicode="&#xcb;" horiz-adv-x="806" d="M-20 0l417 1366h590l-45 -147h-412l-137 -447h393l-45 -147h-393l-145 -478h438l-45 -147h-616zM489 1526l56 184h186l-57 -184h-185zM831 1526l56 184h186l-57 -184h-185z" />
<glyph unicode="&#xcc;" horiz-adv-x="423" d="M-18 0l417 1366h179l-418 -1366h-178zM270 1780h217l97 -295h-135z" />
<glyph unicode="&#xcd;" horiz-adv-x="423" d="M-18 0l417 1366h179l-418 -1366h-178zM451 1483l172 297h237l-260 -297h-149z" />
<glyph unicode="&#xce;" horiz-adv-x="423" d="M-18 0l417 1366h179l-418 -1366h-178zM276 1485l213 295h220l73 -295h-135l-67 182l-162 -182h-142z" />
<glyph unicode="&#xcf;" horiz-adv-x="423" d="M-18 0l417 1366h179l-418 -1366h-178zM317 1526l56 184h180l-57 -184h-179zM598 1526l55 184h178l-55 -184h-178z" />
<glyph unicode="&#xd0;" horiz-adv-x="991" d="M-20 0l194 635h-123l43 143h123l180 588h363q150 0 217 -57q41 -35 65.5 -87.5t24.5 -103.5q0 -90 -79 -372.5t-154 -464.5q-119 -281 -408 -281h-446zM203 147h203q104 0 162.5 45.5t111.5 165.5q45 106 135 410q72 242 72 336q0 61 -36 88t-118 27h-203l-135 -441h254 l-43 -143h-254z" />
<glyph unicode="&#xd1;" horiz-adv-x="1054" d="M-18 0l417 1366h273l2 -1208l368 1208h166l-417 -1366h-275l2 1210l-371 -1210h-165zM623 1530q14 100 69.5 157.5t138.5 57.5q37 0 60.5 -9.5t69.5 -41.5q61 -47 86 -47q45 0 73 90h115q-18 -102 -72.5 -161.5t-130.5 -59.5q-37 0 -56.5 9t-101.5 66q-41 29 -61 29 q-43 0 -63 -59q-4 -6 -11 -31h-116z" />
<glyph unicode="&#xd2;" horiz-adv-x="962" d="M31 205q0 61 32 168l222 721q43 139 158.5 215.5t281.5 76.5q158 0 240 -61q96 -74 96 -180q0 -57 -29 -148l-198 -655q-37 -123 -76 -184.5t-105 -106.5q-104 -72 -276 -71q-152 0 -246 63q-100 66 -100 162zM211 244q0 -55 47 -89t125 -34q111 0 178.5 68.5 t118.5 232.5l162 532q39 129 39 164q0 133 -156 133q-129 0 -205 -82q-51 -51 -100 -215l-178 -581q-31 -102 -31 -129zM532 1780h224l110 -297h-143z" />
<glyph unicode="&#xd3;" horiz-adv-x="962" d="M31 205q0 61 32 168l222 721q43 139 158.5 215.5t281.5 76.5q158 0 240 -61q96 -74 96 -180q0 -57 -29 -148l-198 -655q-37 -123 -76 -184.5t-105 -106.5q-104 -72 -276 -71q-152 0 -246 63q-100 66 -100 162zM211 244q0 -55 47 -89t125 -34q111 0 178.5 68.5 t118.5 232.5l162 532q39 129 39 164q0 133 -156 133q-129 0 -205 -82q-51 -51 -100 -215l-178 -581q-31 -102 -31 -129zM719 1483l184 297h238l-273 -297h-149z" />
<glyph unicode="&#xd4;" horiz-adv-x="962" d="M31 205q0 61 32 168l222 721q43 139 158.5 215.5t281.5 76.5q158 0 240 -61q96 -74 96 -180q0 -57 -29 -148l-198 -655q-37 -123 -76 -184.5t-105 -106.5q-104 -72 -276 -71q-152 0 -246 63q-100 66 -100 162zM211 244q0 -55 47 -89t125 -34q111 0 178.5 68.5 t118.5 232.5l162 532q39 129 39 164q0 133 -156 133q-129 0 -205 -82q-51 -51 -100 -215l-178 -581q-31 -102 -31 -129zM551 1485l227 295h219l88 -295h-135l-82 182l-176 -182h-141z" />
<glyph unicode="&#xd5;" horiz-adv-x="962" d="M31 205q0 61 32 168l222 721q43 139 158.5 215.5t281.5 76.5q158 0 240 -61q96 -74 96 -180q0 -57 -29 -148l-198 -655q-37 -123 -76 -184.5t-105 -106.5q-104 -72 -276 -71q-152 0 -246 63q-100 66 -100 162zM211 244q0 -55 47 -89t125 -34q111 0 178.5 68.5 t118.5 232.5l162 532q39 129 39 164q0 133 -156 133q-129 0 -205 -82q-51 -51 -100 -215l-178 -581q-31 -102 -31 -129zM580 1530q14 100 69.5 157.5t138.5 57.5q37 0 60.5 -9.5t69.5 -41.5q61 -47 86 -47q45 0 73 90h115q-18 -102 -72.5 -161.5t-130.5 -59.5q-37 0 -56.5 9 t-101.5 66q-41 29 -61 29q-43 0 -63 -59q-4 -6 -11 -31h-116z" />
<glyph unicode="&#xd6;" horiz-adv-x="962" d="M31 205q0 61 32 168l222 721q43 139 158.5 215.5t281.5 76.5q158 0 240 -61q96 -74 96 -180q0 -57 -29 -148l-198 -655q-37 -123 -76 -184.5t-105 -106.5q-104 -72 -276 -71q-152 0 -246 63q-100 66 -100 162zM211 244q0 -55 47 -89t125 -34q111 0 178.5 68.5 t118.5 232.5l162 532q39 129 39 164q0 133 -156 133q-129 0 -205 -82q-51 -51 -100 -215l-178 -581q-31 -102 -31 -129zM555 1526l55 184h187l-58 -184h-184zM897 1526l55 184h187l-58 -184h-184z" />
<glyph unicode="&#xd7;" d="M190 444l261 258l-261 261l99 98l260 -260l260 260l98 -98l-260 -261l260 -258l-98 -100l-260 260l-260 -260z" />
<glyph unicode="&#xd8;" horiz-adv-x="962" d="M-74 -2l115 141q-10 33 -10 62q0 70 32 172l222 721q41 137 157.5 214.5t278.5 77.5q193 0 274 -88l90 103l78 -68l-108 -133q8 -35 8 -57q0 -47 -31 -146l-198 -655q-37 -121 -75 -183.5t-104 -107.5q-106 -72 -278 -71q-176 0 -264 79l-107 -129zM203 291l665 895 q-35 66 -143 65q-127 0 -205 -82q-31 -33 -48 -69.5t-52 -145.5l-121 -381l-18 -57q-10 -33 -16.5 -48t-8.5 -24zM238 174q45 -53 147 -53q113 0 197 92q53 63 98 209l100 323q43 135 111 310z" />
<glyph unicode="&#xd9;" horiz-adv-x="1007" d="M63 197q0 94 35 202l295 967h178l-303 -995q-25 -80 -24 -123q0 -51 45 -89t108 -38q133 0 207 84q45 55 88 194l295 967h178l-305 -995q-39 -127 -79 -194.5t-107 -115.5q-113 -82 -295 -81q-141 0 -228.5 60.5t-87.5 156.5zM563 1780h223l111 -297h-143z" />
<glyph unicode="&#xda;" horiz-adv-x="1007" d="M63 197q0 94 35 202l295 967h178l-303 -995q-25 -80 -24 -123q0 -51 45 -89t108 -38q133 0 207 84q45 55 88 194l295 967h178l-305 -995q-39 -127 -79 -194.5t-107 -115.5q-113 -82 -295 -81q-141 0 -228.5 60.5t-87.5 156.5zM752 1483l184 297h238l-273 -297h-149z" />
<glyph unicode="&#xdb;" horiz-adv-x="1007" d="M63 197q0 94 35 202l295 967h178l-303 -995q-25 -80 -24 -123q0 -51 45 -89t108 -38q133 0 207 84q45 55 88 194l295 967h178l-305 -995q-39 -127 -79 -194.5t-107 -115.5q-113 -82 -295 -81q-141 0 -228.5 60.5t-87.5 156.5zM573 1485l228 295h219l88 -295h-135l-82 182 l-176 -182h-142z" />
<glyph unicode="&#xdc;" horiz-adv-x="1007" d="M63 197q0 94 35 202l295 967h178l-303 -995q-25 -80 -24 -123q0 -51 45 -89t108 -38q133 0 207 84q45 55 88 194l295 967h178l-305 -995q-39 -127 -79 -194.5t-107 -115.5q-113 -82 -295 -81q-141 0 -228.5 60.5t-87.5 156.5zM582 1526l55 184h186l-57 -184h-184z M924 1526l55 184h186l-57 -184h-184z" />
<glyph unicode="&#xdd;" horiz-adv-x="901" d="M221 0l180 588l-127 778h177l92 -600l424 600h192l-596 -827l-164 -539h-178zM670 1483l184 297h238l-273 -297h-149z" />
<glyph unicode="&#xde;" horiz-adv-x="907" d="M-25 0l418 1366h178l-67 -219h196q135 0 193 -68q27 -29 46 -82t19 -98q0 -92 -48 -214t-107 -179q-115 -109 -332 -109h-197l-120 -397h-179zM319 545h164q154 0 217 102q78 117 78 240q0 59 -32.5 85.5t-108.5 26.5h-178z" />
<glyph unicode="&#xdf;" horiz-adv-x="884" d="M-41 0l332 1090q39 131 96 190q100 104 268 104q135 0 203 -84q47 -57 47 -131q0 -115 -74 -194q-29 -31 -54 -50.5t-109 -72.5q-78 -47 -78 -100q0 -35 92 -179q55 -86 73.5 -135t18.5 -106q0 -70 -31.5 -144.5t-83.5 -119.5q-90 -86 -223 -86q-94 0 -194 47l43 143 l16 -6l35 -14q51 -23 98 -23q76 0 122 55.5t46 143.5q0 53 -23.5 106t-97.5 160q-63 88 -63 158q0 72 59 135q29 29 119 90q80 55 108.5 92t28.5 84t-27.5 72.5t-76.5 25.5q-68 0 -123 -65q-20 -25 -55 -139l-320 -1047h-172z" />
<glyph unicode="&#xe0;" horiz-adv-x="794" d="M-4 143.5q0 75.5 38 171t91 154.5q94 106 307 106q68 0 133 -14l43 139q8 33 8 52q0 88 -127 88t-163 -170h-164q29 139 116 211.5t222 72.5q121 0 193.5 -57t72.5 -152q0 -57 -21 -131l-106 -387q-35 -127 -35 -209q0 -8 2 -18h-168l-2 102q-106 -121 -239 -120 q-96 0 -148.5 43t-52.5 118.5zM168 166q0 -39 24.5 -60.5t67.5 -21.5q80 0 150 74q49 53 77 147l45 150q-53 6 -73 6q-137 0 -205 -76q-31 -35 -58.5 -104.5t-27.5 -114.5zM344 1378h211l80 -299h-121z" />
<glyph unicode="&#xe1;" horiz-adv-x="794" d="M-4 143.5q0 75.5 38 171t91 154.5q94 106 307 106q68 0 133 -14l43 139q8 33 8 52q0 88 -127 88t-163 -170h-164q29 139 116 211.5t222 72.5q121 0 193.5 -57t72.5 -152q0 -57 -21 -131l-106 -387q-35 -127 -35 -209q0 -8 2 -18h-168l-2 102q-106 -121 -239 -120 q-96 0 -148.5 43t-52.5 118.5zM168 166q0 -39 24.5 -60.5t67.5 -21.5q80 0 150 74q49 53 77 147l45 150q-53 6 -73 6q-137 0 -205 -76q-31 -35 -58.5 -104.5t-27.5 -114.5zM510 1079l156 299h231l-260 -299h-127z" />
<glyph unicode="&#xe2;" horiz-adv-x="794" d="M-4 143.5q0 75.5 38 171t91 154.5q94 106 307 106q68 0 133 -14l43 139q8 33 8 52q0 88 -127 88t-163 -170h-164q29 139 116 211.5t222 72.5q121 0 193.5 -57t72.5 -152q0 -57 -21 -131l-106 -387q-35 -127 -35 -209q0 -8 2 -18h-168l-2 102q-106 -121 -239 -120 q-96 0 -148.5 43t-52.5 118.5zM168 166q0 -39 24.5 -60.5t67.5 -21.5q80 0 150 74q49 53 77 147l45 150q-53 6 -73 6q-137 0 -205 -76q-31 -35 -58.5 -104.5t-27.5 -114.5zM336 1079l221 301h213l74 -301h-111l-90 187l-188 -187h-119z" />
<glyph unicode="&#xe3;" horiz-adv-x="794" d="M-4 143.5q0 75.5 38 171t91 154.5q94 106 307 106q68 0 133 -14l43 139q8 33 8 52q0 88 -127 88t-163 -170h-164q29 139 116 211.5t222 72.5q121 0 193.5 -57t72.5 -152q0 -57 -21 -131l-106 -387q-35 -127 -35 -209q0 -8 2 -18h-168l-2 102q-106 -121 -239 -120 q-96 0 -148.5 43t-52.5 118.5zM168 166q0 -39 24.5 -60.5t67.5 -21.5q80 0 150 74q49 53 77 147l45 150q-53 6 -73 6q-137 0 -205 -76q-31 -35 -58.5 -104.5t-27.5 -114.5zM375 1128q18 100 69.5 157.5t122.5 57.5q37 0 64.5 -14t91.5 -69q14 -12 35 -13q43 0 65 88h117 q-18 -96 -72.5 -158.5t-119.5 -62.5q-29 0 -53.5 13.5t-90.5 64.5q-33 27 -53 27q-35 0 -51 -60l-8 -31h-117z" />
<glyph unicode="&#xe4;" horiz-adv-x="794" d="M-4 143.5q0 75.5 38 171t91 154.5q94 106 307 106q68 0 133 -14l43 139q8 33 8 52q0 88 -127 88t-163 -170h-164q29 139 116 211.5t222 72.5q121 0 193.5 -57t72.5 -152q0 -57 -21 -131l-106 -387q-35 -127 -35 -209q0 -8 2 -18h-168l-2 102q-106 -121 -239 -120 q-96 0 -148.5 43t-52.5 118.5zM168 166q0 -39 24.5 -60.5t67.5 -21.5q80 0 150 74q49 53 77 147l45 150q-53 6 -73 6q-137 0 -205 -76q-31 -35 -58.5 -104.5t-27.5 -114.5zM367 1137l53 174h174l-53 -174h-174zM676 1137l53 174h174l-53 -174h-174z" />
<glyph unicode="&#xe5;" horiz-adv-x="794" d="M-4 143.5q0 75.5 38 171t91 154.5q94 106 307 106q68 0 133 -14l43 139q8 33 8 52q0 88 -127 88t-163 -170h-164q29 139 116 211.5t222 72.5q121 0 193.5 -57t72.5 -152q0 -57 -21 -131l-106 -387q-35 -127 -35 -209q0 -8 2 -18h-168l-2 102q-106 -121 -239 -120 q-96 0 -148.5 43t-52.5 118.5zM168 166q0 -39 24.5 -60.5t67.5 -21.5q80 0 150 74q49 53 77 147l45 150q-53 6 -73 6q-137 0 -205 -76q-31 -35 -58.5 -104.5t-27.5 -114.5zM426 1235q0 78 56.5 132t133.5 54q76 0 130.5 -55t54.5 -131q0 -78 -54.5 -133t-132 -55t-133 55 t-55.5 133zM518 1235q0 -39 27.5 -67.5t66.5 -28.5t68 28.5t29 67.5t-28 66.5t-67 27.5t-67.5 -27.5t-28.5 -66.5z" />
<glyph unicode="&#xe6;" horiz-adv-x="1218" d="M0 154q0 86 40 182t97 149q102 92 279 93q86 0 151 -15l39 125q12 37 12 64q0 41 -33.5 64.5t-90.5 23.5q-63 0 -102.5 -39t-61.5 -129h-166q27 131 117 206.5t217 75.5q162 0 213 -106q92 106 243 106q111 0 181.5 -55t70.5 -143q0 -70 -39 -203q-29 -102 -34 -129h-435 l-47 -154q-18 -57 -18 -90q0 -84 108 -84q72 0 106 36t60 138h178q-20 -147 -104 -217.5t-236 -70.5q-109 0 -166 28.5t-81 93.5q-115 -123 -287 -122q-211 0 -211 172zM172 170q0 -41 24.5 -63.5t67.5 -22.5q84 0 156 78q10 10 15 17t10.5 13.5t9.5 15.5t7 14t8 20.5 l8 25.5l10 36q7 26 14 44l33 107q-41 8 -84 8q-125 0 -199 -84q-33 -37 -56.5 -99.5t-23.5 -109.5zM733 541h256l39 131q14 53 14 80q0 41 -28.5 64.5t-75.5 23.5q-66 0 -99.5 -38t-68.5 -145z" />
<glyph unicode="&#xe7;" horiz-adv-x="706" d="M-31 -381l207 272h137l-151 -272h-193zM6 176q0 39 17 94l135 447q33 113 120 175t209 62q111 0 174.5 -49t63.5 -135q0 -41 -20 -98h-166q14 66 14 104q0 63 -82 64q-104 0 -141 -123l-135 -447q-16 -57 -17 -90q0 -35 29 -59.5t69 -24.5q117 0 158 174h168 q-20 -131 -114.5 -209.5t-231.5 -78.5q-109 0 -179.5 54t-70.5 140z" />
<glyph unicode="&#xe8;" horiz-adv-x="757" d="M10 174q0 55 23 135l114 381q25 80 54.5 125t83.5 80q92 61 215 61q121 0 189.5 -51t68.5 -141q0 -66 -19 -125l-65 -215h-434l-47 -154q-10 -37 -11 -88q0 -86 115 -86q143 0 158 174h172q-29 -156 -112 -222t-245 -66q-123 0 -191.5 51t-68.5 141zM274 541h263l45 149 q4 8 4 64q0 100 -107 100q-59 0 -96 -38t-64 -126zM334 1378h211l80 -299h-121z" />
<glyph unicode="&#xe9;" horiz-adv-x="757" d="M10 174q0 55 23 135l114 381q25 80 54.5 125t83.5 80q92 61 215 61q121 0 189.5 -51t68.5 -141q0 -66 -19 -125l-65 -215h-434l-47 -154q-10 -37 -11 -88q0 -86 115 -86q143 0 158 174h172q-29 -156 -112 -222t-245 -66q-123 0 -191.5 51t-68.5 141zM274 541h263l45 149 q4 8 4 64q0 100 -107 100q-59 0 -96 -38t-64 -126zM500 1079l155 299h232l-260 -299h-127z" />
<glyph unicode="&#xea;" horiz-adv-x="757" d="M10 174q0 55 23 135l114 381q25 80 54.5 125t83.5 80q92 61 215 61q121 0 189.5 -51t68.5 -141q0 -66 -19 -125l-65 -215h-434l-47 -154q-10 -37 -11 -88q0 -86 115 -86q143 0 158 174h172q-29 -156 -112 -222t-245 -66q-123 0 -191.5 51t-68.5 141zM274 541h263l45 149 q4 8 4 64q0 100 -107 100q-59 0 -96 -38t-64 -126zM317 1079l222 301h213l73 -301h-110l-90 187l-189 -187h-119z" />
<glyph unicode="&#xeb;" horiz-adv-x="757" d="M10 174q0 55 23 135l114 381q25 80 54.5 125t83.5 80q92 61 215 61q121 0 189.5 -51t68.5 -141q0 -66 -19 -125l-65 -215h-434l-47 -154q-10 -37 -11 -88q0 -86 115 -86q143 0 158 174h172q-29 -156 -112 -222t-245 -66q-123 0 -191.5 51t-68.5 141zM274 541h263l45 149 q4 8 4 64q0 100 -107 100q-59 0 -96 -38t-64 -126zM352 1137l54 174h174l-54 -174h-174zM662 1137l53 174h174l-53 -174h-174z" />
<glyph unicode="&#xec;" horiz-adv-x="364" d="M-47 0l287 936h172l-287 -936h-172zM137 1378h211l66 -299h-113z" />
<glyph unicode="&#xed;" horiz-adv-x="364" d="M-47 0l287 936h172l-287 -936h-172zM301 1079l156 299h231l-260 -299h-127z" />
<glyph unicode="&#xee;" horiz-adv-x="364" d="M-47 0l287 936h172l-287 -936h-172zM133 1079l201 301h213l53 -301h-111l-69 187l-168 -187h-119z" />
<glyph unicode="&#xef;" horiz-adv-x="364" d="M-47 0l287 936h172l-287 -936h-172zM174 1137l53 174h174l-53 -174h-174zM442 1137l54 174h174l-54 -174h-174z" />
<glyph unicode="&#xf0;" horiz-adv-x="788" d="M4 178q0 39 16 92l127 420q39 125 130.5 194.5t216.5 69.5q70 0 109.5 -19.5t70.5 -70.5q8 41 8 66q0 106 -61 211l-162 -80l-60 90l156 78q-47 43 -147 100l75 68q39 -14 96.5 -50t86.5 -65l163 82l66 -86l-158 -82q88 -123 88 -254q0 -111 -63 -321l-125 -406 q-35 -113 -128 -173t-235 -60q-123 0 -196.5 53t-73.5 143zM176 184q0 -41 30 -64.5t81 -23.5q141 0 205 201l106 348q14 49 14 88q0 51 -28.5 79t-81.5 28q-135 0 -187 -168l-131 -426q-8 -29 -8 -62z" />
<glyph unicode="&#xf1;" horiz-adv-x="817" d="M-43 0l287 936h162l-27 -88q63 59 113.5 82.5t111.5 23.5q90 0 142.5 -50t52.5 -138q0 -53 -17 -107l-200 -659h-172l194 635q23 72 23 117q0 43 -29 71.5t-74 28.5q-61 0 -114.5 -52t-79.5 -141l-201 -659h-172zM389 1128q18 100 69.5 157.5t123.5 57.5q37 0 64.5 -14 t90.5 -69q16 -12 35 -13q43 0 66 88h116q-18 -96 -72.5 -158.5t-119.5 -62.5q-29 0 -53.5 13.5t-90.5 64.5q-33 27 -53 27q-35 0 -51 -60l-8 -31h-117z" />
<glyph unicode="&#xf2;" horiz-adv-x="788" d="M4 178q0 39 16 92l130 426q37 119 130 188.5t215.5 69.5t205.5 -61.5t83 -153.5q0 -47 -22 -118l-125 -406q-35 -113 -128 -173t-235 -60q-123 0 -196.5 53t-73.5 143zM176 184q0 -41 30 -64.5t81 -23.5q141 0 205 201l106 348q14 49 14 88q0 51 -28.5 79t-81.5 28 q-135 0 -187 -168l-131 -426q-8 -29 -8 -62zM342 1378h211l80 -299h-121z" />
<glyph unicode="&#xf3;" horiz-adv-x="790" d="M4 178q0 39 16 92l130 426q37 119 130 188.5t215.5 69.5t205.5 -61.5t83 -153.5q0 -47 -22 -118l-125 -406q-35 -113 -128 -173t-235 -60q-123 0 -196.5 53t-73.5 143zM176 184q0 -41 30 -64.5t81 -23.5q141 0 205 201l106 348q14 49 14 88q0 51 -28.5 79t-81.5 28 q-135 0 -187 -168l-131 -426q-8 -29 -8 -62zM518 1079l156 299h231l-260 -299h-127z" />
<glyph unicode="&#xf4;" horiz-adv-x="790" d="M4 178q0 39 16 92l130 426q37 119 130 188.5t215.5 69.5t205.5 -61.5t83 -153.5q0 -47 -22 -118l-125 -406q-35 -113 -128 -173t-235 -60q-123 0 -196.5 53t-73.5 143zM176 184q0 -41 30 -64.5t81 -23.5q141 0 205 201l106 348q14 49 14 88q0 51 -28.5 79t-81.5 28 q-135 0 -187 -168l-131 -426q-8 -29 -8 -62zM332 1079l221 301h213l74 -301h-111l-90 187l-188 -187h-119z" />
<glyph unicode="&#xf5;" horiz-adv-x="790" d="M4 178q0 39 16 92l130 426q37 119 130 188.5t215.5 69.5t205.5 -61.5t83 -153.5q0 -47 -22 -118l-125 -406q-35 -113 -128 -173t-235 -60q-123 0 -196.5 53t-73.5 143zM176 184q0 -41 30 -64.5t81 -23.5q141 0 205 201l106 348q14 49 14 88q0 51 -28.5 79t-81.5 28 q-135 0 -187 -168l-131 -426q-8 -29 -8 -62zM385 1128q18 100 69.5 157.5t123.5 57.5q37 0 64.5 -14t90.5 -69q16 -12 35 -13q43 0 66 88h116q-18 -96 -72.5 -158.5t-119.5 -62.5q-29 0 -53.5 13.5t-90.5 64.5q-33 27 -53 27q-35 0 -51 -60l-8 -31h-117z" />
<glyph unicode="&#xf6;" horiz-adv-x="790" d="M4 178q0 39 16 92l130 426q37 119 130 188.5t215.5 69.5t205.5 -61.5t83 -153.5q0 -47 -22 -118l-125 -406q-35 -113 -128 -173t-235 -60q-123 0 -196.5 53t-73.5 143zM176 184q0 -41 30 -64.5t81 -23.5q141 0 205 201l106 348q14 49 14 88q0 51 -28.5 79t-81.5 28 q-135 0 -187 -168l-131 -426q-8 -29 -8 -62zM373 1137l53 174h174l-53 -174h-174zM682 1137l53 174h174l-53 -174h-174z" />
<glyph unicode="&#xf7;" d="M168 633v139h764v-139h-764zM467 313v172h166v-172h-166zM467 924v170h166v-170h-166z" />
<glyph unicode="&#xf8;" horiz-adv-x="788" d="M-55 -18l84 106q-25 51 -25 92q0 35 16 90l132 426q37 119 129 188.5t215 69.5q104 0 194 -51l78 94l68 -51l-84 -102q35 -51 34 -96q0 -43 -24 -127l-123 -406q-70 -233 -363 -233q-104 0 -186 45l-78 -97zM174 231l416 574q-33 35 -90 35q-135 0 -185 -168l-71 -236 q-29 -96 -70 -205zM199 127q41 -31 90 -31q139 0 203 201l90 293q14 49 49 133z" />
<glyph unicode="&#xf9;" horiz-adv-x="833" d="M18 143q0 49 17 109l209 684h172l-201 -655q-25 -80 -25 -107q0 -35 31 -56.5t78 -21.5q74 0 132 56.5t89 154.5l193 629h172l-287 -936h-162l33 102q-70 -70 -123 -95t-125 -25q-94 0 -148.5 42.5t-54.5 118.5zM385 1378h211l80 -299h-121z" />
<glyph unicode="&#xfa;" horiz-adv-x="833" d="M18 143q0 49 17 109l209 684h172l-201 -655q-25 -80 -25 -107q0 -35 31 -56.5t78 -21.5q74 0 132 56.5t89 154.5l193 629h172l-287 -936h-162l33 102q-70 -70 -123 -95t-125 -25q-94 0 -148.5 42.5t-54.5 118.5zM545 1079l155 299h232l-260 -299h-127z" />
<glyph unicode="&#xfb;" horiz-adv-x="833" d="M18 143q0 49 17 109l209 684h172l-201 -655q-25 -80 -25 -107q0 -35 31 -56.5t78 -21.5q74 0 132 56.5t89 154.5l193 629h172l-287 -936h-162l33 102q-70 -70 -123 -95t-125 -25q-94 0 -148.5 42.5t-54.5 118.5zM369 1079l221 301h213l74 -301h-111l-90 187l-189 -187 h-118z" />
<glyph unicode="&#xfc;" horiz-adv-x="833" d="M18 143q0 49 17 109l209 684h172l-201 -655q-25 -80 -25 -107q0 -35 31 -56.5t78 -21.5q74 0 132 56.5t89 154.5l193 629h172l-287 -936h-162l33 102q-70 -70 -123 -95t-125 -25q-94 0 -148.5 42.5t-54.5 118.5zM397 1137l54 174h174l-54 -174h-174zM707 1137l53 174h174 l-53 -174h-174z" />
<glyph unicode="&#xfd;" horiz-adv-x="716" d="M-70 -369l215 346v959h150v-688l367 688h174l-730 -1305h-176zM459 1079l155 299h232l-260 -299h-127z" />
<glyph unicode="&#xfe;" horiz-adv-x="794" d="M-156 -369l531 1735h172l-158 -512q113 100 221 100q82 0 132.5 -51t50.5 -135q0 -72 -29 -164l-109 -354q-39 -127 -114.5 -197.5t-173.5 -70.5q-66 0 -121.5 34.5t-81.5 96.5l-148 -482h-172zM199 193q0 -47 32.5 -78t81.5 -31q63 0 108.5 54.5t82.5 176.5l88 289 q29 96 29 133q0 47 -26 75t-69 28q-63 0 -117.5 -54.5t-82.5 -144.5l-111 -360q-16 -53 -16 -88z" />
<glyph unicode="&#xff;" horiz-adv-x="716" d="M-70 -369l215 346v959h150v-688l367 688h174l-730 -1305h-176zM326 1137l53 174h174l-53 -174h-174zM635 1137l53 174h174l-53 -174h-174z" />
<glyph unicode="&#x152;" horiz-adv-x="1325" d="M29 207q0 43 14 92l240 784q45 147 162.5 225t295.5 78q47 0 146 -14q47 -6 82 -6h540l-45 -147h-413l-138 -447h392l-45 -147h-392l-145 -478h434l-45 -147h-434q-59 0 -195 -14q-66 -6 -123 -6q-172 0 -280 102q-51 51 -51 125zM209 238q0 -57 48 -92t130 -35 q98 0 156 28l329 1080q-63 35 -137 34q-92 0 -155 -36q-96 -53 -146 -218l-184 -602l-19 -59q-22 -69 -22 -100z" />
<glyph unicode="&#x153;" horiz-adv-x="1222" d="M2 180q0 29 23 105l122 405q39 125 132.5 194.5t224.5 69.5q141 0 215 -92q80 92 235 92q119 0 187.5 -54t68.5 -148q0 -72 -75 -328h-435l-47 -154q-16 -51 -16 -84q0 -90 113 -90q76 0 111.5 39t49.5 135h179q-6 -109 -80 -194q-82 -94 -285 -94q-154 0 -203 90 q-70 -90 -264 -90q-115 0 -185.5 55t-70.5 143zM174 186q0 -41 29.5 -65.5t79.5 -24.5q76 0 127 51.5t86 165.5l112 367q10 37 10 59q0 43 -33.5 72t-84.5 29q-63 0 -111.5 -40t-69.5 -110l-137 -446q-8 -42 -8 -58zM737 541h256l43 139q14 43 15 74q0 39 -30 62.5t-77 23.5 q-66 0 -102.5 -38t-67.5 -140z" />
<glyph unicode="&#x178;" horiz-adv-x="901" d="M221 0l180 588l-127 778h177l92 -600l424 600h192l-596 -827l-164 -539h-178zM522 1526l56 184h186l-57 -184h-185zM864 1526l56 184h186l-57 -184h-185z" />
<glyph unicode="&#x2c6;" horiz-adv-x="1024" d="M463 1079l221 301h213l74 -301h-111l-90 187l-188 -187h-119z" />
<glyph unicode="&#x2dc;" horiz-adv-x="1024" d="M459 1128q18 100 69.5 157.5t122.5 57.5q37 0 64.5 -14t91.5 -69q16 -12 35 -13q43 0 65 88h117q-18 -96 -72.5 -158.5t-120.5 -62.5q-29 0 -53 13.5t-90 64.5q-33 27 -53 27q-35 0 -51 -60l-9 -31h-116z" />
<glyph unicode="&#x2013;" horiz-adv-x="903" d="M100 457l41 135h707l-41 -135h-707z" />
<glyph unicode="&#x2014;" horiz-adv-x="1114" d="M-4 457l41 135h1114l-41 -135h-1114z" />
<glyph unicode="&#x2018;" horiz-adv-x="423" d="M242 893l207 473h137l-137 -473h-207z" />
<glyph unicode="&#x2019;" horiz-adv-x="423" d="M246 893l139 473h205l-205 -473h-139z" />
<glyph unicode="&#x201a;" horiz-adv-x="423" d="M-111 -268l140 473h204l-204 -473h-140z" />
<glyph unicode="&#x201c;" horiz-adv-x="753" d="M242 893l207 473h131l-131 -473h-207zM573 893l203 473h139l-139 -473h-203z" />
<glyph unicode="&#x201d;" horiz-adv-x="753" d="M246 893l139 473h203l-205 -473h-137zM580 893l133 473h207l-207 -473h-133z" />
<glyph unicode="&#x201e;" horiz-adv-x="753" d="M-104 -268l137 473h205l-205 -473h-137zM229 -268l133 473h207l-207 -473h-133z" />
<glyph unicode="&#x2022;" horiz-adv-x="1366" d="M401 692q0 119 84 202t205 83q113 0 196 -84t83 -199q0 -119 -83 -201.5t-200 -82.5t-201 82.5t-84 199.5z" />
<glyph unicode="&#x2026;" horiz-adv-x="1105" d="M-45 0l55 178h180l-53 -178h-182zM324 0l55 178h180l-53 -178h-182zM692 0l56 178h180l-54 -178h-182z" />
<glyph unicode="&#x2039;" horiz-adv-x="409" d="M47 375l72 246l330 217l-66 -222l-221 -151l127 -189l-56 -186z" />
<glyph unicode="&#x203a;" horiz-adv-x="409" d="M-20 131l65 221l221 150l-125 190l54 187l186 -285l-72 -246z" />
<glyph unicode="&#x20ac;" horiz-adv-x="997" d="M47 500l84 135h84l29 98h-127l86 135h84l45 152q53 178 178 272t305 94q123 0 200 -65.5t77 -171.5q0 -49 -35 -154h-176q31 106 30 138q0 49 -40 80.5t-103 31.5q-92 0 -168 -74q-70 -66 -117 -237l-18 -66h303l-84 -135h-262l-29 -98h230l-84 -135h-187l-39 -123 q-25 -80 -24 -129q0 -59 38 -93t101 -34q51 0 104.5 27.5t81.5 68.5q63 86 86 186h177q-74 -424 -486 -423q-283 0 -282 235q0 76 26 162l39 123h-127z" />
<glyph unicode="&#x2122;" horiz-adv-x="1347" d="M238 588l208 682h-194l31 96h495l-28 -96h-187l-209 -682h-116zM598 588l256 778h174l-35 -578l334 578h182l-223 -778h-110l182 637l-365 -637h-110l35 633l-207 -633h-113z" />
<glyph unicode="&#xe000;" horiz-adv-x="935" d="M0 935h935v-935h-935v935z" />
<glyph unicode="&#xfb01;" horiz-adv-x="897" d="M2 0l250 819h-141l34 117h144l55 182q25 80 47.5 119t63.5 72q78 63 196 63h94l-36 -117h-50q-61 0 -104 -49q-23 -29 -51 -125l-43 -145h149l-35 -117h-151l-250 -819h-172zM485 0l285 936h172l-285 -936h-172zM850 1192l53 174h172l-53 -174h-172z" />
<glyph unicode="&#xfb02;" horiz-adv-x="901" d="M2 0l250 819h-141l34 117h144l55 182q25 80 47.5 119t63.5 72q78 63 196 63h94l-36 -117h-50q-61 0 -104 -49q-23 -29 -51 -125l-43 -145h149l-35 -117h-151l-250 -819h-172zM485 0l418 1366h172l-418 -1366h-172z" />
<glyph unicode="&#xfb03;" horiz-adv-x="1330" d="M919 0l287 936h172l-287 -936h-172zM1283 1192l54 174h172l-54 -174h-172zM485 0l250 819h-141l34 117h144l55 182q25 80 47.5 119t63.5 72q78 63 196 63h94l-36 -117h-50q-61 0 -104 -49q-23 -29 -51 -125l-43 -145h149l-35 -117h-151l-250 -819h-172zM2 0l250 819h-141 l34 117h144l55 182q25 80 47.5 119t63.5 72q78 63 196 63h94l-36 -117h-50q-61 0 -104 -49q-23 -29 -51 -125l-43 -145h149l-35 -117h-151l-250 -819h-172z" />
<glyph unicode="&#xfb04;" horiz-adv-x="1332" d="M919 0l418 1366h172l-418 -1366h-172zM485 0l250 819h-141l34 117h144l55 182q25 80 47.5 119t63.5 72q78 63 196 63h94l-36 -117h-50q-61 0 -104 -49q-23 -29 -51 -125l-43 -145h149l-35 -117h-151l-250 -819h-172zM2 0l250 819h-141l34 117h144l55 182q25 80 47.5 119 t63.5 72q78 63 196 63h94l-36 -117h-50q-61 0 -104 -49q-23 -29 -51 -125l-43 -145h149l-35 -117h-151l-250 -819h-172z" />
</font>
</defs>
</svg>
