<?xml version="1.0" standalone="no"?>
<!DOCTYPE svg PUBLIC "-//W3C//DTD SVG 1.1//EN" "http://www.w3.org/Graphics/SVG/1.1/DTD/svg11.dtd" >
<svg xmlns="http://www.w3.org/2000/svg">
<metadata>
This is a custom SVG webfont generated by Fontspring.
</metadata>
<defs>
<font id="UrbanoBoldItalic" horiz-adv-x="1255" >
<font-face units-per-em="2048" ascent="1638" descent="-410" />
<missing-glyph horiz-adv-x="512" />
<glyph unicode=" "  horiz-adv-x="512" />
<glyph unicode="&#x09;" horiz-adv-x="512" />
<glyph unicode="&#xa0;" horiz-adv-x="512" />
<glyph unicode="!" horiz-adv-x="565" d="M23 0l69 225h254l-70 -225h-253zM141 328l271 1038h293l-353 -1038h-211z" />
<glyph unicode="&#x22;" horiz-adv-x="802" d="M297 1366h264l-49 -549h-168zM651 1366h264l-47 -549h-170z" />
<glyph unicode="#" horiz-adv-x="1419" d="M160 518l78 125h249l119 193h-250l76 120h250l170 273h133l-170 -273h207l174 273h135l-170 -273h264l-75 -120h-265l-120 -193h266l-78 -125h-264l-166 -266h-137l164 266h-207l-166 -266h-133l166 266h-250zM621 643h208l119 193h-209z" />
<glyph unicode="$" d="M25 358v35h297q0 -100 28.5 -143t108.5 -64l125 412q-152 66 -226 123q-139 104 -139 262q0 182 153.5 299t395.5 117h61l39 129h117l-43 -142q180 -37 262 -122.5t82 -235.5v-37h-282q-2 82 -29 121t-96 66l-113 -371q174 -80 262 -137q145 -98 146 -260 q0 -119 -81 -224.5t-219 -167.5q-127 -57 -305 -57q-35 0 -61 2l-39 -129h-117l41 139q-368 57 -368 385zM512 1022q0 -94 152 -168l104 340q-100 0 -160 -33q-96 -53 -96 -139zM571 176q121 2 181 29q129 55 129 162q0 78 -60 118q-31 23 -133 68z" />
<glyph unicode="%" horiz-adv-x="1687" d="M209 842q0 176 106 348q123 197 312 196q115 0 178 -64.5t63 -176.5q0 -176 -102 -348q-121 -209 -322 -209q-111 0 -173 67.5t-62 186.5zM297 0l1106 1366h110l-1101 -1366h-115zM377 823q0 -53 22.5 -88t57.5 -35q100 0 176 183q68 160 67 284q0 49 -22.5 78t-61.5 29 q-96 0 -167 -170q-72 -160 -72 -281zM950 233q0 174 107 347q123 197 311 196q115 0 178.5 -64.5t63.5 -176.5q0 -174 -103 -349q-123 -207 -321 -206q-111 0 -173.5 67t-62.5 186zM1118 213q0 -53 22.5 -87t57.5 -34q100 0 174 182q70 166 70 283q0 49 -22.5 78t-61.5 29 q-96 0 -168 -170q-72 -160 -72 -281z" />
<glyph unicode="&#x26;" horiz-adv-x="1517" d="M59 334q0 90 48.5 174t130.5 137q98 66 290 100q-104 35 -151 84q-63 70 -64 154q0 109 76 207t195 147q115 47 336 47q80 0 206 -18l-63 -213q-98 12 -156 12q-147 0 -228 -48t-81 -136q0 -84 68 -119q49 -29 229 -28h174l74 241h272l-74 -241h256l-65 -216h-256 l-182 -598l-310 -20q-84 -6 -166 -6q-348 0 -491 156q-68 73 -68 184zM338 363q0 -168 291 -168q8 0 73 4l177 14l125 405h-232q-135 0 -202.5 -13t-123.5 -48q-108 -65 -108 -194z" />
<glyph unicode="'" horiz-adv-x="448" d="M303 1366h264l-49 -549h-168z" />
<glyph unicode="(" horiz-adv-x="628" d="M80 147q0 190 28.5 336t96.5 305q59 133 109.5 218.5t217.5 339.5l50 73h182q-303 -528 -401.5 -869t-106.5 -898h-150q-2 18 -4 41.5t-2 30.5l-14 217q-6 83 -6 206z" />
<glyph unicode=")" horiz-adv-x="628" d="M-90 -348q303 524 409 901q57 195 73 346.5t22 519.5h153q27 -256 27 -471q0 -279 -51 -465t-195 -434q-98 -170 -258 -397h-180z" />
<glyph unicode="*" horiz-adv-x="804" d="M289 1182l78 127l176 -107l59 195l150 -45l-60 -197l203 8l8 -149l-201 -10l72 -191l-153 -49l-62 197l-158 -132l-100 121l160 127z" />
<glyph unicode="+" d="M174 598v205h418v409h215v-409h418v-205h-418v-412h-215v412h-418z" />
<glyph unicode="," horiz-adv-x="514" d="M-127 -119l186 338h273l-254 -338h-205z" />
<glyph unicode="-" horiz-adv-x="528" d="M-18 406l73 243h529l-74 -243h-528z" />
<glyph unicode="." horiz-adv-x="514" d="M-6 0l67 221h242l-67 -221h-242z" />
<glyph unicode="/" horiz-adv-x="1075" d="M-190 -219l1245 1585h280l-1241 -1585h-284z" />
<glyph unicode="0" d="M119 430q0 178 76.5 383t197.5 348q199 236 457 236q197 0 308.5 -113t111.5 -309q0 -190 -72 -399t-190 -357q-197 -250 -478 -250q-199 0 -305 120t-106 341zM379 395.5q0 -112.5 45 -177t123 -64.5q96 0 185 89t155 251q53 129 89 275t36 235q0 100 -45 154t-129 54 q-158 0 -285 -227q-70 -123 -122 -300t-52 -289.5z" />
<glyph unicode="1" d="M455 0l327 1075q-127 -111 -313 -145l78 258q236 61 354 178h256l-418 -1366h-284z" />
<glyph unicode="2" d="M0 0l74 242q301 164 575 381q299 231 299 411q0 82 -53 130t-141 48q-96 0 -149.5 -56t-53.5 -159h-268q8 104 41.5 173t107.5 128q125 98 328 99q238 0 356 -105q106 -94 107 -235q0 -172 -158 -342q-70 -74 -142.5 -132.5t-226.5 -160.5q-195 -131 -331 -209h708 l-65 -213h-1008z" />
<glyph unicode="3" d="M72 309q0 29 8 72h278q-2 -8 -2 -21q0 -98 52.5 -152t148.5 -54q119 0 202 74.5t83 183.5q0 117 -99 168q-45 25 -77.5 31.5t-110.5 6.5h-6l51 168q31 -2 68 -2q139 0 225 63.5t86 168.5q0 88 -54.5 142t-140.5 54q-166 0 -204 -190h-281q29 100 59.5 154.5t79.5 99.5 q141 121 363 121q190 0 314 -100.5t124 -252.5q0 -80 -42 -152.5t-114 -117.5q-76 -47 -227 -74q117 -39 170 -88q90 -80 90 -211q0 -188 -166 -310t-424 -122q-236 0 -354 117q-100 96 -100 223z" />
<glyph unicode="4" d="M-16 299l71 231l819 836h351l-269 -881h289l-55 -186h-291l-92 -299h-275l93 299h-641zM240 485h442l106 353q25 84 111 278l33 78q-190 -219 -266 -295z" />
<glyph unicode="5" d="M78 287q0 39 2 63h280q4 -197 199 -196q137 0 238.5 110.5t101.5 257.5q0 102 -58.5 161.5t-160.5 59.5q-164 0 -256 -188h-260l260 811h907l-65 -213h-648l-94 -307q152 82 283 82q158 0 262.5 -104.5t104.5 -262.5q0 -109 -46.5 -222.5t-121.5 -195.5 q-162 -174 -488 -174q-225 0 -342 103q-98 86 -98 215z" />
<glyph unicode="6" d="M133 432q0 258 137 533q221 432 633 432q180 0 295 -75t115 -189q0 -27 -10 -84h-232q-8 84 -41 114q-51 49 -143 49q-84 0 -162 -41t-127 -112q-80 -119 -123 -268q158 106 336 106q158 0 255 -102.5t97 -268.5q0 -213 -155 -381q-162 -176 -412 -176q-219 0 -341 122 t-122 341zM393 367q0 -113 48 -172.5t139 -59.5q139 0 231 135q78 113 78 246q0 100 -53.5 157.5t-143.5 57.5q-150 0 -225 -115q-74 -108 -74 -249z" />
<glyph unicode="7" d="M254 0l793 1153h-711l65 213h938l-39 -188l-733 -1178h-313z" />
<glyph unicode="8" d="M84 322q0 104 55.5 192t155.5 139q96 51 237 68q-113 45 -157 80q-94 78 -94 205q0 170 165 290q141 100 359 101q219 0 336 -90q111 -84 110 -220q0 -170 -166 -284q-55 -37 -231 -82q135 -27 199 -86q90 -84 90 -211q0 -88 -45 -176t-119 -146q-172 -133 -440 -133 q-207 0 -331 96.5t-124 256.5zM344 348q0 -102 60.5 -157.5t173.5 -55.5q123 0 214 80t91 186q0 102 -69 166t-177 64q-123 0 -208 -82t-85 -201zM520 1008q0 -88 65.5 -139.5t174 -51.5t178.5 62.5t74 164.5v11q0 75 -57 124q-60 52 -162 52q-119 0 -196 -63.5t-77 -159.5z " />
<glyph unicode="9" d="M61 250q0 33 9 74h252q8 -170 182 -170q209 0 334 231q59 106 94 233q-170 -117 -338 -116q-156 0 -256 102.5t-100 261.5q0 227 162.5 379t408.5 152q209 0 334 -123t125 -328q0 -276 -174 -612q-102 -195 -239.5 -280t-354.5 -85q-199 0 -312 72q-55 35 -91 93.5 t-36 115.5zM512 911q0 -102 58.5 -163.5t154.5 -61.5q119 0 201 88t82 217q0 109 -58.5 174.5t-152.5 65.5q-115 0 -200 -95.5t-85 -224.5z" />
<glyph unicode=":" horiz-adv-x="514" d="M-6 0l67 221h242l-67 -221h-242zM215 721l68 221h239l-67 -221h-240z" />
<glyph unicode=";" horiz-adv-x="514" d="M-127 -119l186 338h273l-254 -338h-205zM193 721l69 221h240l-68 -221h-241z" />
<glyph unicode="&#x3c;" horiz-adv-x="1024" d="M68 590v215l886 448v-254l-616 -303l616 -305v-252z" />
<glyph unicode="=" d="M174 426v197h1051v-197h-1051zM174 780v197h1051v-197h-1051z" />
<glyph unicode="&#x3e;" horiz-adv-x="1024" d="M68 139v252l616 305l-616 303v252l886 -448v-215z" />
<glyph unicode="?" horiz-adv-x="909" d="M121 0l67 221h242l-68 -221h-241zM213 303l57 189q25 80 40.5 100t80.5 59q158 90 259.5 205t101.5 205q0 57 -52 102q-55 47 -196 47q-74 0 -246 -30l59 190q178 27 293 27q182 0 293 -90t111 -238q0 -162 -154 -309q-72 -72 -262 -205q-59 -43 -75.5 -64.5t-33.5 -76.5 l-34 -111h-242z" />
<glyph unicode="@" horiz-adv-x="1693" d="M123 496q0 160 71.5 315.5t200.5 275.5q242 223 553 224q285 0 465 -160t180 -410q0 -268 -190 -446q-82 -78 -186.5 -122t-204.5 -44q-127 0 -133 111q-82 -61 -133.5 -84t-108.5 -23q-94 0 -148.5 59.5t-54.5 163.5q0 145 107 328q76 127 179 195.5t218 68.5 q94 0 160 -63l10 26h207l-258 -542q-31 -68 -31 -86q0 -12 13.5 -22.5t27.5 -10.5q51 0 126 43t132 106q59 66 96 160t37 182q0 178 -151.5 305.5t-364.5 127.5q-272 0 -473 -198t-201 -466q0 -250 164 -413t414 -163q236 0 422 140q76 57 162 166h118q-66 -115 -116 -176.5 t-119 -112.5q-209 -156 -488 -156q-313 0 -510 207q-90 96 -141 227.5t-51 266.5zM637 301q0 -20 13.5 -34.5t33.5 -14.5q80 0 172 151q18 31 92 179q59 119 70 186q1 6 1 12q0 19 -10 34q-13 19 -38 22h-6q-72 0 -170 -146q-59 -86 -108.5 -209t-49.5 -180z" />
<glyph unicode="A" horiz-adv-x="1415" d="M-109 0l906 1366h356l129 -1366h-289l-16 295h-592l-170 -295h-324zM520 518h441l-25 707z" />
<glyph unicode="B" horiz-adv-x="1341" d="M0 0l418 1366h475q158 0 236.5 -19.5t134.5 -70.5q82 -78 82 -189q0 -78 -40 -156.5t-106 -127.5q-76 -57 -225 -88q129 -37 178 -86q74 -70 74 -189q0 -182 -148 -313q-80 -70 -184 -98.5t-274 -28.5h-621zM352 211h244q172 0 258 72q84 68 84 180q0 82 -59.5 118.5 t-194.5 36.5h-207zM537 813h200q160 0 228 45q41 27 66.5 74t25.5 98q0 72 -58 111q-49 31 -163 30h-189z" />
<glyph unicode="C" horiz-adv-x="1363" d="M125 449q0 164 79 358t204 334q109 123 259 189.5t318 66.5q211 0 343 -100.5t132 -258.5q0 -45 -6 -100h-317q12 53 12 90q0 72 -58.5 117t-148.5 45q-231 0 -393 -313q-135 -266 -135 -457q0 -111 64.5 -177.5t172.5 -66.5q219 0 330 244h313q-47 -106 -91 -168 t-111 -119q-197 -164 -445 -164q-119 0 -230.5 45t-178.5 121q-51 57 -82 143.5t-31 170.5z" />
<glyph unicode="D" horiz-adv-x="1482" d="M0 0l418 1366h428q184 0 283.5 -24.5t179.5 -88.5q164 -129 164 -368q0 -174 -70 -354.5t-189 -313.5q-113 -125 -244.5 -171t-381.5 -46h-588zM367 211h233q158 0 248 39t172 141q72 92 118 228.5t46 254.5q0 125 -58 193q-74 88 -303 88h-168z" />
<glyph unicode="E" horiz-adv-x="1146" d="M0 0l418 1366h858l-64 -211h-571l-102 -338h571l-66 -211h-569l-123 -395h637l-63 -211h-926z" />
<glyph unicode="F" horiz-adv-x="1110" d="M0 0l418 1366h897l-64 -211h-610l-113 -373h592l-63 -211h-594l-174 -571h-289z" />
<glyph unicode="G" horiz-adv-x="1443" d="M127 451q0 172 79 381.5t189 328.5q217 236 570 236q233 0 367 -91.5t134 -248.5q0 -49 -6 -111h-280q4 49 4 66q0 82 -59.5 130t-161.5 48q-254 0 -404 -246q-143 -240 -143 -457q0 -141 92 -226t248 -85q63 0 196 25l97 315h-291l63 211h588l-213 -696 q-328 -61 -518 -62q-248 0 -393 133q-72 66 -115 160.5t-43 188.5z" />
<glyph unicode="H" horiz-adv-x="1443" d="M0 0l418 1366h303l-170 -553h551l168 553h303l-416 -1366h-303l184 602h-551l-184 -602h-303z" />
<glyph unicode="I" horiz-adv-x="589" d="M0 0l418 1366h303l-418 -1366h-303z" />
<glyph unicode="J" horiz-adv-x="1124" d="M-25 309q0 41 11 105h295q-16 -57 -17 -90q0 -66 42 -107t108 -41q53 0 103 30t81 79q33 51 53.5 105t79.5 253l221 723h303l-233 -766q-74 -242 -109 -313q-164 -317 -516 -318q-188 0 -305 93t-117 247z" />
<glyph unicode="K" horiz-adv-x="1337" d="M0 0l418 1366h303l-418 -1366h-303zM553 774l608 592h367l-666 -637l352 -729h-333z" />
<glyph unicode="L" horiz-adv-x="1021" d="M0 0l418 1366h303l-354 -1155h589l-65 -211h-891z" />
<glyph unicode="M" horiz-adv-x="1951" d="M0 0l418 1366h426l45 -700q6 -74 6 -160q0 -70 -10 -252q96 227 213 412l444 700h447l-324 -1366h-311l342 1198l-754 -1198h-266l-80 1198l-344 -1198h-252z" />
<glyph unicode="N" horiz-adv-x="1435" d="M0 0l418 1366h334l149 -688q39 -184 45 -234q10 -59 33 -243q49 205 55 225q25 78 35 117l33 112l217 711h248l-418 -1366h-363l-145 635q-39 172 -70 514q-39 -215 -92 -393l-231 -756h-248z" />
<glyph unicode="O" horiz-adv-x="1458" d="M129 465q0 147 54.5 314t148.5 300q219 317 581 318q254 0 400.5 -138.5t146.5 -375.5q0 -154 -81 -355.5t-191 -320.5q-215 -238 -535 -238q-236 0 -380 136.5t-144 359.5zM418 440q0 -123 69.5 -193.5t190.5 -70.5q199 0 332 213q70 109 115.5 254t45.5 254 q0 143 -66.5 218t-191.5 75q-223 0 -350 -236q-63 -121 -104 -264.5t-41 -249.5z" />
<glyph unicode="P" horiz-adv-x="1273" d="M0 0l418 1366h495q150 0 221.5 -18.5t127.5 -69.5q104 -98 104 -244q0 -102 -50 -203.5t-134 -168.5q-164 -135 -508 -136h-223l-162 -526h-289zM514 737h186q160 0 250 60q57 39 92 100t35 125q0 82 -67 108q-55 25 -189 25h-180z" />
<glyph unicode="Q" horiz-adv-x="1447" d="M133 453q0 197 80 396.5t209 326.5q106 104 239.5 162.5t266.5 58.5q115 0 221 -44t174 -120q123 -139 123 -359q0 -250 -133 -466q-45 -74 -99.5 -128.5t-158.5 -129.5q162 51 342 51h14l-61 -201q-84 4 -142 4q-225 0 -473 -27q-66 -8 -123 -8q-211 0 -345 135.5 t-134 348.5zM422 469q0 -137 66.5 -215t183.5 -78q225 0 364 258q51 94 86 219t35 215q0 147 -68.5 234.5t-185.5 87.5q-195 0 -323 -213q-72 -117 -115 -256t-43 -252z" />
<glyph unicode="R" horiz-adv-x="1374" d="M0 0l418 1366h520q225 0 322 -66q123 -84 122 -233q0 -88 -52 -171t-136 -128q-96 -51 -281 -86q143 -12 202 -61.5t59 -157.5q0 -57 -7 -148q-6 -92 -6 -165q0 -57 8 -150h-297v33v16q0 150 9 260q4 74 4 97q0 92 -49 129q-33 23 -138 22h-239l-170 -557h-289zM522 768 h223q172 0 256 61q102 72 103 189q0 92 -74 121q-31 12 -50 14t-120 2h-219z" />
<glyph unicode="S" horiz-adv-x="1312" d="M72 399h297q6 -119 34 -153q51 -70 224 -70q133 0 217 53.5t84 137.5q0 59 -42 100t-151 86q-231 100 -305 152q-164 113 -164 282q0 197 189 318q143 92 364 92q313 0 445 -160q66 -80 63 -246h-283q-6 88 -36 123q-59 76 -205 76q-104 0 -176 -50t-72 -124 q0 -66 66 -115q33 -25 176 -90q188 -82 268 -137q152 -102 152 -258q0 -188 -183 -320q-172 -127 -430 -127q-285 0 -422 119q-57 49 -81.5 116.5t-28.5 194.5z" />
<glyph unicode="T" horiz-adv-x="1191" d="M211 1155l63 211h1178l-63 -211h-404l-352 -1155h-303l352 1155h-471z" />
<glyph unicode="U" horiz-adv-x="1437" d="M137 354q0 100 49 256l232 756h303l-252 -823q-35 -117 -35 -176q0 -84 64.5 -137.5t167.5 -53.5q162 0 247 129q55 84 117 287l236 774h303l-221 -723q-70 -225 -116 -322.5t-120 -173.5q-82 -84 -205 -131t-262 -47q-213 0 -360.5 111.5t-147.5 273.5z" />
<glyph unicode="V" horiz-adv-x="1288" d="M244 1366h297l75 -682q18 -180 19 -362q0 -61 -2 -109q90 219 198 430l371 723h307l-768 -1366h-309z" />
<glyph unicode="W" horiz-adv-x="2078" d="M244 1366h282l45 -584q10 -123 11 -227q0 -100 -2 -178q0 -6 -1 -52t-1 -85q6 16 43 108l36 101q27 70 76 186l348 731h359l55 -676q6 -66 14 -450q92 281 207 524l281 602h289l-680 -1366h-310l-67 729q-10 102 -10 209l2 170v82q-98 -289 -183 -461l-360 -729h-297z " />
<glyph unicode="X" horiz-adv-x="1423" d="M-57 0l645 721l-316 645h318l201 -475l393 475h372l-624 -664l379 -702h-332l-252 520l-414 -520h-370z" />
<glyph unicode="Y" horiz-adv-x="1265" d="M236 1366h313l149 -610l471 610h344l-708 -872l-150 -494h-303l150 494z" />
<glyph unicode="Z" horiz-adv-x="1308" d="M-2 0l45 270l993 873h-751l69 223h1055l-39 -274l-1001 -869h811l-68 -223h-1114z" />
<glyph unicode="[" horiz-adv-x="724" d="M-98 -301l518 1694h461l-64 -211h-209l-387 -1266h225l-65 -217h-479z" />
<glyph unicode="\" horiz-adv-x="1533" d="M256 1366h260l885 -1585h-262z" />
<glyph unicode="]" horiz-adv-x="724" d="M-109 -301l66 211h207l387 1266h-225l65 217h479l-516 -1694h-463z" />
<glyph unicode="^" horiz-adv-x="1024" d="M12 690l332 684h336l330 -684h-267l-231 479l-231 -479h-269z" />
<glyph unicode="_" horiz-adv-x="1024" d="M0 -98h1024v-230h-1024v230z" />
<glyph unicode="`" horiz-adv-x="1024" d="M453 1372h258l118 -301h-178z" />
<glyph unicode="a" horiz-adv-x="1153" d="M25 236q0 180 204 286q76 39 164 53.5t258 14.5h125l15 43q18 53 18 86q0 45 -37 72.5t-96 27.5q-135 0 -191 -137h-274q23 72 49.5 112t75.5 74q133 94 350 94.5t311 -88.5q76 -66 76 -149q0 -51 -37 -178l-45 -150l-33 -110l-26 -87l-18.5 -63t-16.5 -66l-14 -71h-256 q2 23 2 45l8 53q2 2 6 56q-84 -92 -163 -133t-175 -41q-129 0 -217 83q-63 62 -63 173zM291 250q0 -47 31.5 -75t87.5 -28q131 0 219 101q53 61 106 203h-80q-170 1 -254 -45q-110 -64 -110 -156z" />
<glyph unicode="b" horiz-adv-x="1157" d="M-6 0l418 1366h276l-158 -512q84 61 144.5 85t132.5 24q133 0 213 -89.5t80 -237t-60.5 -291.5t-162.5 -245q-125 -121 -287 -120q-111 0 -195 57q-45 31 -96 108l-45 -145h-260zM373 342q0 -84 45 -139.5t112 -55.5q102 0 195 140q45 68 77 159t32 154q0 92 -40 143.5 t-112 51.5q-121 0 -207 -133q-45 -66 -73.5 -157t-28.5 -163z" />
<glyph unicode="c" horiz-adv-x="1091" d="M61 315q0 117 53.5 248t139.5 223q166 176 418 177q217 0 325 -99q70 -66 70 -174q0 -29 -14 -86h-277q14 55 15 78q0 53 -40 88t-98 35q-133 0 -231 -182q-94 -178 -94 -318q0 -74 44 -121t113 -47q72 0 122 42t89 136h287q-41 -96 -77 -146t-95 -91q-139 -98 -346 -98 q-219 0 -318 112q-86 96 -86 223z" />
<glyph unicode="d" horiz-adv-x="1157" d="M63 303q0 106 41 231t107 222q143 207 358 207q176 0 279 -154l170 557h276l-299 -981q-57 -188 -90 -385h-258l29 135q-176 -156 -328 -155q-121 0 -203 93t-82 230zM330 315q0 -72 44 -120t109 -48q137 0 236 183q72 137 72 262q0 94 -43 148.5t-119 54.5 q-123 0 -211 -162t-88 -318z" />
<glyph unicode="e" horiz-adv-x="1126" d="M63 313q0 119 49.5 250t127.5 219q158 180 436 181q182 0 286.5 -80t104.5 -221q0 -88 -51 -254h-680q-16 -59 -17 -123q0 -74 44.5 -118t117.5 -44q141 0 215 168h291q-49 -113 -104 -168q-137 -143 -400 -143q-217 0 -317 92q-103 89 -103 241zM381 573h407 q12 66 13 101q0 66 -40 105.5t-104 39.5q-106 0 -192 -92q-27 -31 -84 -154z" />
<glyph unicode="f" horiz-adv-x="690" d="M41 0l238 776h-164l51 166h164l51 172q41 141 139 206.5t264 65.5q84 0 166 -22l-47 -156q-47 6 -76 6q-78 0 -129 -36q-39 -33 -63 -119l-35 -117h195l-52 -166h-188l-238 -776h-276z" />
<glyph unicode="g" horiz-adv-x="1167" d="M-47 -82h285v-12q0 -121 129 -121q139 0 215 129q29 49 71 195q-76 -57 -137 -79t-145 -22q-133 0 -217 89t-84 233q0 131 58 271t148 228q139 133 304 134q178 0 303 -181l47 160h246l-201 -657l-94 -289q-39 -117 -90.5 -183.5t-143.5 -117.5q-139 -78 -330 -78 q-365 0 -364 258v43zM336 340q0 -76 43 -120t117 -44q78 0 135 47t102 152q61 137 62 233q0 88 -41 137.5t-115 49.5q-123 0 -211 -150q-92 -153 -92 -305z" />
<glyph unicode="h" horiz-adv-x="1202" d="M-6 0l418 1366h276l-178 -584q104 96 189 138.5t180 42.5q111 0 182.5 -64.5t71.5 -165.5q0 -59 -41 -188l-168 -545h-277l176 571q12 45 13 91q0 47 -36 79.5t-87 32.5q-123 0 -213 -119q-37 -49 -53.5 -90t-61.5 -190l-115 -375h-276z" />
<glyph unicode="i" horiz-adv-x="548" d="M-6 0l289 942h276l-289 -942h-276zM346 1155l66 211h276l-65 -211h-277z" />
<glyph unicode="j" horiz-adv-x="577" d="M-295 -342l51 168q49 -8 74 -8q76 0 125 57q27 31 41 62.5t43 123.5l270 881h277l-289 -942q-39 -129 -64.5 -180t-70.5 -96q-100 -94 -279 -95q-86 0 -178 29zM373 1155l65 211h277l-66 -211h-276z" />
<glyph unicode="k" horiz-adv-x="1181" d="M-6 0l418 1366h276l-246 -801l432 377h367l-514 -412l340 -530h-330l-303 535l-164 -535h-276z" />
<glyph unicode="l" horiz-adv-x="548" d="M-6 0l418 1366h276l-418 -1366h-276z" />
<glyph unicode="m" horiz-adv-x="1822" d="M-6 0l205 668l43 155l18 76q2 2 4 18.5t4 24.5h273l-31 -160q100 96 186 138.5t187 42.5q119 0 184 -76q41 -43 51 -135q100 109 178 151q109 59 228 60q102 0 168.5 -63.5t66.5 -160.5q0 -53 -22 -131l-187 -608h-276l166 545q23 74 22 123q0 51 -27.5 78.5t-74.5 27.5 q-121 0 -209 -121q-37 -49 -54.5 -91t-56.5 -171l-120 -391h-277l145 475q39 129 39 184q0 115 -112 115q-111 0 -203 -115q-61 -72 -117 -251l-125 -408h-276z" />
<glyph unicode="n" horiz-adv-x="1198" d="M-6 0l221 721q33 104 49 221h264l-36 -178q96 94 157 131q113 68 234 68q104 0 178 -68t74 -162q0 -57 -21 -121l-188 -612h-277l170 557q18 61 19 90q0 57 -31 92t-82 35t-108.5 -27.5t-96.5 -72.5q-66 -70 -127 -273l-123 -401h-276z" />
<glyph unicode="o" horiz-adv-x="1144" d="M72 328q0 147 58 286.5t153 216.5q160 131 391 132q190 0 295.5 -95.5t105.5 -269.5q0 -100 -39 -216t-98 -192q-164 -211 -477 -210q-186 0 -287.5 91t-101.5 257zM338 324q0 -84 44 -130.5t124 -46.5q141 0 227 162q33 61 54.5 145.5t21.5 145.5q0 94 -45 144.5 t-127 50.5q-137 0 -219 -160q-80 -155 -80 -311z" />
<glyph unicode="p" horiz-adv-x="1177" d="M-117 -362l400 1304h229l-23 -137q145 158 314 158q141 0 226 -88.5t85 -235.5q0 -129 -51 -265t-135 -233q-145 -162 -346 -161q-92 0 -149.5 30.5t-123.5 114.5l-149 -487h-277zM365 328q0 -82 44 -131.5t115 -49.5q123 0 211 138q43 70 77 164q36 100 36 166 q0 77 -43 127q-45 52 -119 53q-147 0 -237 -181q-84 -167 -84 -286z" />
<glyph unicode="q" horiz-adv-x="1159" d="M68 305q0 141 57 282.5t154 237.5q133 137 311 138q86 0 144.5 -35t131.5 -129l54 143h247l-399 -1304h-276l141 460q-92 -70 -149.5 -94t-125.5 -24q-131 0 -210.5 89t-79.5 236zM334 317q0 -72 43 -121t104 -49q72 0 141.5 57.5t110.5 151.5q68 152 68 246 q0 88 -45 140.5t-121 52.5q-104 0 -182 -117q-51 -76 -85 -179.5t-34 -181.5z" />
<glyph unicode="r" horiz-adv-x="747" d="M-6 0l207 676q4 23 18 69q0 2 3 12.5t7 29t9 30.5q16 61 18 70l14 55h271l-62 -203q94 139 171 186.5t206 47.5l-70 -234q-162 -2 -246.5 -71.5t-136.5 -235.5l-133 -432h-276z" />
<glyph unicode="s" horiz-adv-x="1007" d="M12 221q0 25 6 62h258q-4 -33 -4 -41q0 -51 44 -85t112 -34q88 0 145.5 36t57.5 91q0 41 -25.5 64.5t-107.5 58.5q-182 74 -253 138t-71 159q0 133 117 213t313 80q176 0 273.5 -60.5t97.5 -169.5q0 -33 -2 -53h-252q4 33 4 39q0 45 -40 72.5t-103 27.5q-68 0 -112 -31.5 t-44 -80.5q0 -45 36 -73t152 -75q143 -55 206 -117.5t63 -150.5q0 -137 -137.5 -224t-354.5 -87q-180 0 -280 65q-43 29 -71 79t-28 97z" />
<glyph unicode="t" horiz-adv-x="745" d="M113 776l51 166h182l57 186l304 86l-84 -272h192l-51 -166h-191l-120 -389q-33 -106 -33 -145q0 -82 94 -82q37 0 113 16l-54 -176q-94 -20 -174 -20q-117 0 -190.5 59t-73.5 154q0 57 47 213l115 370h-184z" />
<glyph unicode="u" horiz-adv-x="1193" d="M76 221q0 45 51 213l156 508h276l-160 -524q-27 -84 -26 -144q0 -51 27.5 -78.5t76.5 -27.5q113 0 221 154q68 96 140 333l88 287h276l-192 -625q0 -4 -4.5 -14t-9.5 -27.5t-9 -29.5q-39 -113 -57 -246h-285l45 174q-109 -109 -188.5 -151.5t-173.5 -42.5 q-109 0 -180.5 68.5t-71.5 172.5z" />
<glyph unicode="v" horiz-adv-x="1042" d="M111 942h270l51 -500q20 -195 21 -223q0 -27 -2 -49q70 154 135 272l270 500h258l-545 -942h-309z" />
<glyph unicode="w" horiz-adv-x="1714" d="M111 942h266l39 -323q16 -147 16 -349q0 -49 -2 -88q80 225 178 402l203 358h295l45 -285q20 -133 20 -311l-4 -164q43 127 72 187l90 184l191 389h266l-543 -942h-270l-41 428q-6 59 -6 184q0 90 -2 162q-51 -143 -131 -291l-254 -483h-273z" />
<glyph unicode="x" horiz-adv-x="1134" d="M-51 0l440 502l-233 440h299l127 -289l241 289h340l-463 -465l306 -477h-322l-160 332l-241 -332h-334z" />
<glyph unicode="y" horiz-adv-x="1052" d="M94 -362l225 352l-208 952h288l82 -721l365 721h278l-438 -754l-94 -163l-96 -162l-121 -225h-281z" />
<glyph unicode="z" horiz-adv-x="980" d="M-39 0l27 203l643 561h-481l53 178h801l-21 -174l-678 -590h549l-53 -178h-840z" />
<glyph unicode="{" horiz-adv-x="724" d="M-16 -141q0 59 24 137l84 276q16 57 17 97q0 63 -76 80l65 213q68 14 103 47.5t59 111.5l84 279q47 158 142.5 225.5t265.5 67.5q37 0 75 -2l62 -2l-68 -222h-37q-104 0 -140 -24.5t-64 -120.5l-66 -219q-31 -106 -75 -158.5t-130 -97.5q70 -55 70 -127q0 -57 -23 -131 l-67 -217q-20 -63 -21 -92q0 -55 135 -56q20 0 37 2l-67 -223h-64q-18 0 -35.5 -1t-27.5 -1h-13q-129 0 -189 38t-60 120z" />
<glyph unicode="|" horiz-adv-x="1024" d="M383 -342v1708h256v-1708h-256z" />
<glyph unicode="}" horiz-adv-x="724" d="M-117 -295l68 221h37q104 0 140 24.5t65 121.5l65 219q31 106 74 158.5t129 97.5q-70 55 -70 127q0 47 25 131l65 217q23 78 23 92q0 55 -135 55q-20 0 -39 -2l69 224h62q18 0 35.5 1t28.5 1h14q129 0 189 -39t60 -121q0 -55 -24 -135l-84 -277q-18 -59 -18 -96 q0 -63 75 -80l-63 -213q-68 -14 -102.5 -48t-59.5 -112l-86 -278q-47 -158 -141.5 -225.5t-264.5 -67.5q-37 0 -75 2z" />
<glyph unicode="~" horiz-adv-x="1366" d="M184 1243q8 23 17 35q59 137 123.5 191.5t169.5 54.5q66 0 213 -54q133 -49 178 -49q51 0 81.5 21.5t67.5 85.5l146 -84q-43 -92 -74 -136t-74 -75q-82 -59 -176 -59q-49 0 -205 55q-131 49 -174 49q-51 0 -81.5 -25.5t-69.5 -101.5z" />
<glyph unicode="&#xa1;" horiz-adv-x="565" d="M-137 -424l352 1038h211l-270 -1038h-293zM221 717l70 225h254l-70 -225h-254z" />
<glyph unicode="&#xa2;" d="M207 549q0 145 70.5 294.5t183.5 243.5q150 123 352 132l45 149h117l-47 -154q135 -29 180 -59q113 -74 113 -211q0 -31 -11 -70h-264q4 41 4 52q0 88 -76 114l-202 -665q119 18 176 137h266q-59 -139 -186 -217t-307 -84l-52 -170h-116l51 170q-129 25 -189 80 q-108 92 -108 258zM457 553q0 -119 102 -166l203 666q-59 -8 -107.5 -50t-99.5 -133q-98 -170 -98 -317z" />
<glyph unicode="&#xa3;" d="M-10 0l51 170h117l155 510h-170l54 170h170l47 160q59 203 188 286q152 100 410 101q170 0 265 -64.5t95 -177.5q0 -43 -22 -108h-265q8 35 9 71q0 53 -40 83t-110 30q-98 0 -160.5 -53.5t-95.5 -167.5l-47 -160h293l-51 -170h-295l-156 -510h651l-53 -170h-1040z" />
<glyph unicode="&#xa4;" horiz-adv-x="1366" d="M141 1264l140 141l211 -213q139 92 288 92q145 0 281 -88l211 207l137 -139l-207 -207q94 -147 94 -287q0 -141 -90 -281l209 -208l-137 -140l-209 209q-139 -94 -291 -94q-139 0 -289 92l-208 -207l-138 140l209 208q-90 129 -90 281q0 150 92 283zM496 770 q0 -117 84 -201t198 -84q119 0 202 84t83 201t-83 201t-198 84q-121 0 -203.5 -83t-82.5 -202z" />
<glyph unicode="&#xa5;" d="M70 451l51 170h356l-43 157h-264l51 170h168l-113 418h299l117 -608l436 608h330l-321 -418h178l-53 -170h-256l-123 -157h331l-53 -170h-389l-139 -451h-275l140 451h-428z" />
<glyph unicode="&#xa6;" horiz-adv-x="1024" d="M383 313h256v-655h-256v655zM383 657v709h256v-709h-256z" />
<glyph unicode="&#xa7;" d="M14 -131l64 209q252 -150 409 -150q84 0 138.5 39t54.5 99q0 49 -35 88q-25 25 -52.5 42t-170.5 97q-129 72 -184.5 137.5t-55.5 142.5q0 66 35 132.5t92 111.5q51 41 160 94q-59 76 -59 158q0 135 113.5 226.5t281.5 91.5q219 0 399 -93l-51 -166q-180 98 -326 99 q-82 0 -135 -36t-53 -93q0 -72 121 -133q190 -94 282 -162q104 -76 105 -189q0 -102 -58.5 -185t-197.5 -181q43 -80 43 -142q0 -150 -129 -253t-318 -103q-242 0 -473 119zM416 637q0 -45 33.5 -79t125.5 -83q90 -49 195 -121q139 96 139 199q0 45 -35.5 83t-119.5 81 q-74 37 -172 100q-94 -43 -130 -82t-36 -98z" />
<glyph unicode="&#xa8;" horiz-adv-x="1024" d="M381 1110l65 215h226l-66 -215h-225zM823 1110l68 215h223l-65 -215h-226z" />
<glyph unicode="&#xa9;" horiz-adv-x="1597" d="M154 688q0 293 210.5 499t509.5 206q285 0 492 -210t207 -499q0 -295 -208 -503t-501 -208q-297 0 -503.5 208t-206.5 507zM270 688q0 -250 173 -424t421 -174q244 0 418 174t174 420q0 242 -173 417t-411 175q-270 0 -448 -197q-154 -170 -154 -391zM483 672 q0 195 102.5 305t282.5 110q215 0 303 -133q33 -51 35 -135h-186q-4 66 -42 102.5t-106 36.5q-100 0 -152 -72.5t-52 -211.5q0 -129 50 -197.5t144 -68.5q141 0 160 143h195q-10 -127 -104.5 -199.5t-246.5 -72.5q-178 0 -280.5 105.5t-102.5 287.5z" />
<glyph unicode="&#xaa;" horiz-adv-x="833" d="M143 586l33 108h619l-33 -108h-619zM260 961q0 111 131 174q82 41 266 41h70l4 16q4 12 6 22.5t3 14.5t2 7t1 5q0 25 -21.5 40t-55.5 15q-80 0 -111 -82h-186q27 86 84 125q84 57 223 58q109 0 178.5 -41t69.5 -107q0 -33 -23 -106l-27 -88q-47 -156 -63 -242h-174v33 l6 33v12q-90 -90 -201 -90q-82 0 -132 44t-50 116zM442 973q0 -55 68 -55q125 0 186 159h-41q-100 0 -156.5 -27.5t-56.5 -76.5z" />
<glyph unicode="&#xab;" horiz-adv-x="882" d="M68 465l311 440h176l-285 -454l84 -392h-159zM397 465l310 440h178l-287 -454l92 -392h-162z" />
<glyph unicode="&#xac;" horiz-adv-x="1024" d="M68 307v240h886v-547h-256v307h-630z" />
<glyph unicode="&#xad;" horiz-adv-x="528" d="M-18 406l73 243h529l-74 -243h-528z" />
<glyph unicode="&#xae;" horiz-adv-x="1597" d="M154 688q0 293 210.5 499t509.5 206q285 0 492 -210t207 -499q0 -295 -208 -503t-501 -208q-297 0 -503.5 208t-206.5 507zM270 688q0 -250 173 -424t421 -174q244 0 418 174t174 420q0 242 -173 417t-411 175q-270 0 -448 -197q-154 -170 -154 -391zM551 293v780h350 q147 0 217 -55q72 -59 72 -150q0 -92 -62 -143q-25 -18 -75 -41q59 -23 80.5 -52.5t31.5 -109.5l13 -88l4 -37q6 -59 37 -104h-193q-16 27 -29 127l-10 92q-6 57 -29.5 76.5t-83.5 19.5h-143v-315h-180zM731 739h129q145 0 146 105q0 51 -33 74.5t-107 23.5h-135v-203z" />
<glyph unicode="&#xaf;" horiz-adv-x="1024" d="M403 1120l54 172h657l-53 -172h-658z" />
<glyph unicode="&#xb0;" horiz-adv-x="661" d="M270 1133q0 109 78 184.5t191 75.5q104 0 181 -78t77 -185q0 -109 -77 -186.5t-185 -77.5q-111 0 -188 78t-77 189zM418 1130.5q0 -47.5 33.5 -81t81 -33.5t81 32.5t33.5 80t-33.5 81t-78.5 33.5q-49 0 -83 -32.5t-34 -80z" />
<glyph unicode="&#xb1;" d="M102 0v205h1051v-205h-1051zM102 737v205h418v410h215v-410h418v-205h-418v-413h-215v413h-418z" />
<glyph unicode="&#xb2;" horiz-adv-x="819" d="M125 547l47 155q178 90 356 224q176 131 177 233q0 45 -33 73t-84 28q-113 0 -113 -113v-14h-182q2 70 23.5 111.5t70.5 80.5q80 59 209 59q139 0 217 -55t78 -153q0 -154 -205 -299q-154 -109 -297 -189h420l-43 -141h-641z" />
<glyph unicode="&#xb3;" horiz-adv-x="819" d="M168 735q0 18 6 51h188q-2 -133 119 -133q70 0 117 40t47 100q0 117 -174 116h-12l35 117q20 -2 49 -2q82 0 131 34t49 89q0 49 -33 81t-84 32q-94 0 -114 -113h-193q33 115 90 164q86 74 232 73q121 0 200.5 -61t79.5 -156q0 -78 -55 -131t-154 -71q139 -51 139 -174 q0 -115 -104 -189t-268 -74q-147 0 -223 70q-68 61 -68 137z" />
<glyph unicode="&#xb4;" horiz-adv-x="1024" d="M537 1071l247 301h291l-338 -301h-200z" />
<glyph unicode="&#xb5;" horiz-adv-x="1193" d="M-117 -362l400 1304h278l-162 -524q-25 -84 -24 -144q0 -51 27.5 -78.5t76.5 -27.5q115 0 219 154q66 96 140 333l88 287h276l-190 -625q0 -4 -4 -14t-9.5 -27.5l-9.5 -29.5q-39 -113 -57 -246h-287l47 174q-109 -109 -188.5 -151.5t-175.5 -42.5q-41 0 -90 14l-78 -356 h-277z" />
<glyph unicode="&#xb6;" d="M193 891q0 106 50 205.5t134 163.5q145 106 416 106h675l-61 -197h-147l-437 -1429h-217l436 1429h-174l-436 -1429h-217l281 917q-12 -2 -29 -2q-131 0 -202.5 61.5t-71.5 174.5z" />
<glyph unicode="&#xb7;" horiz-adv-x="514" d="M106 367l68 221h242l-68 -221h-242z" />
<glyph unicode="&#xb8;" horiz-adv-x="1024" d="M90 -416l256 314h166l-178 -314h-244z" />
<glyph unicode="&#xb9;" horiz-adv-x="819" d="M406 1092l51 168q150 37 223 106h170l-250 -819h-192l188 620q-69 -55 -190 -75z" />
<glyph unicode="&#xba;" horiz-adv-x="833" d="M143 586l33 108h619l-33 -108h-619zM291 1018q0 90 35.5 172t95.5 127q98 80 248 80q123 0 190.5 -59.5t67.5 -166.5q0 -137 -84 -241q-102 -129 -301 -129q-119 0 -185.5 57.5t-66.5 159.5zM473 1022q0 -106 100 -107q82 0 129 91q43 80 43 163q0 113 -102 113 q-78 0 -125 -88q-45 -84 -45 -172z" />
<glyph unicode="&#xbb;" horiz-adv-x="882" d="M6 59l287 455l-92 391h161l132 -405l-310 -441h-178zM336 59l285 455l-86 391h159l129 -405l-311 -441h-176z" />
<glyph unicode="&#xbc;" horiz-adv-x="2117" d="M406 1092l51 168q150 37 223 106h170l-250 -819h-192l188 620q-69 -55 -190 -75zM483 0l1106 1366h178l-1108 -1366h-176zM1243 176l45 148l508 495h229l-159 -516h180l-39 -127h-180l-53 -176h-187l53 176h-397zM1430 303h249l62 199q14 47 69 172q-113 -125 -133 -142z " />
<glyph unicode="&#xbd;" horiz-adv-x="2117" d="M406 1092l51 168q150 37 223 106h170l-250 -819h-192l188 620q-69 -55 -190 -75zM483 0l1106 1366h178l-1108 -1366h-176zM1257 0l48 156q193 100 356 223q176 131 176 231q0 45 -31.5 73t-85.5 28q-113 0 -112 -111v-14h-185q6 123 97 190q80 59 206 60q139 0 218 -55.5 t79 -153.5q0 -147 -204 -297q-141 -102 -299 -189h422l-44 -141h-641z" />
<glyph unicode="&#xbe;" horiz-adv-x="2117" d="M168 735q0 18 6 51h188q-2 -133 119 -133q70 0 117 40t47 100q0 117 -174 116h-12l35 117q20 -2 49 -2q82 0 131 34t49 89q0 49 -33 81t-84 32q-94 0 -114 -113h-193q33 115 90 164q86 74 232 73q121 0 200.5 -61t79.5 -156q0 -78 -55 -131t-154 -71q139 -51 139 -174 q0 -115 -104 -189t-268 -74q-147 0 -223 70q-68 61 -68 137zM516 0l1106 1366h178l-1106 -1366h-178zM1243 176l45 148l506 495h229l-157 -516h180l-39 -127h-180l-53 -176h-187l53 176h-397zM1430 303h249l60 199q14 47 69 172q-90 -102 -133 -142z" />
<glyph unicode="&#xbf;" horiz-adv-x="909" d="M-98 -127q0 160 151 309q74 72 264 205q57 41 74 62.5t35 78.5l33 111h243l-59 -188q-25 -80 -40 -100.5t-81 -59.5q-156 -88 -257 -204t-101 -206q0 -57 51 -102q55 -47 195 -47q80 0 245 30l-57 -190q-180 -27 -293 -27q-182 0 -292.5 90.5t-110.5 237.5zM483 721 l70 221h242l-68 -221h-244z" />
<glyph unicode="&#xc0;" horiz-adv-x="1415" d="M-109 0l906 1366h356l129 -1366h-289l-16 295h-592l-170 -295h-324zM520 518h441l-25 707zM707 1796h258l118 -301h-178z" />
<glyph unicode="&#xc1;" horiz-adv-x="1415" d="M-109 0l906 1366h356l129 -1366h-289l-16 295h-592l-170 -295h-324zM520 518h441l-25 707zM905 1495l248 301h291l-338 -301h-201z" />
<glyph unicode="&#xc2;" horiz-adv-x="1415" d="M-109 0l906 1366h356l129 -1366h-289l-16 295h-592l-170 -295h-324zM520 518h441l-25 707zM633 1495l309 301h297l160 -301h-225l-107 158l-180 -158h-254z" />
<glyph unicode="&#xc3;" horiz-adv-x="1415" d="M-109 0l906 1366h356l129 -1366h-289l-16 295h-592l-170 -295h-324zM520 518h441l-25 707zM653 1528q27 106 82 162q80 80 183 79q78 0 167 -65q57 -45 99 -45q55 0 88 72h153q-29 -109 -97 -170.5t-161 -61.5q-72 0 -159 55q-74 47 -117 48q-63 0 -92 -74h-146z" />
<glyph unicode="&#xc4;" horiz-adv-x="1415" d="M-109 0l906 1366h356l129 -1366h-289l-16 295h-592l-170 -295h-324zM520 518h441l-25 707zM682 1520l66 215h225l-66 -215h-225zM1139 1520l65 215h226l-66 -215h-225z" />
<glyph unicode="&#xc5;" horiz-adv-x="1415" d="M-109 0l906 1366h356l129 -1366h-289l-16 295h-592l-170 -295h-324zM520 518h441l-25 707zM817 1632q0 90 63.5 143.5t170.5 53.5q96 0 156.5 -44t60.5 -114q0 -92 -66.5 -147.5t-175.5 -55.5q-94 0 -151.5 45t-57.5 119zM950 1636q0 -80 86 -80q47 0 73 28t26 77 q0 78 -84 78q-45 0 -73 -29t-28 -74z" />
<glyph unicode="&#xc6;" horiz-adv-x="1961" d="M-143 0l1085 1366h1143l-66 -211h-663l-41 -338h602l-64 -211h-565l-51 -395h567l-63 -211h-799l37 303h-557l-236 -303h-329zM582 514h426l82 678z" />
<glyph unicode="&#xc7;" horiz-adv-x="1363" d="M125 453q0 162 80 355t203 333q227 256 577 256q213 0 344 -100.5t131 -262.5q0 -43 -6 -96h-317q12 49 12 86q0 74 -57.5 120t-149.5 46q-231 0 -393 -313q-135 -266 -135 -455q0 -113 64.5 -179.5t172.5 -66.5q219 0 330 244h313q-49 -109 -92 -169.5t-110 -117.5 q-197 -164 -445 -164q-119 0 -231.5 45t-177.5 121q-51 59 -82 145.5t-31 172.5zM289 -428l262 326h166l-187 -326h-241z" />
<glyph unicode="&#xc8;" horiz-adv-x="1146" d="M0 0l418 1366h858l-64 -211h-571l-102 -338h571l-66 -211h-569l-123 -395h637l-63 -211h-926zM610 1796h258l119 -301h-178z" />
<glyph unicode="&#xc9;" horiz-adv-x="1146" d="M0 0l418 1366h858l-64 -211h-571l-102 -338h571l-66 -211h-569l-123 -395h637l-63 -211h-926zM768 1495l248 301h291l-338 -301h-201z" />
<glyph unicode="&#xca;" horiz-adv-x="1146" d="M0 0l418 1366h858l-64 -211h-571l-102 -338h571l-66 -211h-569l-123 -395h637l-63 -211h-926zM502 1495l309 301h297l160 -301h-226l-106 158l-180 -158h-254z" />
<glyph unicode="&#xcb;" horiz-adv-x="1146" d="M0 0l418 1366h858l-64 -211h-571l-102 -338h571l-66 -211h-569l-123 -395h637l-63 -211h-926zM549 1520l65 215h226l-66 -215h-225zM1006 1520l65 215h225l-65 -215h-225z" />
<glyph unicode="&#xcc;" horiz-adv-x="589" d="M0 0l418 1366h303l-418 -1366h-303zM324 1796h258l106 -301h-178z" />
<glyph unicode="&#xcd;" horiz-adv-x="589" d="M0 0l418 1366h303l-418 -1366h-303zM510 1495l233 301h291l-323 -301h-201z" />
<glyph unicode="&#xce;" horiz-adv-x="589" d="M0 0l418 1366h303l-418 -1366h-303zM270 1495l281 301h289l129 -301h-219l-78 158l-154 -158h-248z" />
<glyph unicode="&#xcf;" horiz-adv-x="589" d="M0 0l418 1366h303l-418 -1366h-303zM311 1520l66 215h225l-65 -215h-226zM686 1520l66 215h225l-66 -215h-225z" />
<glyph unicode="&#xd0;" horiz-adv-x="1482" d="M0 0l190 623h-143l51 170h144l176 573h428q184 0 283.5 -24.5t179.5 -88.5q164 -129 164 -370q0 -172 -70 -352.5t-189 -313.5q-113 -125 -244.5 -171t-381.5 -46h-588zM367 211h233q158 0 248 39t172 143q72 90 118 226.5t46 252.5q0 123 -58 195q-74 88 -303 88h-168 l-110 -362h315l-53 -170h-313z" />
<glyph unicode="&#xd1;" horiz-adv-x="1435" d="M0 0l418 1366h334l149 -688q39 -184 45 -234q10 -59 33 -243q49 205 55 225q25 78 35 117l33 112l217 711h248l-418 -1366h-363l-145 635q-39 172 -70 514q-39 -215 -92 -393l-231 -756h-248zM698 1528q27 106 82 162q80 80 183 79q78 0 167 -65q57 -45 99 -45 q55 0 88 72h153q-29 -109 -97 -170.5t-161 -61.5q-72 0 -159 55q-74 47 -117 48q-63 0 -92 -74h-146z" />
<glyph unicode="&#xd2;" horiz-adv-x="1458" d="M129 465q0 147 54.5 314t148.5 300q219 317 581 318q254 0 400.5 -138.5t146.5 -375.5q0 -154 -81 -355.5t-191 -320.5q-215 -238 -535 -238q-236 0 -380 136.5t-144 359.5zM418 440q0 -123 69.5 -193.5t190.5 -70.5q199 0 332 213q70 109 115.5 254t45.5 254 q0 143 -66.5 218t-191.5 75q-223 0 -350 -236q-63 -121 -104 -264.5t-41 -249.5zM754 1796h258l118 -301h-178z" />
<glyph unicode="&#xd3;" horiz-adv-x="1458" d="M129 465q0 147 54.5 314t148.5 300q219 317 581 318q254 0 400.5 -138.5t146.5 -375.5q0 -154 -81 -355.5t-191 -320.5q-215 -238 -535 -238q-236 0 -380 136.5t-144 359.5zM418 440q0 -123 69.5 -193.5t190.5 -70.5q199 0 332 213q70 109 115.5 254t45.5 254 q0 143 -66.5 218t-191.5 75q-223 0 -350 -236q-63 -121 -104 -264.5t-41 -249.5zM885 1495l248 301h290l-338 -301h-200z" />
<glyph unicode="&#xd4;" horiz-adv-x="1458" d="M129 465q0 147 54.5 314t148.5 300q219 317 581 318q254 0 400.5 -138.5t146.5 -375.5q0 -154 -81 -355.5t-191 -320.5q-215 -238 -535 -238q-236 0 -380 136.5t-144 359.5zM418 440q0 -123 69.5 -193.5t190.5 -70.5q199 0 332 213q70 109 115.5 254t45.5 254 q0 143 -66.5 218t-191.5 75q-223 0 -350 -236q-63 -121 -104 -264.5t-41 -249.5zM657 1495l310 301h297l159 -301h-225l-106 158l-181 -158h-254z" />
<glyph unicode="&#xd5;" horiz-adv-x="1458" d="M129 465q0 147 54.5 314t148.5 300q219 317 581 318q254 0 400.5 -138.5t146.5 -375.5q0 -154 -81 -355.5t-191 -320.5q-215 -238 -535 -238q-236 0 -380 136.5t-144 359.5zM418 440q0 -123 69.5 -193.5t190.5 -70.5q199 0 332 213q70 109 115.5 254t45.5 254 q0 143 -66.5 218t-191.5 75q-223 0 -350 -236q-63 -121 -104 -264.5t-41 -249.5zM717 1528q27 106 82 162q80 80 182 79q78 0 168 -65q57 -45 98 -45q55 0 88 72h154q-29 -109 -97.5 -170.5t-160.5 -61.5q-72 0 -160 55q-74 47 -117 48q-66 0 -92 -74h-145z" />
<glyph unicode="&#xd6;" horiz-adv-x="1458" d="M129 465q0 147 54.5 314t148.5 300q219 317 581 318q254 0 400.5 -138.5t146.5 -375.5q0 -154 -81 -355.5t-191 -320.5q-215 -238 -535 -238q-236 0 -380 136.5t-144 359.5zM418 440q0 -123 69.5 -193.5t190.5 -70.5q199 0 332 213q70 109 115.5 254t45.5 254 q0 143 -66.5 218t-191.5 75q-223 0 -350 -236q-63 -121 -104 -264.5t-41 -249.5zM705 1520l65 215h225l-65 -215h-225zM1161 1520l66 215h225l-66 -215h-225z" />
<glyph unicode="&#xd7;" d="M197 1018l153 156l336 -338l338 338l145 -142l-335 -340l346 -338l-152 -155l-342 338l-340 -338l-145 141l336 342z" />
<glyph unicode="&#xd8;" horiz-adv-x="1458" d="M104 4l125 148q-100 139 -100 313q0 147 54.5 312t148.5 302q219 317 575 318q203 0 346 -90l133 151l99 -84l-137 -153q111 -131 110 -318q0 -170 -77.5 -370.5t-194.5 -325.5q-219 -238 -533 -238q-184 0 -327 92l-127 -143zM418 444q0 -31 6 -75l663 761 q-70 59 -180 60q-221 0 -344 -236q-63 -121 -104 -263.5t-41 -246.5zM487 244q86 -68 191 -68q199 0 332 213q72 117 116 261q43 146 43 268q0 37 -14 100z" />
<glyph unicode="&#xd9;" horiz-adv-x="1437" d="M137 354q0 100 49 256l232 756h303l-252 -823q-35 -117 -35 -176q0 -84 64.5 -137.5t167.5 -53.5q162 0 247 129q55 84 117 287l236 774h303l-221 -723q-70 -225 -116 -322.5t-120 -173.5q-82 -84 -205 -131t-262 -47q-213 0 -360.5 111.5t-147.5 273.5zM745 1796h259 l118 -301h-178z" />
<glyph unicode="&#xda;" horiz-adv-x="1437" d="M137 354q0 100 49 256l232 756h303l-252 -823q-35 -117 -35 -176q0 -84 64.5 -137.5t167.5 -53.5q162 0 247 129q55 84 117 287l236 774h303l-221 -723q-70 -225 -116 -322.5t-120 -173.5q-82 -84 -205 -131t-262 -47q-213 0 -360.5 111.5t-147.5 273.5zM895 1495 l248 301h291l-338 -301h-201z" />
<glyph unicode="&#xdb;" horiz-adv-x="1437" d="M137 354q0 100 49 256l232 756h303l-252 -823q-35 -117 -35 -176q0 -84 64.5 -137.5t167.5 -53.5q162 0 247 129q55 84 117 287l236 774h303l-221 -723q-70 -225 -116 -322.5t-120 -173.5q-82 -84 -205 -131t-262 -47q-213 0 -360.5 111.5t-147.5 273.5zM651 1495 l310 301h296l160 -301h-225l-107 158l-180 -158h-254z" />
<glyph unicode="&#xdc;" horiz-adv-x="1437" d="M137 354q0 100 49 256l232 756h303l-252 -823q-35 -117 -35 -176q0 -84 64.5 -137.5t167.5 -53.5q162 0 247 129q55 84 117 287l236 774h303l-221 -723q-70 -225 -116 -322.5t-120 -173.5q-82 -84 -205 -131t-262 -47q-213 0 -360.5 111.5t-147.5 273.5zM700 1520l66 215 h225l-65 -215h-226zM1157 1520l66 215h225l-66 -215h-225z" />
<glyph unicode="&#xdd;" horiz-adv-x="1265" d="M236 1366h313l149 -610l471 610h344l-708 -872l-150 -494h-303l150 494zM797 1495l247 301h291l-338 -301h-200z" />
<glyph unicode="&#xde;" horiz-adv-x="1273" d="M0 0l418 1366h289l-60 -192h209q150 0 221.5 -18.5t126.5 -70.5q104 -98 105 -243q0 -102 -50.5 -202.5t-134.5 -168.5q-164 -135 -510 -135h-223l-102 -336h-289zM457 547h186q160 0 250 59q57 39 92 100.5t35 122.5q0 82 -68 109q-55 25 -190 25h-178z" />
<glyph unicode="&#xdf;" horiz-adv-x="1310" d="M-6 0l289 942q39 125 76.5 192.5t99.5 118.5q158 133 413 133q162 0 250 -63t88 -180q0 -100 -82 -182q-35 -35 -170 -113q-82 -47 -81 -90q0 -39 71 -84q156 -92 199 -142q61 -70 61 -172q0 -166 -137 -273t-350 -107q-143 0 -228 52t-85 138q0 35 18 88h223 q-6 -31 -6 -41q0 -31 26.5 -50.5t71.5 -19.5q78 0 139.5 58.5t61.5 134.5q0 51 -35 90t-139 107q-84 53 -117 97t-33 101q0 63 50 119q29 33 129 107q86 61 116.5 98t30.5 78q0 39 -29.5 60.5t-78.5 21.5q-193 0 -281 -291l-285 -928h-276z" />
<glyph unicode="&#xe0;" horiz-adv-x="1153" d="M25 236q0 180 204 286q76 39 164 53.5t258 14.5h125l15 43q18 53 18 86q0 45 -37 72.5t-96 27.5q-135 0 -191 -137h-274q23 72 49.5 112t75.5 74q133 94 350 94.5t311 -88.5q76 -66 76 -149q0 -51 -37 -178l-45 -150l-33 -110l-26 -87l-18.5 -63t-16.5 -66l-14 -71h-256 q2 23 2 45l8 53q2 2 6 56q-84 -92 -163 -133t-175 -41q-129 0 -217 83q-63 62 -63 173zM291 250q0 -47 31.5 -75t87.5 -28q131 0 219 101q53 61 106 203h-80q-170 1 -254 -45q-110 -64 -110 -156zM473 1372h258l119 -301h-178z" />
<glyph unicode="&#xe1;" horiz-adv-x="1153" d="M25 236q0 180 204 286q76 39 164 53.5t258 14.5h125l15 43q18 53 18 86q0 45 -37 72.5t-96 27.5q-135 0 -191 -137h-274q23 72 49.5 112t75.5 74q133 94 350 94.5t311 -88.5q76 -66 76 -149q0 -51 -37 -178l-45 -150l-33 -110l-26 -87l-18.5 -63t-16.5 -66l-14 -71h-256 q2 23 2 45l8 53q2 2 6 56q-84 -92 -163 -133t-175 -41q-129 0 -217 83q-63 62 -63 173zM291 250q0 -47 31.5 -75t87.5 -28q131 0 219 101q53 61 106 203h-80q-170 1 -254 -45q-110 -64 -110 -156zM625 1071l247 301h291l-338 -301h-200z" />
<glyph unicode="&#xe2;" horiz-adv-x="1153" d="M25 236q0 180 204 286q76 39 164 53.5t258 14.5h125l15 43q18 53 18 86q0 45 -37 72.5t-96 27.5q-135 0 -191 -137h-274q23 72 49.5 112t75.5 74q133 94 350 94.5t311 -88.5q76 -66 76 -149q0 -51 -37 -178l-45 -150l-33 -110l-26 -87l-18.5 -63t-16.5 -66l-14 -71h-256 q2 23 2 45l8 53q2 2 6 56q-84 -92 -163 -133t-175 -41q-129 0 -217 83q-63 62 -63 173zM291 250q0 -47 31.5 -75t87.5 -28q131 0 219 101q53 61 106 203h-80q-170 1 -254 -45q-110 -64 -110 -156zM406 1071l309 301h297l159 -301h-225l-106 158l-181 -158h-253z" />
<glyph unicode="&#xe3;" horiz-adv-x="1153" d="M25 236q0 180 204 286q76 39 164 53.5t258 14.5h125l15 43q18 53 18 86q0 45 -37 72.5t-96 27.5q-135 0 -191 -137h-274q23 72 49.5 112t75.5 74q133 94 350 94.5t311 -88.5q76 -66 76 -149q0 -51 -37 -178l-45 -150l-33 -110l-26 -87l-18.5 -63t-16.5 -66l-14 -71h-256 q2 23 2 45l8 53q2 2 6 56q-84 -92 -163 -133t-175 -41q-129 0 -217 83q-63 62 -63 173zM291 250q0 -47 31.5 -75t87.5 -28q131 0 219 101q53 61 106 203h-80q-170 1 -254 -45q-110 -64 -110 -156zM399 1116q27 106 82 162q80 80 183 80q78 0 167 -66q57 -45 99 -45 q55 0 88 72h153q-29 -109 -97 -170.5t-161 -61.5q-76 0 -159 56q-76 47 -117 47q-63 0 -92 -74h-146z" />
<glyph unicode="&#xe4;" horiz-adv-x="1153" d="M25 236q0 180 204 286q76 39 164 53.5t258 14.5h125l15 43q18 53 18 86q0 45 -37 72.5t-96 27.5q-135 0 -191 -137h-274q23 72 49.5 112t75.5 74q133 94 350 94.5t311 -88.5q76 -66 76 -149q0 -51 -37 -178l-45 -150l-33 -110l-26 -87l-18.5 -63t-16.5 -66l-14 -71h-256 q2 23 2 45l8 53q2 2 6 56q-84 -92 -163 -133t-175 -41q-129 0 -217 83q-63 62 -63 173zM291 250q0 -47 31.5 -75t87.5 -28q131 0 219 101q53 61 106 203h-80q-170 1 -254 -45q-110 -64 -110 -156zM455 1110l65 215h225l-65 -215h-225zM897 1110l68 215h223l-66 -215h-225z " />
<glyph unicode="&#xe5;" horiz-adv-x="1153" d="M25 236q0 180 204 286q76 39 164 53.5t258 14.5h125l15 43q18 53 18 86q0 45 -37 72.5t-96 27.5q-135 0 -191 -137h-274q23 72 49.5 112t75.5 74q133 94 350 94.5t311 -88.5q76 -66 76 -149q0 -51 -37 -178l-45 -150l-33 -110l-26 -87l-18.5 -63t-16.5 -66l-14 -71h-256 q2 23 2 45l8 53q2 2 6 56q-84 -92 -163 -133t-175 -41q-129 0 -217 83q-63 62 -63 173zM291 250q0 -47 31.5 -75t87.5 -28q131 0 219 101q53 61 106 203h-80q-170 0 -254 -45q-110 -64 -110 -156zM565 1229q0 90 63.5 143t170.5 53q96 0 156.5 -44t60.5 -113 q0 -92 -66.5 -147.5t-175.5 -55.5q-94 0 -151.5 45t-57.5 119zM698 1233q0 -80 86 -80q47 0 73 27.5t26 76.5q0 78 -84 78q-45 0 -73 -28.5t-28 -73.5z" />
<glyph unicode="&#xe6;" horiz-adv-x="1781" d="M14 233q0 100 71 179.5t198 119.5q121 41 374 41h105q35 104 35 146q0 45 -36 72.5t-95 27.5q-139 0 -193 -141h-272q82 285 475 285q203 0 319 -95q152 94 342 95q182 0 287 -81t105 -225q0 -111 -52 -249h-684q-14 -88 -14 -127q0 -70 45 -114t117 -44q152 0 221 168 h278q-59 -133 -124 -193q-135 -119 -381 -118q-137 0 -222.5 35.5t-142.5 119.5q-104 -84 -203.5 -119.5t-226.5 -35.5q-152 0 -239 67t-87 186zM281 246q0 -41 33.5 -70t84.5 -29q117 0 205 95q53 55 90 166q-106 0 -174 -9q-115 -12 -177 -52t-62 -101zM1038 573h410 q14 68 14 109q0 59 -42 98t-107 39q-109 0 -193 -96q-35 -46 -82 -150z" />
<glyph unicode="&#xe7;" horiz-adv-x="1093" d="M61 305q0 119 55.5 254t141.5 232q168 180 420 180q217 0 321 -101q70 -63 70 -174q0 -29 -14 -92h-277q14 59 15 84q0 53 -40 90t-98 37q-129 0 -225 -188q-100 -190 -100 -326q0 -78 43 -126t114 -48q135 0 209 180h287q-39 -96 -77 -147t-97 -94q-141 -100 -346 -101 q-219 0 -318 115q-84 100 -84 225zM117 -416l258 314h166l-181 -314h-243z" />
<glyph unicode="&#xe8;" horiz-adv-x="1126" d="M63 313q0 119 49.5 250t127.5 219q158 180 436 181q182 0 286.5 -80t104.5 -221q0 -88 -51 -254h-680q-16 -59 -17 -123q0 -74 44.5 -118t117.5 -44q141 0 215 168h291q-49 -113 -104 -168q-137 -143 -400 -143q-217 0 -317 92q-103 89 -103 241zM381 573h407 q12 66 13 101q0 66 -40 105.5t-104 39.5q-106 0 -192 -92q-27 -31 -84 -154zM446 1372h259l118 -301h-178z" />
<glyph unicode="&#xe9;" horiz-adv-x="1128" d="M63 313q0 119 49.5 250t127.5 219q158 180 436 181q182 0 286.5 -80t104.5 -221q0 -88 -51 -254h-680q-16 -59 -17 -123q0 -74 44.5 -118t117.5 -44q141 0 215 168h291q-49 -113 -104 -168q-137 -143 -400 -143q-217 0 -317 92q-103 89 -103 241zM381 573h407 q12 66 13 101q0 66 -40 105.5t-104 39.5q-106 0 -192 -92q-27 -31 -84 -154zM590 1071l248 301h290l-337 -301h-201z" />
<glyph unicode="&#xea;" horiz-adv-x="1126" d="M63 313q0 119 49.5 250t127.5 219q158 180 436 181q182 0 286.5 -80t104.5 -221q0 -88 -51 -254h-680q-16 -59 -17 -123q0 -74 44.5 -118t117.5 -44q141 0 215 168h291q-49 -113 -104 -168q-137 -143 -400 -143q-217 0 -317 92q-103 89 -103 241zM365 1071l309 301h297 l159 -301h-225l-106 158l-181 -158h-253zM381 573h407q12 66 13 101q0 66 -40 105.5t-104 39.5q-106 0 -192 -92q-27 -31 -84 -154z" />
<glyph unicode="&#xeb;" horiz-adv-x="1126" d="M63 313q0 119 49.5 250t127.5 219q158 180 436 181q182 0 286.5 -80t104.5 -221q0 -88 -51 -254h-680q-16 -59 -17 -123q0 -74 44.5 -118t117.5 -44q141 0 215 168h291q-49 -113 -104 -168q-137 -143 -400 -143q-217 0 -317 92q-103 89 -103 241zM381 573h407 q12 66 13 101q0 66 -40 105.5t-104 39.5q-106 0 -192 -92q-27 -31 -84 -154zM406 1110l65 215h225l-65 -215h-225zM848 1110l67 215h224l-66 -215h-225z" />
<glyph unicode="&#xec;" horiz-adv-x="548" d="M-6 0l289 942h276l-289 -942h-276zM170 1372h258l107 -301h-179z" />
<glyph unicode="&#xed;" horiz-adv-x="548" d="M-6 0l289 942h276l-289 -942h-276zM371 1071l233 301h291l-324 -301h-200z" />
<glyph unicode="&#xee;" horiz-adv-x="548" d="M-6 0l289 942h276l-289 -942h-276zM121 1071l272 301h289l123 -301h-217l-74 158l-147 -158h-246z" />
<glyph unicode="&#xef;" horiz-adv-x="548" d="M-6 0l289 942h276l-289 -942h-276zM182 1110l66 215h225l-65 -215h-226zM549 1110l65 215h226l-66 -215h-225z" />
<glyph unicode="&#xf0;" horiz-adv-x="1144" d="M72 328q0 150 57 287t154 216q150 125 327 125q82 0 160 -26q-37 96 -106 198l-207 -98l-56 125l170 78q-33 37 -73 72l98 88q72 -41 127 -88l223 102l60 -121l-168 -78q80 -90 116 -149q121 -188 121 -434q0 -258 -137 -435q-162 -211 -477 -210q-186 0 -287.5 91 t-101.5 257zM338 324q0 -84 44 -130.5t124 -46.5q143 0 229 162q33 61 54.5 145.5t21.5 145.5q0 94 -45 144.5t-127 50.5q-139 0 -221 -160q-80 -155 -80 -311z" />
<glyph unicode="&#xf1;" horiz-adv-x="1198" d="M-6 0l221 721q33 104 49 221h264l-36 -178q96 94 157 131q113 68 234 68q104 0 178 -68t74 -162q0 -57 -21 -121l-188 -612h-277l170 557q18 61 19 90q0 57 -31 92t-82 35t-108.5 -27.5t-96.5 -72.5q-66 -70 -127 -273l-123 -401h-276zM453 1116q27 106 82 162 q80 80 182 80q78 0 168 -66q57 -45 98 -45q55 0 88 72h154q-29 -109 -97.5 -170.5t-160.5 -61.5q-76 0 -160 56q-76 47 -117 47q-63 0 -92 -74h-145z" />
<glyph unicode="&#xf2;" horiz-adv-x="1144" d="M72 328q0 147 58 286.5t153 216.5q160 131 391 132q190 0 295.5 -95.5t105.5 -269.5q0 -100 -39 -216t-98 -192q-164 -211 -477 -210q-186 0 -287.5 91t-101.5 257zM338 324q0 -84 44 -130.5t124 -46.5q141 0 227 162q33 61 54.5 145.5t21.5 145.5q0 94 -45 144.5 t-127 50.5q-137 0 -219 -160q-80 -155 -80 -311zM453 1372h258l118 -301h-178z" />
<glyph unicode="&#xf3;" horiz-adv-x="1144" d="M72 328q0 147 58 286.5t153 216.5q160 131 391 132q190 0 295.5 -95.5t105.5 -269.5q0 -100 -39 -216t-98 -192q-164 -211 -477 -210q-186 0 -287.5 91t-101.5 257zM338 324q0 -84 44 -130.5t124 -46.5q141 0 227 162q33 61 54.5 145.5t21.5 145.5q0 94 -45 144.5 t-127 50.5q-137 0 -219 -160q-80 -155 -80 -311zM604 1071l248 301h291l-338 -301h-201z" />
<glyph unicode="&#xf4;" horiz-adv-x="1144" d="M72 328q0 147 58 286.5t153 216.5q160 131 391 132q190 0 295.5 -95.5t105.5 -269.5q0 -100 -39 -216t-98 -192q-164 -211 -477 -210q-186 0 -287.5 91t-101.5 257zM338 324q0 -84 44 -130.5t124 -46.5q141 0 227 162q33 61 54.5 145.5t21.5 145.5q0 94 -45 144.5 t-127 50.5q-137 0 -219 -160q-80 -155 -80 -311zM358 1071l310 301h297l159 -301h-225l-106 158l-181 -158h-254z" />
<glyph unicode="&#xf5;" horiz-adv-x="1144" d="M72 328q0 147 58 286.5t153 216.5q160 131 391 132q190 0 295.5 -95.5t105.5 -269.5q0 -100 -39 -216t-98 -192q-164 -211 -477 -210q-186 0 -287.5 91t-101.5 257zM338 324q0 -84 44 -130.5t124 -46.5q141 0 227 162q33 61 54.5 145.5t21.5 145.5q0 94 -45 144.5 t-127 50.5q-137 0 -219 -160q-80 -155 -80 -311zM410 1116q27 106 82 162q80 80 182 80q78 0 168 -66q57 -45 98 -45q55 0 88 72h154q-29 -109 -97.5 -170.5t-160.5 -61.5q-76 0 -160 56q-76 47 -117 47q-66 0 -92 -74h-145z" />
<glyph unicode="&#xf6;" horiz-adv-x="1144" d="M72 328q0 147 58 286.5t153 216.5q160 131 391 132q190 0 295.5 -95.5t105.5 -269.5q0 -100 -39 -216t-98 -192q-164 -211 -477 -210q-186 0 -287.5 91t-101.5 257zM338 324q0 -84 44 -130.5t124 -46.5q141 0 227 162q33 61 54.5 145.5t21.5 145.5q0 94 -45 144.5 t-127 50.5q-137 0 -219 -160q-80 -155 -80 -311zM408 1110l65 215h225l-65 -215h-225zM850 1110l68 215h223l-66 -215h-225z" />
<glyph unicode="&#xf7;" d="M174 598v205h1051v-205h-1051zM588 231v252h223v-252h-223zM588 922v252h223v-252h-223z" />
<glyph unicode="&#xf8;" horiz-adv-x="1144" d="M59 -53l107 131q-94 100 -94 248q0 150 58 289t153 216q160 131 385 132q121 0 211 -39l118 141l84 -70l-108 -131q102 -92 102 -252q0 -111 -38 -227.5t-99 -194.5q-166 -211 -457 -210q-141 0 -221 34l-121 -143zM338 328q0 -23 4 -43l401 477q-41 33 -104 33 q-160 0 -244 -211q-57 -137 -57 -256zM401 176q49 -29 105 -29q141 0 227 162q76 145 76 305q0 16 -6 52z" />
<glyph unicode="&#xf9;" horiz-adv-x="1193" d="M76 221q0 45 51 213l156 508h276l-160 -524q-27 -84 -26 -144q0 -51 27.5 -78.5t76.5 -27.5q113 0 221 154q68 96 140 333l88 287h276l-192 -625q0 -4 -4.5 -14t-9.5 -27.5t-9 -29.5q-39 -113 -57 -246h-285l45 174q-109 -109 -188.5 -151.5t-173.5 -42.5 q-109 0 -180.5 68.5t-71.5 172.5zM479 1372h258l119 -301h-178z" />
<glyph unicode="&#xfa;" horiz-adv-x="1193" d="M76 221q0 45 51 213l156 508h276l-160 -524q-27 -84 -26 -144q0 -51 27.5 -78.5t76.5 -27.5q113 0 221 154q68 96 140 333l88 287h276l-192 -625q0 -4 -4.5 -14t-9.5 -27.5t-9 -29.5q-39 -113 -57 -246h-285l45 174q-109 -109 -188.5 -151.5t-173.5 -42.5 q-109 0 -180.5 68.5t-71.5 172.5zM686 1071l248 301h291l-338 -301h-201z" />
<glyph unicode="&#xfb;" horiz-adv-x="1193" d="M76 221q0 45 51 213l156 508h276l-160 -524q-27 -84 -26 -144q0 -51 27.5 -78.5t76.5 -27.5q113 0 221 154q68 96 140 333l88 287h276l-192 -625q0 -4 -4.5 -14t-9.5 -27.5t-9 -29.5q-39 -113 -57 -246h-285l45 174q-109 -109 -188.5 -151.5t-173.5 -42.5 q-109 0 -180.5 68.5t-71.5 172.5zM406 1071l309 301h297l159 -301h-225l-106 158l-181 -158h-253z" />
<glyph unicode="&#xfc;" horiz-adv-x="1193" d="M76 221q0 45 51 213l156 508h276l-160 -524q-27 -84 -26 -144q0 -51 27.5 -78.5t76.5 -27.5q113 0 221 154q68 96 140 333l88 287h276l-192 -625q0 -4 -4.5 -14t-9.5 -27.5t-9 -29.5q-39 -113 -57 -246h-285l45 174q-109 -109 -188.5 -151.5t-173.5 -42.5 q-109 0 -180.5 68.5t-71.5 172.5zM461 1110l65 215h226l-66 -215h-225zM903 1110l68 215h223l-66 -215h-225z" />
<glyph unicode="&#xfd;" horiz-adv-x="1052" d="M94 -362l225 352l-208 952h288l82 -721l365 721h278l-438 -754l-94 -163l-96 -162l-121 -225h-281zM551 1071l248 301h291l-338 -301h-201z" />
<glyph unicode="&#xfe;" horiz-adv-x="1177" d="M-117 -362l529 1728h276l-125 -410q-25 -80 -55 -133q133 139 295 140q141 0 226 -88.5t85 -235.5q0 -129 -51 -265t-135 -231q-145 -164 -346 -163q-92 0 -149.5 30.5t-123.5 114.5l-149 -487h-277zM365 328q0 -82 44 -131.5t115 -49.5q123 0 211 138q43 70 77 164 q36 100 36 166q0 77 -43 127q-45 52 -119 53q-147 0 -237 -181q-84 -167 -84 -286z" />
<glyph unicode="&#xff;" horiz-adv-x="1052" d="M94 -362l225 352l-208 952h288l82 -721l365 721h278l-438 -754l-94 -163l-96 -162l-121 -225h-281zM340 1110l66 215h225l-66 -215h-225zM782 1110l68 215h223l-65 -215h-226z" />
<glyph unicode="&#x152;" horiz-adv-x="1937" d="M131 469q0 172 70.5 359.5t187.5 324.5q201 233 533 233q49 0 206 -14q80 -6 144 -6h794l-63 -211h-569l-103 -338h570l-66 -211h-569l-121 -395h635l-64 -211h-774q-74 0 -149 -8q-109 -12 -158 -12q-90 0 -187.5 33.5t-160.5 86.5q-156 131 -156 369zM420 449 q0 -262 291 -263q66 0 145 25l291 952q-131 16 -203 17q-229 0 -375 -226q-61 -96 -105 -243t-44 -262z" />
<glyph unicode="&#x153;" horiz-adv-x="1808" d="M66 334q0 117 44 244t113 202q78 86 195 134.5t252 48.5q113 0 187.5 -28t146.5 -93q82 68 159.5 94.5t196.5 26.5q168 0 280 -76q109 -74 109 -234q0 -92 -51 -245h-680q-16 -68 -17 -109q0 -82 43 -129t119 -47q131 0 217 168h289q-70 -164 -189.5 -237.5t-318.5 -73.5 q-115 0 -189.5 27.5t-144.5 94.5q-145 -123 -364 -122q-178 0 -279 77q-53 41 -85.5 117t-32.5 160zM332 338q0 -90 45 -140.5t125 -50.5q137 0 219 150q37 66 61.5 154t24.5 153q0 88 -46 139.5t-128 51.5q-156 0 -240 -193q-61 -137 -61 -264zM1063 573h407q12 76 13 107 q0 59 -41 99t-105 40q-104 0 -186 -86q-41 -43 -88 -160z" />
<glyph unicode="&#x178;" horiz-adv-x="1265" d="M236 1366h313l149 -610l471 610h344l-708 -872l-150 -494h-303l150 494zM588 1520l65 215h226l-66 -215h-225zM1044 1520l66 215h225l-65 -215h-226z" />
<glyph unicode="&#x2c6;" horiz-adv-x="1024" d="M311 1071l310 301h297l159 -301h-225l-107 158l-180 -158h-254z" />
<glyph unicode="&#x2dc;" horiz-adv-x="1024" d="M356 1116q27 106 82 162q80 80 183 80q78 0 167 -66q57 -45 99 -45q55 0 88 72h153q-29 -109 -97 -170.5t-161 -61.5q-76 0 -159 56q-76 47 -117 47q-66 0 -92 -74h-146z" />
<glyph unicode="&#x2013;" horiz-adv-x="1177" d="M96 406l74 243h950l-76 -243h-948z" />
<glyph unicode="&#x2014;" horiz-adv-x="1583" d="M-18 406l73 243h1585l-75 -243h-1583z" />
<glyph unicode="&#x2018;" horiz-adv-x="524" d="M276 1061l230 305h182l-166 -305h-246z" />
<glyph unicode="&#x2019;" horiz-adv-x="524" d="M291 1061l168 305h243l-227 -305h-184z" />
<glyph unicode="&#x201a;" horiz-adv-x="524" d="M-59 -86l168 305h243l-227 -305h-184z" />
<glyph unicode="&#x201c;" horiz-adv-x="892" d="M276 1061l230 305h182l-166 -305h-246zM645 1061l229 305h183l-166 -305h-246z" />
<glyph unicode="&#x201d;" horiz-adv-x="892" d="M291 1061l168 305h243l-227 -305h-184zM659 1061l168 305h244l-227 -305h-185z" />
<glyph unicode="&#x201e;" horiz-adv-x="892" d="M-59 -86l168 305h245l-229 -305h-184zM309 -86l168 305h246l-229 -305h-185z" />
<glyph unicode="&#x2022;" horiz-adv-x="1366" d="M401 692q0 119 84 202t205 83q113 0 196 -84t83 -199q0 -119 -83 -201.5t-200 -82.5t-201 82.5t-84 199.5z" />
<glyph unicode="&#x2026;" horiz-adv-x="1542" d="M-6 0l67 221h242l-67 -221h-242zM508 0l67 221h242l-69 -221h-240zM1022 0l68 221h239l-67 -221h-240z" />
<glyph unicode="&#x2039;" horiz-adv-x="548" d="M68 465l311 440h176l-285 -454l84 -392h-159z" />
<glyph unicode="&#x203a;" horiz-adv-x="548" d="M2 59l285 455l-86 391h159l129 -405l-311 -441h-176z" />
<glyph unicode="&#x20ac;" horiz-adv-x="1650" d="M119 465l125 172h108q10 43 27 94h-178l125 172h127q76 145 157 238q111 123 260.5 189.5t317.5 66.5q211 0 343 -100.5t132 -258.5q0 -45 -6 -100h-316q10 57 11 90q0 72 -58.5 117t-148.5 45q-223 0 -379 -287h465l-125 -172h-418l-20 -53l-13 -41h381l-125 -172h-293 q-2 -16 -2 -41q0 -115 64.5 -181.5t175.5 -66.5q219 0 328 244h315q-49 -109 -92 -169.5t-111 -117.5q-197 -164 -446 -164q-119 0 -230.5 45t-177.5 121q-115 129 -114 316v8l2 6h-211z" />
<glyph unicode="&#x2122;" horiz-adv-x="1878" d="M254 1233l41 133h698l-41 -133h-233l-197 -645h-192l196 645h-272zM831 588l238 778h262l31 -395q4 -49 4 -90v-19q0 -31 -2 -84q55 119 102 193l258 395h271l-180 -778h-199l180 629l-403 -629h-168l-51 631l-179 -631h-164z" />
<glyph unicode="&#xe000;" horiz-adv-x="940" d="M0 940h940v-940h-940v940z" />
<glyph unicode="&#xfb01;" horiz-adv-x="1257" d="M41 0l238 776h-150l51 166h150l51 172q80 272 395 272q78 0 160 -22l-47 -156q-41 6 -68 6q-76 0 -123 -36q-39 -33 -63 -119l-35 -117h180l-51 -166h-174l-238 -776h-276zM700 0l289 942h277l-289 -942h-277zM1053 1155l65 211h277l-66 -211h-276z" />
<glyph unicode="&#xfb02;" horiz-adv-x="1263" d="M41 0l238 776h-150l51 166h150l51 172q80 272 395 272q78 0 160 -22l-47 -156q-41 6 -68 6q-76 0 -123 -36q-39 -33 -63 -119l-35 -117h180l-51 -166h-174l-238 -776h-276zM709 0l415 1366h277l-416 -1366h-276z" />
<glyph unicode="&#xfb03;" horiz-adv-x="1928" d="M1374 0l289 942h276l-289 -942h-276zM1726 1155l66 211h276l-65 -211h-277zM731 0l238 776h-164l51 166h164l51 172q41 141 139 206.5t264 65.5q84 0 166 -22l-47 -156q-47 6 -76 6q-78 0 -129 -36q-39 -33 -63 -119l-35 -117h195l-52 -166h-188l-238 -776h-276zM41 0 l238 776h-164l51 166h164l51 172q41 141 139 206.5t264 65.5q84 0 166 -22l-47 -156q-47 6 -76 6q-78 0 -129 -36q-39 -33 -63 -119l-35 -117h195l-52 -166h-188l-238 -776h-276z" />
<glyph unicode="&#xfb04;" horiz-adv-x="1928" d="M1374 0l418 1366h276l-418 -1366h-276zM731 0l238 776h-164l51 166h164l51 172q41 141 139 206.5t264 65.5q84 0 166 -22l-47 -156q-47 6 -76 6q-78 0 -129 -36q-39 -33 -63 -119l-35 -117h195l-52 -166h-188l-238 -776h-276zM41 0l238 776h-164l51 166h164l51 172 q41 141 139 206.5t264 65.5q84 0 166 -22l-47 -156q-47 6 -76 6q-78 0 -129 -36q-39 -33 -63 -119l-35 -117h195l-52 -166h-188l-238 -776h-276z" />
</font>
</defs>
</svg>
